<svg xmlns="http://www.w3.org/2000/svg" xmlns:xlink="http://www.w3.org/1999/xlink" enable-background="new 0 0 92 92" viewBox="0 0 92 92"><path fill="#686868" d="M38.5,66.2C38.5,66.2,38.5,66.2,38.5,66.2l3.5-9c0,0,0,0,0,0c0,0,0,0,0,0c0,0,0,0,0,0c0,0,0,0,0,0
			c0,0,0,0,0,0c0,0,0,0,0,0c0,0,0,0,0,0c0,0,0,0,0,0c0,0,0,0,0,0c0,0,0,0,0,0c0,0,0,0,0,0c0,0,0,0,0,0c0,0,0,0,0,0c0,0,0,0,0,0
			c0,0,0,0,0,0c0,0,0,0,0,0c0,0,0,0,0,0l0,0c0,0,0,0,0,0c0,0,0,0,0,0c0,0,0,0,0,0c0,0,0,0,0-0.1c0,0,0,0,0,0c0,0,0,0,0,0
			c0,0,0,0,0-0.1c0,0,0,0,0-0.1c0,0,0,0,0,0c0,0,0,0,0,0c0,0,0,0,0,0c0,0,0,0,0,0c0,0,0,0,0,0c0,0,0,0,0,0c0,0,0,0,0,0c0,0,0,0,0,0
			c0,0,0,0,0,0c0,0,0,0,0,0c0,0,0,0,0,0c0,0,0,0,0,0c0,0,0,0,0,0c0,0,0,0,0,0c0,0,0,0,0,0c0,0,0,0,0,0c0,0,0,0,0,0c0,0,0,0,0,0
			c0,0,0,0,0,0c0,0,0,0,0,0c0,0,0,0,0,0c0,0,0,0,0,0c0,0,0,0,0,0c0,0,0,0,0,0c0,0,0,0,0,0c0,0,0,0,0,0c0,0,0,0,0,0c0,0,0,0,0,0
			c0,0,0,0,0,0c0,0,0,0,0,0c0,0,0,0,0,0c0,0,0,0,0,0c0,0,0,0,0,0c0,0,0,0,0,0c0,0,0,0,0,0c0,0,0,0,0,0c0,0,0,0,0,0l0,0c0,0,0,0,0,0
			c0,0,0,0,0,0c0,0,0,0,0,0l-0.5,0.1c0,0,0.1,0,0.1,0c0,0,0,0,0,0c0,0,0.1,0,0.1,0c0,0,0,0,0,0c0,0,0.1,0,0.1,0.1c0,0,0,0,0,0
			c0,0,0.1,0.1,0.1,0.1c0,0,0,0.1,0.1,0.1c0,0,0,0,0,0c0,0,0,0.1,0.1,0.1c0,0,0,0,0,0c0,0,0,0.1,0,0.1c0,0,0,0,0,0c0,0,0,0.1,0,0.1
			c0,0,0,0,0,0c0,0,0,0.1,0,0.1c0,0,0,0,0,0c0,0,0,0.1,0,0.1c0,0,0,0,0,0c0,0,0,0.1,0,0.1c0,0,0,0,0,0c0,0,0,0.1,0,0.1L38,66.2
			c0,0.1-0.1,0.2-0.1,0.2c0,0,0,0,0,0c0,0.1-0.1,0.1-0.1,0.2c0,0,0,0,0,0c0,0-0.1,0.1-0.1,0.1c0,0,0,0,0,0c-0.1,0-0.1,0-0.2,0l0,0
			l0,0l0,0l0.5-0.1c0.1,0,0.1,0,0.2,0c0,0,0,0,0,0c0,0,0,0,0,0c0,0,0,0,0.1-0.1c0,0,0,0,0,0c0,0,0,0,0,0c0,0,0,0,0,0c0,0,0,0,0,0
			c0,0,0,0,0,0c0,0,0,0,0,0c0,0,0,0,0,0c0,0,0,0,0,0c0,0,0,0,0,0c0,0,0,0,0,0C38.4,66.3,38.4,66.3,38.5,66.2
			C38.5,66.3,38.5,66.3,38.5,66.2C38.5,66.3,38.5,66.2,38.5,66.2z"/><path fill="#151515" d="M38,66.2c-0.3,0.7-0.9,0.8-1.3,0.2c-0.4-0.6-0.5-1.6-0.2-2.2l4.2-7.9c0.1-0.3,0.4-0.3,0.6,0
				c0.2,0.3,0.2,0.7,0.1,1L38,66.2z M36.9,66c0.3,0.3,0.6,0.3,0.8-0.1c0.2-0.4,0.1-1-0.1-1.3c-0.3-0.4-0.6-0.3-0.8,0.1
				C36.6,65,36.6,65.6,36.9,66"/><path fill="#898989" d="M37.5,64.6c0.3,0.3,0.3,0.9,0.1,1.3c-0.2,0.4-0.5,0.4-0.8,0.1c-0.3-0.4-0.3-0.9-0.1-1.3
				C36.9,64.2,37.3,64.2,37.5,64.6z"/><g enable-background="new"><polygon fill="#747474" points="49.4 43.2 49.4 44 48.4 43.4 48.4 42.6"/><polygon fill="#747474" points="51 44.1 51 45 50 44.4 50 43.5"/><polygon fill="#AFAFAF" points="48.4 42.6 48.4 43.4 44.1 45.9 44.1 45.1"/><polygon fill="#AFAFAF" points="50 43.5 50 44.4 45.7 46.8 45.7 46"/><polygon fill="#929393" points="46.7 47.3 46.7 48.1 42.9 45.9 42.9 45.1"/><polygon fill="#AFAFAF" points="52.2 44.1 52.2 45 46.7 48.1 46.7 47.3"/><path fill="#D8D8D8" d="M48.4,41.9l3.8,2.2l-5.5,3.2l-3.8-2.2L48.4,41.9z M45.1,45.7l4.2-2.5l-1-0.6l-4.2,2.5L45.1,45.7
					 M46.7,46.6l4.2-2.5l-1-0.6L45.7,46L46.7,46.6"/></g><g enable-background="new"><path fill="#686868" d="M46.2,47.5C46.2,47.5,46.2,47.5,46.2,47.5c0-0.1,0-0.1,0-0.1c0,0,0,0,0,0c0,0,0,0,0,0c0,0,0,0,0,0
				c0,0,0,0,0-0.1c0,0,0,0,0-0.1c0,0,0,0,0-0.1c0,0,0,0,0-0.1c0,0,0,0,0,0c0,0,0,0,0,0c0,0,0,0,0,0c0,0,0,0,0-0.1c0,0,0,0,0-0.1
				c0,0,0,0,0-0.1c0,0,0,0,0-0.1c0,0,0,0,0,0c0,0,0,0,0,0c0,0,0,0,0,0c0,0,0,0,0-0.1c0,0,0,0,0-0.1c0,0,0,0,0-0.1c0,0,0-0.1,0-0.1
				c0,0,0,0,0,0c0,0,0,0,0,0c0,0,0,0,0-0.1c0-0.1,0-0.1,0-0.2c0,0,0,0,0-0.1c0,0,0,0,0,0c0,0,0,0,0,0c0,0,0-0.1,0-0.1c0,0,0,0,0-0.1
				c0,0,0,0,0-0.1c0,0,0,0,0,0c0,0,0,0,0,0c0,0,0,0,0,0c0,0,0,0,0-0.1c0,0,0,0,0-0.1c0,0,0,0,0-0.1c0,0,0,0,0-0.1c0,0,0,0,0,0
				c0,0,0,0,0,0c0,0,0,0,0,0c0,0,0,0,0-0.1c0,0,0,0,0-0.1c0,0,0,0,0,0c0,0,0,0,0,0c0,0,0,0,0,0c0,0,0,0,0,0c0,0,0,0,0,0c0,0,0,0,0,0
				c0,0,0,0,0,0c0,0,0,0,0,0c0,0,0,0,0,0c0,0,0,0,0,0c0,0,0,0,0,0c0,0,0,0,0,0c0,0,0,0,0,0c0,0,0,0,0,0c0,0,0,0,0,0c0,0,0,0,0,0
				c0,0,0,0,0,0c0,0,0,0-0.1,0c0,0,0,0-0.1,0c0,0,0,0-0.1,0c0,0,0,0,0,0c0,0,0,0,0,0c0,0-0.1,0-0.1,0c0,0-0.1,0-0.1,0L44.4,45
				c0.1,0,0.1,0,0.2,0c0,0,0,0,0,0c0.1,0,0.1,0,0.2,0.1c0,0,0,0,0,0c0.1,0,0.1,0.1,0.2,0.1c0,0,0,0,0,0c0.1,0,0.1,0.1,0.2,0.2
				c0.1,0.1,0.1,0.1,0.2,0.2c0,0,0,0,0,0c0,0,0,0,0,0c0,0,0,0,0,0c0,0,0,0,0,0c0,0,0,0,0,0c0,0,0,0,0,0c0,0,0,0,0,0c0,0,0,0-0.1,0
				c0,0,0,0-0.1,0h0l0,0l-0.6,0.1l0,0c-0.1,0-0.1,0-0.1,0.1c0,0,0,0,0,0c0,0,0,0,0,0c0,0,0,0,0,0c0,0,0,0,0,0c0,0,0,0,0,0
				c0,0,0,0,0,0c0,0,0,0,0,0c0,0,0,0,0,0c0,0,0,0,0,0c0,0,0,0,0,0c0,0,0,0,0,0c0,0,0,0,0,0c0,0,0,0,0,0c0,0,0,0,0,0c0,0,0,0,0,0
				c0,0,0,0,0,0c0,0,0,0,0,0c0,0,0,0,0,0c0,0,0,0,0,0c0,0,0,0,0,0l0,0l0,0c0,0,0,0,0,0c0,0,0,0,0,0c0,0,0,0,0,0c0,0,0,0,0,0
				c0,0,0,0,0,0c0,0,0,0,0,0c0,0,0,0,0,0c0,0,0,0,0,0c0,0,0,0,0,0c0,0,0,0,0,0c0,0,0,0,0,0c0,0,0,0,0,0c0,0,0,0,0,0c0,0,0,0,0,0
				c0,0,0,0,0,0c0,0,0,0,0,0c0,0,0,0,0,0c0,0,0,0,0,0.1c0,0,0,0,0,0c0,0,0,0,0,0c0,0,0,0.1,0,0.1c0,0,0,0.1,0,0.1l0,0c0,0,0,0,0,0
				c0,0,0,0,0,0.1c0,0,0,0,0,0c0,0,0,0,0,0c0,0,0,0,0,0c0,0,0,0,0,0c0,0,0,0,0,0c0,0,0,0,0,0c0,0,0,0,0,0c0,0,0,0,0,0c0,0,0,0,0,0
				c0,0,0,0,0,0c0,0,0,0,0,0c0,0,0,0,0,0c0,0,0,0,0,0c0,0,0,0,0,0c0,0,0,0,0,0c0,0,0,0,0,0c0,0,0,0,0,0c0,0,0,0,0,0c0,0,0,0,0,0
				c0,0,0,0,0,0c0,0,0,0,0,0c0,0,0,0,0,0c0,0,0,0,0,0c0,0,0,0,0,0c0,0,0,0,0,0c0,0,0,0,0,0c0,0,0,0,0,0c0,0,0,0,0,0c0,0,0,0,0,0
				c0,0,0,0,0,0c0,0,0,0,0,0c0,0,0,0,0,0c0,0,0,0,0,0c0,0,0,0,0,0l0,0c0,0,0,0,0,0c0,0,0,0,0.1,0c0,0,0,0,0.1,0l0.6-0.1
				c0.1,0,0.1,0,0.1-0.1c0,0,0,0,0,0c0,0.1,0,0.2-0.1,0.2l-3.7,9c0,0,0,0.1-0.1,0.1c0,0,0,0,0,0c0,0,0,0.1-0.1,0.1c0,0,0,0,0,0
				c0,0,0,0,0,0c0,0-0.1,0-0.1,0.1l0.6-0.1c0,0,0.1,0,0.1-0.1c0,0,0,0,0,0c0,0,0,0,0,0c0,0,0,0,0,0c0,0,0,0,0,0c0,0,0,0,0,0
				c0,0,0,0,0,0c0,0,0,0,0,0c0,0,0,0,0,0c0,0,0,0,0,0c0,0,0,0,0,0c0,0,0,0,0,0c0,0,0,0,0,0c0,0,0,0,0,0l3.7-9c0,0,0,0,0,0
				C46.2,47.6,46.2,47.6,46.2,47.5C46.2,47.5,46.2,47.5,46.2,47.5z M44.9,47.2C44.9,47.2,44.9,47.2,44.9,47.2c0-0.1-0.1-0.1-0.1-0.2
				c0,0,0,0,0,0c0-0.1-0.1-0.1-0.1-0.2c0,0,0,0,0,0c0-0.1,0-0.1,0-0.2c0,0,0,0,0,0c0-0.1,0-0.1,0-0.2c0,0,0,0,0,0c0-0.1,0-0.1,0-0.2
				c0,0,0,0,0,0c0-0.1,0-0.2,0.1-0.4c0-0.1,0-0.1,0.1-0.1c0,0,0,0,0,0c0,0,0,0,0,0c0,0,0,0,0,0c0,0,0,0,0,0c0,0,0.1,0.1,0.1,0.1
				c0,0,0.1,0.1,0.1,0.1c0,0,0,0,0,0c0,0.1,0.1,0.1,0.1,0.2c0,0,0,0,0,0c0,0.1,0,0.1,0.1,0.2c0,0,0,0,0,0c0,0.1,0,0.1,0,0.2
				c0,0,0,0,0,0c0,0.1,0,0.1,0,0.2c0,0,0,0,0,0c0,0.1,0,0.1,0,0.2c0,0,0,0,0,0c0,0.1,0,0.1,0,0.2l0,0c0,0.1,0,0.1,0,0.2
				c0,0.1,0,0.1-0.1,0.1c0,0,0,0,0,0c0,0,0,0,0,0c0,0,0,0,0,0c0,0,0,0,0,0c0,0-0.1-0.1-0.1-0.1C45,47.3,44.9,47.3,44.9,47.2z"/><path fill="#FFF" d="M45,45.9c0.3,0.4,0.4,1,0.3,1.4c-0.1,0.4-0.5,0.5-0.8,0.2c-0.3-0.4-0.4-1-0.3-1.4
					C44.3,45.6,44.6,45.6,45,45.9z"/><path fill="#282828" d="M45.1,45.4c0.5,0.6,0.7,1.7,0.4,2.4l-3.7,9c-0.1,0.3-0.4,0.4-0.6,0.1c-0.2-0.3-0.3-0.7-0.2-1.1l2.8-10
					C44,44.9,44.6,44.8,45.1,45.4z M44.4,47.5c0.3,0.4,0.7,0.3,0.8-0.2c0.1-0.4,0-1.1-0.3-1.4c-0.3-0.4-0.7-0.3-0.8,0.2
					C44,46.5,44.1,47.2,44.4,47.5"/></g><path fill="#BC2B3A" d="M20,36.5c1.4,0.8,2.6,2.8,2.6,4.5c0,1.7-1.2,2.3-2.6,1.5c-1.4-0.8-2.6-2.8-2.6-4.5
			C17.4,36.3,18.6,35.7,20,36.5z"/><g enable-background="new"><defs><path id="a" d="M44,55.5l-1.7,1c0,0,0,0,0,0L44,55.5C44,55.5,44,55.5,44,55.5z" enable-background="new"/></defs><clipPath id="b"><use overflow="visible" xlink:href="#a"/></clipPath><g clip-path="url(#b)" enable-background="new"><path fill="#732428" d="M42.3,56.5l1.7-1c0,0,0,0,0,0L42.3,56.5C42.3,56.5,42.3,56.5,42.3,56.5"/></g></g><polygon fill="#BC2B3A" points="41.9 53.6 40.8 54.3 19.5 40.4 33.3 23.7 35.1 22.7 21.2 39.4"/><polygon fill="#BC2B3A" points="34.6 23.9 36.4 22.9 43.6 52.6 41.9 53.6"/><polygon fill="#DD454D" points="34.6 23.9 36.4 22.9 42.2 46.6 40.4 47.6"/><polygon fill="#9B3036" points="32.3 19.5 34 18.5 35.4 18.8 33.6 19.8"/><polygon fill="#C73E45" points="33.6 19.8 35.4 18.8 35.8 20.6 34.1 21.6"/><g enable-background="new"><defs><path id="c" d="M31.9,10.9c0.5,0.2,1.2,0.4,2,0.5c-0.6,0.3-1.2,0.7-1.7,1
				c-0.8-0.1-1.5-0.3-2-0.5C30.7,11.6,31.3,11.2,31.9,10.9z" enable-background="new"/></defs><clipPath id="d"><use overflow="visible" xlink:href="#c"/></clipPath><g clip-path="url(#d)" enable-background="new"><path fill="#191617" d="M30.1,11.9l1.7-1c0,0,0.1,0,0.1,0l-1.7,1C30.2,11.9,30.2,11.9,30.1,11.9"/><path fill="#191616" d="M30.3,12l1.7-1c0.1,0,0.2,0.1,0.3,0.1l-1.7,1C30.5,12,30.4,12,30.3,12"/><path fill="#181516" d="M30.6,12.1l1.7-1c0.1,0,0.2,0.1,0.4,0.1l-1.7,1C30.8,12.1,30.7,12.1,30.6,12.1"/><path fill="#171415" d="M30.9,12.2l1.7-1c0.2,0,0.3,0.1,0.5,0.1l-1.7,1C31.3,12.2,31.1,12.2,30.9,12.2"/><path fill="#161414" d="M31.5,12.3l1.7-1c0.2,0,0.4,0.1,0.7,0.1l-1.7,1C31.9,12.4,31.7,12.3,31.5,12.3"/></g></g><polyline fill="#BC2B3A" points="44.2 56.4 42.3 56.5 63.4 40.5 65.3 40.5"/><polygon fill="#201D1E" points="63.4 40.5 65.1 39.5 65.2 39.5 63.4 40.5"/><polygon fill="#DD454D" points="34.1 21.6 35.8 20.6 64 35.9 62.3 36.9"/><polygon fill="#211D1E" points="61.7 34.9 63.4 33.9 64 35.9 62.3 36.9"/><path fill="#282828" d="M32.1,12.4l1.8,7.4l-0.3-0.1l-1.3-0.3L32,19.4l-1.8-7.5C30.7,12.1,31.3,12.3,32.1,12.4z"/><g enable-background="new"><defs><path id="e" d="M33.9,11.4C33.9,11.4,33.9,11.4,33.9,11.4l-1.7,1c0,0,0,0,0,0
				c0.3-0.2,0.6-0.3,0.9-0.5c0,0,0.1,0,0.1-0.1c0.2-0.1,0.4-0.2,0.5-0.3C33.7,11.5,33.8,11.4,33.9,11.4z" enable-background="new"/></defs><clipPath id="f"><use overflow="visible" xlink:href="#e"/></clipPath><g clip-path="url(#f)" enable-background="new"><path fill="#161414" d="M31.5,12.3l1.7-1c0.2,0,0.4,0.1,0.7,0.1l-1.7,1C31.9,12.4,31.7,12.3,31.5,12.3"/></g></g><polygon fill="#686868" points="32.1 12.4 33.9 11.4 35.7 18.8 34 19.8"/><path fill="#686868" d="M39.9,10.4C39.9,10.4,39.9,10.4,39.9,10.4l-8-9.3c0,0,0,0,0,0c0,0,0,0,0,0c0,0,0,0,0,0c0,0,0,0,0,0
		c0,0,0,0,0,0c0,0,0,0,0,0l0,0c0,0,0,0,0,0c0,0,0,0,0,0c0,0,0,0,0,0c0,0,0,0,0,0c0,0,0,0,0,0c0,0,0,0,0,0c0,0,0,0,0,0c0,0,0,0,0,0
		c0,0,0,0,0,0c0,0,0,0,0,0c0,0,0,0,0,0c0,0,0,0,0,0c0,0,0,0-0.1,0c0,0,0,0-0.1,0l-8,4.6c0,0,0.1,0,0.1,0l0,0c0,0,0.1,0,0.1,0
		c0,0,0,0,0,0c0,0,0.1,0,0.1,0c0,0,0,0,0,0c0.1,0,0.1,0,0.2,0.1l13.5,6c0.3,0.2,1.2,1.5,0.6,1.9l0,0h0l2.5-1.3
		C40.6,12.2,40.3,10.7,39.9,10.4z"/><path fill="#3D3D3D" d="M37.4,11.8c1.1,0.6,1,2.4,0,1.8c-1.3-0.7-5.6-1.3-8-1.7c-0.8-0.1-1.5-0.3-2-0.5c-0.3-0.1-0.5-0.2-0.7-0.3
			c-1-0.6-1.6-1.5-2.7-2.7c-1.2-1.3-1-2.2-0.7-2.6c0.1-0.2,0.4-0.2,0.7-0.1L37.4,11.8z"/><rect width="0" height=".1" x="63.4" y="40.5" fill="#131111"/><polygon fill="#8F2D32" points="61.7 34.9 63.4 33.9 65.3 34.1 63.6 35.1"/><polygon fill="#606060" points="63.6 35.1 61.7 34.9 61.7 34.9 59.1 25.7 61 25.9"/><polygon fill="#686868" points="61 25.9 62.7 24.9 65.3 34.1 63.6 35.1"/><polygon fill="#282828" points="18.4 41.1 42.5 61.9 42.5 62.6 18.2 41.8"/><polygon fill="#282828" points="18.9 37.1 43.3 51.2 43.3 51.9 18.9 37.8"/><g enable-background="new"><defs><path id="g" d="M74.6,85.2c3.8,2.2,7.2,2.4,9.7,1L82.9,87c-2.5,1.4-5.9,1.2-9.7-1
				C73.6,85.8,74.2,85.4,74.6,85.2z" enable-background="new"/></defs><clipPath id="h"><use overflow="visible" xlink:href="#g"/></clipPath><g clip-path="url(#h)" enable-background="new"><path fill="#3F3E3E" d="M73.2,86l1.4-0.8c0.1,0.1,0.3,0.2,0.4,0.2l-1.4,0.8C73.5,86.2,73.3,86.1,73.2,86"/><path fill="#3E3C3C" d="M73.6,86.3l1.4-0.8c0.2,0.1,0.4,0.2,0.6,0.3l-1.4,0.8C74,86.5,73.8,86.4,73.6,86.3"/><path fill="#3C3B3B" d="M74.2,86.5l1.4-0.8c0.2,0.1,0.4,0.2,0.6,0.3l-1.4,0.8C74.6,86.7,74.4,86.6,74.2,86.5"/><path fill="#3A3939" d="M74.7,86.8l1.4-0.8c0.2,0.1,0.4,0.2,0.5,0.2L75.3,87C75.1,87,74.9,86.9,74.7,86.8"/><path fill="#393737" d="M75.3,87l1.4-0.8c0.2,0.1,0.4,0.1,0.6,0.2l-1.4,0.8C75.7,87.2,75.5,87.1,75.3,87"/><path fill="#373636" d="M75.8,87.2l1.4-0.8c0.2,0.1,0.4,0.1,0.5,0.2l-1.4,0.8C76.2,87.4,76,87.3,75.8,87.2"/><path fill="#363434" d="M76.4,87.4l1.4-0.8c0.2,0.1,0.4,0.1,0.6,0.2l-1.4,0.8C76.8,87.5,76.6,87.5,76.4,87.4"/><path fill="#343333" d="M76.9,87.6l1.4-0.8c0.2,0,0.4,0.1,0.6,0.1l-1.4,0.8C77.3,87.7,77.1,87.6,76.9,87.6"/><path fill="#333131" d="M77.5,87.7l1.4-0.8c0.2,0,0.4,0.1,0.6,0.1l-1.4,0.8C77.9,87.8,77.7,87.7,77.5,87.7"/><path fill="#313030" d="M78.1,87.8l1.4-0.8c0.2,0,0.4,0,0.6,0.1l-1.4,0.8C78.5,87.9,78.3,87.8,78.1,87.8"/><path fill="#2F2E2E" d="M78.7,87.9l1.4-0.8c0.2,0,0.4,0,0.6,0l-1.4,0.8C79.1,87.9,78.9,87.9,78.7,87.9"/><path fill="#2E2D2D" d="M79.4,87.9l1.4-0.8c0.2,0,0.5,0,0.7,0l-1.4,0.8C79.8,87.9,79.6,87.9,79.4,87.9"/><path fill="#2C2B2B" d="M80.1,87.9l1.4-0.8c0.3,0,0.5-0.1,0.8-0.1l-1.4,0.8C80.6,87.8,80.3,87.8,80.1,87.9"/><path fill="#2B2A2A" d="M80.9,87.7l1.4-0.8c0.3-0.1,0.6-0.2,1-0.3l-1.4,0.8C81.5,87.6,81.2,87.7,80.9,87.7"/><path fill="#292828" d="M81.8,87.5l1.4-0.8c0.4-0.1,0.8-0.3,1.1-0.5L82.9,87C82.6,87.2,82.2,87.3,81.8,87.5"/></g></g><g enable-background="new"><defs><path id="i" d="M63.6,53.6l1.4-0.8c2.5-1.4,5.9-1.2,9.7,1l-1.4,0.8
				C69.5,52.4,66,52.2,63.6,53.6z" enable-background="new"/></defs><clipPath id="j"><use overflow="visible" xlink:href="#i"/></clipPath><g clip-path="url(#j)" enable-background="new"><path fill="#707070" d="M63.6,53.6l1.4-0.8c0.4-0.2,0.7-0.4,1.1-0.5l-1.4,0.8C64.3,53.3,63.9,53.4,63.6,53.6"/><path fill="#757575" d="M64.7,53.1l1.4-0.8c0.3-0.1,0.6-0.2,1-0.3l-1.4,0.8C65.3,52.9,65,53,64.7,53.1"/><path fill="#797979" d="M65.6,52.9l1.4-0.8c0.3-0.1,0.5-0.1,0.8-0.1l-1.4,0.8C66.1,52.8,65.9,52.8,65.6,52.9"/><path fill="#7D7D7D" d="M66.4,52.8l1.4-0.8c0.2,0,0.5,0,0.7,0l-1.4,0.8C66.9,52.7,66.6,52.7,66.4,52.8"/><path fill="#828282" d="M67.1,52.7l1.4-0.8c0.2,0,0.4,0,0.6,0l-1.4,0.8C67.5,52.7,67.3,52.7,67.1,52.7"/><path fill="#868686" d="M67.8,52.7l1.4-0.8c0.2,0,0.4,0,0.6,0.1l-1.4,0.8C68.2,52.8,68,52.8,67.8,52.7"/><path fill="#8A8A8A" d="M68.4,52.8l1.4-0.8c0.2,0,0.4,0.1,0.6,0.1L69,52.9C68.8,52.9,68.6,52.8,68.4,52.8"/><path fill="#8F8F8F" d="M69,52.9l1.4-0.8c0.2,0,0.4,0.1,0.6,0.1L69.5,53C69.3,53,69.1,52.9,69,52.9"/><path fill="#939393" d="M69.5,53l1.4-0.8c0.2,0,0.4,0.1,0.6,0.2l-1.4,0.8C69.9,53.1,69.7,53.1,69.5,53"/><path fill="#979797" d="M70.1,53.2l1.4-0.8c0.2,0.1,0.4,0.1,0.5,0.2l-1.4,0.8C70.4,53.3,70.3,53.2,70.1,53.2"/><path fill="#9C9C9C" d="M70.6,53.4l1.4-0.8c0.2,0.1,0.4,0.1,0.6,0.2l-1.4,0.8C71,53.5,70.8,53.4,70.6,53.4"/><path fill="#A0A0A0" d="M71.2,53.6l1.4-0.8c0.2,0.1,0.4,0.1,0.5,0.2l-1.4,0.8C71.5,53.7,71.4,53.6,71.2,53.6"/><path fill="#A4A4A4" d="M71.7,53.8l1.4-0.8c0.2,0.1,0.4,0.2,0.6,0.3l-1.4,0.8C72.1,54,71.9,53.9,71.7,53.8"/><path fill="#A8A8A8" d="M72.3,54.1l1.4-0.8c0.2,0.1,0.4,0.2,0.6,0.3l-1.4,0.8C72.7,54.2,72.5,54.2,72.3,54.1"/><path fill="#ADADAD" d="M72.8,54.4l1.4-0.8c0.1,0.1,0.3,0.2,0.4,0.2l-1.4,0.8C73.1,54.5,73,54.4,72.8,54.4"/></g></g><g enable-background="new"><path fill="#686868" d="M41 59.7c-.1-.1-.2-.2-.3-.3 0 0 0 0 0 0-.1-.1-.2-.2-.3-.3 0 0 0 0 0 0-.1-.1-.2-.2-.3-.3 0 0 0 0 0 0-.1-.1-.2-.2-.2-.3 0 0-.1-.1-.1-.1 0-.1-.1-.1-.1-.2-.1-.2-.2-.3-.3-.5-.1-.1-.1-.3-.2-.4 0 0 0 0 0 0 0 0 0 0 0 0l-.6.4c0 0 0 0 0 0l0 0c0 0 0 0 0 0 0 0 0 0 0 0 .1.1.1.2.2.3 0 0 0 0 0 0 .1.2.2.3.3.5 0 0 0 0 0 .1 0 0 .1.1.1.1 0 0 .1.1.1.1 0 0 0 0 0 0 .1.1.1.1.2.2 0 0 0 0 0 0 0 0 0 0 0 0 0 0 .1.1.1.1.1.1.1.1.2.2 0 0 0 0 0 0 0 0 0 0 0 0 0 0 .1.1.1.1.1.1.1.1.2.2 0 0 0 0 0 0 0 0 0 0 0 0 0 0 .1.1.1.1 0 0 .1.1.1.1 0 0 0 0 0 0 0 0 0 0 0 0 .1.1.1.1.2.2 0 0 .1.1.1.1 0 0 0 0 0 0l.6-.4C41.2 59.9 41.1 59.8 41 59.7 41 59.7 41 59.7 41 59.7zM38.3 55.7C38.3 55.7 38.4 55.7 38.3 55.7c.1 0 .2 0 .3 0 0 0 0 0 .1 0 0 0 0 0 .1 0 .1 0 .1 0 .2 0 .1 0 .1 0 .2 0 .1 0 .1 0 .2 0 0 0 .1 0 .1 0 0 0 0 0 .1 0 .2 0 .3 0 .5-.1l.6-.4c-.2 0-.4 0-.5.1-.1 0-.1 0-.2 0-.1 0-.1 0-.2 0-.1 0-.1 0-.2 0-.1 0-.1 0-.2 0 0 0-.1 0-.1 0-.1 0-.2 0-.3 0 0 0-.1 0-.1 0 0 0-.1 0-.1 0 0 0-.1 0-.1 0 0 0 0 0-.1 0 0 0-.1 0-.1 0 0 0 0 0 0 0-.1 0-.1 0-.1 0 0-.1-.1-.3-.1-.4 0 0 0 0 0 0 0-.1 0-.3-.1-.4 0 0 0 0 0 0 0-.1 0-.3 0-.4 0 0 0 0 0 0 0-.1 0-.3 0-.4 0-.1 0-.2 0-.4 0 0 0 0 0 0 0-.1 0-.2 0-.3 0 0 0 0 0 0 0-.1 0-.2.1-.3 0 0 0 0 0-.1 0-.1.1-.2.1-.3l-.6.4c0 .1 0 .1-.1.2 0 0 0 .1 0 .1 0 0 0 0 0 .1 0 0 0 0 0 .1 0 .1 0 .1 0 .2 0 0 0 0 0 0 0 0 0 0 0 0 0 0 0 .1 0 .1 0 .1 0 .1 0 .2 0 0 0 0 0 0 0 0 0 0 0 0 0 .1 0 .1 0 .2 0 .1 0 .1 0 .2 0 0 0 0 0 0 0 .1 0 .1 0 .2 0 .1 0 .1 0 .2 0 0 0 0 0 0 0 0 0 0 0 0 0 .1 0 .1 0 .2 0 .1 0 .1 0 .2 0 0 0 0 0 0 0 0 0 0 0 0 0 0 0 .1 0 .1 0 .1 0 .1 0 .2 0 0 0 0 0 0 0 0 0 0 0 0 0 0 0 .1 0 .1 0 .1 0 .1 0 .2 0 0 0 0 0 0 0 0 0 0 0 0 0 0 .1 0 .1 0 0 0 0 0 0 0 0 0 0 0 0 0 0 0 0 0 0 0 0 0 .1 0 .1 0 0 0 0 0 .1 0 0 0 0 0 0 0 0 0 .1 0 .1 0C38.2 55.7 38.2 55.7 38.3 55.7 38.3 55.7 38.3 55.7 38.3 55.7zM44.6 61c-.1 0-.1 0-.2 0 0 0-.1 0-.1 0 0 0-.1 0-.1 0 0 0-.1 0-.2 0 0 0-.1 0-.1 0-.1 0-.1 0-.2 0 0 0 0 0 0 0-.1 0-.2 0-.2 0 0 0 0 0-.1 0-.1 0-.2 0-.3-.1 0 0 0 0 0 0-.1 0-.2-.1-.3-.1 0-.1 0-.1 0-.2 0 0 0 0 0-.1 0-.1 0-.1 0-.2 0 0 0 0 0-.1 0-.1 0-.2 0-.2 0 0 0 0 0 0 0 0 0-.1 0-.2 0-.1 0-.1 0-.2 0 0 0 0 0-.1 0-.1 0-.3 0-.4 0-.1 0-.3 0-.4 0 0 0 0 0 0 0-.1 0-.3 0-.4 0 0 0-.1 0-.1 0-.2 0-.3 0-.5l-.6.4c0 .2 0 .4 0 .5 0 0 0 .1 0 .1 0 0 0 .1 0 .1 0 .1 0 .2 0 .3 0 0 0 0 0 0 0 .1 0 .2 0 .4 0 0 0 0 0 0 0 .1 0 .3 0 .4 0 0 0 0 0 0 0 0 0 0 0 0 0 .1 0 .1 0 .2 0 0 0 .1 0 .1 0 0 0 0 0 0 0 0 0 0 0 0 0 .1 0 .1 0 .2 0 0 0 0 0 0 0 0 0 0 0 .1 0 0 0 .1 0 .1 0 0 0 0 0 .1 0 0 0 0 0 .1 0 0 0 0 0 0 0 0 0 .1 0 .1 0 0 0 0 0 0 .1 0 .1 0 .2.1 0 0 .1 0 .1 0 0 0 0 0 0 0 0 0 0 0 0 0 .1 0 .1 0 .2 0 0 0 0 0 .1 0 0 0 0 0 .1 0 0 0 0 0 .1 0 .1 0 .1 0 .2 0 0 0 0 0 0 0 0 0 0 0 0 0 0 0 .1 0 .1 0 0 0 0 0 .1 0 0 0 .1 0 .1 0 0 0 0 0 .1 0 0 0 .1 0 .1 0 0 0 .1 0 .1 0 0 0 0 0 0 0 0 0 0 0 .1 0 .1 0 .1 0 .2 0 0 0 0 0 0 0 0 0 0 0 0 0 .1 0 .2-.1.3-.1l.6-.4C44.9 60.9 44.8 60.9 44.6 61 44.7 61 44.6 61 44.6 61zM41.4 54C41.4 54 41.3 54 41.4 54c-.1 0-.1 0-.1 0-.1-.1-.2-.3-.3-.4-.1-.1-.1-.1-.2-.2-.1-.1-.2-.2-.3-.3 0 0-.1-.1-.1-.1-.1-.1-.2-.3-.3-.4 0 0-.1-.1-.1-.1-.1-.1-.1-.2-.2-.2 0 0-.1-.1-.1-.1 0-.1-.1-.1-.1-.2 0 0-.1-.1-.1-.1 0-.1-.1-.1-.1-.1 0-.1-.1-.1-.1-.2 0 0-.1-.1-.1-.1 0 0-.1-.1-.1-.1 0-.1-.1-.1-.1-.2l0 0c.1 0 .1-.1.2-.1l-.6.4c-.1 0-.1.1-.2.1l0 0 0 0c0 0 0 .1.1.1 0 0 0 0 0 .1 0 0 0 .1.1.1 0 0 0 .1.1.1 0 0 .1.1.1.1 0 0 0 .1.1.1 0 0 0 0 0 .1 0 0 .1.1.1.1 0 .1.1.1.1.2 0 0 .1.1.1.1 0 0 0 0 .1.1 0 .1.1.1.1.2 0 0 0 .1.1.1.1.1.2.2.3.4 0 0 0 0 0 0 0 0 .1.1.1.1.1.1.2.2.3.3 0 .1.1.1.2.2.1.1.1.2.2.2 0 0 .1.1.1.1 0 0 0 0 0 0l0 0c.1 0 .2 0 .2 0l.6-.4C41.5 54 41.5 54 41.4 54 41.5 54 41.4 54 41.4 54zM45.8 59.5C45.8 59.5 45.8 59.4 45.8 59.5c-.1-.1-.1-.1-.2-.2 0 0 0 0-.1-.1 0 0-.1-.1-.1-.1 0 0-.1-.1-.1-.1 0 0-.1-.1-.1-.1-.1-.1-.1-.1-.2-.2-.1-.1-.2-.2-.3-.3 0 0 0 0 0-.1-.1-.1-.2-.2-.3-.3 0-.1-.1-.1-.1-.2-.1-.1-.2-.2-.2-.3 0-.1-.1-.1-.1-.2-.1-.2-.3-.3-.4-.5 0 0 0-.1 0-.1 0 0 0 0 0-.1 0 0 0 0 0 0 0 0 0 0 0-.1 0 0 0-.1 0-.1L43 57c0 .1 0 .1 0 .2 0 .1 0 .1 0 .2.1.2.2.3.3.4 0 0 0 0 .1.1 0 .1.1.1.1.2.1.1.2.2.2.3 0 .1.1.1.1.2 0 0 .1.1.1.1.1.1.1.1.2.2 0 0 0 0 0 .1.1.1.2.2.2.3 0 0 0 0 0 0 .1.1.1.1.2.2 0 0 .1.1.1.1 0 0 0 0 0 0 0 0 .1.1.1.1 0 0 .1.1.1.1 0 0 0 0 0 0 0 0 0 0 .1.1 0 0 .1.1.1.1 0 0 0 0 0 0 0 0 0 0 0 0 0 0 0 0 0 0 0 0 .1.1.1.1l.6-.4C45.9 59.6 45.9 59.5 45.8 59.5zM42.1 54.2c0 .1 0 .1 0 .2 0 0 0 .1 0 .1 0 .2 0 .3 0 .5.1.1.2.2.2.3h0l0 0c.1 0 .3 0 .4 0 0 0 .1 0 .1 0 .1 0 .1 0 .2 0 0 0 0 0 .1 0 .1 0 .2 0 .2 0 0 0 .1 0 .1 0 .1 0 .2 0 .2 0 0 0 0 0 .1 0 0 0 0 0 0 0 .1 0 .1 0 .2 0 0 0 0 0 0 0 .1 0 .1 0 .2-.1 0 0 0 0 0 0 0 0 .1 0 .1 0 0 0 0 0 .1 0 0 0 .1 0 .1-.1 0 0 0 0 0 0l.6-.4c0 0-.1 0-.1.1 0 0 0 0-.1 0 0 0-.1 0-.1 0-.1 0-.1 0-.2.1 0 0 0 0 0 0-.1 0-.1 0-.2 0 0 0 0 0-.1 0-.1 0-.2 0-.2 0 0 0-.1 0-.1 0-.1 0-.2 0-.2 0-.1 0-.1 0-.2 0 0 0-.1 0-.1 0-.1 0-.3 0-.4 0 0 0-.1-.1-.1-.1 0 0 0-.1-.1-.1 0 0 0 0-.1-.1 0 0 0 0 0 0 0-.2 0-.4 0-.5 0-.1 0-.1 0-.1 0-.1 0-.2 0-.3 0 0 0-.1 0-.1 0-.1 0-.3 0-.4 0 0 0 0 0 0 0-.1 0-.2 0-.3 0 0 0 0 0-.1 0-.1 0-.1 0-.2 0-.1 0-.1 0-.2 0-.1 0-.1 0-.2 0 0 0-.1 0-.1 0-.1 0-.1 0-.2 0 0 0 0 0 0 0-.1 0-.1 0-.1l-.6.4c0 0 0 0 0 0 0 0 0 .1 0 .1 0 0 0 0 0 0 0 0 0 0 0 0 0 .1 0 .1 0 .2 0 0 0 0 0 0 0 0 0 .1 0 .1 0 0 0 .1 0 .1 0 0 0 0 0 0 0 .1 0 .1 0 .2 0 0 0 .1 0 .1 0 0 0 0 0 0 0 0 0 0 0 .1 0 .1 0 .2 0 .3 0 0 0 0 0 0 0 0 0 0 0 0 0 .1 0 .3 0 .4 0 0 0 .1 0 .1C42.1 54.1 42.1 54.1 42.1 54.2z"/><path fill="#686868" d="M42.1,50c-1.4-0.8-2.7-0.9-3.6-0.4L37.9,50c0.9-0.5,2.2-0.5,3.6,0.4c2.8,1.6,5.1,5.6,5.1,8.8
				c0,1.6-0.6,2.7-1.5,3.3l0.6-0.4c0.9-0.5,1.5-1.7,1.5-3.3C47.3,55.6,45,51.6,42.1,50z"/><path fill="#3D3D3D" d="M41.5,50.4c2.8,1.6,5.1,5.6,5.1,8.8c0,3.2-2.3,4.6-5.1,2.9s-5.1-5.6-5.1-8.8
					C36.4,50.1,38.7,48.8,41.5,50.4z M40.7,51.3c-0.9-0.3-1.7-0.2-2.3,0.2c0.3,0.5,0.9,1.4,2.2,2.9c0.1,0,0.2,0,0.2,0
					C40.9,52.7,40.8,51.8,40.7,51.3 M40.7,60.4c0.1-0.4,0.2-1.2,0.2-2.9c-0.1-0.1-0.2-0.2-0.2-0.3c-1.3,0-1.9,0.2-2.2,0.4
					C39,58.7,39.8,59.6,40.7,60.4 M42.3,52.2c-0.1,0.4-0.2,1.2-0.2,2.9c0.1,0.1,0.2,0.2,0.2,0.3c1.3,0,1.9-0.2,2.2-0.4
					C44,53.9,43.2,52.9,42.3,52.2 M42.3,61.3c0.9,0.3,1.7,0.2,2.3-0.2c-0.3-0.5-0.9-1.4-2.2-2.9c-0.1,0-0.2,0-0.2,0
					C42,59.8,42.1,60.7,42.3,61.3 M37.7,55.5c0.4,0.1,1.1,0.2,2.4,0c0-0.1,0-0.1,0-0.2c0-0.1,0-0.1,0-0.2c-1.2-1.6-1.9-2.4-2.4-2.7
					c-0.1,0.4-0.2,0.8-0.2,1.4C37.4,54.5,37.5,55,37.7,55.5 M43,57.3c1.2,1.6,1.9,2.4,2.3,2.7c0.1-0.4,0.2-0.8,0.2-1.4
					c0-0.5-0.1-1.1-0.2-1.6c-0.4-0.1-1.1-0.2-2.4,0c0,0.1,0,0.1,0,0.2C43,57.2,43,57.2,43,57.3"/></g><g enable-background="new"><g enable-background="new"><defs><path id="k" d="M6,31.5c0,8.7,6.1,19.2,13.6,23.6l-1.4,0.8C10.7,51.5,4.6,41,4.6,32.3
						c0-2.3,0.5-4.3,1.2-5.8c0.5-0.3,0.9-0.5,1.4-0.8C6.4,27.2,6,29.2,6,31.5z" enable-background="new"/></defs><clipPath id="l"><use overflow="visible" xlink:href="#k"/></clipPath><g clip-path="url(#l)" enable-background="new"><path fill="#2B2A2A" d="M6.2,25.8L7.6,25c-0.2,0.3-0.4,0.6-0.5,0.9l-1.4,0.8C5.9,26.4,6,26.1,6.2,25.8"/><path fill="#2C2B2B" d="M5.7,26.8L7.1,26c-0.1,0.2-0.2,0.5-0.3,0.8l-1.4,0.8C5.5,27.3,5.6,27,5.7,26.8"/><path fill="#2E2D2D" d="M5.4,27.5l1.4-0.8c-0.1,0.2-0.2,0.5-0.2,0.7l-1.4,0.8C5.2,28,5.3,27.8,5.4,27.5"/><path fill="#2F2E2E" d="M5.1,28.3l1.4-0.8c-0.1,0.2-0.1,0.5-0.2,0.7L5,29C5,28.7,5.1,28.5,5.1,28.3"/><path fill="#313030" d="M5,29l1.4-0.8c0,0.2-0.1,0.4-0.1,0.7l-1.4,0.8C4.9,29.4,4.9,29.2,5,29"/><path fill="#333131" d="M4.8,29.6l1.4-0.8c0,0.2-0.1,0.4-0.1,0.7l-1.4,0.8C4.8,30.1,4.8,29.8,4.8,29.6"/><path fill="#343333" d="M4.7,30.3l1.4-0.8c0,0.2,0,0.4-0.1,0.7l-1.4,0.8C4.7,30.7,4.7,30.5,4.7,30.3"/><path fill="#363434" d="M4.7,30.9l1.4-0.8c0,0.2,0,0.4,0,0.6l-1.4,0.8C4.6,31.4,4.6,31.2,4.7,30.9"/><path fill="#373636" d="M4.6,31.6L6,30.8c0,0.2,0,0.4,0,0.7l-1.4,0.8C4.6,32,4.6,31.8,4.6,31.6"/><path fill="#393737" d="M4.6,32.2L6,31.4c0,0,0,0,0,0c0,0.2,0,0.4,0,0.6l-1.4,0.8C4.6,32.7,4.6,32.5,4.6,32.2
						C4.6,32.3,4.6,32.3,4.6,32.2"/><path fill="#3A3939" d="M4.6,32.9L6,32.1c0,0.2,0,0.4,0,0.7l-1.4,0.8C4.6,33.3,4.6,33.1,4.6,32.9"/><path fill="#3C3B3B" d="M4.6,33.6L6,32.8c0,0.2,0,0.4,0.1,0.7l-1.4,0.8C4.7,34,4.7,33.8,4.6,33.6"/><path fill="#3E3C3C" d="M4.7,34.2l1.4-0.8c0,0.2,0,0.4,0.1,0.7l-1.4,0.8C4.7,34.7,4.7,34.5,4.7,34.2"/><path fill="#3F3E3E" d="M4.8,34.9l1.4-0.8c0,0.2,0.1,0.5,0.1,0.7l-1.4,0.8C4.8,35.4,4.8,35.1,4.8,34.9"/><path fill="#413F3F" d="M4.9,35.6l1.4-0.8c0,0.2,0.1,0.5,0.1,0.7L5,36.3C4.9,36,4.9,35.8,4.9,35.6"/><path fill="#424141" d="M5,36.3l1.4-0.8c0,0.2,0.1,0.5,0.1,0.7L5.1,37C5.1,36.8,5,36.5,5,36.3"/><path fill="#444242" d="M5.1,37l1.4-0.8c0.1,0.2,0.1,0.5,0.2,0.7l-1.4,0.8C5.2,37.5,5.2,37.2,5.1,37"/><path fill="#464444" d="M5.3,37.7l1.4-0.8c0.1,0.2,0.1,0.5,0.2,0.7l-1.4,0.8C5.4,38.2,5.4,37.9,5.3,37.7"/><path fill="#474545" d="M5.5,38.4l1.4-0.8c0.1,0.2,0.1,0.5,0.2,0.7l-1.4,0.8C5.6,38.9,5.6,38.7,5.5,38.4"/><path fill="#494747" d="M5.7,39.2l1.4-0.8c0.1,0.2,0.1,0.5,0.2,0.7l-1.4,0.8C5.8,39.6,5.8,39.4,5.7,39.2"/><path fill="#4A4848" d="M5.9,39.9L7.3,39c0.1,0.2,0.2,0.5,0.2,0.7l-1.4,0.8C6.1,40.3,6,40.1,5.9,39.9"/><path fill="#4C4A4A" d="M6.2,40.6l1.4-0.8c0.1,0.2,0.2,0.4,0.3,0.7l-1.4,0.8C6.3,41,6.3,40.8,6.2,40.6"/><path fill="#4D4B4B" d="M6.4,41.2l1.4-0.8c0.1,0.2,0.2,0.4,0.3,0.7l-1.4,0.8C6.6,41.7,6.5,41.4,6.4,41.2"/><path fill="#4F4D4D" d="M6.7,41.9l1.4-0.8c0.1,0.2,0.2,0.4,0.3,0.7L7,42.5C6.9,42.3,6.8,42.1,6.7,41.9"/><path fill="#646262" d="M7,42.5l1.4-0.8c0.1,0.2,0.2,0.4,0.3,0.7l-1.4,0.8C7.2,43,7.1,42.8,7,42.5"/><path fill="#6D6B6B" d="M7.3,43.2l1.4-0.8c0.1,0.2,0.2,0.5,0.3,0.7l-1.4,0.8C7.5,43.7,7.4,43.4,7.3,43.2"/><path fill="#747272" d="M7.6,43.9L9,43.1c0.1,0.3,0.3,0.5,0.4,0.8L8,44.7C7.9,44.5,7.8,44.2,7.6,43.9"/><path fill="#797878" d="M8,44.7l1.4-0.8c0.2,0.4,0.4,0.8,0.7,1.2l-1.4,0.8C8.5,45.5,8.3,45.1,8,44.7"/><path fill="#7E7D7D" d="M8.7,45.9l1.4-0.8c0.3,0.5,0.7,1.1,1,1.6l-1.4,0.8C9.4,47,9,46.5,8.7,45.9"/><path fill="#797878" d="M9.7,47.6l1.4-0.8c0.3,0.4,0.6,0.8,0.9,1.2l-1.4,0.8C10.3,48.4,10,48,9.7,47.6"/><path fill="#747272" d="M10.6,48.8L12,48c0.2,0.3,0.4,0.5,0.6,0.8l-1.4,0.8C11,49.3,10.8,49.1,10.6,48.8"/><path fill="#6D6B6B" d="M11.2,49.6l1.4-0.8c0.2,0.2,0.3,0.4,0.5,0.7l-1.4,0.8C11.6,50,11.4,49.8,11.2,49.6"/><path fill="#646262" d="M11.7,50.2l1.4-0.8c0.2,0.2,0.3,0.4,0.5,0.6l-1.4,0.8C12.1,50.7,11.9,50.4,11.7,50.2"/><path fill="#4F4D4D" d="M12.3,50.9l1.4-0.8c0.2,0.2,0.4,0.4,0.5,0.6l-1.4,0.8C12.6,51.3,12.4,51.1,12.3,50.9"/><path fill="#4D4B4B" d="M12.8,51.4l1.4-0.8c0.2,0.2,0.4,0.4,0.6,0.6L13.3,52C13.2,51.8,13,51.6,12.8,51.4"/><path fill="#4C4A4A" d="M13.3,52l1.4-0.8c0.2,0.2,0.4,0.4,0.6,0.6l-1.4,0.8C13.7,52.4,13.5,52.2,13.3,52"/><path fill="#4A4848" d="M13.9,52.6l1.4-0.8c0.2,0.2,0.4,0.4,0.6,0.6l-1.4,0.8C14.3,53,14.1,52.8,13.9,52.6"/><path fill="#494747" d="M14.5,53.2l1.4-0.8c0.2,0.2,0.4,0.4,0.6,0.5l-1.4,0.8C14.9,53.5,14.7,53.3,14.5,53.2"/><path fill="#474545" d="M15.1,53.7l1.4-0.8c0.2,0.2,0.4,0.3,0.6,0.5l-1.4,0.8C15.5,54,15.3,53.9,15.1,53.7"/><path fill="#464444" d="M15.7,54.2l1.4-0.8c0.2,0.2,0.4,0.3,0.6,0.5l-1.4,0.8C16.1,54.5,15.9,54.3,15.7,54.2"/><path fill="#444242" d="M16.3,54.6l1.4-0.8c0.2,0.1,0.4,0.3,0.6,0.4l-1.4,0.8C16.7,54.9,16.5,54.8,16.3,54.6"/><path fill="#424141" d="M16.9,55.1l1.4-0.8c0.2,0.1,0.4,0.3,0.6,0.4l-1.4,0.8C17.3,55.3,17.1,55.2,16.9,55.1"/><path fill="#413F3F" d="M17.5,55.5l1.4-0.8c0.2,0.1,0.4,0.2,0.6,0.4l-1.4,0.8C17.9,55.7,17.7,55.6,17.5,55.5"/><path fill="#3F3E3E" d="M18.1,55.8l1.4-0.8c0,0,0.1,0.1,0.1,0.1l-1.4,0.8C18.2,55.9,18.1,55.8,18.1,55.8"/></g></g><path fill="#BFBFBF" d="M19.6,53.3c-6.7-3.9-12.1-13.3-12.1-21c0-3.8,1.4-6.5,3.5-7.8l-1.4,0.8c-2.2,1.3-3.5,4-3.5,7.8
				c0,7.7,5.4,17.1,12.1,21c3.4,1.9,6.4,2.1,8.6,0.8l1.4-0.8C26.1,55.4,23,55.3,19.6,53.3z"/><g enable-background="new"><defs><path id="m" d="M18.4,38.6c0,0.8,0.6,1.8,1.2,2.2l-1.4,0.8c-0.7-0.4-1.3-1.4-1.2-2.2
						C17.5,39.2,17.9,38.9,18.4,38.6c-0.5,0.3-0.9,0.5-1.4,0.8c0-0.4,0.1-0.7,0.4-0.8l1.4-0.8C18.6,38,18.4,38.2,18.4,38.6z" enable-background="new"/></defs><clipPath id="n"><use overflow="visible" xlink:href="#m"/></clipPath><g clip-path="url(#n)" enable-background="new"><path fill="#707070" d="M17.4,38.6l1.4-0.8c-0.1,0-0.2,0.1-0.2,0.2l-1.4,0.8C17.2,38.8,17.3,38.7,17.4,38.6"/><path fill="#757575" d="M17.2,38.9l1.4-0.8c0,0,0,0.1,0,0.1L17.2,38.9C17.1,38.9,17.2,38.9,17.2,38.9"/><path fill="#797979" d="M17.1,38.9l1.4-0.8c0,0,0,0,0,0.1L17.1,38.9C17.1,39,17.1,39,17.1,38.9"/><path fill="#7D7D7D" d="M17.1,39l1.4-0.8c0,0,0,0,0,0.1L17.1,39C17.1,39.1,17.1,39,17.1,39"/><path fill="#828282" d="M17.1,39.1l1.4-0.8c0,0,0,0,0,0.1L17.1,39.1C17.1,39.1,17.1,39.1,17.1,39.1"/><path fill="#868686" d="M17.1,39.1l1.4-0.8c0,0,0,0,0,0.1L17.1,39.1C17,39.2,17.1,39.2,17.1,39.1"/><path fill="#8A8A8A" d="M17,39.2l1.4-0.8c0,0,0,0,0,0.1L17,39.2C17,39.3,17,39.2,17,39.2"/><path fill="#8F8F8F" d="M17,39.3l1.4-0.8c0,0,0,0,0,0.1L17,39.3C17,39.3,17,39.3,17,39.3"/><path fill="#939393" d="M17,39.3l1.4-0.8c0,0,0,0,0,0.1L17,39.3C17,39.4,17,39.4,17,39.3"/><path fill="#979797" d="M17,39.4l1.4-0.8c0,0,0,0,0,0.1L17,39.4C17,39.4,17,39.4,17,39.4"/><path fill="#9C9C9C" d="M17,39.5l1.4-0.8c0,0,0,0,0,0c0,0,0,0,0,0.1L17,39.5C17,39.5,17,39.5,17,39.5C17,39.5,17,39.5,17,39.5"/><path fill="#A0A0A0" d="M17,39.5l1.4-0.8c0,0,0,0,0,0.1L17,39.5C17,39.6,17,39.5,17,39.5"/><path fill="#A4A4A4" d="M17,39.6l1.4-0.8c0,0,0,0,0,0.1L17,39.6C17,39.6,17,39.6,17,39.6"/><path fill="#A8A8A8" d="M17,39.6l1.4-0.8c0,0,0,0,0,0.1L17,39.6C17,39.7,17,39.7,17,39.6"/><path fill="#ADADAD" d="M17,39.7l1.4-0.8c0,0,0,0,0,0.1L17,39.7C17,39.7,17,39.7,17,39.7"/><path fill="#B1B1B1" d="M17,39.8l1.4-0.8c0,0,0,0,0,0.1L17,39.8C17.1,39.8,17.1,39.8,17,39.8"/><path fill="#B5B5B5" d="M17.1,39.8l1.4-0.8c0,0,0,0,0,0.1L17.1,39.8C17.1,39.9,17.1,39.8,17.1,39.8"/><path fill="#BABABA" d="M17.1,39.9l1.4-0.8c0,0,0,0,0,0.1L17.1,39.9C17.1,39.9,17.1,39.9,17.1,39.9"/><path fill="#BEBEBE" d="M17.1,40l1.4-0.8c0,0,0,0,0,0.1L17.1,40C17.1,40,17.1,40,17.1,40"/><path fill="#C2C2C2" d="M17.1,40l1.4-0.8c0,0,0,0,0,0.1L17.1,40C17.1,40.1,17.1,40,17.1,40"/><path fill="#C7C7C7" d="M17.1,40.1l1.4-0.8c0,0,0,0,0,0.1L17.1,40.1C17.1,40.1,17.1,40.1,17.1,40.1"/><path fill="#CBCBCB" d="M17.1,40.2l1.4-0.8c0,0,0,0,0,0.1L17.1,40.2C17.2,40.2,17.2,40.2,17.1,40.2"/><path fill="#CFCFCF" d="M17.2,40.2l1.4-0.8c0,0,0,0,0,0.1L17.2,40.2C17.2,40.3,17.2,40.2,17.2,40.2"/><path fill="#D4D4D4" d="M17.2,40.3l1.4-0.8c0,0,0,0,0,0.1L17.2,40.3C17.2,40.3,17.2,40.3,17.2,40.3"/><path fill="#D8D8D8" d="M17.2,40.3l1.4-0.8c0,0,0,0,0,0.1L17.2,40.3C17.2,40.4,17.2,40.4,17.2,40.3"/><path fill="#DDD" d="M17.2,40.4l1.4-0.8c0,0,0,0,0,0.1L17.2,40.4C17.3,40.4,17.2,40.4,17.2,40.4"/><path fill="#DFDFDF" d="M17.3,40.5l1.4-0.8c0,0,0,0,0,0.1L17.3,40.5C17.3,40.5,17.3,40.5,17.3,40.5"/><path fill="#E0E0E0" d="M17.3,40.5l1.4-0.8c0,0,0,0.1,0,0.1L17.3,40.5C17.3,40.6,17.3,40.5,17.3,40.5"/><path fill="#E1E1E1" d="M17.3,40.6l1.4-0.8c0,0,0,0.1,0.1,0.1l-1.4,0.8C17.4,40.7,17.4,40.6,17.3,40.6"/><path fill="#E2E2E2" d="M17.4,40.7l1.4-0.8c0,0.1,0.1,0.1,0.1,0.1l-1.4,0.8C17.5,40.8,17.4,40.8,17.4,40.7"/><path fill="#E1E1E1" d="M17.5,40.9l1.4-0.8c0,0,0.1,0.1,0.1,0.1L17.6,41C17.5,40.9,17.5,40.9,17.5,40.9"/><path fill="#E0E0E0" d="M17.6,41l1.4-0.8c0,0,0,0,0.1,0.1L17.6,41C17.6,41,17.6,41,17.6,41"/><path fill="#DFDFDF" d="M17.6,41l1.4-0.8c0,0,0,0,0,0.1L17.6,41C17.7,41.1,17.6,41.1,17.6,41"/><path fill="#DDD" d="M17.7,41.1l1.4-0.8c0,0,0,0,0,0.1L17.7,41.1C17.7,41.1,17.7,41.1,17.7,41.1"/><path fill="#D8D8D8" d="M17.7,41.2l1.4-0.8c0,0,0,0,0,0.1L17.7,41.2C17.8,41.2,17.7,41.2,17.7,41.2"/><path fill="#D4D4D4" d="M17.8,41.2l1.4-0.8c0,0,0,0,0.1,0.1L17.8,41.2C17.8,41.3,17.8,41.2,17.8,41.2"/><path fill="#CFCFCF" d="M17.8,41.3l1.4-0.8c0,0,0,0,0.1,0.1L17.8,41.3C17.9,41.3,17.8,41.3,17.8,41.3"/><path fill="#CBCBCB" d="M17.9,41.3l1.4-0.8c0,0,0,0,0.1,0.1L17.9,41.3C17.9,41.4,17.9,41.3,17.9,41.3"/><path fill="#C7C7C7" d="M17.9,41.4l1.4-0.8c0,0,0,0,0.1,0L17.9,41.4C18,41.4,18,41.4,17.9,41.4"/><path fill="#C2C2C2" d="M18,41.4l1.4-0.8c0,0,0,0,0.1,0L18,41.4C18,41.5,18,41.4,18,41.4"/><path fill="#BEBEBE" d="M18,41.5l1.4-0.8c0,0,0,0,0.1,0L18,41.5C18.1,41.5,18.1,41.5,18,41.5"/><path fill="#BABABA" d="M18.1,41.5l1.4-0.8c0,0,0,0,0.1,0L18.1,41.5C18.1,41.5,18.1,41.5,18.1,41.5"/><path fill="#B5B5B5" d="M18.2,41.5l1.4-0.8c0,0,0,0,0.1,0L18.2,41.5C18.2,41.6,18.2,41.6,18.2,41.5"/><path fill="#B1B1B1" d="M18.2,41.6l1.4-0.8c0,0,0,0,0.1,0L18.2,41.6C18.2,41.6,18.2,41.6,18.2,41.6"/><polyline fill="#ADADAD" points="18.3 41.6 19.7 40.8 19.7 40.8 18.3 41.6 18.3 41.6"/></g></g><g enable-background="new"><defs><path id="o" d="M19.6,55.1c3.8,2.2,7.2,2.4,9.7,1L28,56.8c-2.5,1.4-5.9,1.2-9.7-1
						C18.6,55.6,19.2,55.3,19.6,55.1z" enable-background="new"/></defs><clipPath id="p"><use overflow="visible" xlink:href="#o"/></clipPath><g clip-path="url(#p)" enable-background="new"><path fill="#3F3E3E" d="M18.2,55.9l1.4-0.8c0.1,0.1,0.3,0.2,0.4,0.2l-1.4,0.8C18.5,56.1,18.4,56,18.2,55.9"/><path fill="#3E3C3C" d="M18.7,56.1l1.4-0.8c0.2,0.1,0.4,0.2,0.6,0.3l-1.4,0.8C19,56.3,18.9,56.2,18.7,56.1"/><path fill="#3C3B3B" d="M19.2,56.4l1.4-0.8c0.2,0.1,0.4,0.2,0.6,0.3l-1.4,0.8C19.6,56.6,19.4,56.5,19.2,56.4"/><path fill="#3A3939" d="M19.8,56.7l1.4-0.8c0.2,0.1,0.4,0.2,0.5,0.2l-1.4,0.8C20.1,56.8,20,56.8,19.8,56.7"/><path fill="#393737" d="M20.3,56.9l1.4-0.8c0.2,0.1,0.4,0.1,0.6,0.2l-1.4,0.8C20.7,57.1,20.5,57,20.3,56.9"/><path fill="#373636" d="M20.9,57.1l1.4-0.8c0.2,0.1,0.4,0.1,0.5,0.2l-1.4,0.8C21.2,57.2,21.1,57.2,20.9,57.1"/><path fill="#363434" d="M21.4,57.3l1.4-0.8c0.2,0.1,0.4,0.1,0.6,0.2L22,57.5C21.8,57.4,21.6,57.4,21.4,57.3"/><path fill="#343333" d="M22,57.5l1.4-0.8c0.2,0,0.4,0.1,0.6,0.1l-1.4,0.8C22.4,57.5,22.2,57.5,22,57.5"/><path fill="#333131" d="M22.6,57.6l1.4-0.8c0.2,0,0.4,0.1,0.6,0.1l-1.4,0.8C23,57.7,22.8,57.6,22.6,57.6"/><path fill="#313030" d="M23.2,57.7l1.4-0.8c0.2,0,0.4,0,0.6,0.1l-1.4,0.8C23.6,57.7,23.4,57.7,23.2,57.7"/><path fill="#2F2E2E" d="M23.8,57.7l1.4-0.8c0.2,0,0.4,0,0.6,0l-1.4,0.8C24.2,57.8,24,57.8,23.8,57.7"/><path fill="#2E2D2D" d="M24.4,57.8l1.4-0.8c0.2,0,0.5,0,0.7,0l-1.4,0.8C24.9,57.7,24.6,57.8,24.4,57.8"/><path fill="#2C2B2B" d="M25.1,57.7l1.4-0.8c0.3,0,0.5-0.1,0.8-0.1l-1.4,0.8C25.6,57.7,25.4,57.7,25.1,57.7"/><path fill="#2B2A2A" d="M25.9,57.6l1.4-0.8c0.3-0.1,0.6-0.2,1-0.3l-1.4,0.8C26.5,57.5,26.2,57.5,25.9,57.6"/><path fill="#292828" d="M26.9,57.4l1.4-0.8c0.4-0.1,0.8-0.3,1.1-0.5L28,56.8C27.6,57,27.2,57.2,26.9,57.4"/></g></g><g enable-background="new"><defs><path id="q" d="M7.2,25.7C7.2,25.7,7.2,25.7,7.2,25.7C7.2,25.7,7.2,25.7,7.2,25.7
						c-0.1,0.1-0.2,0.1-0.2,0.1c-0.4,0.2-0.8,0.5-1.2,0.7c0.7-1.3,1.6-2.3,2.7-3l1.4-0.8C8.9,23.4,7.9,24.4,7.2,25.7z" enable-background="new"/></defs><clipPath id="r"><use overflow="visible" xlink:href="#q"/></clipPath><g clip-path="url(#r)" enable-background="new"><path fill="#292828" d="M8.6,23.5l1.4-0.8C9,23.2,8.2,24,7.6,25l-1.4,0.8C6.9,24.8,7.7,24.1,8.6,23.5"/><path fill="#2B2A2A" d="M6.2,25.8L7.6,25c-0.2,0.3-0.4,0.6-0.5,0.9l-1.4,0.8C5.9,26.4,6,26.1,6.2,25.8"/></g></g><g enable-background="new"><defs><path id="s" d="M17.4,38.6l1.4-0.8c0.2-0.1,0.5-0.1,0.9,0.1l-1.4,0.8
						C17.9,38.5,17.6,38.5,17.4,38.6z" enable-background="new"/></defs><clipPath id="t"><use overflow="visible" xlink:href="#s"/></clipPath><g clip-path="url(#t)" enable-background="new"><path fill="#292828" d="M17.4,38.6l1.4-0.8c0,0,0.1,0,0.1,0l-1.4,0.8C17.5,38.6,17.4,38.6,17.4,38.6"/><path fill="#2B2A2A" d="M17.5,38.6l1.4-0.8c0,0,0.1,0,0.1,0L17.5,38.6C17.5,38.6,17.5,38.6,17.5,38.6"/><path fill="#2C2B2B" d="M17.6,38.6l1.4-0.8c0,0,0,0,0.1,0L17.6,38.6C17.6,38.6,17.6,38.6,17.6,38.6"/><path fill="#2E2D2D" d="M17.7,38.6l1.4-0.8c0,0,0,0,0.1,0L17.7,38.6C17.7,38.6,17.7,38.6,17.7,38.6"/><path fill="#2F2E2E" d="M17.7,38.6l1.4-0.8c0,0,0,0,0.1,0L17.7,38.6C17.8,38.6,17.7,38.6,17.7,38.6"/><path fill="#313030" d="M17.8,38.6l1.4-0.8c0,0,0,0,0.1,0L17.8,38.6C17.8,38.6,17.8,38.6,17.8,38.6"/><path fill="#333131" d="M17.8,38.6l1.4-0.8c0,0,0,0,0.1,0L17.8,38.6C17.9,38.6,17.8,38.6,17.8,38.6"/><path fill="#343333" d="M17.9,38.6l1.4-0.8c0,0,0,0,0.1,0L17.9,38.6C17.9,38.6,17.9,38.6,17.9,38.6"/><path fill="#363434" d="M17.9,38.6l1.4-0.8c0,0,0,0,0.1,0L17.9,38.6C18,38.6,18,38.6,17.9,38.6"/><path fill="#373636" d="M18,38.6l1.4-0.8c0,0,0,0,0.1,0L18,38.6C18,38.6,18,38.6,18,38.6"/><path fill="#393737" d="M18,38.6l1.4-0.8c0,0,0,0,0.1,0L18,38.6C18.1,38.6,18.1,38.6,18,38.6"/><path fill="#3A3939" d="M18.1,38.6l1.4-0.8c0,0,0,0,0,0L18.1,38.6C18.1,38.7,18.1,38.6,18.1,38.6"/><path fill="#3C3B3B" d="M18.1,38.7l1.4-0.8c0,0,0,0,0.1,0L18.1,38.7C18.2,38.7,18.2,38.7,18.1,38.7"/><path fill="#3E3C3C" d="M18.2,38.7l1.4-0.8c0,0,0,0,0.1,0L18.2,38.7C18.2,38.7,18.2,38.7,18.2,38.7"/><path fill="#3F3E3E" d="M18.2,38.7l1.4-0.8c0,0,0,0,0,0L18.2,38.7C18.3,38.7,18.3,38.7,18.2,38.7"/></g></g><g enable-background="new"><defs><path id="u" d="M20.6,40.9l-1.4,0.8c0.2-0.1,0.4-0.4,0.4-0.8c0-0.8-0.6-1.8-1.3-2.2
						l1.4-0.8c0.7,0.4,1.3,1.4,1.3,2.2C20.9,40.5,20.8,40.8,20.6,40.9z" enable-background="new"/></defs><clipPath id="v"><use overflow="visible" xlink:href="#u"/></clipPath><g clip-path="url(#v)" enable-background="new"><polyline fill="#3F3E3E" points="18.3 38.7 19.7 37.9 19.7 37.9 18.3 38.7 18.3 38.7"/><path fill="#413F3F" d="M18.3,38.7l1.4-0.8c0,0,0,0,0.1,0L18.3,38.7C18.3,38.8,18.3,38.8,18.3,38.7"/><path fill="#424141" d="M18.3,38.8l1.4-0.8c0,0,0,0,0.1,0L18.3,38.8C18.4,38.8,18.4,38.8,18.3,38.8"/><path fill="#444242" d="M18.4,38.8l1.4-0.8c0,0,0,0,0.1,0L18.4,38.8C18.4,38.8,18.4,38.8,18.4,38.8"/><path fill="#464444" d="M18.5,38.8l1.4-0.8c0,0,0,0,0.1,0L18.5,38.8C18.5,38.9,18.5,38.9,18.5,38.8"/><path fill="#474545" d="M18.5,38.9l1.4-0.8c0,0,0,0,0.1,0L18.5,38.9C18.5,38.9,18.5,38.9,18.5,38.9"/><path fill="#494747" d="M18.6,38.9l1.4-0.8c0,0,0,0,0.1,0L18.6,38.9C18.6,39,18.6,39,18.6,38.9"/><path fill="#4A4848" d="M18.6,39l1.4-0.8c0,0,0,0,0.1,0.1L18.6,39C18.7,39,18.6,39,18.6,39"/><path fill="#4C4A4A" d="M18.7,39l1.4-0.8c0,0,0,0,0.1,0.1L18.7,39C18.7,39.1,18.7,39.1,18.7,39"/><path fill="#4D4B4B" d="M18.7,39.1l1.4-0.8c0,0,0,0,0.1,0.1L18.7,39.1C18.8,39.1,18.7,39.1,18.7,39.1"/><path fill="#4F4D4D" d="M18.8,39.1l1.4-0.8c0,0,0,0,0,0.1L18.8,39.1C18.8,39.2,18.8,39.2,18.8,39.1"/><path fill="#646262" d="M18.8,39.2l1.4-0.8c0,0,0,0,0,0.1L18.8,39.2C18.9,39.2,18.8,39.2,18.8,39.2"/><path fill="#6D6B6B" d="M18.9,39.3l1.4-0.8c0,0,0,0,0,0.1L18.9,39.3C18.9,39.3,18.9,39.3,18.9,39.3"/><path fill="#747272" d="M18.9,39.3l1.4-0.8c0,0,0,0,0.1,0.1L18.9,39.3C19,39.4,18.9,39.3,18.9,39.3"/><path fill="#797878" d="M19,39.4l1.4-0.8c0,0,0.1,0.1,0.1,0.1l-1.4,0.8C19,39.5,19,39.4,19,39.4"/><path fill="#7E7D7D" d="M19.1,39.5l1.4-0.8c0,0,0.1,0.1,0.1,0.1l-1.4,0.8C19.1,39.6,19.1,39.5,19.1,39.5"/><path fill="#797878" d="M19.2,39.6l1.4-0.8c0,0,0,0.1,0.1,0.1l-1.4,0.8C19.2,39.7,19.2,39.7,19.2,39.6"/><path fill="#747272" d="M19.2,39.8l1.4-0.8c0,0,0,0.1,0,0.1L19.2,39.8C19.2,39.8,19.2,39.8,19.2,39.8"/><path fill="#6D6B6B" d="M19.3,39.8l1.4-0.8c0,0,0,0,0,0.1L19.3,39.8C19.3,39.9,19.3,39.9,19.3,39.8"/><path fill="#646262" d="M19.3,39.9l1.4-0.8c0,0,0,0,0,0.1L19.3,39.9C19.3,39.9,19.3,39.9,19.3,39.9"/><path fill="#4F4D4D" d="M19.3,40l1.4-0.8c0,0,0,0,0,0.1L19.3,40C19.3,40,19.3,40,19.3,40"/><path fill="#4D4B4B" d="M19.3,40l1.4-0.8c0,0,0,0,0,0.1L19.3,40C19.4,40.1,19.3,40,19.3,40"/><path fill="#4C4A4A" d="M19.4,40.1l1.4-0.8c0,0,0,0,0,0.1L19.4,40.1C19.4,40.1,19.4,40.1,19.4,40.1"/><path fill="#4A4848" d="M19.4,40.1l1.4-0.8c0,0,0,0,0,0.1L19.4,40.1C19.4,40.2,19.4,40.2,19.4,40.1"/><path fill="#494747" d="M19.4,40.2l1.4-0.8c0,0,0,0,0,0.1L19.4,40.2C19.4,40.3,19.4,40.2,19.4,40.2"/><path fill="#474545" d="M19.4,40.3l1.4-0.8c0,0,0,0,0,0.1L19.4,40.3C19.4,40.3,19.4,40.3,19.4,40.3"/><path fill="#464444" d="M19.4,40.3l1.4-0.8c0,0,0,0,0,0.1L19.4,40.3C19.5,40.4,19.5,40.4,19.4,40.3"/><path fill="#444242" d="M19.5,40.4l1.4-0.8c0,0,0,0,0,0.1L19.5,40.4C19.5,40.4,19.5,40.4,19.5,40.4"/><path fill="#424141" d="M19.5,40.5l1.4-0.8c0,0,0,0,0,0.1L19.5,40.5C19.5,40.5,19.5,40.5,19.5,40.5"/><path fill="#413F3F" d="M19.5,40.5l1.4-0.8c0,0,0,0,0,0.1L19.5,40.5C19.5,40.6,19.5,40.6,19.5,40.5"/><path fill="#3F3E3E" d="M19.5,40.6l1.4-0.8c0,0,0,0,0,0.1L19.5,40.6C19.5,40.6,19.5,40.6,19.5,40.6"/><path fill="#3E3C3C" d="M19.5,40.7l1.4-0.8c0,0,0,0,0,0.1L19.5,40.7C19.5,40.7,19.5,40.7,19.5,40.7"/><path fill="#3C3B3B" d="M19.5,40.7l1.4-0.8c0,0,0,0,0,0.1L19.5,40.7C19.5,40.8,19.5,40.7,19.5,40.7"/><path fill="#3A3939" d="M19.5,40.8l1.4-0.8c0,0,0,0,0,0.1L19.5,40.8C19.5,40.8,19.5,40.8,19.5,40.8"/><path fill="#393737" d="M19.5,40.8l1.4-0.8c0,0,0,0,0,0.1c0,0,0,0,0,0L19.5,40.8C19.5,40.9,19.5,40.9,19.5,40.8
						C19.5,40.9,19.5,40.9,19.5,40.8"/><path fill="#373636" d="M19.5,40.9l1.4-0.8c0,0,0,0,0,0.1L19.5,40.9C19.5,40.9,19.5,40.9,19.5,40.9"/><path fill="#363434" d="M19.5,41l1.4-0.8c0,0,0,0,0,0.1L19.5,41C19.5,41,19.5,41,19.5,41"/><path fill="#343333" d="M19.5,41l1.4-0.8c0,0,0,0,0,0.1L19.5,41C19.5,41.1,19.5,41,19.5,41"/><path fill="#333131" d="M19.5,41.1l1.4-0.8c0,0,0,0,0,0.1L19.5,41.1C19.5,41.1,19.5,41.1,19.5,41.1"/><path fill="#313030" d="M19.5,41.1l1.4-0.8c0,0,0,0,0,0.1L19.5,41.1C19.5,41.2,19.5,41.2,19.5,41.1"/><path fill="#2F2E2E" d="M19.5,41.2l1.4-0.8c0,0,0,0,0,0.1L19.5,41.2C19.5,41.3,19.5,41.2,19.5,41.2"/><path fill="#2E2D2D" d="M19.5,41.3l1.4-0.8c0,0,0,0,0,0.1L19.5,41.3C19.5,41.3,19.5,41.3,19.5,41.3"/><path fill="#2C2B2B" d="M19.5,41.3l1.4-0.8c0,0,0,0,0,0.1L19.5,41.3C19.4,41.4,19.5,41.4,19.5,41.3"/><path fill="#2B2A2A" d="M19.4,41.4l1.4-0.8c0,0,0,0.1,0,0.1L19.4,41.4C19.4,41.5,19.4,41.4,19.4,41.4"/><path fill="#292828" d="M19.4,41.5l1.4-0.8c-0.1,0.1-0.1,0.2-0.2,0.2l-1.4,0.8C19.3,41.7,19.3,41.6,19.4,41.5"/></g></g><path fill="#D8D8D8" d="M19.7,37.2c-0.5-0.3-1-0.3-1.3-0.1l-1.4,0.8c0.3-0.2,0.8-0.2,1.3,0.1c1,0.6,1.9,2.1,1.9,3.2
				c0,0.6-0.2,1-0.5,1.2l1.4-0.8c0.3-0.2,0.5-0.6,0.5-1.2C21.6,39.3,20.7,37.8,19.7,37.2z"/><g enable-background="new"><defs><path id="w" d="M8.6,23.5l1.4-0.8c2.5-1.4,5.9-1.2,9.7,1l-1.4,0.8
						C14.5,22.3,11.1,22.1,8.6,23.5z" enable-background="new"/></defs><clipPath id="x"><use overflow="visible" xlink:href="#w"/></clipPath><g clip-path="url(#x)" enable-background="new"><path fill="#707070" d="M8.6,23.5l1.4-0.8c0.4-0.2,0.7-0.4,1.1-0.5L9.7,23C9.3,23.1,8.9,23.3,8.6,23.5"/><path fill="#757575" d="M9.7,23l1.4-0.8c0.3-0.1,0.6-0.2,1-0.3l-1.4,0.8C10.3,22.8,10,22.9,9.7,23"/><path fill="#797979" d="M10.7,22.7l1.4-0.8c0.3-0.1,0.5-0.1,0.8-0.1l-1.4,0.8C11.2,22.6,10.9,22.7,10.7,22.7"/><path fill="#7D7D7D" d="M11.4,22.6l1.4-0.8c0.2,0,0.5,0,0.7,0l-1.4,0.8C11.9,22.6,11.7,22.6,11.4,22.6"/><path fill="#828282" d="M12.2,22.6l1.4-0.8c0.2,0,0.4,0,0.6,0l-1.4,0.8C12.6,22.6,12.4,22.6,12.2,22.6"/><path fill="#868686" d="M12.8,22.6l1.4-0.8c0.2,0,0.4,0,0.6,0.1l-1.4,0.8C13.2,22.6,13,22.6,12.8,22.6"/><path fill="#8A8A8A" d="M13.4,22.7l1.4-0.8c0.2,0,0.4,0.1,0.6,0.1L14,22.8C13.8,22.7,13.6,22.7,13.4,22.7"/><path fill="#8F8F8F" d="M14,22.8l1.4-0.8c0.2,0,0.4,0.1,0.6,0.1l-1.4,0.8C14.4,22.9,14.2,22.8,14,22.8"/><path fill="#939393" d="M14.6,22.9l1.4-0.8c0.2,0,0.4,0.1,0.6,0.2l-1.4,0.8C14.9,23,14.7,22.9,14.6,22.9"/><path fill="#979797" d="M15.1,23.1l1.4-0.8c0.2,0.1,0.4,0.1,0.5,0.2l-1.4,0.8C15.5,23.2,15.3,23.1,15.1,23.1"/><path fill="#9C9C9C" d="M15.7,23.2l1.4-0.8c0.2,0.1,0.4,0.1,0.6,0.2l-1.4,0.8C16,23.4,15.9,23.3,15.7,23.2"/><path fill="#A0A0A0" d="M16.2,23.4l1.4-0.8c0.2,0.1,0.4,0.1,0.5,0.2l-1.4,0.8C16.6,23.6,16.4,23.5,16.2,23.4"/><path fill="#A4A4A4" d="M16.8,23.7l1.4-0.8c0.2,0.1,0.4,0.2,0.6,0.3l-1.4,0.8C17.1,23.8,17,23.8,16.8,23.7"/><path fill="#A8A8A8" d="M17.3,23.9l1.4-0.8c0.2,0.1,0.4,0.2,0.6,0.3l-1.4,0.8C17.7,24.1,17.5,24,17.3,23.9"/><path fill="#ADADAD" d="M17.9,24.2l1.4-0.8c0.1,0.1,0.3,0.2,0.4,0.2l-1.4,0.8C18.2,24.4,18,24.3,17.9,24.2"/></g></g><g enable-background="new"><defs><path id="y" d="M29.4,56L28,56.8c2.5-1.4,4-4.5,4-8.8c0-8.7-6.1-19.2-13.6-23.6l1.4-0.8
						c7.6,4.4,13.7,14.9,13.6,23.6C33.3,51.6,31.8,54.6,29.4,56z" enable-background="new"/></defs><clipPath id="z"><use overflow="visible" xlink:href="#y"/></clipPath><g clip-path="url(#z)" enable-background="new"><path fill="#ADADAD" d="M18.3,24.5l1.4-0.8c0,0,0.1,0.1,0.1,0.1l-1.4,0.8C18.4,24.5,18.4,24.5,18.3,24.5"/><path fill="#B1B1B1" d="M18.5,24.5l1.4-0.8c0.2,0.1,0.4,0.2,0.6,0.4L19,24.9C18.8,24.8,18.6,24.7,18.5,24.5"/><path fill="#B5B5B5" d="M19,24.9l1.4-0.8c0.2,0.1,0.4,0.3,0.6,0.4l-1.4,0.8C19.4,25.2,19.2,25,19,24.9"/><path fill="#BABABA" d="M19.6,25.3l1.4-0.8c0.2,0.1,0.4,0.3,0.6,0.4l-1.4,0.8C20,25.6,19.8,25.4,19.6,25.3"/><path fill="#BEBEBE" d="M20.2,25.7l1.4-0.8c0.2,0.1,0.4,0.3,0.6,0.5l-1.4,0.8C20.6,26,20.4,25.9,20.2,25.7"/><path fill="#C2C2C2" d="M20.8,26.2l1.4-0.8c0.2,0.2,0.4,0.3,0.6,0.5l-1.4,0.8C21.2,26.5,21,26.3,20.8,26.2"/><path fill="#C7C7C7" d="M21.4,26.7l1.4-0.8c0.2,0.2,0.4,0.3,0.6,0.5L22,27.2C21.8,27,21.6,26.8,21.4,26.7"/><path fill="#CBCBCB" d="M22,27.2l1.4-0.8c0.2,0.2,0.4,0.4,0.6,0.6l-1.4,0.8C22.4,27.6,22.2,27.4,22,27.2"/><path fill="#CFCFCF" d="M22.6,27.8l1.4-0.8c0.2,0.2,0.4,0.4,0.6,0.6l-1.4,0.8C23,28.1,22.8,27.9,22.6,27.8"/><path fill="#D4D4D4" d="M23.2,28.3l1.4-0.8c0.2,0.2,0.4,0.4,0.6,0.6l-1.4,0.8C23.6,28.7,23.4,28.5,23.2,28.3"/><path fill="#D8D8D8" d="M23.8,28.9l1.4-0.8c0.2,0.2,0.4,0.4,0.5,0.6l-1.4,0.8C24.1,29.3,23.9,29.1,23.8,28.9"/><path fill="#DDD" d="M24.3,29.5l1.4-0.8c0.2,0.2,0.4,0.4,0.5,0.6l-1.4,0.8C24.6,29.9,24.5,29.7,24.3,29.5"/><path fill="#DFDFDF" d="M24.8,30.1l1.4-0.8c0.2,0.2,0.4,0.4,0.5,0.7l-1.4,0.8C25.2,30.5,25,30.3,24.8,30.1"/><path fill="#E0E0E0" d="M25.3,30.8l1.4-0.8c0.2,0.3,0.4,0.5,0.6,0.8L26,31.6C25.8,31.3,25.6,31,25.3,30.8"/><path fill="#E1E1E1" d="M26,31.6l1.4-0.8c0.3,0.4,0.6,0.8,0.9,1.2l-1.4,0.8C26.5,32.4,26.3,32,26,31.6"/><path fill="#E2E2E2" d="M26.8,32.8l1.4-0.8c0.4,0.5,0.7,1.1,1,1.6l-1.4,0.8C27.5,33.9,27.2,33.3,26.8,32.8"/><path fill="#E1E1E1" d="M27.8,34.4l1.4-0.8c0.2,0.4,0.5,0.8,0.7,1.2l-1.4,0.8C28.3,35.2,28.1,34.8,27.8,34.4"/><path fill="#E0E0E0" d="M28.5,35.6l1.4-0.8c0.1,0.3,0.3,0.5,0.4,0.8l-1.4,0.8C28.8,36.2,28.7,35.9,28.5,35.6"/><path fill="#DFDFDF" d="M28.9,36.4l1.4-0.8c0.1,0.2,0.2,0.5,0.3,0.7l-1.4,0.8C29.2,36.9,29.1,36.7,28.9,36.4"/><path fill="#DDD" d="M29.3,37.1l1.4-0.8c0.1,0.2,0.2,0.4,0.3,0.7l-1.4,0.8C29.5,37.6,29.4,37.4,29.3,37.1"/><path fill="#D8D8D8" d="M29.6,37.8L31,37c0.1,0.2,0.2,0.4,0.3,0.7l-1.4,0.8C29.8,38.2,29.7,38,29.6,37.8"/><path fill="#D4D4D4" d="M29.9,38.5l1.4-0.8c0.1,0.2,0.2,0.4,0.3,0.7l-1.4,0.8C30,38.9,30,38.7,29.9,38.5"/><path fill="#CFCFCF" d="M30.1,39.1l1.4-0.8c0.1,0.2,0.2,0.4,0.3,0.7l-1.4,0.8C30.3,39.6,30.2,39.4,30.1,39.1"/><path fill="#CBCBCB" d="M30.4,39.8l1.4-0.8c0.1,0.2,0.2,0.5,0.2,0.7l-1.4,0.8C30.5,40.3,30.5,40,30.4,39.8"/><path fill="#C7C7C7" d="M30.6,40.5l1.4-0.8c0.1,0.2,0.2,0.5,0.2,0.7l-1.4,0.8C30.8,41,30.7,40.7,30.6,40.5"/><path fill="#C2C2C2" d="M30.9,41.2l1.4-0.8c0.1,0.2,0.1,0.5,0.2,0.7l-1.4,0.8C31,41.7,30.9,41.4,30.9,41.2"/><path fill="#BEBEBE" d="M31.1,41.9l1.4-0.8c0.1,0.2,0.1,0.5,0.2,0.7l-1.4,0.8C31.2,42.4,31.1,42.2,31.1,41.9"/><path fill="#BABABA" d="M31.3,42.7l1.4-0.8c0.1,0.2,0.1,0.5,0.2,0.7l-1.4,0.8C31.4,43.1,31.3,42.9,31.3,42.7"/><path fill="#B5B5B5" d="M31.4,43.4l1.4-0.8c0.1,0.2,0.1,0.5,0.1,0.7l-1.4,0.8C31.5,43.8,31.5,43.6,31.4,43.4"/><path fill="#B1B1B1" d="M31.6,44.1l1.4-0.8c0,0.2,0.1,0.5,0.1,0.7l-1.4,0.8C31.6,44.5,31.6,44.3,31.6,44.1"/><path fill="#ADADAD" d="M31.7,44.8l1.4-0.8c0,0.2,0.1,0.5,0.1,0.7l-1.4,0.8C31.8,45.2,31.7,45,31.7,44.8"/><path fill="#A8A8A8" d="M31.8,45.5l1.4-0.8c0,0.2,0.1,0.4,0.1,0.7l-1.4,0.8C31.8,45.9,31.8,45.7,31.8,45.5"/><path fill="#A4A4A4" d="M31.9,46.1l1.4-0.8c0,0.2,0,0.4,0.1,0.7l-1.4,0.8C31.9,46.6,31.9,46.4,31.9,46.1"/><path fill="#A0A0A0" d="M31.9,46.8l1.4-0.8c0,0.2,0,0.4,0,0.7l-1.4,0.8C31.9,47.2,31.9,47,31.9,46.8"/><path fill="#9C9C9C" d="M31.9,47.5l1.4-0.8c0,0.2,0,0.4,0,0.6c0,0,0,0,0,0l-1.4,0.8c0,0,0,0,0,0C31.9,47.9,31.9,47.7,31.9,47.5
						"/><path fill="#979797" d="M31.9,48.1l1.4-0.8c0,0.2,0,0.4,0,0.7l-1.4,0.8C31.9,48.6,31.9,48.3,31.9,48.1"/><path fill="#939393" d="M31.9,48.8l1.4-0.8c0,0.2,0,0.4,0,0.6l-1.4,0.8C31.9,49.2,31.9,49,31.9,48.8"/><path fill="#8F8F8F" d="M31.9,49.4l1.4-0.8c0,0.2,0,0.4-0.1,0.7l-1.4,0.8C31.9,49.9,31.9,49.6,31.9,49.4"/><path fill="#8A8A8A" d="M31.8,50.1l1.4-0.8c0,0.2-0.1,0.4-0.1,0.7l-1.4,0.8C31.8,50.5,31.8,50.3,31.8,50.1"/><path fill="#868686" d="M31.7,50.7l1.4-0.8c0,0.2-0.1,0.5-0.1,0.7l-1.4,0.8C31.6,51.2,31.7,51,31.7,50.7"/><path fill="#828282" d="M31.6,51.4l1.4-0.8c-0.1,0.2-0.1,0.5-0.2,0.7l-1.4,0.8C31.5,51.9,31.5,51.6,31.6,51.4"/><path fill="#7D7D7D" d="M31.4,52.1l1.4-0.8c-0.1,0.2-0.2,0.5-0.2,0.7l-1.4,0.8C31.3,52.6,31.3,52.3,31.4,52.1"/><path fill="#797979" d="M31.2,52.8l1.4-0.8c-0.1,0.3-0.2,0.5-0.3,0.8l-1.4,0.8C31,53.3,31.1,53.1,31.2,52.8"/><path fill="#757575" d="M30.8,53.6l1.4-0.8c-0.2,0.3-0.3,0.6-0.5,0.9l-1.4,0.8C30.5,54.2,30.7,53.9,30.8,53.6"/><path fill="#707070" d="M30.3,54.5l1.4-0.8c-0.6,1-1.4,1.8-2.4,2.3L28,56.8C28.9,56.3,29.7,55.5,30.3,54.5"/></g></g><path fill="#E8E8E8" d="M18.3,24.5c7.6,4.4,13.7,14.9,13.6,23.6c0,8.7-6.2,12.2-13.7,7.8C10.7,51.5,4.6,41,4.6,32.3
					C4.6,23.6,10.8,20.1,18.3,24.5z M18.2,54.1c6.7,3.9,12.2,0.8,12.2-6.9c0-7.7-5.4-17.1-12.1-21c-6.7-3.9-12.2-0.8-12.2,6.9
					C6.1,40.9,11.5,50.3,18.2,54.1"/><path fill="#686868" d="M19.7,22c-4.2-2.4-8-2.7-10.8-1.1l-1.4,0.8c2.8-1.6,6.6-1.4,10.8,1.1c8.4,4.8,15.1,16.5,15.1,26.2
				c0,4.8-1.7,8.1-4.4,9.7l1.4-0.8c2.7-1.6,4.4-4.9,4.4-9.7C34.8,38.5,28.1,26.8,19.7,22z"/><path fill="#3D3D3D" d="M18.3,22.8c8.4,4.8,15.1,16.5,15.1,26.2c0,9.6-6.8,13.5-15.2,8.7C9.9,52.8,3.1,41,3.1,31.4
					C3.2,21.8,10,17.9,18.3,22.8z M18.2,55.9c7.6,4.4,13.7,0.9,13.7-7.8c0-8.7-6.1-19.2-13.6-23.6c-7.5-4.4-13.7-0.9-13.7,7.8
					C4.6,41,10.7,51.5,18.2,55.9"/><path fill="#E8E8E8" d="M18.3,38c1,0.6,1.9,2.1,1.9,3.2c0,1.2-0.9,1.7-1.9,1.1c-1-0.6-1.9-2.1-1.9-3.2S17.2,37.4,18.3,38z
					 M18.3,41.6c0.7,0.4,1.3,0.1,1.3-0.7c0-0.8-0.6-1.8-1.3-2.2c-0.7-0.4-1.3-0.1-1.3,0.7C17,40.3,17.6,41.2,18.3,41.6"/></g><polygon fill="none" points="41.9 53.6 61.8 38.6 34.6 23.9"/><polygon fill="none" points="20.2 39.4 40.8 54.3 33.3 23.7"/><polygon fill="none" points="66.3 44.7 66.3 44.7 66.3 44.7"/><polygon fill="#EF595A" points="66.6 44.7 66.6 44.7 66.3 44.7"/><path fill="#EF595A" d="M63.6,35.1l-1.9-0.1l0.6,1.9L34.1,21.6l-0.4-1.8l-1.3-0.3l0.6,2.6L17.7,40.3c0,0,23.7,16,23.9,16.1
			c0.2,0.1,0.5,0.2,0.7,0l21.1-16l1.6,5l1.9,0.1L63.6,35.1z M20.1,39.8l13.3-16l7.2,29.5L20.1,39.8z M41.9,53.6l-7.3-29.8l27.2,14.7
			L41.9,53.6z"/><polygon fill="#DD454D" points="70.6 44.3 72.3 43.5 79.8 67.6 78.1 68.6"/><polygon fill="#EF595A" points="70.6 44.3 68.7 44.3 76.1 68.5 78.1 68.6"/><polygon fill="#BC2B3A" points="70.4 43.3 68.7 44.3 70.6 44.3 72.3 43.5"/><path fill="#EF595A" d="M80.8,70.3c0,2-1.4,2.8-3.2,1.8c-1.8-1-3.2-3.5-3.2-5.5c0-2,1.4-2.8,3.2-1.8
						C79.4,65.8,80.8,68.3,80.8,70.3z"/><path fill="#3D3D3D" d="M79,69.3c0,0.9-0.6,1.2-1.4,0.8c-0.8-0.4-1.4-1.5-1.4-2.4c0-0.9,0.6-1.2,1.4-0.8
						C78.4,67.3,79,68.4,79,69.3z"/><g enable-background="new"><defs><path id="A" d="M60,62.8c0,8.7,6.1,19.2,13.6,23.6l-1.4,0.8c-7.5-4.4-13.7-14.9-13.6-23.6
					c0-2.3,0.5-4.3,1.2-5.8c0.5-0.3,0.9-0.5,1.4-0.8C60.5,58.5,60.1,60.5,60,62.8z" enable-background="new"/></defs><clipPath id="B"><use overflow="visible" xlink:href="#A"/></clipPath><g clip-path="url(#B)" enable-background="new"><path fill="#2B2A2A" d="M60.3,57.2l1.4-0.8c-0.2,0.3-0.4,0.6-0.5,0.9l-1.4,0.8C59.9,57.8,60.1,57.5,60.3,57.2"/><path fill="#2C2B2B" d="M59.8,58.1l1.4-0.8c-0.1,0.2-0.2,0.5-0.3,0.8l-1.4,0.8C59.5,58.6,59.6,58.3,59.8,58.1"/><path fill="#2E2D2D" d="M59.4,58.9l1.4-0.8c-0.1,0.2-0.2,0.5-0.2,0.7l-1.4,0.8C59.3,59.3,59.3,59.1,59.4,58.9"/><path fill="#2F2E2E" d="M59.2,59.6l1.4-0.8c-0.1,0.2-0.1,0.5-0.2,0.7L59,60.3C59.1,60.1,59.1,59.8,59.2,59.6"/><path fill="#313030" d="M59,60.3l1.4-0.8c0,0.2-0.1,0.4-0.1,0.7L58.9,61C58.9,60.7,59,60.5,59,60.3"/><path fill="#333131" d="M58.9,61l1.4-0.8c0,0.2-0.1,0.4-0.1,0.7l-1.4,0.8C58.8,61.4,58.8,61.2,58.9,61"/><path fill="#343333" d="M58.8,61.6l1.4-0.8c0,0.2,0,0.4-0.1,0.7l-1.4,0.8C58.7,62.1,58.8,61.8,58.8,61.6"/><path fill="#363434" d="M58.7,62.3l1.4-0.8c0,0.2,0,0.4,0,0.6l-1.4,0.8C58.7,62.7,58.7,62.5,58.7,62.3"/><path fill="#373636" d="M58.7,62.9l1.4-0.8c0,0.2,0,0.4,0,0.7l-1.4,0.8C58.7,63.4,58.7,63.1,58.7,62.9"/><path fill="#393737" d="M58.7,63.6l1.4-0.8c0,0,0,0,0,0c0,0.2,0,0.4,0,0.6l-1.4,0.8C58.7,64,58.7,63.8,58.7,63.6
					C58.7,63.6,58.7,63.6,58.7,63.6"/><path fill="#3A3939" d="M58.7,64.2l1.4-0.8c0,0.2,0,0.4,0,0.7l-1.4,0.8C58.7,64.7,58.7,64.5,58.7,64.2"/><path fill="#3C3B3B" d="M58.7,64.9l1.4-0.8c0,0.2,0,0.4,0.1,0.7l-1.4,0.8C58.7,65.3,58.7,65.1,58.7,64.9"/><path fill="#3E3C3C" d="M58.8,65.6l1.4-0.8c0,0.2,0,0.4,0.1,0.7l-1.4,0.8C58.8,66,58.8,65.8,58.8,65.6"/><path fill="#3F3E3E" d="M58.8,66.2l1.4-0.8c0,0.2,0.1,0.5,0.1,0.7l-1.4,0.8C58.9,66.7,58.9,66.5,58.8,66.2"/><path fill="#413F3F" d="M58.9,66.9l1.4-0.8c0,0.2,0.1,0.5,0.1,0.7L59,67.6C59,67.4,59,67.1,58.9,66.9"/><path fill="#424141" d="M59,67.6l1.4-0.8c0,0.2,0.1,0.5,0.1,0.7l-1.4,0.8C59.1,68.1,59.1,67.8,59,67.6"/><path fill="#444242" d="M59.2,68.3l1.4-0.8c0.1,0.2,0.1,0.5,0.2,0.7L59.4,69C59.3,68.8,59.2,68.6,59.2,68.3"/><path fill="#464444" d="M59.4,69l1.4-0.8c0.1,0.2,0.1,0.5,0.2,0.7l-1.4,0.8C59.5,69.5,59.4,69.3,59.4,69"/><path fill="#474545" d="M59.5,69.8l1.4-0.8c0.1,0.2,0.1,0.5,0.2,0.7l-1.4,0.8C59.7,70.2,59.6,70,59.5,69.8"/><path fill="#494747" d="M59.8,70.5l1.4-0.8c0.1,0.2,0.1,0.5,0.2,0.7L60,71.2C59.9,71,59.8,70.7,59.8,70.5"/><path fill="#4A4848" d="M60,71.2l1.4-0.8c0.1,0.2,0.2,0.5,0.2,0.7l-1.4,0.8C60.1,71.7,60.1,71.4,60,71.2"/><path fill="#4C4A4A" d="M60.2,71.9l1.4-0.8c0.1,0.2,0.2,0.4,0.3,0.7l-1.4,0.8C60.4,72.3,60.3,72.1,60.2,71.9"/><path fill="#4D4B4B" d="M60.5,72.6l1.4-0.8c0.1,0.2,0.2,0.4,0.3,0.7l-1.4,0.8C60.7,73,60.6,72.8,60.5,72.6"/><path fill="#4F4D4D" d="M60.7,73.2l1.4-0.8c0.1,0.2,0.2,0.4,0.3,0.7L61,73.9C60.9,73.7,60.8,73.4,60.7,73.2"/><path fill="#646262" d="M61,73.9l1.4-0.8c0.1,0.2,0.2,0.4,0.3,0.7l-1.4,0.8C61.2,74.3,61.1,74.1,61,73.9"/><path fill="#6D6B6B" d="M61.3,74.5l1.4-0.8c0.1,0.2,0.2,0.5,0.3,0.7l-1.4,0.8C61.6,75,61.4,74.8,61.3,74.5"/><path fill="#747272" d="M61.7,75.3l1.4-0.8c0.1,0.3,0.3,0.5,0.4,0.8l-1.4,0.8C62,75.8,61.8,75.5,61.7,75.3"/><path fill="#797878" d="M62.1,76.1l1.4-0.8c0.2,0.4,0.4,0.8,0.7,1.2l-1.4,0.8C62.5,76.9,62.3,76.5,62.1,76.1"/><path fill="#7E7D7D" d="M62.8,77.3l1.4-0.8c0.3,0.5,0.7,1.1,1,1.6l-1.4,0.8C63.4,78.4,63.1,77.8,62.8,77.3"/><path fill="#797878" d="M63.8,78.9l1.4-0.8c0.3,0.4,0.6,0.8,0.9,1.2l-1.4,0.8C64.4,79.7,64.1,79.3,63.8,78.9"/><path fill="#747272" d="M64.6,80.1l1.4-0.8c0.2,0.3,0.4,0.5,0.6,0.8l-1.4,0.8C65.1,80.7,64.8,80.4,64.6,80.1"/><path fill="#6D6B6B" d="M65.3,80.9l1.4-0.8c0.2,0.2,0.3,0.4,0.5,0.7l-1.4,0.8C65.6,81.4,65.4,81.1,65.3,80.9"/><path fill="#646262" d="M65.8,81.6l1.4-0.8c0.2,0.2,0.3,0.4,0.5,0.6l-1.4,0.8C66.1,82,66,81.8,65.8,81.6"/><path fill="#4F4D4D" d="M66.3,82.2l1.4-0.8c0.2,0.2,0.4,0.4,0.5,0.6l-1.4,0.8C66.7,82.6,66.5,82.4,66.3,82.2"/><path fill="#4D4B4B" d="M66.8,82.8l1.4-0.8c0.2,0.2,0.4,0.4,0.6,0.6l-1.4,0.8C67.2,83.2,67,83,66.8,82.8"/><path fill="#4C4A4A" d="M67.4,83.4l1.4-0.8c0.2,0.2,0.4,0.4,0.6,0.6L68,83.9C67.8,83.8,67.6,83.6,67.4,83.4"/><path fill="#4A4848" d="M68,83.9l1.4-0.8c0.2,0.2,0.4,0.4,0.6,0.6l-1.4,0.8C68.4,84.3,68.2,84.1,68,83.9"/><path fill="#494747" d="M68.6,84.5l1.4-0.8c0.2,0.2,0.4,0.4,0.6,0.5L69.2,85C69,84.9,68.8,84.7,68.6,84.5"/><path fill="#474545" d="M69.2,85l1.4-0.8c0.2,0.2,0.4,0.3,0.6,0.5l-1.4,0.8C69.6,85.4,69.4,85.2,69.2,85"/><path fill="#464444" d="M69.8,85.5l1.4-0.8c0.2,0.2,0.4,0.3,0.6,0.5L70.4,86C70.2,85.8,70,85.7,69.8,85.5"/><path fill="#444242" d="M70.4,86l1.4-0.8c0.2,0.1,0.4,0.3,0.6,0.4L71,86.4C70.8,86.3,70.6,86.1,70.4,86"/><path fill="#424141" d="M71,86.4l1.4-0.8c0.2,0.1,0.4,0.3,0.6,0.4l-1.4,0.8C71.4,86.7,71.2,86.5,71,86.4"/><path fill="#413F3F" d="M71.6,86.8L73,86c0.2,0.1,0.4,0.2,0.6,0.4l-1.4,0.8C72,87,71.8,86.9,71.6,86.8"/><path fill="#3F3E3E" d="M72.1,87.1l1.4-0.8c0,0,0.1,0.1,0.1,0.1l-1.4,0.8C72.2,87.2,72.2,87.2,72.1,87.1"/></g></g><path fill="#BFBFBF" d="M73.7,84.7c-6.7-3.9-12.1-13.3-12.1-21c0-3.8,1.4-6.5,3.5-7.8l-1.4,0.8c-2.2,1.3-3.5,4-3.5,7.8
			c0,7.7,5.4,17.1,12.1,21c3.4,1.9,6.4,2.1,8.6,0.8l1.4-0.8C80.1,86.8,77.1,86.6,73.7,84.7z"/><g enable-background="new"><defs><path id="C" d="M72.5,70c0,0.8,0.6,1.8,1.2,2.2L72.3,73c-0.7-0.4-1.3-1.4-1.2-2.2
					C71.5,70.5,72,70.3,72.5,70c-0.5,0.3-0.9,0.5-1.4,0.8c0-0.4,0.1-0.7,0.4-0.8l1.4-0.8C72.6,69.3,72.5,69.6,72.5,70z" enable-background="new"/></defs><clipPath id="D"><use overflow="visible" xlink:href="#C"/></clipPath><g clip-path="url(#D)" enable-background="new"><path fill="#707070" d="M71.4,70l1.4-0.8c-0.1,0-0.2,0.1-0.2,0.2l-1.4,0.8C71.3,70.1,71.4,70,71.4,70"/><path fill="#757575" d="M71.2,70.2l1.4-0.8c0,0,0,0.1,0,0.1L71.2,70.2C71.2,70.3,71.2,70.2,71.2,70.2"/><path fill="#797979" d="M71.2,70.3l1.4-0.8c0,0,0,0,0,0.1L71.2,70.3C71.2,70.3,71.2,70.3,71.2,70.3"/><path fill="#7D7D7D" d="M71.1,70.4l1.4-0.8c0,0,0,0,0,0.1L71.1,70.4C71.1,70.4,71.1,70.4,71.1,70.4"/><path fill="#828282" d="M71.1,70.4l1.4-0.8c0,0,0,0,0,0.1L71.1,70.4C71.1,70.5,71.1,70.4,71.1,70.4"/><path fill="#868686" d="M71.1,70.5l1.4-0.8c0,0,0,0,0,0.1L71.1,70.5C71.1,70.5,71.1,70.5,71.1,70.5"/><path fill="#8A8A8A" d="M71.1,70.5l1.4-0.8c0,0,0,0,0,0.1L71.1,70.5C71.1,70.6,71.1,70.6,71.1,70.5"/><path fill="#8F8F8F" d="M71.1,70.6l1.4-0.8c0,0,0,0,0,0.1L71.1,70.6C71.1,70.6,71.1,70.6,71.1,70.6"/><path fill="#939393" d="M71.1,70.7l1.4-0.8c0,0,0,0,0,0.1L71.1,70.7C71.1,70.7,71.1,70.7,71.1,70.7"/><path fill="#979797" d="M71.1,70.7l1.4-0.8c0,0,0,0,0,0.1L71.1,70.7C71.1,70.8,71.1,70.7,71.1,70.7"/><path fill="#9C9C9C" d="M71.1,70.8l1.4-0.8c0,0,0,0,0,0c0,0,0,0,0,0.1L71.1,70.8C71.1,70.8,71.1,70.8,71.1,70.8
					C71.1,70.8,71.1,70.8,71.1,70.8"/><path fill="#A0A0A0" d="M71.1,70.8l1.4-0.8c0,0,0,0,0,0.1L71.1,70.8C71.1,70.9,71.1,70.9,71.1,70.8"/><path fill="#A4A4A4" d="M71.1,70.9l1.4-0.8c0,0,0,0,0,0.1L71.1,70.9C71.1,70.9,71.1,70.9,71.1,70.9"/><path fill="#A8A8A8" d="M71.1,71l1.4-0.8c0,0,0,0,0,0.1L71.1,71C71.1,71,71.1,71,71.1,71"/><path fill="#ADADAD" d="M71.1,71l1.4-0.8c0,0,0,0,0,0.1L71.1,71C71.1,71.1,71.1,71.1,71.1,71"/><path fill="#B1B1B1" d="M71.1,71.1l1.4-0.8c0,0,0,0,0,0.1L71.1,71.1C71.1,71.1,71.1,71.1,71.1,71.1"/><path fill="#B5B5B5" d="M71.1,71.2l1.4-0.8c0,0,0,0,0,0.1L71.1,71.2C71.1,71.2,71.1,71.2,71.1,71.2"/><path fill="#BABABA" d="M71.1,71.2l1.4-0.8c0,0,0,0,0,0.1L71.1,71.2C71.1,71.3,71.1,71.2,71.1,71.2"/><path fill="#BEBEBE" d="M71.1,71.3l1.4-0.8c0,0,0,0,0,0.1L71.1,71.3C71.2,71.3,71.1,71.3,71.1,71.3"/><path fill="#C2C2C2" d="M71.2,71.4l1.4-0.8c0,0,0,0,0,0.1L71.2,71.4C71.2,71.4,71.2,71.4,71.2,71.4"/><path fill="#C7C7C7" d="M71.2,71.4l1.4-0.8c0,0,0,0,0,0.1L71.2,71.4C71.2,71.5,71.2,71.4,71.2,71.4"/><path fill="#CBCBCB" d="M71.2,71.5l1.4-0.8c0,0,0,0,0,0.1L71.2,71.5C71.2,71.5,71.2,71.5,71.2,71.5"/><path fill="#CFCFCF" d="M71.2,71.5l1.4-0.8c0,0,0,0,0,0.1L71.2,71.5C71.2,71.6,71.2,71.6,71.2,71.5"/><path fill="#D4D4D4" d="M71.2,71.6l1.4-0.8c0,0,0,0,0,0.1L71.2,71.6C71.3,71.7,71.3,71.6,71.2,71.6"/><path fill="#D8D8D8" d="M71.3,71.7l1.4-0.8c0,0,0,0,0,0.1L71.3,71.7C71.3,71.7,71.3,71.7,71.3,71.7"/><path fill="#DDD" d="M71.3,71.7l1.4-0.8c0,0,0,0,0,0.1L71.3,71.7C71.3,71.8,71.3,71.8,71.3,71.7"/><path fill="#DFDFDF" d="M71.3,71.8l1.4-0.8c0,0,0,0,0,0.1L71.3,71.8C71.3,71.8,71.3,71.8,71.3,71.8"/><path fill="#E0E0E0" d="M71.4,71.9l1.4-0.8c0,0,0,0.1,0,0.1L71.4,71.9C71.4,71.9,71.4,71.9,71.4,71.9"/><path fill="#E1E1E1" d="M71.4,71.9l1.4-0.8c0,0,0,0.1,0.1,0.1L71.5,72C71.4,72,71.4,72,71.4,71.9"/><path fill="#E2E2E2" d="M71.5,72l1.4-0.8c0,0.1,0.1,0.1,0.1,0.1l-1.4,0.8C71.5,72.1,71.5,72.1,71.5,72"/><path fill="#E1E1E1" d="M71.5,72.2l1.4-0.8c0,0,0.1,0.1,0.1,0.1l-1.4,0.8C71.6,72.3,71.6,72.2,71.5,72.2"/><path fill="#E0E0E0" d="M71.6,72.3l1.4-0.8c0,0,0,0,0.1,0.1L71.6,72.3C71.7,72.4,71.6,72.3,71.6,72.3"/><path fill="#DFDFDF" d="M71.7,72.4l1.4-0.8c0,0,0,0,0,0.1L71.7,72.4C71.7,72.4,71.7,72.4,71.7,72.4"/><path fill="#DDD" d="M71.7,72.4l1.4-0.8c0,0,0,0,0,0.1L71.7,72.4C71.8,72.5,71.7,72.5,71.7,72.4"/><path fill="#D8D8D8" d="M71.8,72.5l1.4-0.8c0,0,0,0,0,0.1L71.8,72.5C71.8,72.5,71.8,72.5,71.8,72.5"/><path fill="#D4D4D4" d="M71.8,72.5l1.4-0.8c0,0,0,0,0.1,0.1L71.8,72.5C71.9,72.6,71.8,72.6,71.8,72.5"/><path fill="#CFCFCF" d="M71.9,72.6l1.4-0.8c0,0,0,0,0.1,0.1L71.9,72.6C71.9,72.6,71.9,72.6,71.9,72.6"/><path fill="#CBCBCB" d="M71.9,72.7l1.4-0.8c0,0,0,0,0.1,0.1L71.9,72.7C72,72.7,71.9,72.7,71.9,72.7"/><path fill="#C7C7C7" d="M72,72.7l1.4-0.8c0,0,0,0,0.1,0L72,72.7C72,72.7,72,72.7,72,72.7"/><path fill="#C2C2C2" d="M72,72.8l1.4-0.8c0,0,0,0,0.1,0L72,72.8C72.1,72.8,72.1,72.8,72,72.8"/><path fill="#BEBEBE" d="M72.1,72.8l1.4-0.8c0,0,0,0,0.1,0L72.1,72.8C72.1,72.8,72.1,72.8,72.1,72.8"/><path fill="#BABABA" d="M72.2,72.8l1.4-0.8c0,0,0,0,0.1,0L72.2,72.8C72.2,72.9,72.2,72.9,72.2,72.8"/><path fill="#B5B5B5" d="M72.2,72.9l1.4-0.8c0,0,0,0,0.1,0L72.2,72.9C72.2,72.9,72.2,72.9,72.2,72.9"/><path fill="#B1B1B1" d="M72.3,72.9l1.4-0.8c0,0,0,0,0.1,0L72.3,72.9C72.3,72.9,72.3,72.9,72.3,72.9"/><polyline fill="#ADADAD" points="72.3 72.9 73.7 72.1 73.7 72.1 72.3 73 72.3 72.9"/></g></g><g enable-background="new"><defs><path id="E" d="M61.3,57C61.3,57,61.3,57,61.3,57C61.3,57,61.2,57,61.3,57
					c-0.1,0.1-0.2,0.1-0.2,0.1c-0.4,0.2-0.8,0.5-1.2,0.7c0.7-1.3,1.6-2.3,2.7-3L64,54C62.9,54.7,62,55.7,61.3,57z" enable-background="new"/></defs><clipPath id="F"><use overflow="visible" xlink:href="#E"/></clipPath><g clip-path="url(#F)" enable-background="new"><path fill="#292828" d="M62.6,54.8L64,54c-0.9,0.5-1.7,1.3-2.4,2.3l-1.4,0.8C60.9,56.2,61.7,55.4,62.6,54.8"/><path fill="#2B2A2A" d="M60.3,57.2l1.4-0.8c-0.2,0.3-0.4,0.6-0.5,0.9l-1.4,0.8C59.9,57.8,60.1,57.5,60.3,57.2"/></g></g><g enable-background="new"><defs><path id="G" d="M71.4,70l1.4-0.8c0.2-0.1,0.5-0.1,0.9,0.1l-1.4,0.8
					C72,69.9,71.7,69.9,71.4,70z" enable-background="new"/></defs><clipPath id="H"><use overflow="visible" xlink:href="#G"/></clipPath><g clip-path="url(#H)" enable-background="new"><path fill="#292828" d="M71.4,70l1.4-0.8c0,0,0.1,0,0.1,0l-1.4,0.8C71.5,69.9,71.5,70,71.4,70"/><path fill="#2B2A2A" d="M71.5,69.9l1.4-0.8c0,0,0.1,0,0.1,0L71.5,69.9C71.6,69.9,71.6,69.9,71.5,69.9"/><path fill="#2C2B2B" d="M71.6,69.9l1.4-0.8c0,0,0,0,0.1,0L71.6,69.9C71.7,69.9,71.7,69.9,71.6,69.9"/><path fill="#2E2D2D" d="M71.7,69.9l1.4-0.8c0,0,0,0,0.1,0L71.7,69.9C71.7,69.9,71.7,69.9,71.7,69.9"/><path fill="#2F2E2E" d="M71.8,69.9l1.4-0.8c0,0,0,0,0.1,0L71.8,69.9C71.8,69.9,71.8,69.9,71.8,69.9"/><path fill="#313030" d="M71.8,69.9l1.4-0.8c0,0,0,0,0.1,0L71.8,69.9C71.9,69.9,71.8,69.9,71.8,69.9"/><path fill="#333131" d="M71.9,69.9l1.4-0.8c0,0,0,0,0.1,0L71.9,69.9C71.9,69.9,71.9,69.9,71.9,69.9"/><path fill="#343333" d="M71.9,69.9l1.4-0.8c0,0,0,0,0.1,0L71.9,69.9C72,69.9,72,69.9,71.9,69.9"/><path fill="#363434" d="M72,69.9l1.4-0.8c0,0,0,0,0.1,0L72,69.9C72,69.9,72,69.9,72,69.9"/><path fill="#373636" d="M72,69.9l1.4-0.8c0,0,0,0,0.1,0L72,69.9C72.1,70,72.1,69.9,72,69.9"/><path fill="#393737" d="M72.1,70l1.4-0.8c0,0,0,0,0.1,0L72.1,70C72.1,70,72.1,70,72.1,70"/><path fill="#3A3939" d="M72.1,70l1.4-0.8c0,0,0,0,0,0L72.1,70C72.2,70,72.2,70,72.1,70"/><path fill="#3C3B3B" d="M72.2,70l1.4-0.8c0,0,0,0,0.1,0L72.2,70C72.2,70,72.2,70,72.2,70"/><path fill="#3E3C3C" d="M72.2,70l1.4-0.8c0,0,0,0,0.1,0L72.2,70C72.3,70,72.3,70,72.2,70"/><path fill="#3F3E3E" d="M72.3,70l1.4-0.8c0,0,0,0,0,0L72.3,70C72.3,70.1,72.3,70.1,72.3,70"/></g></g><g enable-background="new"><defs><path id="I" d="M74.6,72.2L73.2,73c0.2-0.1,0.4-0.4,0.4-0.8c0-0.8-0.6-1.8-1.3-2.2l1.4-0.8
					c0.7,0.4,1.3,1.4,1.3,2.2C75,71.8,74.8,72.1,74.6,72.2z" enable-background="new"/></defs><clipPath id="J"><use overflow="visible" xlink:href="#I"/></clipPath><g clip-path="url(#J)" enable-background="new"><polyline fill="#3F3E3E" points="72.3 70.1 73.7 69.3 73.7 69.3 72.3 70.1 72.3 70.1"/><path fill="#413F3F" d="M72.3,70.1l1.4-0.8c0,0,0,0,0.1,0L72.3,70.1C72.4,70.1,72.4,70.1,72.3,70.1"/><path fill="#424141" d="M72.4,70.1l1.4-0.8c0,0,0,0,0.1,0L72.4,70.1C72.4,70.1,72.4,70.1,72.4,70.1"/><path fill="#444242" d="M72.5,70.1l1.4-0.8c0,0,0,0,0.1,0L72.5,70.1C72.5,70.2,72.5,70.2,72.5,70.1"/><path fill="#464444" d="M72.5,70.2l1.4-0.8c0,0,0,0,0.1,0L72.5,70.2C72.5,70.2,72.5,70.2,72.5,70.2"/><path fill="#474545" d="M72.6,70.2l1.4-0.8c0,0,0,0,0.1,0L72.6,70.2C72.6,70.3,72.6,70.2,72.6,70.2"/><path fill="#494747" d="M72.6,70.3l1.4-0.8c0,0,0,0,0.1,0L72.6,70.3C72.7,70.3,72.6,70.3,72.6,70.3"/><path fill="#4A4848" d="M72.7,70.3l1.4-0.8c0,0,0,0,0.1,0.1L72.7,70.3C72.7,70.4,72.7,70.3,72.7,70.3"/><path fill="#4C4A4A" d="M72.7,70.4l1.4-0.8c0,0,0,0,0.1,0.1L72.7,70.4C72.8,70.4,72.7,70.4,72.7,70.4"/><path fill="#4D4B4B" d="M72.8,70.4l1.4-0.8c0,0,0,0,0.1,0.1L72.8,70.4C72.8,70.5,72.8,70.4,72.8,70.4"/><path fill="#4F4D4D" d="M72.8,70.5l1.4-0.8c0,0,0,0,0,0.1L72.8,70.5C72.9,70.5,72.8,70.5,72.8,70.5"/><path fill="#646262" d="M72.9,70.5l1.4-0.8c0,0,0,0,0,0.1L72.9,70.5C72.9,70.6,72.9,70.6,72.9,70.5"/><path fill="#6D6B6B" d="M72.9,70.6l1.4-0.8c0,0,0,0,0,0.1L72.9,70.6C73,70.6,72.9,70.6,72.9,70.6"/><path fill="#747272" d="M73,70.6l1.4-0.8c0,0,0,0,0.1,0.1L73,70.6C73,70.7,73,70.7,73,70.6"/><path fill="#797878" d="M73,70.7l1.4-0.8c0,0,0.1,0.1,0.1,0.1l-1.4,0.8C73.1,70.8,73.1,70.8,73,70.7"/><path fill="#7E7D7D" d="M73.1,70.8l1.4-0.8c0,0,0.1,0.1,0.1,0.1L73.2,71C73.2,70.9,73.1,70.9,73.1,70.8"/><path fill="#797878" d="M73.2,71l1.4-0.8c0,0,0,0.1,0.1,0.1l-1.4,0.8C73.2,71.1,73.2,71,73.2,71"/><path fill="#747272" d="M73.3,71.1l1.4-0.8c0,0,0,0.1,0,0.1L73.3,71.1C73.3,71.1,73.3,71.1,73.3,71.1"/><path fill="#6D6B6B" d="M73.3,71.2l1.4-0.8c0,0,0,0,0,0.1L73.3,71.2C73.3,71.2,73.3,71.2,73.3,71.2"/><path fill="#646262" d="M73.3,71.2l1.4-0.8c0,0,0,0,0,0.1L73.3,71.2C73.4,71.3,73.3,71.3,73.3,71.2"/><path fill="#4F4D4D" d="M73.4,71.3l1.4-0.8c0,0,0,0,0,0.1L73.4,71.3C73.4,71.3,73.4,71.3,73.4,71.3"/><path fill="#4D4B4B" d="M73.4,71.4l1.4-0.8c0,0,0,0,0,0.1L73.4,71.4C73.4,71.4,73.4,71.4,73.4,71.4"/><path fill="#4C4A4A" d="M73.4,71.4l1.4-0.8c0,0,0,0,0,0.1L73.4,71.4C73.4,71.5,73.4,71.4,73.4,71.4"/><path fill="#4A4848" d="M73.4,71.5l1.4-0.8c0,0,0,0,0,0.1L73.4,71.5C73.5,71.5,73.4,71.5,73.4,71.5"/><path fill="#494747" d="M73.5,71.5l1.4-0.8c0,0,0,0,0,0.1L73.5,71.5C73.5,71.6,73.5,71.6,73.5,71.5"/><path fill="#474545" d="M73.5,71.6l1.4-0.8c0,0,0,0,0,0.1L73.5,71.6C73.5,71.7,73.5,71.6,73.5,71.6"/><path fill="#464444" d="M73.5,71.7l1.4-0.8c0,0,0,0,0,0.1L73.5,71.7C73.5,71.7,73.5,71.7,73.5,71.7"/><path fill="#444242" d="M73.5,71.7l1.4-0.8c0,0,0,0,0,0.1L73.5,71.7C73.5,71.8,73.5,71.8,73.5,71.7"/><path fill="#424141" d="M73.5,71.8l1.4-0.8c0,0,0,0,0,0.1L73.5,71.8C73.5,71.8,73.5,71.8,73.5,71.8"/><path fill="#413F3F" d="M73.5,71.9l1.4-0.8c0,0,0,0,0,0.1L73.5,71.9C73.6,71.9,73.6,71.9,73.5,71.9"/><path fill="#3F3E3E" d="M73.6,71.9l1.4-0.8c0,0,0,0,0,0.1L73.6,71.9C73.6,72,73.6,72,73.6,71.9"/><path fill="#3E3C3C" d="M73.6,72l1.4-0.8c0,0,0,0,0,0.1L73.6,72C73.6,72,73.6,72,73.6,72"/><path fill="#3C3B3B" d="M73.6,72.1l1.4-0.8c0,0,0,0,0,0.1L73.6,72.1C73.6,72.1,73.6,72.1,73.6,72.1"/><path fill="#3A3939" d="M73.6,72.1l1.4-0.8c0,0,0,0,0,0.1L73.6,72.1C73.6,72.2,73.6,72.1,73.6,72.1"/><path fill="#393737" d="M73.6,72.2l1.4-0.8c0,0,0,0,0,0.1c0,0,0,0,0,0L73.6,72.2C73.6,72.2,73.6,72.2,73.6,72.2
					C73.6,72.2,73.6,72.2,73.6,72.2"/><path fill="#373636" d="M73.6,72.2l1.4-0.8c0,0,0,0,0,0.1L73.6,72.2C73.6,72.3,73.6,72.3,73.6,72.2"/><path fill="#363434" d="M73.6,72.3l1.4-0.8c0,0,0,0,0,0.1L73.6,72.3C73.6,72.3,73.6,72.3,73.6,72.3"/><path fill="#343333" d="M73.6,72.4l1.4-0.8c0,0,0,0,0,0.1L73.6,72.4C73.6,72.4,73.6,72.4,73.6,72.4"/><path fill="#333131" d="M73.6,72.4l1.4-0.8c0,0,0,0,0,0.1L73.6,72.4C73.6,72.5,73.6,72.4,73.6,72.4"/><path fill="#313030" d="M73.6,72.5l1.4-0.8c0,0,0,0,0,0.1L73.6,72.5C73.6,72.5,73.6,72.5,73.6,72.5"/><path fill="#2F2E2E" d="M73.6,72.5l1.4-0.8c0,0,0,0,0,0.1L73.6,72.5C73.5,72.6,73.5,72.6,73.6,72.5"/><path fill="#2E2D2D" d="M73.5,72.6l1.4-0.8c0,0,0,0,0,0.1L73.5,72.6C73.5,72.7,73.5,72.6,73.5,72.6"/><path fill="#2C2B2B" d="M73.5,72.7l1.4-0.8c0,0,0,0,0,0.1L73.5,72.7C73.5,72.7,73.5,72.7,73.5,72.7"/><path fill="#2B2A2A" d="M73.5,72.7l1.4-0.8c0,0,0,0.1,0,0.1L73.5,72.7C73.5,72.8,73.5,72.8,73.5,72.7"/><path fill="#292828" d="M73.4,72.8l1.4-0.8c-0.1,0.1-0.1,0.2-0.2,0.2L73.2,73C73.3,73,73.4,72.9,73.4,72.8"/></g></g><path fill="#D8D8D8" d="M77.6,66.3c-0.5-0.3-1-0.3-1.3-0.1L71,69.2c0.3-0.2,0.8-0.2,1.3,0.1c1,0.6,1.9,2.1,1.9,3.2
			c0,0.6-0.2,1-0.5,1.2l5.3-3.1c0.3-0.2,0.5-0.6,0.5-1.2C79.5,68.3,78.6,66.9,77.6,66.3z"/><g enable-background="new"><defs><path id="K" d="M83.4,87.4L82,88.2c2.5-1.4,4-4.5,4-8.8c0-8.7-6.1-19.2-13.6-23.6l1.4-0.8
					c7.6,4.4,13.7,14.9,13.6,23.6C87.4,82.9,85.9,85.9,83.4,87.4z" enable-background="new"/></defs><clipPath id="L"><use overflow="visible" xlink:href="#K"/></clipPath><g clip-path="url(#L)" enable-background="new"><path fill="#ADADAD" d="M72.4,55.8l1.4-0.8c0,0,0.1,0.1,0.1,0.1l-1.4,0.8C72.5,55.9,72.4,55.8,72.4,55.8"/><path fill="#B1B1B1" d="M72.5,55.9l1.4-0.8c0.2,0.1,0.4,0.2,0.6,0.4l-1.4,0.8C72.9,56.1,72.7,56,72.5,55.9"/><path fill="#B5B5B5" d="M73.1,56.2l1.4-0.8c0.2,0.1,0.4,0.3,0.6,0.4l-1.4,0.8C73.5,56.5,73.3,56.4,73.1,56.2"/><path fill="#BABABA" d="M73.7,56.6l1.4-0.8c0.2,0.1,0.4,0.3,0.6,0.4L74.3,57C74.1,56.9,73.9,56.8,73.7,56.6"/><path fill="#BEBEBE" d="M74.3,57l1.4-0.8c0.2,0.1,0.4,0.3,0.6,0.5l-1.4,0.8C74.7,57.3,74.5,57.2,74.3,57"/><path fill="#C2C2C2" d="M74.9,57.5l1.4-0.8c0.2,0.2,0.4,0.3,0.6,0.5L75.5,58C75.3,57.8,75.1,57.7,74.9,57.5"/><path fill="#C7C7C7" d="M75.5,58l1.4-0.8c0.2,0.2,0.4,0.3,0.6,0.5l-1.4,0.8C75.9,58.3,75.7,58.2,75.5,58"/><path fill="#CBCBCB" d="M76.1,58.5l1.4-0.8c0.2,0.2,0.4,0.4,0.6,0.6l-1.4,0.8C76.5,58.9,76.3,58.7,76.1,58.5"/><path fill="#CFCFCF" d="M76.7,59.1l1.4-0.8c0.2,0.2,0.4,0.4,0.6,0.6l-1.4,0.8C77.1,59.5,76.9,59.3,76.7,59.1"/><path fill="#D4D4D4" d="M77.3,59.7l1.4-0.8c0.2,0.2,0.4,0.4,0.6,0.6l-1.4,0.8C77.6,60,77.4,59.8,77.3,59.7"/><path fill="#D8D8D8" d="M77.8,60.2l1.4-0.8c0.2,0.2,0.4,0.4,0.5,0.6l-1.4,0.8C78.2,60.6,78,60.4,77.8,60.2"/><path fill="#DDD" d="M78.3,60.8l1.4-0.8c0.2,0.2,0.4,0.4,0.5,0.6l-1.4,0.8C78.7,61.2,78.5,61,78.3,60.8"/><path fill="#DFDFDF" d="M78.9,61.4l1.4-0.8c0.2,0.2,0.4,0.4,0.5,0.7l-1.4,0.8C79.2,61.9,79.1,61.7,78.9,61.4"/><path fill="#E0E0E0" d="M79.4,62.1l1.4-0.8c0.2,0.3,0.4,0.5,0.6,0.8L80,62.9C79.8,62.6,79.6,62.4,79.4,62.1"/><path fill="#E1E1E1" d="M80,62.9l1.4-0.8c0.3,0.4,0.6,0.8,0.9,1.2l-1.4,0.8C80.6,63.7,80.3,63.3,80,62.9"/><path fill="#E2E2E2" d="M80.9,64.1l1.4-0.8c0.4,0.5,0.7,1.1,1,1.6l-1.4,0.8C81.6,65.2,81.2,64.7,80.9,64.1"/><path fill="#E1E1E1" d="M81.9,65.7l1.4-0.8c0.2,0.4,0.5,0.8,0.7,1.2l-1.4,0.8C82.3,66.5,82.1,66.1,81.9,65.7"/><path fill="#E0E0E0" d="M82.6,66.9l1.4-0.8c0.1,0.3,0.3,0.5,0.4,0.8L83,67.8C82.8,67.5,82.7,67.2,82.6,66.9"/><path fill="#DFDFDF" d="M83,67.8l1.4-0.8c0.1,0.2,0.2,0.5,0.3,0.7l-1.4,0.8C83.2,68.2,83.1,68,83,67.8"/><path fill="#DDD" d="M83.3,68.5l1.4-0.8c0.1,0.2,0.2,0.4,0.3,0.7l-1.4,0.8C83.5,68.9,83.4,68.7,83.3,68.5"/><path fill="#D8D8D8" d="M83.6,69.1l1.4-0.8c0.1,0.2,0.2,0.4,0.3,0.7l-1.4,0.8C83.8,69.6,83.7,69.4,83.6,69.1"/><path fill="#D4D4D4" d="M83.9,69.8l1.4-0.8c0.1,0.2,0.2,0.4,0.3,0.7l-1.4,0.8C84.1,70.2,84,70,83.9,69.8"/><path fill="#CFCFCF" d="M84.2,70.5l1.4-0.8c0.1,0.2,0.2,0.4,0.3,0.7l-1.4,0.8C84.4,70.9,84.3,70.7,84.2,70.5"/><path fill="#CBCBCB" d="M84.4,71.1l1.4-0.8c0.1,0.2,0.2,0.5,0.2,0.7l-1.4,0.8C84.6,71.6,84.5,71.4,84.4,71.1"/><path fill="#C7C7C7" d="M84.7,71.8l1.4-0.8c0.1,0.2,0.2,0.5,0.2,0.7l-1.4,0.8C84.8,72.3,84.8,72.1,84.7,71.8"/><path fill="#C2C2C2" d="M84.9,72.5l1.4-0.8c0.1,0.2,0.1,0.5,0.2,0.7l-1.4,0.8C85,73,85,72.8,84.9,72.5"/><path fill="#BEBEBE" d="M85.1,73.3l1.4-0.8c0.1,0.2,0.1,0.5,0.2,0.7L85.3,74C85.2,73.7,85.2,73.5,85.1,73.3"/><path fill="#BABABA" d="M85.3,74l1.4-0.8c0.1,0.2,0.1,0.5,0.2,0.7l-1.4,0.8C85.4,74.5,85.4,74.2,85.3,74"/><path fill="#B5B5B5" d="M85.5,74.7l1.4-0.8c0.1,0.2,0.1,0.5,0.1,0.7l-1.4,0.8C85.6,75.2,85.5,74.9,85.5,74.7"/><path fill="#B1B1B1" d="M85.6,75.4l1.4-0.8c0,0.2,0.1,0.5,0.1,0.7l-1.4,0.8C85.7,75.9,85.7,75.6,85.6,75.4"/><path fill="#ADADAD" d="M85.7,76.1l1.4-0.8c0,0.2,0.1,0.5,0.1,0.7l-1.4,0.8C85.8,76.6,85.8,76.3,85.7,76.1"/><path fill="#A8A8A8" d="M85.8,76.8l1.4-0.8c0,0.2,0.1,0.4,0.1,0.7l-1.4,0.8C85.9,77.2,85.9,77,85.8,76.8"/><path fill="#A4A4A4" d="M85.9,77.5l1.4-0.8c0,0.2,0,0.4,0.1,0.7L86,78.1C85.9,77.9,85.9,77.7,85.9,77.5"/><path fill="#A0A0A0" d="M86,78.1l1.4-0.8c0,0.2,0,0.4,0,0.7L86,78.8C86,78.6,86,78.4,86,78.1"/><path fill="#9C9C9C" d="M86,78.8l1.4-0.8c0,0.2,0,0.4,0,0.6c0,0,0,0,0,0L86,79.4c0,0,0,0,0,0C86,79.2,86,79,86,78.8"/><path fill="#979797" d="M86,79.4l1.4-0.8c0,0.2,0,0.4,0,0.7L86,80.1C86,79.9,86,79.7,86,79.4"/><path fill="#939393" d="M86,80.1l1.4-0.8c0,0.2,0,0.4,0,0.6l-1.4,0.8C86,80.5,86,80.3,86,80.1"/><path fill="#8F8F8F" d="M85.9,80.8l1.4-0.8c0,0.2,0,0.4-0.1,0.7l-1.4,0.8C85.9,81.2,85.9,81,85.9,80.8"/><path fill="#8A8A8A" d="M85.9,81.4l1.4-0.8c0,0.2-0.1,0.4-0.1,0.7l-1.4,0.8C85.8,81.9,85.8,81.6,85.9,81.4"/><path fill="#868686" d="M85.8,82.1l1.4-0.8c0,0.2-0.1,0.5-0.1,0.7l-1.4,0.8C85.7,82.5,85.7,82.3,85.8,82.1"/><path fill="#828282" d="M85.6,82.7l1.4-0.8c-0.1,0.2-0.1,0.5-0.2,0.7l-1.4,0.8C85.5,83.2,85.6,83,85.6,82.7"/><path fill="#7D7D7D" d="M85.5,83.4l1.4-0.8c-0.1,0.2-0.2,0.5-0.2,0.7l-1.4,0.8C85.3,83.9,85.4,83.7,85.5,83.4"/><path fill="#797979" d="M85.2,84.1l1.4-0.8c-0.1,0.3-0.2,0.5-0.3,0.8l-1.4,0.8C85,84.7,85.1,84.4,85.2,84.1"/><path fill="#757575" d="M84.9,84.9l1.4-0.8c-0.2,0.3-0.3,0.6-0.5,0.9l-1.4,0.8C84.6,85.6,84.7,85.3,84.9,84.9"/><path fill="#707070" d="M84.4,85.9l1.4-0.8c-0.6,1-1.4,1.8-2.4,2.3L82,88.2C82.9,87.6,83.7,86.9,84.4,85.9"/></g></g><path fill="#E8E8E8" d="M72.4,55.8C79.9,60.2,86,70.7,86,79.4c0,8.7-6.2,12.2-13.7,7.8c-7.5-4.4-13.7-14.9-13.6-23.6
				C58.7,54.9,64.8,51.4,72.4,55.8z M72.3,85.5c6.7,3.9,12.2,0.8,12.2-6.9c0-7.7-5.4-17.1-12.1-21c-6.7-3.9-12.2-0.8-12.2,6.9
				C60.2,72.2,65.6,81.6,72.3,85.5"/><path fill="#686868" d="M73.8,53.3c-4.2-2.4-8-2.7-10.8-1.1L61.6,53c2.8-1.6,6.6-1.4,10.8,1.1c8.4,4.8,15.1,16.5,15.1,26.2
			c0,4.8-1.7,8.1-4.4,9.7l1.4-0.8c2.7-1.6,4.4-4.9,4.4-9.7C88.9,69.8,82.1,58.1,73.8,53.3z"/><path fill="#3D3D3D" d="M72.4,54.1c8.4,4.8,15.1,16.5,15.1,26.2c0,9.6-6.8,13.5-15.2,8.7c-8.4-4.8-15.1-16.5-15.1-26.2
				C57.2,53.2,64,49.3,72.4,54.1z M72.3,87.2c7.6,4.4,13.7,0.9,13.7-7.8c0-8.7-6.1-19.2-13.6-23.6c-7.5-4.4-13.7-0.9-13.7,7.8
				C58.6,72.3,64.7,82.9,72.3,87.2"/><path fill="#3D3D3D" d="M72.3,70.1c0.7,0.4,1.3,1.4,1.3,2.2c0,0.8-0.6,1.1-1.3,0.7c-0.7-0.4-1.3-1.4-1.2-2.2
				C71.1,70,71.6,69.7,72.3,70.1z"/><path fill="#E8E8E8" d="M72.3,69.4c1,0.6,1.9,2.1,1.9,3.2c0,1.2-0.9,1.7-1.9,1.1c-1-0.6-1.9-2.1-1.9-3.2
				C70.5,69.2,71.3,68.8,72.3,69.4z M72.3,73c0.7,0.4,1.3,0.1,1.3-0.7c0-0.8-0.6-1.8-1.3-2.2c-0.7-0.4-1.3-0.1-1.3,0.7
				C71.1,71.6,71.6,72.6,72.3,73"/><polygon fill="#DD454D" points="64.2 47.5 65.9 46.5 73.4 70.7 71.7 71.7"/><polygon fill="#EF595A" points="64.2 47.5 62.3 47.4 69.8 71.5 71.7 71.7"/><polygon fill="#BC2B3A" points="64.1 46.4 62.3 47.4 64.2 47.5 65.9 46.5"/><path fill="#EF595A" d="M74.4,73.4c0,2-1.4,2.8-3.2,1.8c-1.8-1-3.2-3.5-3.2-5.5c0-2,1.4-2.8,3.2-1.8
						C73,68.9,74.5,71.3,74.4,73.4z"/><path fill="#3D3D3D" d="M72.7,72.3c0,0.9-0.6,1.2-1.4,0.8c-0.8-0.4-1.4-1.5-1.4-2.4c0-0.9,0.6-1.2,1.4-0.8
						C72,70.4,72.7,71.4,72.7,72.3z"/><polygon fill="#EF595A" points="72.3 43.5 64.2 47.5 62.3 47.4 70.4 43.3"/><polygon fill="#EF595A" points="72.4 43 63.9 47.2 62 47.1 70.5 42.8"/><polygon fill="#BC2B3A" points="72.4 43 63.9 47.2 64.2 47.5 72.3 43.5"/><polygon fill="#DD454D" points="63.9 47.2 62 47.1 62.3 47.4 64.2 47.5"/><polygon fill="#DD454D" points="63.6 35.1 65.3 34.1 68.6 44.7 66.9 45.7"/><g><path fill="#EF595A" d="M18.3,37.2c1.4,0.8,2.6,2.8,2.6,4.5c0,1.7-1.2,2.3-2.6,1.5c-1.4-0.8-2.6-2.8-2.6-4.5
			C15.7,37,16.9,36.4,18.3,37.2z"/></g><g><path fill="#3D3D3D" d="M18.3,38.7c0.7,0.4,1.3,1.4,1.3,2.3c0,0.8-0.6,1.2-1.3,0.8c-0.7-0.4-1.3-1.4-1.3-2.3
			C17,38.6,17.6,38.2,18.3,38.7z"/></g><g><g enable-background="new"><path fill="#BFBFBF" d="M77.1,24.3l-0.4-0.2c-0.2-0.1-0.3-0.1-0.4,0l-1.7,1c0.1-0.1,0.2,0,0.4,0l0.4,0.2
					c0.6,0.3,1.1,0.4,1.4,0.1l1.7-1C78.1,24.7,77.6,24.7,77.1,24.3z"/><path fill="#7C7C7C" d="M75.3,19.4c1.6,0.9,3.1,3.2,3.2,5.1c0.1,2.1-1.3,3-3.1,2L75,26.4c-0.3-0.2-0.5-0.6-0.5-0.9
						c0-0.3,0.2-0.5,0.5-0.3l0.4,0.2c1.2,0.7,2.1,0.1,2-1.4c-0.1-1.3-1-2.7-2.1-3.3L70.6,18l0-1.2L75.3,19.4z"/></g><polygon fill="#929393" points="49.8 31.4 49.8 32.7 72.6 19.1 72.6 17.9"/><g enable-background="new"><path fill="#BFBFBF" d="M52.6,38.9l-0.4-0.2c-0.2-0.1-0.3-0.1-0.4,0l-1.7,1c0.1-0.1,0.2,0,0.4,0l0.4,0.2
					c0.6,0.3,1.1,0.4,1.4,0.1l1.7-1C53.7,39.2,53.2,39.2,52.6,38.9z"/><path fill="#7C7C7C" d="M50.8,34c1.6,0.9,3.1,3.2,3.2,5.1c0.1,2.1-1.3,3-3.1,2C50.8,41,50,40.8,50,40c0-0.3,0.2-0.5,0.5-0.3
						l0.4,0.2c1.2,0.7,2.1,0.1,2-1.4c-0.1-1.3-1-2.7-2.1-3.3l-4.7-2.7l0-1.2L50.8,34z"/></g><path fill="#E8E8E8" d="M80.2,23.6c-0.1-1.9-1.5-4.2-3.2-5.1l-4.7-2.7L46.1,31.3l4.7,2.7c1.6,0.9,3.1,3.2,3.2,5.1
			c0.1,1.1-0.3,1.9-0.9,2.2l1.7-1c0.6-0.3,0.9-1.1,0.9-2.2c-0.1-1.9-1.5-4.2-3.2-5.1l-2.7-1.6l0,0l22.7-13.5l2.7,1.6
			c1.6,0.9,3.1,3.2,3.2,5.1c0.1,1.1-0.3,1.9-0.9,2.2l1.7-1C79.9,25.4,80.2,24.7,80.2,23.6z"/></g><g><g enable-background="new"><polygon fill="#747474" points="36.8 64.8 36.8 65.7 35.8 65.1 35.8 64.3"/><polygon fill="#747474" points="38.4 65.8 38.4 66.6 37.4 66 37.4 65.2"/><polygon fill="#AFAFAF" points="35.8 64.3 35.8 65.1 31.6 67.6 31.6 66.7"/><polygon fill="#AFAFAF" points="37.4 65.2 37.4 66 33.2 68.5 33.2 67.7"/><polygon fill="#929393" points="34.2 68.9 34.2 69.8 30.4 67.6 30.4 66.7"/><polygon fill="#AFAFAF" points="39.7 65.8 39.7 66.6 34.2 69.8 34.2 68.9"/><path fill="#D8D8D8" d="M35.8,63.6l3.8,2.2l-5.5,3.2l-3.8-2.2L35.8,63.6z M32.6,67.3l4.2-2.5l-1-0.6l-4.2,2.5L32.6,67.3
					 M34.2,68.2l4.2-2.5l-1-0.6l-4.2,2.5L34.2,68.2"/></g></g></svg>