<?xml version="1.0" encoding="UTF-8"?><svg xmlns="http://www.w3.org/2000/svg" xmlns:xlink="http://www.w3.org/1999/xlink" version="1.1" id="_x33_d_printer" x="0px" y="0px" viewBox="0 0 512 512" xml:space="preserve"><style type="text/css">.st0{fill:#F4B606;} .st1{fill:none;stroke:#F4B606;stroke-width:7;stroke-linecap:square;stroke-miterlimit:10;} .st2{fill:#272838;}</style><path class="st0" fill="#F4B606" d="M400 215h41v171h-41z"/><path class="st1" d="M221 151.5c0-55 44.5-99.5 99.5-99.5S420 96.5 420 151.5v98" fill="none" stroke="#F4B606" stroke-linecap="square" stroke-miterlimit="10" stroke-width="7"/><path class="st2" fill="#272838" d="M376.2 270H451v61h-74.8z"/><path class="st2" fill="#272838" d="M61 84h320v22H61z"/><path class="st2" fill="#272838" d="M61 397h320v50H61z"/><path class="st2" fill="#272838" d="M78 442h30v22H78z"/><path class="st2" fill="#272838" d="M341.8 441h25v22h-25z"/><path class="st2" fill="#272838" d="M61 84h12v363H61z"/><path class="st2" fill="#272838" d="M371 84h10v363h-10z"/><path class="st2" fill="#272838" d="M121.9 344h195.8v53H121.9z"/><path class="st0" fill="#F4B606" d="M178.6 275h83.3v69h-83.3z"/><path class="st2" fill="#272838" d="M65 145h310v21H65z"/><path class="st0" fill="#F4B606" d="M230.1 177.4l-9.8 17.8-9.9-17.8z"/><path class="st2" d="M232.8 182.7h-24.6c-6.2 0-11.2-5-11.2-11.2v-23.7c0-6.2 5-11.2 11.2-11.2h24.6c6.2 0 11.2 5 11.2 11.2v23.7c0 6.1-5 11.2-11.2 11.2z" fill="#272838"/><path class="st2" fill="#272838" d="M72 132.6h12v46.1H72z"/><path class="st2" fill="#272838" d="M395 203h9.8v195H395z"/><path class="st2" fill="#272838" d="M436.2 203h9.8v195h-9.8z"/><metadata><rdf:RDF xmlns:rdf="http://www.w3.org/1999/02/22-rdf-syntax-ns#" xmlns:rdfs="http://www.w3.org/2000/01/rdf-schema#" xmlns:dc="http://purl.org/dc/elements/1.1/"><rdf:Description about="https://iconscout.com/legal#licenses" dc:title="d,printer" dc:description="d,printer" dc:publisher="Iconscout" dc:date="2018-03-01" dc:format="image/svg+xml" dc:language="en"><dc:creator><rdf:Bag><rdf:li>Alla Afanasenko</rdf:li></rdf:Bag></dc:creator></rdf:Description></rdf:RDF></metadata></svg>