<?xml version="1.0" encoding="UTF-8"?><!DOCTYPE svg PUBLIC "-//W3C//DTD SVG 1.1//EN" "http://www.w3.org/Graphics/SVG/1.1/DTD/svg11.dtd"><svg xmlns="http://www.w3.org/2000/svg" xmlns:xlink="http://www.w3.org/1999/xlink" version="1.1" x="0px" y="0px" width="64px" height="64px" viewBox="0 0 64 64" xml:space="preserve"><g id="_x33_7_3D_x2C__printer_x2C__technology_x2C__future_x2C__science"><path fill="#F5F7FA" d="M8 8h48v6H36v-3h-8v3H8z"/><path fill="#CCD1D9" d="M8 14h20v6H8z"/><path fill="#CCD1D9" d="M36 14h20v6H36z"/><path fill="#ED5565" d="M36 20v3h-8V11h8v3z"/><path fill="#DA4453" d="M32 11v12h4V11z"/><path fill="#656D78" d="M34 23v4h-4v-4z"/><path fill="#F5F7FA" d="M36 23v-3h20v31H45V33H19v18H8V20h20v3h2v4h4v-4z"/><path fill="#4A89DC" d="M38 33h7v18h-7z"/><path fill="#5D9CEC" d="M38 33v18H19V33h6z"/><path fill="#CCD1D9" d="M56 51v4H8v-4h37z"/><path fill="#656D78" d="M63 7v50c0 3.3-2.7 6-6 6H7c-3.3 0-6-2.7-6-6V7c0-3.3 2.7-6 6-6h50c3.3 0 6 2.7 6 6zm-7 48V8H8v47h48z"/><path fill="#434A54" d="M57 1h-4c3.3 0 6 2.7 6 6v50c0 3.3-2.7 6-6 6h4c3.3 0 6-2.7 6-6V7c0-3.3-2.7-6-6-6z"/><g><path d="M44.03 60c-.553 0-1.005-.447-1.005-1s.442-1 .994-1h.011a1 1 0 1 1 0 2z"/><path d="M48.03 60c-.553 0-1.005-.447-1.005-1s.442-1 .994-1h.011a1 1 0 1 1 0 2z"/><path d="M52.03 60c-.553 0-1.005-.447-1.005-1s.442-1 .994-1h.011a1 1 0 1 1 0 2z"/><path d="M12.03 60c-.553 0-1.005-.447-1.005-1s.442-1 .994-1h.011a1 1 0 1 1 0 2z"/><path d="M16.03 60c-.553 0-1.005-.447-1.005-1s.442-1 .994-1h.011a1 1 0 1 1 0 2z"/><path d="M20.03 60c-.553 0-1.005-.447-1.005-1s.442-1 .994-1h.011a1 1 0 1 1 0 2z"/><path d="M57 64H7c-3.859 0-7-3.141-7-7V7c0-3.859 3.141-7 7-7h50c3.859 0 7 3.141 7 7v50c0 3.859-3.141 7-7 7zM7 2C4.243 2 2 4.243 2 7v50c0 2.757 2.243 5 5 5h50c2.757 0 5-2.243 5-5V7c0-2.757-2.243-5-5-5H7z"/><path d="M56 52H8a1 1 0 1 1 0-2h48a1 1 0 1 1 0 2z"/><path d="M38 52a1 1 0 0 1-1-1V34H20v17a1 1 0 1 1-2 0V33a1 1 0 0 1 1-1h19a1 1 0 0 1 1 1v18a1 1 0 0 1-1 1z"/><path d="M45 52a1 1 0 0 1-1-1V34H25a1 1 0 1 1 0-2h20a1 1 0 0 1 1 1v18a1 1 0 0 1-1 1z"/><path d="M28 15H8a1 1 0 1 1 0-2h20a1 1 0 1 1 0 2z"/><path d="M28 21H8a1 1 0 1 1 0-2h20a1 1 0 1 1 0 2z"/><path d="M56 15H36a1 1 0 1 1 0-2h20a1 1 0 1 1 0 2z"/><path d="M56 21H36a1 1 0 1 1 0-2h20a1 1 0 1 1 0 2z"/><path d="M36 24h-8a1 1 0 0 1-1-1V11a1 1 0 0 1 1-1h8a1 1 0 0 1 1 1v12a1 1 0 0 1-1 1zm-7-2h6V12h-6v10z"/><path d="M30 28a1 1 0 0 1-1-1v-4a1 1 0 1 1 2 0v4a1 1 0 0 1-1 1z"/><path d="M34 28h-4a1 1 0 1 1 0-2h4a1 1 0 1 1 0 2z"/><path d="M34 28a1 1 0 0 1-1-1v-4a1 1 0 1 1 2 0v4a1 1 0 0 1-1 1z"/><path d="M32 30a1 1 0 0 1-1-1v-2a1 1 0 1 1 2 0v2a1 1 0 0 1-1 1z"/><path d="M56 56H8a1 1 0 0 1-1-1V8a1 1 0 0 1 1-1h48a1 1 0 0 1 1 1v47a1 1 0 0 1-1 1zM9 54h46V9H9v45z"/><g><path d="M39 60H25a1 1 0 1 1 0-2h14a1 1 0 1 1 0 2z"/></g></g></g><metadata><rdf:RDF xmlns:rdf="http://www.w3.org/1999/02/22-rdf-syntax-ns#" xmlns:rdfs="http://www.w3.org/2000/01/rdf-schema#" xmlns:dc="http://purl.org/dc/elements/1.1/"><rdf:Description about="https://iconscout.com/legal#licenses" dc:title="d,printer,technology,future,science" dc:description="d,printer,technology,future,science" dc:publisher="Iconscout" dc:date="2018-04-17" dc:format="image/svg+xml" dc:language="en"><dc:creator><rdf:Bag><rdf:li>Nikita Golubev</rdf:li></rdf:Bag></dc:creator></rdf:Description></rdf:RDF></metadata></svg>