<svg xmlns="http://www.w3.org/2000/svg" id="Layer_1" enable-background="new 0 0 64 64" viewBox="0 0 64 64"><polygon fill="#ef4267" points="8.5 17.5 8.5 53.5 18.5 53.5 20 49.5 44 49.5 45.5 53.5 55.5 53.5 55.5 17.5"/><rect width="14" height="8" x="36.5" y="38.5" fill="#58575d"/><rect width="4" height="4" x="38.5" y="40.5" fill="#48b5ce"/><polygon fill="#dae8ef" points="13.5 22.5 13.5 43.5 34.5 43.5 34.5 36.5 50.5 36.5 50.5 22.5"/><rect width="5" height="4" x="25.5" y="24.5" fill="#fee473"/><polygon fill="#fee473" points="29.5 30.5 28 31.5 26.5 30.5 26.5 28.5 29.5 28.5"/><rect width="18" height="2" x="16.5" y="39.5" fill="#58575d"/><rect width="12" height="2" x="13.5" y="25.5" fill="#58575d"/><rect width="20" height="2" x="30.5" y="25.5" fill="#58575d"/><rect width="1" height="1" x="11.003" y="20.001"/><rect width="1" height="1" x="11.003" y="31.501"/><rect width="1" height="1" x="11.003" y="43"/><rect width="1" height="1" x="52.009" y="20.001"/><rect width="1" height="1" x="31.509" y="20.001"/><rect width="1" height="1" x="52.009" y="31.501"/><rect width="1" height="1" x="52.009" y="43"/><path d="M18.5 44c-.276 0-.5-.224-.5-.5v-2c0-.276.224-.5.5-.5s.5.224.5.5v2C19 43.776 18.776 44 18.5 44zM27.5 44c-.276 0-.5-.224-.5-.5v-2c0-.276.224-.5.5-.5s.5.224.5.5v2C28 43.776 27.776 44 27.5 44zM43 45h-5v-5h5V45zM39 44h3v-3h-3V44z"/><rect width="2" height="1" x="44" y="40"/><g><rect width="2" height="1" x="44" y="42"/></g><g><rect width="2" height="1" x="44" y="44"/></g><g><rect width="2" height="1" x="47" y="40"/></g><g><rect width="2" height="1" x="47" y="42"/></g><g><rect width="2" height="1" x="47" y="44"/></g><g><path d="M36,47h15v-9H36V47z M37,39h13v7H37V39z"/><path d="M29.5,17v-7H21v3h-3v4H8v37h10.847l1.5-4h23.307l1.5,4H56V17H29.5z M22,11h6.5v6h-1v-4H22V11z M26.5,17H22v-3h4.5V17z    M19,14h2v3h-2V14z M55,53h-9.153l-1.5-4H19.653l-1.5,4H9V18h9h1h7.5v0h1v0h1h1H55V53z"/><path d="M28.5,22h-1h-1H13v3v3v16h22v-2v-3v-2h16v-9v-3v-3H29.5H28.5z M28.5,23v1h-1v-1H28.5z M31,26h19v1H31V26z M30,28h-4v-3h0.5   h1h1h1H30V28z M28,30.899l-1-0.667V29h2v1.232L28,30.899z M25,27H14v-1h11V27z M14,23h12.5v1H25v1H14V23z M34,43H14V28h11v1h1   v1.768l1.5,1V33h-2H24v3v1h1h2.5v2H16v3h18V43z M28.5,40H34v1H17v-1h10.5H28.5z M50,36H34v3h-5.5v-3H25v-2h0.5h3v-1v-1.232l1.5-1   V29h1v-1h19V36z M50,23v2H31v-1h-1.5v-1H50z"/></g></svg>