<?xml version="1.0" encoding="UTF-8"?><!DOCTYPE svg PUBLIC "-//W3C//DTD SVG 1.1//EN" "http://www.w3.org/Graphics/SVG/1.1/DTD/svg11.dtd"><svg xmlns="http://www.w3.org/2000/svg" xmlns:xlink="http://www.w3.org/1999/xlink" version="1.1" id="Layer_1" x="0px" y="0px" viewBox="0 0 130 130" xml:space="preserve"><circle fill="#E3E3E5" cx="65" cy="65" r="64" id="XMLID_213_"/><path fill="#FFF" d="M10.3 104.5c-2.1-2.1-2.1-5.6 0-7.7l73.4-73.4c2.1-2.1 5.6-2.1 7.7 0 2.1 2.1 2.1 5.6 0 7.7L18 104.5c-2.1 2.1-5.5 2.1-7.7 0z"/><path fill="#313D65" d="M14.2 106.8c-1.7 0-3.2-.6-4.4-1.8-1.2-1.2-1.8-2.7-1.8-4.4 0-1.7.6-3.2 1.8-4.4l73.4-73.4c2.4-2.4 6.3-2.4 8.7 0 2.4 2.4 2.4 6.3 0 8.7L18.6 105c-1.2 1.1-2.8 1.8-4.4 1.8zm70.1-82.9L10.9 97.3c-.9.9-1.4 2.1-1.4 3.3 0 1.3.5 2.4 1.4 3.3.9.9 2.1 1.4 3.3 1.4s2.4-.5 3.3-1.4l73.4-73.4c1.8-1.8 1.8-4.8 0-6.6-1.8-1.9-4.7-1.9-6.6 0z"/><path fill="#B8B8BA" d="M73.2 92c-1.7.3-3.4-1-3.5-2.8-.9-9.4-1.8-18.7-2.7-28.1L54.1 48.3c-1.4-1.4-1.4-3.6 0-4.9L75 22.5c1.4-1.4 3.6-1.4 4.9 0l12.9 12.9c9.4.9 18.7 1.8 28.1 2.6 1.8.2 3 1.8 2.8 3.5-3.8 26.1-24.4 46.7-50.5 50.5z"/><path fill="#313D65" d="M72.8 92.8c-2 0-3.6-1.5-3.8-3.5l-.9-9.5c-.6-6.1-1.1-12.2-1.7-18.3L53.6 48.8c-1.6-1.6-1.6-4.3 0-6l20.9-20.9c.8-.8 1.9-1.2 3-1.2s2.2.4 3 1.2l12.7 12.7 11.3 1.1 16.5 1.5c1.1.1 2 .6 2.7 1.5.7.8.9 1.9.8 2.9-4 26.6-24.5 47.2-51.2 51.2h-.5zm4.7-70.6c-.7 0-1.4.3-1.9.8L54.7 43.9c-1.1 1.1-1.1 2.8 0 3.9l12.9 12.9c.1.1.2.3.2.5.6 6.2 1.2 12.4 1.8 18.5l.9 9.5c.1 1.3 1.3 2.3 2.7 2.1 26-3.9 46-23.9 49.9-49.9.1-.6-.1-1.3-.5-1.8s-1-.8-1.6-.9l-16.5-1.5-11.6-1.1c-.2 0-.3-.1-.5-.2L79.5 23c-.5-.6-1.2-.8-2-.8z"/><path fill="#F26A64" d="M34.4 69.1L8.5 95c-3.1 3.1-3.1 8.2 0 11.3 3.1 3.1 8.2 3.1 11.3 0l25.8-25.8-11.2-11.4z"/><path fill="#313D65" d="M8 106.8c-1.6-1.6-2.6-3.8-2.6-6.2 0-2.3.9-4.5 2.6-6.2l25.8-25.8c.3-.3.8-.3 1.1 0l11.3 11.3c.1.1.2.3.2.5s-.1.4-.2.5l-25.8 25.8c-3.4 3.5-9 3.5-12.4.1zm26.4-36.6L9.1 95.5C7.7 96.9 7 98.7 7 100.6c0 1.9.8 3.8 2.1 5.1 1.4 1.4 3.2 2.1 5.1 2.1s3.8-.8 5.1-2.1l25.3-25.3-10.2-10.2z"/><g><path fill="#B8B8BA" d="M92.9 35.4L82.7 45.5"/><path fill="#313D65" d="M82.7 46.3c-.2 0-.4-.1-.5-.2-.3-.3-.3-.8 0-1.1l10.2-10.2c.3-.3.8-.3 1.1 0 .3.3.3.8 0 1.1L83.3 46.1c-.2.1-.4.2-.6.2z"/></g><g><path fill="#313D65" d="M72.8 92.8c-2 0-3.6-1.5-3.8-3.5l-.9-9.5c-.6-6.1-1.1-12.2-1.7-18.3L53.6 48.8c-1.6-1.6-1.6-4.3 0-6l20.9-20.9c.8-.8 1.9-1.2 3-1.2s2.2.4 3 1.2l12.7 12.7 11.3 1.1 16.5 1.5c1.1.1 2 .6 2.7 1.5.7.8.9 1.9.8 2.9-4 26.6-24.5 47.2-51.2 51.2h-.5zm4.7-70.6c-.7 0-1.4.3-1.9.8L54.7 43.9c-1.1 1.1-1.1 2.8 0 3.9l12.9 12.9c.1.1.2.3.2.5.6 6.2 1.2 12.4 1.8 18.5l.9 9.5c.1 1.3 1.3 2.3 2.7 2.1 26-3.9 46-23.9 49.9-49.9.1-.6-.1-1.3-.5-1.8s-1-.8-1.6-.9l-16.5-1.5-11.6-1.1c-.2 0-.3-.1-.5-.2L79.5 23c-.5-.6-1.2-.8-2-.8z"/></g><metadata><rdf:RDF xmlns:rdf="http://www.w3.org/1999/02/22-rdf-syntax-ns#" xmlns:rdfs="http://www.w3.org/2000/01/rdf-schema#" xmlns:dc="http://purl.org/dc/elements/1.1/"><rdf:Description about="https://iconscout.com/legal#licenses" dc:publisher="Iconscout" dc:date="2018-06-06" dc:format="image/svg+xml" dc:language="en"><dc:creator><rdf:Bag><rdf:li>Creative Stall</rdf:li></rdf:Bag></dc:creator></rdf:Description></rdf:RDF></metadata></svg>