<svg xmlns="http://www.w3.org/2000/svg" viewBox="0 0 64 64"><path d="M57,6H55.967c.016-.333.033-.666.033-1C56,.141,34.456,0,32,0S8,.141,8,5c0,.338.035.666.051,1H7a3,3,0,0,0,0,6H9.225A21.078,21.078,0,0,0,21.566,24.616L14.682,52.151a6.006,6.006,0,1,0,5.637,1.694L21.28,50H42.72l2.943,11.772a2.94,2.94,0,1,0,5.7-1.425L42.439,24.633a20.99,20.99,0,0,0,8.52-5.983,1,1,0,1,0-1.52-1.3A18.987,18.987,0,0,1,35,24H29A19.042,19.042,0,0,1,10.132,7.332C14.14,9.163,23.44,10,32,10s17.835-.836,21.852-2.662A18.95,18.95,0,0,1,51.459,14.5a1,1,0,0,0,1.73,1A20.766,20.766,0,0,0,54.8,12H57a3,3,0,0,0,0-6ZM25.306,25.654,18.573,52.588a5.931,5.931,0,0,0-1.807-.533l6.705-26.818C24.073,25.4,24.684,25.543,25.306,25.654ZM16,62a4,4,0,1,1,4-4A4,4,0,0,1,16,62Zm5.78-14,.5-2H41.72l.5,2ZM49.427,60.831a.94.94,0,1,1-1.824.457L38.7,25.667c.62-.111,1.233-.245,1.837-.41ZM35,26c.571,0,1.137-.031,1.7-.076L41.22,44H22.78L27.3,25.914c.562.045,1.125.086,1.7.086ZM46,4H42V2.4c1.458.125,2.8.272,4,.436Zm2-.858A33.928,33.928,0,0,1,51.876,4H48ZM40,4H36V2.065q2.117.065,4,.19Zm0,2V7.745q-1.893.125-4,.191V6Zm2,0h4V7.157c-1.209.165-2.552.312-4,.436Zm6,0h3.766A32.3,32.3,0,0,1,48,6.845ZM34,2.018V4H30V2.018C30.656,2.008,31.315,2,32,2S33.344,2.008,34,2.018ZM16,4H12.239A33.167,33.167,0,0,1,16,3.154Zm2-1.152c1.2-.166,2.542-.314,4-.441V4H18ZM16,6v.857A31.78,31.78,0,0,1,12.227,6Zm2,0h4V7.6c-1.456-.123-2.8-.269-4-.434Zm6,0h4V7.938q-2.118-.063-4-.187Zm0-2V2.256q1.884-.124,4-.191V4ZM7,10A1,1,0,0,1,7,8H8.24q.146,1.017.387,2ZM30,7.983V6h4V7.983C33.344,7.992,32.682,8,32,8S30.655,7.992,30,7.983ZM57,10H55.388c.161-.66.293-1.326.39-2H57a1,1,0,0,1,0,2Z" data-name="Layer 31"/></svg>