<svg xmlns="http://www.w3.org/2000/svg" enable-background="new 0 0 50 50" viewBox="0 0 50 50"><path fill="none" stroke="#1D1D1B" stroke-linecap="round" stroke-linejoin="round" stroke-miterlimit="10" stroke-width="2" d="M38.9 24c0 6.1-4.1 11.2-9.7 12.7-1.1.3-2.2.5-3.4.5-1.2 0-2.3-.2-3.4-.5-5.6-1.5-9.7-6.6-9.7-12.7H38.9zM35.3 10.7L12.6 24c-2.9-5-2.2-11.2 1.5-15.4.2-.2.3-.3.5-.5.8-.8 1.7-1.5 2.7-2.1 1-.6 2.1-1 3.2-1.3.2-.1.5-.1.7-.2C26.6 3.3 32.4 5.7 35.3 10.7z"/><path fill="none" stroke="#1D1D1B" stroke-linecap="round" stroke-linejoin="round" stroke-miterlimit="10" stroke-width="2" d="
			M20.1,2.6l1.1,1.9c-0.2,0-0.5,0.1-0.7,0.2C19.4,5,18.4,5.4,17.3,6c-1,0.6-1.9,1.3-2.7,2.1c-0.2,0.2-0.3,0.3-0.5,0.5L13,6.7
			c-0.3-0.6-0.1-1.3,0.4-1.7l5-2.9C19,1.8,19.8,2,20.1,2.6z"/><line x1="32.6" x2="29.6" y1="43.6" y2="36.6" fill="none" stroke="#1D1D1B" stroke-linecap="round" stroke-linejoin="round" stroke-miterlimit="10" stroke-width="2"/><line x1="21.9" x2="16.6" y1="36.6" y2="47.8" fill="none" stroke="#1D1D1B" stroke-linecap="round" stroke-linejoin="round" stroke-miterlimit="10" stroke-width="2"/><line x1="17.9" x2="31.1" y1="45.1" y2="45.1" fill="none" stroke="#1D1D1B" stroke-linecap="round" stroke-linejoin="round" stroke-miterlimit="10" stroke-width="2"/><circle cx="33.2" cy="45.7" r="2.3" fill="none" stroke="#1D1D1B" stroke-linecap="round" stroke-linejoin="round" stroke-miterlimit="10" stroke-width="2"/><g><path fill="none" stroke="#1D1D1B" stroke-linecap="round" stroke-linejoin="round" stroke-miterlimit="10" stroke-width="2" d="M35.6 15l.1.2c.5.8.4 1.8-.2 2.5l0 0c-.5.7-.6 1.6-.3 2.3l.3.6M38.7 15l.1.2c.5.8.4 1.8-.2 2.5l0 0c-.5.7-.6 1.6-.3 2.3l.3.6"/></g></svg>