<?xml version="1.0" encoding="UTF-8"?><!DOCTYPE svg PUBLIC "-//W3C//DTD SVG 1.1//EN" "http://www.w3.org/Graphics/SVG/1.1/DTD/svg11.dtd"><svg xmlns="http://www.w3.org/2000/svg" xmlns:xlink="http://www.w3.org/1999/xlink" version="1.1" id="Layer_1" x="0px" y="0px" viewBox="0 0 48 48" xml:space="preserve"><path fill="#010101" d="M43 12.6h3.5v2H43z"/><path fill="#010101" d="M1.5 12.6H5v2H1.5z"/><path transform="matrix(0.5 0.866 -0.866 0.5 48.3366 -13.82)" fill="#010101" d="M28.7 34h14.9v2H28.7z"/><path transform="matrix(0.8661 0.4999 -0.4999 0.8661 19.0615 -1.25)" fill="#010101" d="M10.9 27.5h2v14.9h-2z"/><path fill="#010101" d="M39.3 47c-2 0-3.6-1.6-3.6-3.6s1.6-3.6 3.6-3.6 3.6 1.6 3.6 3.6-1.6 3.6-3.6 3.6zm0-5.2c-.9 0-1.6.7-1.6 1.6 0 .9.7 1.6 1.6 1.6.9 0 1.6-.7 1.6-1.6 0-.9-.7-1.6-1.6-1.6z"/><path fill="#010101" d="M8.7 47c-2 0-3.6-1.6-3.6-3.6s1.6-3.6 3.6-3.6 3.6 1.6 3.6 3.6S10.7 47 8.7 47zm0-5.2c-.9 0-1.6.7-1.6 1.6 0 .9.7 1.6 1.6 1.6.9 0 1.6-.7 1.6-1.6 0-.9-.7-1.6-1.6-1.6z"/><path fill="#010101" d="M24 16c-7.4 0-20-1-20-5 0-3.9 12.6-5 20-5s20 1.1 20 5c0 4-12.6 5-20 5zm0-8C12.9 8 6.3 10 6 11c.4 1 6.9 3 18 3s17.7-2 18-3c-.3-1-6.9-3-18-3z"/><path fill="#010101" d="M24 31.1c-11 0-20-9-20-20 0-.6.4-1 1-1s1 .4 1 1c.4 1 6.9 3 18 3s17.7-2 18-3c0-.6.4-1 1-1s1 .5 1 1c0 11-9 20-20 20zM6.1 13.5C7.3 22.3 14.9 29 24 29s16.6-6.8 17.9-15.5C37.9 15.4 29.5 16 24 16c-5.5 0-13.9-.6-17.9-2.5z"/><path fill="#010101" d="M35.7 7.5h2v6.7h-2z"/><path fill="#010101" d="M29.3 6.5h2V15h-2z"/><path fill="#010101" d="M23 6.5h2V15h-2z"/><g><path fill="#010101" d="M16.7 6.5h2V15h-2z"/></g><g><path fill="#010101" d="M10.3 7.5h2v6.7h-2z"/></g><g><path fill="#010101" d="M27.3 2h2v2h-2z"/><path fill="#010101" d="M18.7 1h2v2h-2z"/></g><metadata><rdf:RDF xmlns:rdf="http://www.w3.org/1999/02/22-rdf-syntax-ns#" xmlns:rdfs="http://www.w3.org/2000/01/rdf-schema#" xmlns:dc="http://purl.org/dc/elements/1.1/"><rdf:Description about="https://iconscout.com/legal#licenses" dc:publisher="Iconscout" dc:date="2018-04-12" dc:format="image/svg+xml" dc:language="en"><dc:creator><rdf:Bag><rdf:li>Creative Stall</rdf:li></rdf:Bag></dc:creator></rdf:Description></rdf:RDF></metadata></svg>