<svg xmlns="http://www.w3.org/2000/svg" viewBox="0 0 32 32"><path d="M10.55 8a1 1 0 0 0 2 0 2.67 2.67 0 0 0-.8-1.91c-.24-.28-.3-.35-.3-.59s.06-.31.3-.59A2.67 2.67 0 0 0 12.55 3a1 1 0 0 0-2 0c0 .24-.06.31-.3.59a2.68 2.68 0 0 0 0 3.82C10.49 7.69 10.55 7.76 10.55 8zM20.55 8a1 1 0 0 0 2 0 2.67 2.67 0 0 0-.8-1.91c-.24-.28-.3-.35-.3-.59s.06-.31.3-.59A2.67 2.67 0 0 0 22.55 3a1 1 0 0 0-2 0c0 .24-.06.31-.3.59a2.68 2.68 0 0 0 0 3.82C20.49 7.69 20.55 7.76 20.55 8zM15.55 8a1 1 0 0 0 2 0 2.67 2.67 0 0 0-.8-1.91c-.24-.28-.3-.35-.3-.59s.06-.31.3-.59A2.67 2.67 0 0 0 17.55 3a1 1 0 0 0-2 0c0 .24-.06.31-.3.59a2.68 2.68 0 0 0 0 3.82C15.49 7.69 15.55 7.76 15.55 8zM29 28H22.62l-3.24-6.6A10 10 0 0 0 26 12V11a1 1 0 0 0-1-1H7a1 1 0 0 0-1 1v1a10 10 0 0 0 .46 3H5a1 1 0 0 0 0 2H7.35a10.11 10.11 0 0 0 5.27 4.4L9.38 28H3a1 1 0 0 0 0 2H29a1 1 0 0 0 0-2zM24 12a8.26 8.26 0 0 1-.07 1H8.07A8.26 8.26 0 0 1 8 12zM8.59 15H23.41A8 8 0 0 1 8.59 15zM16 22a9.33 9.33 0 0 0 1.4-.11l1 2.11H13.57l1-2.11A9.33 9.33 0 0 0 16 22zm-3.41 4h6.82l1 2H11.6z"/></svg>