<svg xmlns="http://www.w3.org/2000/svg" enable-background="new 0 0 60 60" viewBox="0 0 60 60"><path d="M48.6416016,33.9328003v-5.4462891h2.4775391c0.5527344,0,1-0.4477539,1-1s-0.4472656-1-1-1h-3.4775391H12.3583984
	H8.8808594c-0.5527344,0-1,0.4477539-1,1s0.4472656,1,1,1h2.4775391v5.4462891c0,3.5635376,2.3092651,6.5914307,5.5071411,7.68396
	l-4.2688599,12.0489502c-0.1845703,0.5205078,0.0878906,1.0922852,0.6083984,1.2763672
	c0.1103516,0.0395508,0.2226563,0.0581055,0.3339844,0.0581055c0.4121094,0,0.796875-0.2563477,0.9423828-0.6665039
	l2.0790405-5.8681641h26.8790283l2.0790405,5.8681641c0.1455078,0.4101563,0.5302734,0.6665039,0.9423828,0.6665039
	c0.1103516,0,0.2236328-0.0185547,0.3339844-0.0581055c0.5205078-0.184082,0.7929688-0.7558594,0.6083984-1.2763672
	l-4.2688599-12.0489502C46.3323364,40.524231,48.6416016,37.4963379,48.6416016,33.9328003z M17.269104,46.4655151
	l1.5733032-4.4406738c0.211853,0.0166626,0.4239502,0.0324707,0.6400146,0.0324707h21.0351563
	c0.2160645,0,0.4281616-0.0158081,0.6400146-0.0324707l1.5733032,4.4406738H17.269104z M40.5175781,40.057312H19.4824219
	c-3.3769531,0-6.1240234-2.7475586-6.1240234-6.1245117v-5.4462891h33.2832031v5.4462891
	C46.6416016,37.3097534,43.8945313,40.057312,40.5175781,40.057312z"/><path d="M34.2724609 33.2721558h-8.5449219c-.5527344 0-1 .4477539-1 1s.4472656 1 1 1h8.5449219c.5527344 0 1-.4477539 1-1S34.8251953 33.2721558 34.2724609 33.2721558zM21.4814453 19.4093628c.1142578.7475586.5732422 1.4135742 1.3652344 1.9799805.1767578.1259766.3798828.1865234.5810547.1865234.3115234 0 .6191406-.1455078.8144531-.418457.3212891-.4492188.2177734-1.0737305-.2314453-1.3950195-.2314453-.1655273-.5146484-.4130859-.5517578-.6538086-.0664063-.4379883.5253906-1.2207031 1.0488281-1.9111328.8720703-1.1518555 1.8613281-2.4580078 1.6181641-4.0512695-.1630859-1.0727539-.8554688-2.0322266-2.1152344-2.9335938-.4501953-.3212891-1.0742188-.2177734-1.3955078.2319336-.3212891.4492188-.2177734 1.0737305.2314453 1.3950195.7880859.5629883 1.2255859 1.1035156 1.3027344 1.6074219.1152344.7583008-.5722656 1.6660156-1.2363281 2.543457C22.1142578 17.0455933 21.2880859 18.1364136 21.4814453 19.4093628zM28.6787109 14.3829956c.1142578.7475586.5732422 1.4135742 1.3652344 1.9799805.1767578.1259766.3798828.1865234.5810547.1865234.3115234 0 .6191406-.1455078.8144531-.418457.3212891-.4492188.2177734-1.0737305-.2314453-1.3950195-.2314453-.1655273-.5146484-.4130859-.5517578-.6538086-.0664063-.4379883.5253906-1.2207031 1.0488281-1.9106445.8720703-1.1523438 1.8613281-2.4580078 1.6181641-4.0512695-.1630859-1.0732422-.8554688-2.0327148-2.1152344-2.934082C30.7568359 4.8649292 30.1337891 4.9694214 29.8125 5.4181519c-.3212891.4492188-.2177734 1.0737305.2314453 1.3950195.7880859.5629883 1.2255859 1.1040039 1.3027344 1.6079102.1152344.7583008-.5722656 1.6655273-1.2363281 2.5429688C29.3115234 12.0192261 28.4853516 13.1100464 28.6787109 14.3829956zM33.8652344 19.4093628c.1142578.7475586.5732422 1.4135742 1.3652344 1.9799805.1767578.1259766.3798828.1865234.5810547.1865234.3115234 0 .6191406-.1455078.8144531-.418457.3212891-.4492188.2177734-1.0737305-.2314453-1.3950195-.2314453-.1655273-.5146484-.4130859-.5517578-.6538086-.0664063-.4379883.5253906-1.2207031 1.0488281-1.9111328.8720703-1.1518555 1.8613281-2.4580078 1.6181641-4.0512695-.1630859-1.0727539-.8554688-2.0322266-2.1152344-2.9335938-.4511719-.3212891-1.0742188-.2177734-1.3955078.2319336-.3212891.4492188-.2177734 1.0737305.2314453 1.3950195.7880859.5629883 1.2255859 1.1035156 1.3027344 1.6074219.1152344.7583008-.5722656 1.6660156-1.2363281 2.543457C34.4980469 17.0455933 33.671875 18.1364136 33.8652344 19.4093628z"/></svg>