<svg xmlns="http://www.w3.org/2000/svg" viewBox="0 0 64 64"><path d="M59,4H55.65C52.9.124,34.274,0,32,0S11.1.124,8.35,4H5a3,3,0,0,0,0,6H8.627a21.052,21.052,0,0,0,13.4,14.783L14.831,52.116a6.016,6.016,0,1,0,5.584,1.835L21.455,50H35a1,1,0,0,0,0-2H21.981l.526-2H41.492l.527,2H39a1,1,0,0,0,0,2h3.545l3.108,11.812a2.934,2.934,0,1,0,5.675-1.494L41.977,24.783A21.052,21.052,0,0,0,55.373,10H59a3,3,0,0,0,0-6ZM36,7.936V2.064q2.117.065,4,.191v5.49Q38.116,7.87,36,7.936Zm6-5.529c1.454.126,2.8.273,4,.438v4.31c-1.2.165-2.546.312-4,.438Zm6,.749c3.439.595,5.486,1.305,5.951,1.844-.465.539-2.512,1.249-5.951,1.844ZM34,2.018V7.982c-.655.01-1.316.018-2,.018s-1.345-.008-2-.018V2.018C30.655,2.008,31.316,2,32,2S33.345,2.008,34,2.018ZM18,7.155V2.845c1.2-.165,2.546-.312,4-.438V7.593C20.546,7.467,19.2,7.32,18,7.155Zm6-4.9q1.884-.124,4-.191V7.936q-2.117-.065-4-.191Zm-8,.9V6.844c-3.439-.6-5.486-1.305-5.951-1.844C10.514,4.461,12.561,3.751,16,3.156ZM8,8H5A1,1,0,0,1,5,6H8ZM25.775,25.726,18.691,52.645a5.956,5.956,0,0,0-1.782-.569L23.94,25.358C24.542,25.508,25.154,25.629,25.775,25.726ZM16,62a4,4,0,1,1,4-4A4,4,0,0,1,16,62Zm7.034-18,4.753-18.061c.4.023.8.061,1.213.061h6c.409,0,.809-.038,1.213-.061L40.966,44ZM49.4,60.828a.935.935,0,0,1-1.808.475L38.225,25.726c.621-.1,1.233-.218,1.835-.368ZM35,24H29A19.017,19.017,0,0,1,10.159,7.334C15.675,9.907,30.022,10,32,10s16.325-.093,21.841-2.666A19.017,19.017,0,0,1,35,24ZM59,8H56V6h3a1,1,0,0,1,0,2Z" data-name="Layer 31"/></svg>