<?xml version="1.0" encoding="UTF-8"?><!DOCTYPE svg PUBLIC "-//W3C//DTD SVG 1.1//EN" "http://www.w3.org/Graphics/SVG/1.1/DTD/svg11.dtd"><svg xmlns="http://www.w3.org/2000/svg" xmlns:xlink="http://www.w3.org/1999/xlink" version="1.1" id="Layer_1" x="0px" y="0px" viewBox="0 0 48 48" xml:space="preserve"><g fill="none" stroke="#010101" stroke-width="2" stroke-miterlimit="10"><path d="M42.4 32.9c-3.8-1.3-7.4-3.3-10.6-5.9-2.3-1.8-4.4-3.9-6.8-5.3-3.9-2.3-8.6-2.8-12.8-1.3-4.2 1.5-7.8 4.9-9.9 9.3-.9 1.8-1.5 3.8-1.3 5.8.2 2.5 1.6 4.8 3.4 6.3s4 2.3 6.1 2.9c5.9 1.7 12.1 2.1 18.2 2.2 4.4.1 9 .1 13.1-1.9 1.8-.9 3.5-2.1 4.4-4.1 1-1.9.9-4.6-.4-6.2-.8-1-2.1-1.4-3.4-1.8z"/><path d="M6.8 35.8l11.3-11.5"/><path d="M14.1 39.9l11.3-11.6"/><path d="M20.9 42.5l11.3-11.6"/><path d="M30.2 43l8-8.2"/><path d="M28.5 19.3c-.3-1.4-1.7-2.3-1.8-3.7 0-.7.3-1.4.6-2 .3-.6.5-1.1.7-1.7.3-.8.5-1.6.4-2.5-.2-2-2.2-3.3-2-5.3"/><path d="M35.2 21.8c-.3-1.4-1.7-2.3-1.8-3.7 0-.7.3-1.4.6-2 .3-.6.5-1.1.7-1.7.3-.8.5-1.6.4-2.5-.2-2-2.2-3.3-2-5.3"/><path d="M20.8 16.2c-.3-1.4-1.7-2.3-1.8-3.7 0-.7.3-1.4.6-2 .3-.6.5-1.1.7-1.7.3-.8.5-1.6.4-2.5-.2-2-2.2-3.3-2-5.3"/></g><metadata><rdf:RDF xmlns:rdf="http://www.w3.org/1999/02/22-rdf-syntax-ns#" xmlns:rdfs="http://www.w3.org/2000/01/rdf-schema#" xmlns:dc="http://purl.org/dc/elements/1.1/"><rdf:Description about="https://iconscout.com/legal#licenses" dc:publisher="Iconscout" dc:date="2018-05-25" dc:format="image/svg+xml" dc:language="en"><dc:creator><rdf:Bag><rdf:li>Creative Stall</rdf:li></rdf:Bag></dc:creator></rdf:Description></rdf:RDF></metadata></svg>