<svg xmlns="http://www.w3.org/2000/svg" viewBox="0 0 64 64"><path d="M53.74 26.42a1 1 0 0 0-1-1H11.42a1 1 0 0 0-1 1v3.67A21.56 21.56 0 0 0 15 43.38l-4.54 18.1a1 1 0 0 0 .18.85 1 1 0 0 0 .78.39h5.91a1 1 0 0 0 1-.76l3.22-13a21.56 21.56 0 0 0 21 0l3.24 13.05a1 1 0 0 0 1 .76h5.91a1 1 0 0 0 1-1.24L49.08 43.49a21.57 21.57 0 0 0 4.66-13.4zm-41.32 1H51.74v2.67c0 .31 0 .61-.05.91H12.47c0-.3-.05-.6-.05-.91zm4.13 33.3H12.71L16.6 45.21a22.2 22.2 0 0 0 3.14 2.66zM12.66 33H51.5a19.63 19.63 0 0 1-38.84 0zM51.38 60.85H47.53l-3.2-12.91a22 22 0 0 0 3.14-2.63zM20.38 23.24a3.92 3.92 0 0 0 2.47.87l.42 0 5.22-.56A3.88 3.88 0 0 0 32 20.21L33.73 20a3.94 3.94 0 0 0 3.66 2.53 3.17 3.17 0 0 0 .43 0L43 22a3.89 3.89 0 0 0 2.64-1.44 3.82 3.82 0 0 0 .81-1.88l2.13-.23a1 1 0 1 0-.22-2l-2.12.22a3.92 3.92 0 0 0-4.08-2.52L37 14.7A3.94 3.94 0 0 0 33.52 18l-1.78.19a3.88 3.88 0 0 0-4.08-2.52l-5.22.56a3.89 3.89 0 0 0-2.65 1.44A3.81 3.81 0 0 0 19 19.59L3.55 21.24a1 1 0 0 0 .1 2h.11l15.43-1.65A3.93 3.93 0 0 0 20.38 23.24zm16.81-6.55l5.22-.56h.21a1.94 1.94 0 0 1 1.92 1.73h0A1.94 1.94 0 0 1 42.82 20l-5.22.56a1.94 1.94 0 1 1-.41-3.85zM21.35 19a1.85 1.85 0 0 1 1.3-.71l5.22-.56h.21A1.94 1.94 0 0 1 30 19.4h0v0a1.92 1.92 0 0 1-.42 1.4 1.89 1.89 0 0 1-1.3.71l-5.22.56A1.93 1.93 0 0 1 21.35 19zM25.11 13.34a1.09 1.09 0 0 0 .25 0 1 1 0 0 0 1-.75L29 2.53A1 1 0 0 0 27 2L24.39 12.12A1 1 0 0 0 25.11 13.34zM32.79 13.34a1.09 1.09 0 0 0 .25 0 1 1 0 0 0 1-.75l2.65-10.1A1 1 0 1 0 34.72 2L32.07 12.12A1 1 0 0 0 32.79 13.34zM39.65 13.34a1.09 1.09 0 0 0 .25 0 1 1 0 0 0 1-.75l2.65-10.1A1 1 0 1 0 41.58 2L38.93 12.12A1 1 0 0 0 39.65 13.34z"/></svg>