<?xml version="1.0" encoding="UTF-8"?>
<svg xmlns="http://www.w3.org/2000/svg" xmlns:xlink="http://www.w3.org/1999/xlink" version="1.1" id="Layer_1" x="0px" y="0px" viewBox="0 0 128 128" style="enable-background:new 0 0 128 128;" xml:space="preserve">
<style type="text/css">
	.st0{fill:#303C42;}
	.st1{fill:none;stroke:#303C42;stroke-width:2;stroke-linecap:round;stroke-linejoin:round;stroke-miterlimit:10;}
	.st2{fill:none;stroke:#303C42;stroke-width:4;stroke-linecap:round;stroke-linejoin:round;stroke-miterlimit:10;}
</style>
<g>
	<g>
		<path class="st0" d="M64.8,106.7C34,106.7,9,84.3,9,56.7c0-1.1,0.9-2,2-2s2,0.9,2,2c0,25.4,23.2,46,51.8,46    c28.6,0,51.8-20.6,51.8-46c0-1.1,0.9-2,2-2s2,0.9,2,2C120.5,84.3,95.5,106.7,64.8,106.7z" style="fill: #303C42;"/>
	</g>
	<g>
		<path class="st0" d="M64.8,79.2c-27.7,0-55.7-7-55.7-22.5c0-15.5,28-22.5,55.7-22.5c27.7,0,55.7,7,55.7,22.5    C120.5,72.3,92.5,79.2,64.8,79.2z M64.8,38.2c-25.7,0-51.7,6.4-51.7,18.5s26,18.5,51.7,18.5c25.7,0,51.7-6.4,51.7-18.5    S90.5,38.2,64.8,38.2z" style="fill: #303C42;"/>
	</g>
	<g>
		<path class="st0" d="M64.8,70C43.3,70,21,65,21,56.7s22.3-13.3,43.8-13.3c21.5,0,43.8,5,43.8,13.3S86.3,70,64.8,70z M64.8,45.5    C40.1,45.5,23,51.4,23,56.7C23,62.1,40.1,68,64.8,68c24.6,0,41.8-5.9,41.8-11.3C106.5,51.4,89.4,45.5,64.8,45.5z" style="fill: #303C42;"/>
	</g>
	<g>
		<path class="st0" d="M35.6,66.4c-0.6,0-1-0.4-1-1V48c0-0.6,0.4-1,1-1c0.6,0,1,0.4,1,1v17.4C36.6,66,36.2,66.4,35.6,66.4z" style="fill: #303C42;"/>
	</g>
	<g>
		<path class="st0" d="M47.3,68.6c-0.6,0-1-0.4-1-1V45.9c0-0.6,0.4-1,1-1c0.6,0,1,0.4,1,1v21.7C48.3,68.1,47.8,68.6,47.3,68.6z" style="fill: #303C42;"/>
	</g>
	<g>
		<path class="st0" d="M58.9,69.1c-0.6,0-1-0.4-1-1V45.3c0-0.6,0.4-1,1-1c0.6,0,1,0.4,1,1v22.8C59.9,68.7,59.5,69.1,58.9,69.1z" style="fill: #303C42;"/>
	</g>
	<g>
		<path class="st0" d="M70.6,69.1c-0.6,0-1-0.4-1-1V45.3c0-0.6,0.4-1,1-1c0.6,0,1,0.4,1,1v22.8C71.6,68.7,71.1,69.1,70.6,69.1z" style="fill: #303C42;"/>
	</g>
	<g>
		<path class="st0" d="M82.3,68.7c-0.6,0-1-0.4-1-1v-22c0-0.6,0.4-1,1-1c0.6,0,1,0.4,1,1v22C83.3,68.3,82.8,68.7,82.3,68.7z" style="fill: #303C42;"/>
	</g>
	<g>
		<path class="st0" d="M93.9,66.5c-0.6,0-1-0.4-1-1V47.9c0-0.6,0.4-1,1-1c0.6,0,1,0.4,1,1v17.6C94.9,66.1,94.5,66.5,93.9,66.5z" style="fill: #303C42;"/>
	</g>
	<g>
		<path class="st0" d="M125.5,70.1H117c-1.1,0-2-0.9-2-2s0.9-2,2-2h8.5c1.1,0,2,0.9,2,2S126.6,70.1,125.5,70.1z" style="fill: #303C42;"/>
	</g>
	<g>
		<path class="st0" d="M11,70.1H2.5c-1.1,0-2-0.9-2-2s0.9-2,2-2H11c1.1,0,2,0.9,2,2S12.1,70.1,11,70.1z" style="fill: #303C42;"/>
	</g>
	<g>
		<path class="st0" d="M20.9,127.5c-0.5,0-1-0.2-1.4-0.6c-0.8-0.8-0.8-2,0-2.8l23.4-23.8c0.8-0.8,2-0.8,2.8,0c0.8,0.8,0.8,2,0,2.8    l-23.4,23.8C21.9,127.3,21.4,127.5,20.9,127.5z" style="fill: #303C42;"/>
	</g>
	<g>
		<path class="st0" d="M108.7,127.5c-0.5,0-1-0.2-1.4-0.6l-23.4-23.8c-0.8-0.8-0.8-2.1,0-2.8c0.8-0.8,2.1-0.8,2.8,0l23.4,23.8    c0.8,0.8,0.8,2.1,0,2.8C109.7,127.3,109.2,127.5,108.7,127.5z" style="fill: #303C42;"/>
	</g>
	<g>
		<path class="st0" d="M48,28.4c-0.2,0-0.3,0-0.5-0.1c-1.1-0.3-1.7-1.4-1.5-2.4l0.9-3.6c0.4-1.6,0.8-3.3,0.4-4.8    c-0.2-0.8-0.8-1.6-1.3-2.5c-0.4-0.5-0.7-1.1-1-1.7c-1.9-3.6-2-8.1-0.2-11.7c0.5-1,1.7-1.4,2.7-0.9c1,0.5,1.4,1.7,0.9,2.7    c-1.2,2.5-1.2,5.6,0.1,8c0.2,0.5,0.5,0.9,0.9,1.4c0.7,1,1.4,2.2,1.8,3.6c0.7,2.4,0.1,4.9-0.4,6.8l-0.9,3.6    C49.7,27.8,48.9,28.4,48,28.4z" style="fill: #303C42;"/>
	</g>
	<g>
		<path class="st0" d="M65.2,28.4c-0.2,0-0.3,0-0.5-0.1c-1.1-0.3-1.7-1.4-1.5-2.4l0.9-3.6c0.4-1.6,0.8-3.3,0.4-4.8    c-0.2-0.8-0.8-1.6-1.3-2.5c-0.4-0.5-0.7-1.1-1-1.7c-1.9-3.6-2-8.1-0.2-11.7c0.5-1,1.7-1.4,2.7-0.9c1,0.5,1.4,1.7,0.9,2.7    c-1.2,2.5-1.2,5.6,0.1,8c0.2,0.5,0.5,0.9,0.9,1.4c0.7,1,1.4,2.2,1.8,3.6c0.7,2.4,0.1,4.9-0.4,6.8l-0.9,3.6    C66.9,27.8,66.1,28.4,65.2,28.4z" style="fill: #303C42;"/>
	</g>
	<g>
		<path class="st0" d="M82.4,28.4c-0.2,0-0.3,0-0.5-0.1c-1.1-0.3-1.7-1.4-1.5-2.4l0.9-3.6c0.4-1.6,0.8-3.3,0.4-4.8    c-0.2-0.8-0.8-1.6-1.3-2.5c-0.4-0.5-0.7-1.1-1-1.7c-1.9-3.6-2-8.1-0.2-11.7c0.5-1,1.7-1.4,2.7-0.9c1,0.5,1.4,1.7,0.9,2.7    c-1.2,2.5-1.2,5.6,0.1,8c0.2,0.5,0.5,0.9,0.9,1.4c0.7,1,1.4,2.2,1.8,3.6c0.7,2.4,0.1,4.9-0.4,6.8l-0.9,3.6    C84.1,27.8,83.3,28.4,82.4,28.4z" style="fill: #303C42;"/>
	</g>
</g>

	<metadata>
		<rdf:RDF xmlns:rdf="http://www.w3.org/1999/02/22-rdf-syntax-ns#" xmlns:rdfs="http://www.w3.org/2000/01/rdf-schema#" xmlns:dc="http://purl.org/dc/elements/1.1/">
			<rdf:Description about="https://iconscout.com/legal#licenses" dc:title="" dc:description="" dc:publisher="Iconscout" dc:date="2017-07-23" dc:format="image/svg+xml" dc:language="en">
				<dc:creator>
					<rdf:Bag>
						<rdf:li>Vectors Market</rdf:li>
					</rdf:Bag>
				</dc:creator>
			</rdf:Description>
		</rdf:RDF>
    </metadata></svg>
