<?xml version="1.0" encoding="UTF-8"?><!DOCTYPE svg PUBLIC "-//W3C//DTD SVG 1.1//EN" "http://www.w3.org/Graphics/SVG/1.1/DTD/svg11.dtd"><svg xmlns="http://www.w3.org/2000/svg" xmlns:xlink="http://www.w3.org/1999/xlink" version="1.1" id="Layer_1" x="0px" y="0px" viewBox="0 0 48 48" xml:space="preserve"><path fill="#010101" d="M24 42.2c-13.1 0-23.9-9-24-20.1h2c.1 10 10 18.1 22 18.1s21.9-8.1 22-18.1h2c-.1 11.1-10.9 20.1-24 20.1z"/><path fill="#010101" d="M24 31.1c-11.6 0-24-3.2-24-9.2 0-6 12.4-9.2 24-9.2s24 3.2 24 9.2c0 6-12.4 9.2-24 9.2zm0-16.4c-13 0-22 3.8-22 7.2 0 3.4 9 7.2 22 7.2s22-3.8 22-7.2c0-3.4-9-7.2-22-7.2z"/><g fill="#010101"><path transform="matrix(0.8733 0.4872 -0.4872 0.8733 21.3547 0.5863)" d="M8.5 34.9h2v12.9h-2z"/><path transform="matrix(0.4869 0.8734 -0.8734 0.4869 55.843 -12.3685)" d="M32 40.4h12.9v2H32z"/></g><path fill="#010101" d="M23 41.2h2v2.6h-2z"/><path transform="matrix(0.1524 0.9883 -0.9883 0.1524 38.1346 -12.0635)" fill="#010101" d="M25.1 14.9h2v2.6h-2z"/><path transform="matrix(0.1612 0.9869 -0.9869 0.1612 31.3936 -1.5355)" fill="#010101" d="M15.6 12.7h2v9.9h-2z"/><path transform="matrix(0.1172 0.9931 -0.9931 0.1172 26.0752 8.8673)" fill="#010101" d="M7 18.2h2v1.7H7z"/><path transform="matrix(0.1465 0.9892 -0.9892 0.1465 45.77 -16.2467)" fill="#010101" d="M31.3 15.7h2v5.5h-2z"/><path transform="matrix(0.1646 0.9864 -0.9864 0.1646 36.8311 -2.6844)" fill="#010101" d="M19 16.1h2v8.5h-2z"/><path transform="matrix(0.1548 0.9879 -0.9879 0.1548 29.0884 10.5986)" fill="#010101" d="M7.4 19.7h2v5.2h-2z"/><path transform="matrix(0.1568 0.9876 -0.9876 0.1568 35.1594 8.4178)" fill="#010101" d="M11.7 21.6h2V28h-2z"/><path transform="matrix(0.1601 0.9871 -0.9871 0.1601 48.9322 -6.6095)" fill="#010101" d="M27.3 12.6h2v25.6h-2z"/><path fill="#010101" d="M22.7 26.3c-8.8 0-14-4.6-14-4.7-1-1-1.1-2.6-.1-3.5.9-.9 2.5-1 3.6-.2l.1.1s3.8 3.2 10.4 3.2c1.2 0 2.4-.1 3.7-.3h.4c1.3 0 2.4.8 2.6 2 .2.6 0 1.3-.4 1.9-.4.6-1.1 1-1.8 1.1-1.3.2-2.9.4-4.5.4zm-12.2-7c-.1 0-.3 0-.5.2s0 .5.1.7c0 0 4.6 4.1 12.6 4.1 1.4 0 2.9-.2 4.2-.5.2 0 .4-.1.5-.2.1-.1.1-.2.1-.3-.1-.3-.4-.5-.8-.4-1.3.2-2.6.3-3.9.3-6.8 0-10.9-3.1-11.7-3.7-.2-.1-.4-.2-.6-.2z"/><path fill="#010101" d="M35.4 23.7c-8.8 0-14-4.6-14-4.7-.5-.5-.7-1.1-.8-1.7 0-.7.2-1.3.7-1.8.9-.9 2.5-1 3.6-.2l.1.1s3.8 3.2 10.4 3.2c1.2 0 2.4-.1 3.7-.3h.4c1.3 0 2.4.8 2.6 2 .2.6 0 1.3-.4 1.9-.4.6-1 1-1.7 1.1-1.4.2-2.9.4-4.6.4zm-12.2-7c-.1 0-.3 0-.5.2-.1.1-.1.2-.1.3 0 .1.1.3.2.4 0 0 4.6 4.1 12.6 4.1 1.5 0 2.9-.2 4.2-.5h.1c.2 0 .3-.1.4-.2.1-.1.1-.2.1-.3-.1-.3-.4-.5-.8-.4-1.3.2-2.6.3-3.9.3-6.8 0-10.9-3.1-11.7-3.7-.2-.1-.4-.2-.6-.2z"/><path fill="#010101" d="M23.2 11.5c-2.1-1.9-2.5-4.4-1.8-5.6.3-.4.6-.7.9-1 .4-.4.7-.7.9-1.1.2-.3.1-.7 0-.9-.2-.4-.6-.8-1.2-.9l.6-2c1.1.4 2 1.1 2.4 2.1.4.9.4 1.9 0 2.6-.3.6-.8 1.1-1.2 1.6-.2.3-.5.5-.7.8-.1.2 0 1.6 1.5 3l-1.4 1.4z"/><path fill="#010101" d="M28.1 9.1c-.7-.5-.8-1.2-1-1.7-.1-.5-.3-1.3.1-2.1.2-.3.4-.5.6-.6l.1-.1c.2-.2.2-.4.1-.6l1.8-.9c.5 1 .3 2.2-.5 3l-.3.3c0 .1 0 .2.1.6.1.3.1.6.2.6l-1.2 1.5z"/><metadata><rdf:RDF xmlns:rdf="http://www.w3.org/1999/02/22-rdf-syntax-ns#" xmlns:rdfs="http://www.w3.org/2000/01/rdf-schema#" xmlns:dc="http://purl.org/dc/elements/1.1/"><rdf:Description about="https://iconscout.com/legal#licenses" dc:publisher="Iconscout" dc:date="2018-03-28" dc:format="image/svg+xml" dc:language="en"><dc:creator><rdf:Bag><rdf:li>Creative Stall</rdf:li></rdf:Bag></dc:creator></rdf:Description></rdf:RDF></metadata></svg>