<?xml version="1.0" encoding="UTF-8"?><svg xmlns="http://www.w3.org/2000/svg" xmlns:xlink="http://www.w3.org/1999/xlink" viewBox="0 0 48 48" version="1.1"><g id="surface1"><path d="M13 13h24v2H13z" fill="#B0BEC5"/><path d="M42 42c0 .555-.445 1-1 1H9c-.555 0-1-.445-1-1l3-13c0-.555.445-1 1-1h26c.555 0 1 .445 1 1z" fill="#455A64"/><path d="M8 38h34v4H8z" fill="#455A64"/><path d="M25 10s0-5-7-5C14 5 8 6 8 14c0 10.05 4 14 4 14" fill="none" stroke-width="2" stroke-linecap="butt" stroke-linejoin="miter" stroke="#455A64" stroke-opacity="1" stroke-miterlimit="4"/><path d="M24 18h2v4h-2z" fill="#455A64"/><path d="M42 38c0 .555-.445 1-1 1H9c-.555 0-1-.445-1-1l3-13c0-.555.445-1 1-1h26c.555 0 1 .445 1 1z" fill="#2196F3"/><path d="M36 36H14l3-12h16z" fill="#CFD8DC"/><path d="M28 36h2l-1-12h-2z" fill="#90A4AE"/><path d="M22 36h-2l1-12h2z" fill="#90A4AE"/><path d="M12 36h-2l3-12h2z" fill="#1565C0"/><path d="M38 36h2l-3-12h-2z" fill="#1565C0"/><path d="M14 9h-2v19c0 .555.445 1 1 1 .555 0 1-.445 1-1z" fill="#0D47A1"/><path d="M38 9h-2v19c0 .555.445 1 1 1 .555 0 1-.445 1-1z" fill="#0D47A1"/><path d="M28 19.004a1 1 0 0 1-1 1h-4a1 1 0 0 1-1-1v-9c0-.555.445-1 1-1h4c.555 0 1 .445 1 1z" fill="#2196F3"/><path d="M27 41a1.999 1.999 0 1 1-4 0 1.999 1.999 0 1 1 4 0z" fill="#263238"/></g><metadata><rdf:RDF xmlns:rdf="http://www.w3.org/1999/02/22-rdf-syntax-ns#" xmlns:rdfs="http://www.w3.org/2000/01/rdf-schema#" xmlns:dc="http://purl.org/dc/elements/1.1/"><rdf:Description about="https://iconscout.com/legal#licenses" dc:title="cnc,machine" dc:description="cnc,machine" dc:publisher="Iconscout" dc:date="2017-12-15" dc:format="image/svg+xml" dc:language="en"><dc:creator><rdf:Bag><rdf:li>Icons8</rdf:li></rdf:Bag></dc:creator></rdf:Description></rdf:RDF></metadata></svg>