<svg xmlns="http://www.w3.org/2000/svg" width="256" height="256" enable-background="new 0 0 256 256" viewBox="0 0 256 256"><polygon fill="#FCE275" points="176.11 56.96 103.2 153.71 81.2 153.71 154.1 56.96"/><polygon fill="#FCE275" points="136.2 56.96 63.3 153.71 55.74 153.71 128.64 56.96"/><polygon fill="#FFF0B2" points="205.86 56.96 205.86 153.71 103.2 153.71 176.11 56.96"/><polygon fill="#FFF0B2" points="154.1 56.96 81.2 153.71 63.3 153.71 136.2 56.96"/><polygon fill="#FFF0B2" points="128.64 56.96 55.74 153.71 48.12 153.71 48.12 56.96"/><rect width="7.98" height="96.75" x="40.14" y="56.96" fill="#C1B893"/><path fill="#676867" d="M37.07 202.04c1.93 0 3.5 1.56 3.5 3.5 0 1.93-1.57 3.5-3.5 3.5H34c-1.93 0-3.5-1.57-3.5-3.5 0-1.94 1.57-3.5 3.5-3.5H37.07zM72.95 202.04c1.94 0 3.5 1.56 3.5 3.5 0 1.93-1.56 3.5-3.5 3.5H49.69c-1.93 0-3.5-1.57-3.5-3.5 0-1.94 1.57-3.5 3.5-3.5H72.95z"/><polygon fill="#929392" points="151.29 188.79 151.26 189 151.23 189.22 151.19 189.43 151.15 189.65 151.1 189.87 151.04 190.08 150.98 190.3 150.91 190.52 150.84 190.73 150.76 190.95 150.68 191.16 150.59 191.38 150.5 191.59 150.4 191.81 150.3 192.02 150.19 192.23 150.07 192.44 149.95 192.65 149.83 192.85 149.7 193.06 149.56 193.26 149.42 193.47 149.28 193.67 149.13 193.87 148.98 194.06 148.82 194.26 148.66 194.45 148.49 194.64 148.32 194.83 147.97 195.2 147.6 195.56 147.22 195.91 146.83 196.25 146.42 196.58 146 196.9 145.58 197.2 145.14 197.49 105.14 197.49 105.58 197.2 106 196.9 106.42 196.58 106.83 196.25 107.22 195.91 107.6 195.56 107.97 195.2 108.32 194.83 108.49 194.64 108.66 194.45 108.82 194.26 108.98 194.06 109.13 193.87 109.28 193.67 109.42 193.47 109.56 193.26 109.7 193.06 109.83 192.85 109.95 192.65 110.07 192.44 110.19 192.23 110.3 192.02 110.4 191.81 110.5 191.59 110.59 191.38 110.68 191.16 110.76 190.95 110.84 190.73 110.91 190.52 110.98 190.3 111.04 190.08 111.1 189.87 111.14 189.7 111.15 189.65 111.19 189.43 111.23 189.22 111.26 189 111.29 188.79 111.31 188.57 111.33 188.36 111.34 188.14 111.35 187.93 111.35 187.72 111.35 187.51 111.34 187.3 111.32 187.09 111.3 186.88 111.27 186.68 111.24 186.47 111.21 186.27 111.17 186.07 111.12 185.87 111.07 185.67 111.02 185.48 110.96 185.28 110.9 185.09 110.83 184.9 103 163.71 143 163.71 150.83 184.9 150.9 185.09 150.96 185.28 151.02 185.48 151.07 185.67 151.12 185.87 151.17 186.07 151.21 186.27 151.24 186.47 151.27 186.68 151.3 186.88 151.32 187.09 151.34 187.3 151.35 187.51 151.35 187.72 151.35 187.93 151.34 188.14 151.33 188.36 151.31 188.57"/><path fill="#676867" d="M225.5,59.38v91.91c0,4.62-3.16,8.63-7.65,9.72l-9.85,2.38c4.31-1.109,7.5-5.02,7.5-9.68V56.96
					c0-4.66-3.19-8.57-7.5-9.68l9.85,2.38C222.34,50.75,225.5,54.77,225.5,59.38z"/><polygon fill="#676867" points="160.38 190.56 145.14 197.49 145.58 197.2 146 196.9 146.42 196.58 146.83 196.25 147.22 195.91 147.6 195.56 147.97 195.2 148.32 194.83 148.49 194.64 148.66 194.45 148.82 194.26 148.98 194.06 149.13 193.87 149.28 193.67 149.42 193.47 149.56 193.26 149.7 193.06 149.83 192.85 149.95 192.65 150.07 192.44 150.19 192.23 150.3 192.02 150.4 191.81 150.5 191.59 150.59 191.38 150.68 191.16 150.76 190.95 150.84 190.73 150.91 190.52 150.98 190.3 151.04 190.08 151.1 189.87 151.15 189.65 151.19 189.43 151.23 189.22 151.26 189 151.29 188.79 151.31 188.57 151.33 188.36 151.34 188.14 151.35 187.93 151.35 187.72 151.35 187.51 151.34 187.3 151.32 187.09 151.3 186.88 151.27 186.68 151.24 186.47 151.21 186.27 151.17 186.07 151.12 185.87 151.07 185.67 151.02 185.48 150.96 185.28 150.9 185.09 150.83 184.9 143 163.71 150.46 163.71"/><polygon fill="#676867" points="178.49 190.56 178.49 197.56 153.26 209.04 153.26 202.04"/><polygon fill="#A3C0C6" points="110.76 190.95 110.68 191.16 110.59 191.38 110.5 191.59 110.4 191.81 110.3 192.02 110.19 192.23 110.07 192.44 109.95 192.65 109.83 192.85 109.7 193.06 109.56 193.26 109.42 193.47 109.28 193.67 109.13 193.87 108.98 194.06 108.82 194.26 108.66 194.45 108.49 194.64 108.32 194.83 107.97 195.2 107.6 195.56 107.22 195.91 106.83 196.25 106.42 196.58 106 196.9 105.58 197.2 105.14 197.49 145.14 197.49 160.38 190.56 178.49 190.56 153.26 202.04 84.02 202.04 111.14 189.7 111.1 189.87 111.04 190.08 110.98 190.3 110.91 190.52 110.84 190.73"/><rect width="69.24" height="7" x="84.02" y="202.04" fill="#6CCDEA"/><path fill="#6CCDEA" d="M215.5,56.96v96.75c0,4.66-3.19,8.57-7.5,9.68c-0.05,0.021-0.1,0.03-0.15,0.04
					c-0.75,0.181-1.54,0.28-2.35,0.28h-55.04H143h-40H40.54c-5.53,0-10-4.479-10-10V56.96c0-5.52,4.47-10,10-10H205.5
					c0.81,0,1.6,0.1,2.35,0.28c0.05,0.01,0.1,0.02,0.15,0.04C212.31,48.39,215.5,52.3,215.5,56.96z M205.86,153.71V56.96h-29.75
					H154.1h-17.9h-7.56H48.12h-7.98v96.75h7.98h7.62h7.56h17.9h22H205.86z"/><line x1="105.141" x2="145.141" y1="197.493" y2="197.493" fill="none" stroke="#000" stroke-linecap="round" stroke-linejoin="round" stroke-miterlimit="10" stroke-width="2"/><polyline fill="none" stroke="#000" stroke-linecap="round" stroke-linejoin="round" stroke-miterlimit="10" stroke-width="2" points="105.141 197.493 105.577 197.201 106.003 196.896 106.42 196.58 106.826 196.252 107.22 195.913 107.602 195.563 107.969 195.202 108.321 194.832 108.491 194.644 108.657 194.452 108.819 194.26 108.977 194.064 109.13 193.867 109.279 193.668 109.423 193.467 109.562 193.265 109.697 193.061 109.827 192.854 109.952 192.647 110.071 192.438 110.186 192.229 110.295 192.018 110.4 191.806 110.499 191.593 110.593 191.379 110.681 191.164 110.764 190.949 110.842 190.733 110.914 190.517 110.98 190.301 111.042 190.084 111.097 189.867 111.147 189.65 111.191 189.434 111.23 189.218 111.264 189.001 111.292 188.786 111.314 188.571 111.331 188.356 111.343 188.143 111.349 187.93 111.35 187.718 111.345 187.508 111.335 187.298 111.32 187.089 111.3 186.882 111.275 186.676 111.245 186.472 111.209 186.27 111.169 186.068 111.125 185.868 111.075 185.671 111.021 185.476 110.962 185.281 110.898 185.09 110.831 184.899"/><line x1="84.015" x2="111.137" y1="202.036" y2="189.695" fill="none" stroke="#000" stroke-linecap="round" stroke-linejoin="round" stroke-miterlimit="10" stroke-width="2"/><line x1="145.141" x2="160.385" y1="197.493" y2="190.558" fill="none" stroke="#000" stroke-linecap="round" stroke-linejoin="round" stroke-miterlimit="10" stroke-width="2"/><polyline fill="none" stroke="#000" stroke-linecap="round" stroke-linejoin="round" stroke-miterlimit="10" stroke-width="2" points="145.141 197.493 145.577 197.201 146.003 196.896 146.42 196.58 146.826 196.252 147.22 195.913 147.602 195.563 147.969 195.202 148.321 194.832 148.491 194.644 148.657 194.452 148.819 194.26 148.977 194.064 149.13 193.867 149.279 193.668 149.423 193.467 149.562 193.265 149.697 193.061 149.827 192.854 149.952 192.647 150.071 192.438 150.186 192.229 150.295 192.018 150.4 191.806 150.499 191.593 150.593 191.379 150.681 191.164 150.764 190.949 150.842 190.733 150.914 190.517 150.98 190.301 151.042 190.084 151.097 189.867 151.147 189.65 151.191 189.434 151.23 189.218 151.264 189.001 151.292 188.786 151.314 188.571 151.331 188.356 151.343 188.143 151.349 187.93 151.35 187.718 151.345 187.508 151.335 187.298 151.32 187.089 151.3 186.882 151.275 186.676 151.245 186.472 151.209 186.27 151.169 186.068 151.125 185.868 151.075 185.671 151.021 185.476 150.962 185.281 150.898 185.09 150.831 184.899"/><line x1="160.385" x2="178.488" y1="190.558" y2="190.558" fill="none" stroke="#000" stroke-linecap="round" stroke-linejoin="round" stroke-miterlimit="10" stroke-width="2"/><line x1="150.463" x2="160.385" y1="163.711" y2="190.558" fill="none" stroke="#000" stroke-linecap="round" stroke-linejoin="round" stroke-miterlimit="10" stroke-width="2"/><line x1="103" x2="110.831" y1="163.711" y2="184.899" fill="none" stroke="#000" stroke-linecap="round" stroke-linejoin="round" stroke-miterlimit="10" stroke-width="2"/><line x1="143" x2="150.831" y1="163.711" y2="184.899" fill="none" stroke="#000" stroke-linecap="round" stroke-linejoin="round" stroke-miterlimit="10" stroke-width="2"/><path fill="none" stroke="#000" stroke-linecap="round" stroke-linejoin="round" stroke-miterlimit="10" stroke-width="2" d="
			M217.852,161.011c4.487-1.086,7.648-5.103,7.648-9.72"/><line x1="207.852" x2="217.852" y1="163.43" y2="161.011" fill="none" stroke="#000" stroke-linecap="round" stroke-linejoin="round" stroke-miterlimit="10" stroke-width="2"/><line x1="225.5" x2="225.5" y1="59.383" y2="151.291" fill="none" stroke="#000" stroke-linecap="round" stroke-linejoin="round" stroke-miterlimit="10" stroke-width="2"/><path fill="none" stroke="#000" stroke-linecap="round" stroke-linejoin="round" stroke-miterlimit="10" stroke-width="2" d="
			M225.5,59.383c0-4.616-3.161-8.634-7.648-9.719"/><line x1="207.852" x2="217.852" y1="47.244" y2="49.664" fill="none" stroke="#000" stroke-linecap="round" stroke-linejoin="round" stroke-miterlimit="10" stroke-width="2"/><polyline fill="none" stroke="#000" stroke-linecap="round" stroke-linejoin="round" stroke-miterlimit="10" stroke-width="2" points="205.859 153.711 205.859 56.964 40.141 56.964 40.141 153.711 205.859 153.711"/><path fill="none" stroke="#000" stroke-linecap="round" stroke-linejoin="round" stroke-miterlimit="10" stroke-width="2" d="
			M215.5,56.964c0-5.522-4.477-10-10-10"/><line x1="205.5" x2="40.535" y1="46.964" y2="46.964" fill="none" stroke="#000" stroke-linecap="round" stroke-linejoin="round" stroke-miterlimit="10" stroke-width="2"/><line x1="215.5" x2="215.5" y1="153.711" y2="56.964" fill="none" stroke="#000" stroke-linecap="round" stroke-linejoin="round" stroke-miterlimit="10" stroke-width="2"/><path fill="none" stroke="#000" stroke-linecap="round" stroke-linejoin="round" stroke-miterlimit="10" stroke-width="2" d="M205.5 163.711c5.523 0 10-4.478 10-10M30.535 56.963c0-5.522 4.477-10 10-10"/><line x1="30.535" x2="30.535" y1="153.711" y2="56.963" fill="none" stroke="#000" stroke-linecap="round" stroke-linejoin="round" stroke-miterlimit="10" stroke-width="2"/><path fill="none" stroke="#000" stroke-linecap="round" stroke-linejoin="round" stroke-miterlimit="10" stroke-width="2" d="
			M40.535,163.711c-5.523,0-10-4.479-10-10"/><line x1="40.535" x2="205.5" y1="163.711" y2="163.711" fill="none" stroke="#000" stroke-linecap="round" stroke-linejoin="round" stroke-miterlimit="10" stroke-width="2"/><line x1="72.953" x2="49.69" y1="209.036" y2="209.036" fill="none" stroke="#000" stroke-linecap="round" stroke-linejoin="round" stroke-miterlimit="10" stroke-width="2"/><line x1="72.953" x2="49.69" y1="202.036" y2="202.036" fill="none" stroke="#000" stroke-linecap="round" stroke-linejoin="round" stroke-miterlimit="10" stroke-width="2"/><path fill="none" stroke="#000" stroke-linecap="round" stroke-linejoin="round" stroke-miterlimit="10" stroke-width="2" d="M72.953 209.036c1.933 0 3.5-1.567 3.5-3.5 0-1.934-1.567-3.5-3.5-3.5M37.07 209.036c1.933 0 3.5-1.567 3.5-3.5 0-1.934-1.567-3.5-3.5-3.5M49.69 202.036c-1.933 0-3.5 1.566-3.5 3.5 0 1.933 1.567 3.5 3.5 3.5M34 202.036c-1.933 0-3.5 1.566-3.5 3.5 0 1.933 1.567 3.5 3.5 3.5"/><line x1="37.07" x2="34" y1="202.036" y2="202.036" fill="none" stroke="#000" stroke-linecap="round" stroke-linejoin="round" stroke-miterlimit="10" stroke-width="2"/><line x1="37.07" x2="34" y1="209.036" y2="209.036" fill="none" stroke="#000" stroke-linecap="round" stroke-linejoin="round" stroke-miterlimit="10" stroke-width="2"/><line x1="153.262" x2="153.262" y1="202.036" y2="209.036" fill="none" stroke="#000" stroke-linecap="round" stroke-linejoin="round" stroke-miterlimit="10" stroke-width="2"/><line x1="153.262" x2="178.488" y1="209.036" y2="197.558" fill="none" stroke="#000" stroke-linecap="round" stroke-linejoin="round" stroke-miterlimit="10" stroke-width="2"/><line x1="178.488" x2="178.488" y1="190.558" y2="197.558" fill="none" stroke="#000" stroke-linecap="round" stroke-linejoin="round" stroke-miterlimit="10" stroke-width="2"/><line x1="153.262" x2="178.488" y1="202.036" y2="190.558" fill="none" stroke="#000" stroke-linecap="round" stroke-linejoin="round" stroke-miterlimit="10" stroke-width="2"/><line x1="84.015" x2="153.262" y1="202.036" y2="202.036" fill="none" stroke="#000" stroke-linecap="round" stroke-linejoin="round" stroke-miterlimit="10" stroke-width="2"/><line x1="84.015" x2="153.262" y1="209.036" y2="209.036" fill="none" stroke="#000" stroke-linecap="round" stroke-linejoin="round" stroke-miterlimit="10" stroke-width="2"/><line x1="84.015" x2="84.015" y1="209.036" y2="202.036" fill="none" stroke="#000" stroke-linecap="round" stroke-linejoin="round" stroke-miterlimit="10" stroke-width="2"/></svg>