<svg xmlns="http://www.w3.org/2000/svg" id="Layer_1" enable-background="new 0 0 53 53" viewBox="0 0 53 53"><path fill="#2d2c2b" d="M27.9277515,35.0795288l-0.0099487,1.5999756c0,0.2000122-0.0300293,0.4000244-0.1000366,0.5900269
						c-0.5796089,1.8607864-3.4666328,2.5899658-5.3900146,2.5899658v-0.0100098
						c-2.2533836,0-5.539978-0.9882698-5.539978-3.2000122c0.000639-0.1006927,0.0106487-1.6806488,0.0100098-1.5799561
						c-0.0100098-0.8099976,0.5299683-1.6400146,1.5999756-2.2600098c2.1500244-1.25,5.6400146-1.25,7.7999878,0
						C27.3877735,33.4295044,27.9277515,34.2595215,27.9277515,35.0795288z" enable-background="new"/><g enable-background="new"><path fill="#434240" d="M27.9270954,35.0796089l-0.0056934,1.604744
						c-0.0023022,0.8125496-0.5364494,1.5131302-1.6033077,2.1331215c-2.1479397,1.2482452-5.6402588,1.35952-7.8014145,0.1117783
						c-1.0879421-0.6281242-1.6313-1.4525261-1.6289673-2.2756729l0.0056915-1.6047401
						c-0.0023327,0.823143,0.5410271,1.6475449,1.6289673,2.2756691c2.1611557,1.2477417,5.6534748,1.2472496,7.8014164-0.0009956
						C27.390646,36.7035217,27.9247932,35.8921623,27.9270954,35.0796089z"/><path fill="#383736" d="M26.3237896,37.3235207c-2.1371899,1.2419968-5.6048203,1.2482185-7.7683563,0.0191498v1.6078529
						c2.1639137,1.2258492,5.6273251,1.2186546,7.7626648-0.0222588c1.0668564-0.6199837,1.6010036-1.4313774,1.6033077-2.2439041
						l0.0056934-1.6047554C27.9247952,35.8921585,27.3906479,36.7035103,26.3237896,37.3235207z"/><path fill="#2d2c2b" d="M26.3237896,37.3235207c-1.0748959,0.6246643-2.4863396,0.9364014-3.899147,0.9359398v1.6047173
						c1.410902-0.000351,2.8199902-0.312088,3.8934555-0.9359131c1.0668564-0.6199837,1.6010036-1.4313774,1.6033077-2.2439041
						l0.0056934-1.6047554C27.9247952,35.8921585,27.3906479,36.7035103,26.3237896,37.3235207z"/><path fill="#21201f" d="M26.3237896,37.3235207c-0.1022682,0.0594482-0.2084732,0.1151085-0.3165436,0.1688766v1.6019058
						c0.1060772-0.052906,0.2103806-0.1076469,0.3108521-0.1660385c1.0668564-0.6199837,1.6010036-1.4313774,1.6033077-2.2439041
						l0.0056934-1.6047554C27.9247952,35.8921585,27.3906479,36.7035103,26.3237896,37.3235207z"/><path fill="#494847" d="M26.2991714,32.8051262c2.1611557,1.2477455,2.1717186,3.2706261,0.0246162,4.5183868
						c-2.1479416,1.2482452-5.6402607,1.2487373-7.8014164,0.0009956c-2.1619911-1.2482262-2.1733799-3.2715874-0.0254402-4.5198326
						C20.6440353,31.5569153,24.1371803,31.5569,26.2991714,32.8051262z"/></g><path fill="#c4c2c0" d="M21.190712,37.0766907l-1.0850353-0.592392c0.4591408-2.3797493,0.6701584-4.6430035,0.671751-6.8299618
				l1.0850182,0.5924091C21.8608646,32.4336929,21.649847,34.696949,21.190712,37.0766907z"/><polygon fill="#e0e2e2" points="21.862 30.247 20.777 29.654 23.383 28.15 24.468 28.743"/><path fill="#d6d4d2" d="M24.4676571,28.7426224c0.0139694,2.1779747,0.2448368,4.1861076,0.7082138,6.0332336l-3.9851589,2.3008347
				c0.4591351-2.3797417,0.6701527-4.6429977,0.6717453-6.8299541L24.4676571,28.7426224z"/><g enable-background="new"><path fill="#b2b0af" d="M11.2056751,39.9482002l-2.7263994-1.5844078
									c-0.1361189-0.0791054-0.2204323-0.2475662-0.2211113-0.4869461l2.7263975,1.5844078
									C10.9852409,39.700634,11.0695543,39.8690948,11.2056751,39.9482002z"/><polygon fill="#c4c2c0" points="10.985 39.461 8.258 37.877 8.251 35.479 10.978 37.064"/><path fill="#e9e8e6" d="M35.4406929,22.9400921l0.0067978,2.3974838
									c0.0013657,0.4812279-0.3368607,1.0670567-0.7556534,1.3088474L11.7440786,39.8953171
									c-0.418788,0.241787-0.758152,0.0471649-0.7595167-0.434063l-0.0067968-2.3974838L35.4406929,22.9400921z"/></g><g enable-background="new"><path fill="#494948" d="M35.4377632,22.9395142L10.9778013,37.0595093l-2.7300415-1.5800171
									C8.2471581,35.2564507,8.1981344,17.08391,8.197772,16.9495239l0.0100098,0.0099487
									c0-0.4799805,0.3300171-1.0699463,0.75-1.3099976c4.554369-2.6293917,18.3985062-10.621809,22.9500122-13.25
									c0.2099628-0.1199951,0.3999653-0.1299438,0.5399799-0.0499878l2.6900024,1.5700073
									c0.1500244,0.0599976,0.25,0.2399902,0.2600098,0.5L35.4377632,22.9395142z"/><path fill="#434240" d="M32.4460258,2.347224l2.7263985,1.5844111
										c-0.1378365-0.0801041-0.3287392-0.0687847-0.5394783,0.0528874l-2.7263985-1.584409
										C32.1172905,2.2784414,32.3081894,2.267122,32.4460258,2.347224z"/><polygon fill="#494948" points="10.98 37.061 8.252 35.478 8.203 16.954 10.931 18.538"/><polygon fill="#383736" points="10.98 37.061 8.252 35.478 8.233 28.165 10.961 29.749"/><polygon fill="#494948" points="11.685 17.233 8.959 15.649 31.907 2.4 34.633 3.985"/><polygon fill="#383736" points="11.685 17.233 8.959 15.649 20.396 9.046 23.122 10.63"/><polygon fill="#2d2c2b" points="11.685 17.233 8.959 15.649 13.823 12.841 16.549 14.425"/><path fill="#494948" d="M10.9306097,18.5416412l-2.7263966-1.5844097
										c-0.0013647-0.481226,0.3357887-1.0664368,0.7545767-1.3082237l2.7263975,1.5844097
										C11.2663994,17.4752045,10.9292459,18.0604134,10.9306097,18.5416412z"/><path fill="#21201f" d="M34.632946,3.9845226c0.4187927-0.2417912,0.7592278-0.0477877,0.7605934,0.43344l0.0471535,18.5221291
									L10.9777651,37.0637703l-0.0471554-18.5221291c-0.0013638-0.4812279,0.3357897-1.0664368,0.7545776-1.3082237
									L34.632946,3.9845226z"/><path fill="#0780d3" d="M34.766468,22.5515461l-2.4390755,1.4085922l-5.6761894,3.2767525l-3.1964073,1.845644
									l-11.8076277,6.8180695l-0.0042887-1.6581993L11.6032457,18.539978c0-0.2388859,0.2099543-0.6041622,0.4188356-0.725193
									l5.9943256-3.4609919l12.4642696-7.196188l3.1964016-1.8456564l1.0433273-0.6020031l0.0299988,11.6876698
									L34.766468,22.5515461z"/></g><g><polygon fill="#3f9ae0" points="30.481 7.158 23.455 29.083 11.647 35.901 11.643 34.242 18.016 14.354"/><polygon fill="#3f9ae0" points="34.75 16.398 32.327 23.96 26.651 27.237 33.677 5.312 34.72 4.71"/></g><path fill="#fff" d="M12.5860977,18.0641785c-0.3655252,0.1182995-0.6880083,0.3225498-0.9459953,0.5912952
			c-0.2687473,0.2687473-0.4729977,0.5912323-0.5912304,0.9459953c-0.0430422,0.1182327-0.19349,0.1182327-0.2365322,0
			c-0.2364655-0.7310486-0.806241-1.3007584-1.5372248-1.5372906c-0.1182337-0.0322151-0.1182337-0.1934891,0-0.2257061
			c0.3655243-0.1289921,0.6880083-0.3224831,0.9567547-0.5912304c0.257987-0.2580528,0.4622374-0.5912952,0.5804701-0.9459953
			c0.0430422-0.1289921,0.19349-0.1289921,0.2365322,0c0.1182327,0.3547001,0.3224831,0.6879425,0.5912304,0.9459953
			c0.257987,0.2687473,0.5804701,0.4622383,0.9459953,0.5912304C12.7043304,17.8706894,12.7043304,18.0319633,12.5860977,18.0641785
			z"/><g enable-background="new"><path fill="#cc4848" d="M23.006876,31.0480976l0.3684254,0.2141056c-0.1140766-0.0662937-0.2720737-0.0569229-0.4464989,0.0437832
					l-0.3684273-0.2141075C22.7348003,30.9911747,22.8927975,30.981802,23.006876,31.0480976z"/><path fill="#f25a5a" d="M22.4868183,32.7915497l-0.3684273-0.2141075
					c-0.1126728-0.0654755-0.1825523-0.2047081-0.1831131-0.4024887c-0.0011292-0.3982983,0.2787876-0.883131,0.6250973-1.0830746
					l0.3684273,0.2141075c-0.3463116,0.1999416-0.6262264,0.6847744-0.6250973,1.0830746
					C22.304266,32.5868416,22.3741455,32.7260704,22.4868183,32.7915497z"/><path fill="#cc4848" d="M22.4875546,32.7910843l-0.3703117-0.21661c-0.111824-0.0628624-0.1816807-0.2026215-0.1816807-0.3982887
					l0.3703117,0.2096558C22.3058739,32.5884628,22.3757744,32.7282219,22.4875546,32.7910843z"/><path fill="#c44141" d="M22.9288025,31.3059864c0.3466244-0.2001247,0.6283703-0.0395679,0.6294994,0.3587322
					c0.0011272,0.397934-0.2787876,0.8831329-0.625412,1.0832558c-0.3463097,0.1999435-0.6280575,0.0390205-0.6291847-0.3589134
					C22.3025761,31.9907608,22.5824909,31.505928,22.9288025,31.3059864z"/></g><g><path fill="#8d9799" d="M44.802227,39.741188c0,0.1606789-0.1112671,0.3213577-0.3213539,0.4449196L26.5845337,50.5185204
					c-0.4202518,0.2472038-1.1000023,0.2472038-1.5201778,0l-6.068491-3.5223885
					c-0.1977177-0.1235657-0.2966137-0.2718697-0.2966137-0.4325485l-0.0123711-1.5387688
					c0,0.1606789,0.1112671,0.3089867,0.3089848,0.4326248l6.068491,3.5223885c0.4201756,0.2472038,1.099926,0.2348328,1.5201778,0
					l17.8963394-10.3324127c0.1977921-0.1112671,0.3089828-0.2718697,0.3089828-0.4202499L44.802227,39.741188z"/><path fill="#7e8a8c" d="M44.789856,38.2271652c0,0.1483803-0.1111908,0.3089828-0.3089828,0.4202499L26.5845337,48.9798279
					c-0.4202518,0.2348328-1.1000023,0.2472038-1.5201778,0l-4.0364075-2.3428764v1.5386887l4.0364075,2.3428802
					c0.4201756,0.2472038,1.099926,0.2472038,1.5201778,0l17.8963394-10.3324127
					c0.2100868-0.1235619,0.3213539-0.2842407,0.3213539-0.4449196L44.789856,38.2271652z"/><path fill="#6d797a" d="M44.789856,38.2271652c0,0.1483803-0.1111908,0.3089828-0.3089828,0.4202499L26.5845337,48.9798279
					c-0.4202518,0.2348328-1.1000023,0.2472038-1.5201778,0l-1.0330906-0.5996361v1.5386925l1.0330906,0.5996361
					c0.4201756,0.2472038,1.099926,0.2472038,1.5201778,0l17.8963394-10.3324127
					c0.2100868-0.1235619,0.3213539-0.2842407,0.3213539-0.4449196L44.789856,38.2271652z"/><path fill="#8d9799" d="M44.789856,38.2271652c0,0.1483803-0.1111908,0.3089828-0.3089828,0.4202499l-16.5077209,9.5306854
					v1.5386887l16.5077209-9.5306816c0.2100868-0.1235619,0.3213539-0.2842407,0.3213539-0.4449196L44.789856,38.2271652z"/><path fill="#7e8a8c" d="M44.789856,38.2271652c0,0.1483803-0.1111908,0.3089828-0.3089828,0.4202499l-8.7915649,5.0757599
					v1.5386925l8.7915649-5.0757599c0.2100868-0.1235619,0.3213539-0.2842407,0.3213539-0.4449196L44.789856,38.2271652z"/><path fill="#6d797a" d="M44.789856,38.2271652c0,0.1483803-0.1111908,0.3089828-0.3089828,0.4202499l-3.1130486,1.7935638
					v1.5386925l3.1130486-1.7935638c0.2100868-0.1235619,0.3213539-0.2842407,0.3213539-0.4449196L44.789856,38.2271652z"/><path fill="#a0a8aa" d="M19.0105305,44.5755234c-0.4182415,0.2414703-0.4283142,0.6378479-0.0128174,0.8793068
					l6.0679684,3.5263176c0.4154968,0.2414627,1.099802,0.236908,1.5180454-0.0045662l17.8968525-10.3327522
					c0.4182167-0.2414589,0.4204216-0.6332588,0.0049248-0.8747215l-6.0679703-3.5263176
					c-0.4154968-0.2414589-1.0919342-0.241478-1.5101509-0.0000229L19.0105305,44.5755234z"/><g><path fill="#fff" d="M29.8703632 38.9919052c-.0735588.0424728-.070734.1070938-.0008316.1477165l1.3726444.7976913c.060379.0350876.1719322.0369377.245491-.0055313l1.3784256-.7958336c.063961-.0369301.0643463-.103405.0039673-.1384926l-1.3726444-.7976952c-.0699024-.0406227-.1846657-.0406151-.2486267-.0036888L29.8703632 38.9919052zM27.4813099 40.3712273c-.0703602.0406227-.0675468.1052513.0023556.145874l1.3726444.7976952c.060379.0350876.1719418.0369263.2423019-.0036926l1.3816242-.7976837c.063961-.0369263.0611477-.1015549.0007687-.1366425l-1.3726444-.7976952c-.0699024-.0406227-.1814651-.0424614-.2454281-.0055351L27.4813099 40.3712273zM25.0954533 41.748703c-.0703697.0406265-.0707436.1070976-.0008411.1477203l1.3726425.7976913c.060379.0350914.1751308.0350914.2455025-.0055389l1.3816223-.7976799c.0639629-.0369301.0611362-.1015511.0007591-.1366386l-1.3726444-.7976913c-.0699024-.0406265-.1814556-.0424728-.2454166-.0055428L25.0954533 41.748703zM22.7095871 43.1261826c-.0735588.042469-.070734.10709-.0008316.1477127l1.3726444.7976952c.060379.0350876.1719322.0369339.245491-.0055351l1.3784237-.7958336c.0639725-.0369339.0643463-.1034012.0039692-.1384888l-1.3726444-.7976952c-.0699024-.0406227-.1846542-.0406227-.2486267-.0036888L22.7095871 43.1261826zM20.3205318 44.5055046c-.0703583.0406227-.0675449.1052513.0023575.145874l1.3726444.7976913c.060379.0350876.1719418.0369301.2423019-.0036926l1.3816242-.7976799c.063961-.0369301.0611458-.1015549.0007687-.1366425l-1.3726444-.7976952c-.0699024-.0406227-.1814671-.0424652-.2454281-.0055351L20.3205318 44.5055046zM35.7550545 35.5943794c-.0703583.0406227-.0675316.1052437.0023689.1458664l1.3726425.7976913c.060379.0350876.1719322.0369377.2422943-.003685l1.3816223-.7976799c.063961-.0369301.0611458-.1015587.0007706-.1366463l-1.3726463-.7976913c-.0699005-.0406227-.1814651-.0424652-.2454262-.0055389L35.7550545 35.5943794zM33.3692017 36.9718513c-.0703621.0406227-.0707474.1070976-.000843.1477203l1.3726425.7976952c.060379.0350876.1751442.03508.2455025-.0055389l1.3816223-.7976837c.063961-.0369263.0611496-.1015549.0007706-.1366425l-1.3726463-.7976952c-.0699005-.0406227-.1814651-.0424614-.2454262-.0055351L33.3692017 36.9718513zM32.0786705 40.2752342c-.0735588.042469-.0707359.10709-.0008316.1477127l1.3726425.7976952c.0603676.03508.1719322.0369339.245491-.0055351l1.3784256-.7958336c.063961-.0369263.0643349-.1034088.0039673-.1384888l-1.3726425-.7976952c-.0699043-.0406227-.1846657-.0406189-.2486267-.0036888L32.0786705 40.2752342zM29.6896152 41.6545563c-.0703602.0406227-.0675449.1052513.0023575.145874l1.3726444.7976913c.0603657.0350838.1719418.0369301.2423-.0036926l1.3816242-.7976799c.063961-.0369301.0611382-.1015625.0007706-.1366463l-1.3726444-.7976913c-.0699024-.0406227-.1814671-.0424652-.2454281-.0055351L29.6896152 41.6545563zM27.3037605 43.0320282c-.0703716.0406303-.0707455.1070976-.000843.1477203l1.3726444.7976952c.0603676.03508.1751308.0350876.2455006-.0055389l1.3816242-.7976837c.063961-.0369263.0611248-.1015549.0007572-.1366348l-1.3726425-.7976952c-.0699024-.0406227-.1814556-.042469-.2454185-.0055428L27.3037605 43.0320282zM24.9178944 44.4095116c-.0735588.042469-.070734.10709-.0008316.1477127l1.3726425.7976952c.0603676.03508.1719322.0369339.245491-.0055351l1.3784237-.7958336c.0639725-.0369339.0643368-.1034088.0039692-.1384926l-1.3726444-.7976913c-.0699024-.0406227-.1846542-.0406227-.2486267-.0036888L24.9178944 44.4095116zM22.5288391 45.7888336c-.0703602.0406189-.0675449.1052475.0023575.1458702l1.3726425.7976952c.0603676.03508.1719437.0369301.2423019-.0036926l1.3816242-.7976799c.063961-.0369301.0611362-.1015625.0007687-.1366463l-1.3726425-.7976913c-.0699043-.0406265-.1814671-.0424652-.2454281-.0055389L22.5288391 45.7888336zM37.9633636 36.8777046c-.0703621.0406227-.0675354.1052437.0023651.1458664l1.3726463.7976952c.0603676.03508.1719284.0369339.2422905-.0036888l1.3816223-.7976799c.063961-.0369263.0611382-.1015625.0007706-.1366425l-1.3726463-.7976952c-.0699005-.0406227-.1814651-.0424652-.2454262-.0055351L37.9633636 36.8777046zM35.577507 38.2551804c-.0703583.0406227-.0707436.1070976-.000843.1477203l1.3726463.7976913c.0603638.0350838.1751404.0350838.2454987-.0055389l1.3816223-.7976799c.0639648-.0369301.0611382-.1015625.0007706-.1366463l-1.3726425-.7976913c-.0699043-.0406227-.181469-.0424652-.24543-.0055351L35.577507 38.2551804zM34.2869759 41.5585632c-.0735588.042469-.0707321.10709-.0008316.1477127l1.3726463.7976913c.0603638.0350838.1719284.0369377.2454872-.0055313l1.3784256-.7958336c.063961-.0369301.0643349-.1034088.0039673-.1384926l-1.3726425-.7976913c-.0699043-.0406227-.1846657-.0406189-.2486267-.0036888L34.2869759 41.5585632zM27.1261997 45.6928368c-.0767574.0443192-.070734.1070938-.0040092.1458664l1.3726444.7976952c.0603657.03508.1719093.0406303.2486668-.003685l6.1501484-3.5507889c.0671577-.0387764.0579567-.1034126-.0024109-.1384926l-1.3726425-.7976952c-.0667267-.0387726-.1750908-.0424614-.2422523-.0036888L27.1261997 45.6928368zM24.7371445 47.0721588c-.0703583.0406227-.0675449.1052513.0023575.145874l1.3726444.7976913c.0603676.0350838.1719418.0369301.2423019-.0036926l1.3816242-.7976799c.063961-.0369263.0611362-.1015625.0007687-.1366425l-1.3726444-.7976952c-.0699024-.0406227-.1814671-.0424652-.2454281-.0055351L24.7371445 47.0721588zM40.171669 38.1610336c-.0703621.0406227-.0675354.1052437.0023651.1458664l1.3726463.7976913c.0603676.0350838.1719322.0369377.2422905-.003685l1.3816223-.7976799c.0639648-.0369301.0611382-.1015625.0007706-.1366463l-1.3726425-.7976913c-.0699043-.0406227-.181469-.0424652-.24543-.0055351L40.171669 38.1610336z"/><path fill="#6d797a" d="M40.1774178 38.7127991l1.3725471.8014603c.0601082.0350685.1702957.0350685.2404289-.0049858l1.3825455-.7964745c.0300522-.0200272.0450668-.0450668.0450668-.070137v-.4057426c0 .0250397-.0150146.0501099-.0450668.0651207l-1.3825455.7964783c-.0701332.045063-.1853371.0400505-.2454453.0050125l-1.3725166-.7964745c-.0350647-.0200272-.0501099-.0500832-.0501099-.0751534v.410759C40.1223221 38.6677322 40.1373672 38.6927719 40.1774178 38.7127991zM40.9638634 37.4304428c.030056-.0200233.0450974-.0450935.0450974-.0701332v-.410759c0 .0250702-.0150414.0501099-.0450974.070137l-1.3825417.7964745c-.0701065.0400505-.1803246.0400505-.2454453.0050163l-1.3725166-.7964783c-.0350685-.0200233-.0500793-.0500793-.0500793-.0751495v.4057426c0 .030056.0200233.0551262.0550919.0751495l1.3725166.8014603c.0601082.0350685.1703262.0350685.2404327-.004982L40.9638634 37.4304428zM27.1234436 46.246624l1.3725471.7964745c.0601082.0350685.1702957.0400848.2504597 0l6.1462688-3.5515327c.0350647-.0200272.0501099-.0450668.0501099-.0701065v-.4057465c0 .0250397-.0150452.0500832-.0501099.0651245l-6.1512833 3.551506c-.0751495.0450935-.1853371.040081-.2454453.0050125l-1.3725471-.7964745c-.0350361-.0200272-.0550938-.0450668-.0550938-.0751228l.0050144.410759C27.0733643 46.2015572 27.0884075 46.2265968 27.1234436 46.246624zM37.7329559 39.6144485v.4057426c0 .030056.0200272.0551262.0550919.0751495l1.3725166.7964478c.0601082.0350685.175312.0350685.2454453-.004982l1.377533-.7964783c.0350685-.0200272.0500793-.0450668.0500793-.070137v-.4057426c0 .0250397-.0150108.0501099-.0500793.0651207l-1.3825455.7964783c-.070137.045063-.1853371.045063-.2454453.0099983l-1.3725166-.8014603C37.7479668 39.6645584 37.7329559 39.6394882 37.7329559 39.6144485zM36.3704376 37.1148643l-1.3825455.7964745c-.0701332.0400505-.1853371.0400505-.2454453.0050125l-1.3725166-.7964745c-.0350647-.0200272-.0550919-.0450974-.0550919-.0751495l.004982.410759c0 .0250397.0150452.0501099.0501099.0701332l1.3725166.8014603c.0601082.0350685.175312.0350685.2454453-.004982l1.3825455-.8014908c.0300522-.0150108.0450974-.040081.0450974-.0651207v-.410759C36.415535 37.0697975 36.4004898 37.0948372 36.3704376 37.1148643zM28.0952301 41.8886452l-1.382513.8014603c-.070137.040081-.1853695.040081-.2454758.0050125l-1.3725166-.7964745c-.0350685-.0200272-.0500793-.0500793-.0500793-.0751228v.4057465c0 .0300522.0150108.0550919.0500793.075119l1.3725166.7964745c.0601063.0350685.1753387.0350685.2454758-.0050125l1.382513-.7964439c.0300541-.0200577.0450954-.0450974.0450954-.070137v-.4057465C28.1403255 41.8485641 28.1252842 41.8736038 28.0952301 41.8886452zM27.9650173 44.8891487l-.0050144-.4057426c0 .0250397-.0150433.0500793-.0450974.070137l-1.3775291.7964439c-.075119.0400848-.1853371.0400848-.2454453.0050163l-1.3725166-.7964783c-.0350685-.0200233-.0550938-.0500793-.0550938-.075119v.410759c0 .0250397.0200253.0500793.0550938.0701065l1.3725166.7964745c.0601082.040081.1703262.040081.2454453-.0050125l1.3775291-.7914619C27.9449596 44.9442444 27.9650173 44.9141884 27.9650173 44.8891487zM32.077549 40.8316803l1.3725166.7964745c.0601082.0350685.1753387.0400848.2454453-.0050125l1.3775291-.7964439c.0350685-.0200577.0501137-.0450974.0501137-.070137v-.410759c0 .030056-.0150452.0550957-.0501137.0751495l-1.3775291.7964478c-.075119.040081-.1853371.040081-.2454453.0050125l-1.3725166-.8014603c-.0350685-.0200539-.0550919-.0450935-.0550919-.070137l.0050125.4057465C32.0274696 40.7866135 32.0424805 40.8116531 32.077549 40.8316803zM34.2866249 42.1140327l1.3725166.7964783c.0601044.0350685.1702957.040081.2454453-.0050163l1.3775291-.7964439c.0350685-.0150414.0500793-.0450974.0500793-.070137v-.4057426c0 .0250397-.0150108.0500793-.0500793.070137l-1.3775291.7964439c-.0751495.040081-.1853409.040081-.2454453.0050125l-1.3725166-.7964745c-.0350685-.0200272-.0551262-.0500793-.0551262-.075119v.4057426C34.2314987 42.0689697 34.2515564 42.0940094 34.2866249 42.1140327zM30.4796143 40.511116l-1.3825436.8014565c-.0701065.0400848-.1803246.0350685-.2404327 0l-1.3725147-.7964745c-.0350685-.0200272-.0550938-.0450668-.0550938-.075119v.410759c0 .0250397.0200253.0550919.0550938.075119l1.3725147.7964745c.0601082.0350685.1703262.0350685.2454472-.0050125l1.3775291-.7964478c.0350685-.0200539.0501099-.0450935.0501099-.0701332v-.4057465C30.5297241 40.4710312 30.5096684 40.4960709 30.4796143 40.511116zM32.8690109 39.544342c.030056-.0200539.0450668-.0450974.0450668-.070137v-.4107552c0 .0250397-.0150108.0550919-.0500793.0701332l-1.3775311.7964478c-.0701351.0450974-.1853371.040081-.2454453.0050125l-1.3725166-.7964745c-.0350666-.0200272-.0501099-.0450668-.0501099-.0701065v.4057426c0 .0250397.0150433.0550957.0501099.0751228l1.3725166.7964745c.0651226.0350685.1753101.0350685.2454453-.0050125L32.8690109 39.544342zM35.5789757 38.4022293c-.0350685-.0200233-.0550957-.0450935-.0550957-.0751495v.410759c0 .0250397.0200272.0551224.0550957.0751495l1.3725166.7964478c.0601387.0350647.1753387.0350647.2454758-.0049858l1.382515-.7964745c.0300827-.0200272.0450935-.0450974.0450935-.070137v-.410759c0 .0250702-.0150108.0501099-.0500793.070137l-1.3775291.7964745c-.070137.0400543-.1853371.0400543-.2454758.0050163L35.5789757 38.4022293zM32.7387695 42.1340904l-.0050163-.4057426c0 .0250397-.0150108.0500793-.0450668.0701332l-1.3825417.7964478c-.070137.040081-.1803246.040081-.2404633.0050125l-1.3725147-.8014603c-.0350685-.0200539-.0550938-.0450935-.0550938-.0701332v.4057426c0 .0250397.0200253.0550957.0550938.075119l1.3725147.7964783c.0601387.0350647.1703262.040081.2404633-.0050163l1.3825417-.7964439C32.7237549 42.1891861 32.7387695 42.1591301 32.7387695 42.1340904zM30.3043041 43.5817566c.0300541-.0200577.0450649-.0450974.0450649-.070137v-.4057426c0 .0250397-.0150108.0500793-.0450649.070137l-1.3825436.7964439c-.070137.040081-.185339.040081-.2454453.0050125l-1.3725166-.7964745c-.0350685-.0200272-.0551243-.0500793-.0551243-.075119l.0050144.410759c0 .0250397.0150414.0500793.0501099.0701027l1.3725166.8014908c.0601063.0350685.1753082.0350685.2454453-.0100288L30.3043041 43.5817566zM38.7548218 36.1430779c.0300522-.0150146.0450668-.0400848.0450668-.0651245v-.4107552c0 .0250702-.0150146.0501099-.0450668.0701332l-1.3825455.7964783c-.0701332.0400505-.1803207.0400505-.2404289.0050125l-1.3725166-.7964745c-.0350685-.0250397-.0551262-.0500793-.0551262-.0751495v.4057426c0 .0300522.0200577.0551224.0551262.0751495l1.3725166.7964783c.0601082.0350342.1702957.0400505.2404289 0L38.7548218 36.1430779zM25.705862 43.2711563l-1.3775291.7964783c-.0751495.040081-.1853371.040081-.2454453.0050125l-1.3725471-.7964745c-.0350685-.0250397-.0550938-.0500793-.0550938-.075119v.4057426c0 .0300522.0200253.0550957.0550938.075119l1.3725471.7964783c.0601082.0350685.1702957.040081.2454453-.0050163l1.3775291-.7964439c.0350685-.0150414.0500813-.0450974.0500813-.070137v-.4057426C25.7559433 43.2260933 25.7359161 43.251133 25.705862 43.2711563zM24.6839657 47.1432915l.0050144.4107552c0 .0250397.0150433.0500793.0501118.0701065l1.3725147.8014908c.0601082.0350685.1753101.0350685.2454453-.0050125l1.3825455-.7964783c.0300541-.0200272.0450649-.0450668.0450649-.0701065v-.4107552c0 .0250397-.0150108.0550919-.0500793.0701332l-1.3825436.7964478c-.070137.0450974-.1803246.040081-.2404327.0050125l-1.3725147-.7964745C24.7040234 47.1983833 24.6839657 47.1683311 24.6839657 47.1432915zM22.4749222 45.8609352l.0050144.4057465c0 .0300522.0150127.0550919.0500793.075119l1.3725166.7964745c.0651226.0350685.1753407.040081.2454453 0l1.3825455-.7964745c.0300541-.0200272.0450954-.0450668.0450954-.0701065v-.410759c0 .0250397-.0150414.0500793-.0501099.070137l-1.3775311.7964439c-.0701046.0400848-.1853371.0400848-.2454453.0050163l-1.3725166-.7964783C22.4949493 45.9160309 22.4799366 45.8859749 22.4749222 45.8609352zM20.2708626 44.5785828v.4057426c0 .030056.0200558.0550957.0551243.075119l1.3725166.7964783c.0601082.0350685.1702957.040081.2404308 0l1.3825455-.8014603c.0300522-.0150414.0450649-.040081.0450649-.0651207v-.410759c0 .0250397-.0150127.0500793-.0450649.0701065l-1.3825455.7964745c-.0701351.040081-.1853371.040081-.2454453.0050125l-1.3725166-.7964745C20.2859058 44.6286621 20.2708626 44.6036224 20.2708626 44.5785828z"/><g><path fill="#fff" d="M37.7858124,39.5385056c-0.0703583,0.0406227-0.0707436,0.1070976-0.000843,0.1477203l1.3726463,0.7976952
					c0.0603676,0.03508,0.1751404,0.0350838,0.2454987-0.0055389l1.3816261-0.7976837
					c0.063961-0.0369263,0.0611343-0.1015625,0.0007668-0.1366425l-1.3726425-0.7976952
					c-0.0699043-0.0406227-0.1814651-0.0424614-0.2454262-0.0055351L37.7858124,39.5385056z"/></g></g></g></svg>