<?xml version="1.0" encoding="UTF-8"?><!DOCTYPE svg PUBLIC "-//W3C//DTD SVG 1.1//EN" "http://www.w3.org/Graphics/SVG/1.1/DTD/svg11.dtd"><svg xmlns="http://www.w3.org/2000/svg" xmlns:xlink="http://www.w3.org/1999/xlink" version="1.1" id="Layer_1" x="0px" y="0px" width="130px" height="130px" viewBox="0 0 130 130" xml:space="preserve"><path fill="#083A9E" d="M96.922 122.969l-24.25-14-2.859 1.65a1 1 0 0 1-1-1.732l3.859-2.229 24.25 14 16.82-9.711a1 1 0 0 1 1 1.732l-17.82 10.29z"/><path fill="#01257F" d="M113.742 112.019l-16.82 9.712-24.25-14-3.859 2.228a.98.98 0 0 0-.332.333.994.994 0 0 0 1.332.328l2.859-1.65 24.25 14 17.82-10.289a.982.982 0 0 0 .332-.334.994.994 0 0 0-1.332-.328z"/><path fill="#8FAA8F" d="M60.111 51.286l7.919-4.571-.286 64.165-7.633 4.406z"/><path fill="#7E997E" d="M60.111 36.557l7.919-4.573-.286 64.166-7.633 4.407z"/><path fill="#1281DD" d="M69.887 113.449l3.452-1.969v4l-3.484 2z"/><path fill="#27A8FF" d="M62.918 109.48l3.492-2 6.929 4-3.452 1.969z"/><path fill="#7E997E" d="M44.241 78.143V96.43l15.835 9.142V87.286z"/><path fill="#6B826B" d="M44.241 73.127v18.287l15.835 9.143V82.271z"/><path fill="#ADC4AD" d="M14.758 5.571v64.001l79.18 45.714v-64z"/><path fill="#9EB79E" d="M93.938 51.286L14.758 5.571v64.001"/><path fill="#0F313D" d="M19.486 15.312v47.667l69.722 40.253V55.564z"/><path fill="#053D7A" d="M21.986 61.604l67.222 38.81v-44.85L21.986 16.756z"/><path fill="#084D60" d="M19.486 62.979l69.722 40.253V55.564"/><path fill="#04335E" d="M23.609 62.541l65.599 37.873v-44.85z"/><path fill="#8FAA8F" d="M93.938 51.286l7.918-4.571-.286 64.165-7.632 4.406z"/><path fill="#7E9B7E" d="M93.938 115.286v-64l7.918-4.571"/><path fill="#CAE0CA" d="M14.758 5.571L22.676 1l79.18 45.715-7.918 4.571z"/><path fill="#D9EDD9" d="M14.758 5.571L22.676 1l79.18 45.715"/><path fill="#7E997E" d="M51.205 83.378c-1.021-.591-1.857-.128-1.857 1.026s.837 2.59 1.857 3.189c1.021.601 1.859.139 1.859-1.026 0-1.164-.838-2.598-1.859-3.189z"/><path fill="#8FAA8F" d="M51.205 87.594c1.021.601 1.859.139 1.859-1.026 0-1.164-.839-2.599-1.859-3.189"/><path fill="#7E997E" d="M22.677 101.572v9.143L54.348 129v-9.143z"/><path fill="#8FAA8F" d="M54.348 119.857l15.837-9.142v9.142L54.348 129z"/><path fill="#ADC4AD" d="M22.677 101.572l15.835-9.142 31.673 18.285-15.837 9.142z"/><path fill="#A2BCA2" d="M38.512 92.43l31.673 18.285-15.837 9.142"/><path fill="#5C6D5C" d="M49.6 119.816v.85l2.558 1.48v-.849z"/><path fill="#5C6D5C" d="M49.6 121.588v.85l2.558 1.478v-.85z"/><path fill="#5C6D5C" d="M49.6 123.357v.851l2.558 1.48v-.851z"/><g fill="#13AFD3"><path d="M48.377 49.521v4.699l4.084 2.358.036-4.737z"/><path d="M53.62 52.532v4.697l4.085 2.36.035-4.738z"/><path d="M48.377 55.518v4.698l4.084 2.358.036-4.738z"/><path d="M53.62 58.527v4.699l4.085 2.358.035-4.737z"/></g><path fill="#5C6D5C" d="M25.626 106.144v3.542l18.615 10.787-.011-3.567z"/><path fill="#3C493C" d="M44.23 116.906l-16.812-9.725v1.762l16.818 9.745z"/><metadata><rdf:RDF xmlns:rdf="http://www.w3.org/1999/02/22-rdf-syntax-ns#" xmlns:rdfs="http://www.w3.org/2000/01/rdf-schema#" xmlns:dc="http://purl.org/dc/elements/1.1/"><rdf:Description about="https://iconscout.com/legal#licenses" dc:title="pc,monitor" dc:description="pc,monitor" dc:publisher="Iconscout" dc:date="2018-03-20" dc:format="image/svg+xml" dc:language="en"><dc:creator><rdf:Bag><rdf:li>Roundicons.com</rdf:li></rdf:Bag></dc:creator></rdf:Description></rdf:RDF></metadata></svg>