<?xml version="1.0" encoding="UTF-8"?><!DOCTYPE svg PUBLIC "-//W3C//DTD SVG 1.1//EN" "http://www.w3.org/Graphics/SVG/1.1/DTD/svg11.dtd"><svg xmlns="http://www.w3.org/2000/svg" xmlns:xlink="http://www.w3.org/1999/xlink" version="1.1" id="Layer_1" x="0px" y="0px" width="130px" height="130px" viewBox="0 0 130 130" xml:space="preserve"><path fill="#A8CCC9" d="M41.846 101.136v7.387L67.438 123.3v-7.389z"/><path fill="#9AB5B3" d="M67.438 115.911l12.796-7.388v7.388L67.438 123.3z"/><path fill="#BDE0DC" d="M41.846 101.136l12.795-7.388 25.593 14.775-12.796 7.388z"/><path fill="#A9D3CD" d="M54.641 93.825l25.593 14.776-12.798 7.388"/><path fill="#9AB5B3" d="M65.527 66.211l6.399-3.694-.231 44-6.168 3.56z"/><path fill="#81A3A0" d="M65.527 54.308l6.399-3.695-.231 51.851-6.168 3.56z"/><path fill="#A8CCC9" d="M52.703 87.913v14.776l12.795 7.388V95.301z"/><path fill="#9AB5B3" d="M52.703 83.86v14.776l12.795 7.388V91.248z"/><path fill="#A8CCC9" d="M21.451 11.272v64l79.18 45.714v-64z"/><path d="M100.629 111.188V56.985L21.451 11.272v54.202z"/><path fill="#0F313D" d="M26.18 20.012V67.68l69.72 40.253V60.265z"/><path fill="#1DBF7D" d="M28.68 66.305l67.22 38.809V60.265L28.68 21.456z"/><path fill="#084D60" d="M26.18 67.68l69.72 40.253V60.265"/><path fill="#0C8E8E" d="M30.303 67.241L95.9 105.114V60.265z"/><path fill="#9AB5B3" d="M100.631 56.986l7.918-4.571-.285 64.165-7.633 4.406z"/><path fill="#2C4B60" d="M108.51 52.438l-7.879 4.548v53.997l7.633-4.406z"/><path fill="#2D758E" d="M21.451 11.272L29.369 6.7l79.18 45.715-7.918 4.571z"/><path fill="#367E9E" d="M21.451 11.272L29.369 6.7l79.18 45.715"/><path d="M57.898 89.078c-1.021-.591-1.857-.128-1.857 1.026s.836 2.59 1.857 3.189c1.02.601 1.857.139 1.857-1.026.001-1.163-.837-2.598-1.857-3.189z"/><path fill="#2C4B60" d="M57.898 93.294c1.02.601 1.857.139 1.857-1.026 0-1.164-.838-2.599-1.857-3.189"/><g fill="#FFF"><path d="M62.297 61.231l-6.938-3.958v7.964l6.938 3.995v-4.001l-3.469-1.978z"/><path d="M58.828 59.229v-4l-3.469-2.002z"/></g><metadata><rdf:RDF xmlns:rdf="http://www.w3.org/1999/02/22-rdf-syntax-ns#" xmlns:rdfs="http://www.w3.org/2000/01/rdf-schema#" xmlns:dc="http://purl.org/dc/elements/1.1/"><rdf:Description about="https://iconscout.com/legal#licenses" dc:title="computer,monitor" dc:description="computer,monitor" dc:publisher="Iconscout" dc:date="2018-03-20" dc:format="image/svg+xml" dc:language="en"><dc:creator><rdf:Bag><rdf:li>Roundicons.com</rdf:li></rdf:Bag></dc:creator></rdf:Description></rdf:RDF></metadata></svg>