<?xml version="1.0" encoding="UTF-8"?><svg xmlns="http://www.w3.org/2000/svg" xmlns:xlink="http://www.w3.org/1999/xlink" version="1.1" id="Layer_1" x="0px" y="0px" viewBox="0 0 24 24" xml:space="preserve"><g fill="none" stroke="#303C42" stroke-linecap="round" stroke-linejoin="round" stroke-miterlimit="10"><path d="M13 .5C2 .5 1.5 6.5 1.5 8c0 4 5.25 2.75 7.5 5 2 2 4 6.5 7 6.5s6.5-8 6.5-11.5S19 .5 13 .5z"/><path d="M22.5 8v4c0 3.5-3.5 11.5-6.5 11.5S11 19 9 17c-2.25-2.25-7.5-1-7.5-5V8"/><path d="M10.5 11.5c2 0 8.5-3 10-3"/><path d="M5.5 9.5c2 0 12.5-4 14-4"/><path d="M3.5 6.5c2 0 11.5-4 13-4"/><path d="M12.5 14.5c1.5 0 5-2 7-2"/></g><metadata><rdf:RDF xmlns:rdf="http://www.w3.org/1999/02/22-rdf-syntax-ns#" xmlns:rdfs="http://www.w3.org/2000/01/rdf-schema#" xmlns:dc="http://purl.org/dc/elements/1.1/"><rdf:Description about="https://iconscout.com/legal#licenses" dc:title="grilled,steak,barbecue,cooking,food,meal,bbq" dc:description="grilled,steak,barbecue,cooking,food,meal,bbq" dc:publisher="Iconscout" dc:date="2017-08-16" dc:format="image/svg+xml" dc:language="en"><dc:creator><rdf:Bag><rdf:li>Those Icons</rdf:li></rdf:Bag></dc:creator></rdf:Description></rdf:RDF></metadata></svg>