<svg xmlns="http://www.w3.org/2000/svg" viewBox="0 0 240 240"><polygon fill="#cecece" points="78.88 101.49 3.09 145.24 124.88 215.56 201 171.61 78.88 101.49"/><polygon fill="#b7b7b7" points="3.09 145.24 3.09 156.53 124.74 228.12 124.88 215.56 3.09 145.24"/><polygon fill="#7c7c7c" points="124.74 228.12 124.74 215.56 201 171.61 201 183.76 124.74 228.12"/><path fill="#3a3a3a" d="M23.82,149.67c-4.21-2.44-4.21-6.41,0-8.84L70.5,113.9a16.76,16.76,0,0,1,15.26.07l92.93,54.64c4.19,2.46,4.16,6.45-.06,8.86l-46.08,26.3c-4.22,2.41-11.11,2.38-15.32-.05Z"/><path fill="#a0a0a0" d="M102.76,169.35c4.2,2.44,4.21,6.46,0,8.93l-3.55,2.09a16.61,16.61,0,0,1-15.23,0L61.54,167.1c-4.19-2.47-4.15-6.45.08-8.85l3.52-2c4.23-2.4,11.13-2.35,15.33.09Z"/><polygon fill="#a0a0a0" points="62.77 124.76 50.44 132.07 64.92 140.42 77.36 133.18 62.77 124.76"/><polygon fill="#a0a0a0" points="82.76 135.89 70.44 143.19 84.91 151.55 97.35 144.3 82.76 135.89"/><polygon fill="#a0a0a0" points="102.75 147.32 90.43 154.62 104.9 162.98 117.34 155.73 102.75 147.32"/><polygon fill="#a0a0a0" points="122.75 159.31 110.42 166.62 124.89 174.97 137.34 167.73 122.75 159.31"/><polygon fill="#a0a0a0" points="142.74 171.02 130.41 178.33 144.88 186.68 157.33 179.44 142.74 171.02"/><path fill="#a0a0a0" d="M80.79,118.16a6.36,6.36,0,0,0-6.28,0l-8.17,4.55L80.81,131l11.44-6.25Z"/><polygon fill="#a0a0a0" points="97.66 127.48 86.33 133.79 100.81 142.14 112.25 135.9 97.66 127.48"/><polygon fill="#a0a0a0" points="117.65 138.91 106.33 145.22 120.8 153.57 132.24 147.32 117.65 138.91"/><polygon fill="#a0a0a0" points="137.64 150.91 126.32 157.21 140.79 165.57 152.23 159.32 137.64 150.91"/><path fill="#a0a0a0" d="M157.64,162.62l-11.33,6.3,14.47,8.36,7.9-4.31a2.27,2.27,0,0,0,0-4Z"/><polygon fill="#b7b7b7" points="78.92 101.49 102.78 14.71 224.01 84.71 201.04 171.61 78.92 101.49"/><polygon fill="#cecece" points="102.78 14.71 112.89 8.87 235 78.36 224.01 84.71 102.78 14.71"/><polygon fill="#7c7c7c" points="224.01 84.71 201.04 171.61 212.16 164.76 235 78.36 224.01 84.71"/><path fill="#f7e146" d="M111.57,30.4a3.85,3.85,0,0,0-5.91,2.4L89.91,88.26A7.06,7.06,0,0,0,93,95.86l100.17,58.22a3.7,3.7,0,0,0,5.75-2.43l14.28-57A7.27,7.27,0,0,0,209.94,87Z"/><path fill="#825a3f" d="M119,66.32l-.07,0-.11.06c0-.13-.12-.78-.1-.67,0-.1-.15-.56-.12-.46,0-.1-.2-.56-.17-.46,0-.1-.25-.55-.2-.45-.06-.1-.3-.55-.24-.45-.07-.1-.34-.52-.28-.42l-.3-.4-.33-.36-.34-.31a3.88,3.88,0,0,1-.35-.28l-.36-.22-.35-.16-.35-.11-.47-.05-.57,0-.53.14-.46.26-.4.35-.34.45c0,.1-.3.64-.25.54,0,.11-.2.73-.17.63,0,.1-.1.79-.09.69v.75c0,.1.1.89.09.79l.24,1.12.44,1.46.58,1.45.7,1.42.81,1.37.91,1.29,1,1.19,1,1.07,1.46,1.23,1.5,1,1.5.78,1.47.52,3.11.15a4.65,4.65,0,0,0,2.32-.63c1-.73,3.06-2.14,3-2.11.1-.07,3.29-2.32,3-2.12.1,0,2.13-1.37,2-1.31.11,0,1.51-.7,1.4-.67.1,0,1.87-.45,1.77-.45l1,.18,1.28.45,1.55.79,1.54,1,1.51,1.24,1.46,1.44,1.37,1.6,1.27,1.75,1.95-.32.7,0,.72.09.73.16.76.22.76.29.76.35.78.41.77.47.77.53.76.58.52.44.51.48.49.51.49.54.46.56.44.6.43.61.4.64.37.65.35.67,4.38,8.38,4.77,8.2.57.89.6.86.63.83.66.8.69.76.7.71.72.66.73.62.74.56.75.51.75.45.75.38.75.33.74.26.72.19.53.1.52,0h.51l.49,0,.46-.09.44-.15.42-.19.4-.24.36-.29.34-.32.3-.38.27-.41.24-.45.2-.49.16-.52h0l.07-.32.06-.34,0-.35v-.75l0-.39-.06-.4-.07-.41-.1-.41-.12-.42-.13-.42-.16-.42-.17-.41-.2-.42-.21-.4-.22-.4-.24-.39-.26-.38-.27-.37-.28-.35-.29-.33-.3-.32-.16-.17-.18-.15-.17-.14-.18-.13-.18-.12-.18-.1-.13-.07-.05,0-.17-.08-.18-.06-.17,0-.17,0-.17,0h-.16l-.15,0-.15,0-.14,0-.13.06-.13.08-.12.08-.1.11-.1.11-.09.13-.08.15-.06.15-.06.17,0,.17,0,.18,0,.2-.11-.18-.11-.19-.09-.19-.09-.19-.08-.2-.06-.19-.07-.19-.05-.2,0-.19,0-.19,0-.18v-.52l0-.17,0-.15,0-.15,0-.14.06-.13.06-.11.08-.11.08-.1.09-.09.1-.07.11-.06.11,0,.12,0,.13,0h.4l.47.1.49.13.48.18.5.22.49.27.5.3.49.34.5.38.48.41.47.45.47.48.45.5.43.53.41.56.4.58.37.59.45.78.41.8.39.81.35.81.31.82.27.82.23.82.2.81.15.81.11.78.07.77,0,.75,0,.73,0,.7-.11.66-.14.64-.18.59-.39,1-.46.89-.52.81-.59.74-.65.65-.71.56-.76.47-.82.39-.86.28-.91.2-.94.1h-1l-1-.09-1-.2-1-.29-1.08-.39-1.09-.48-1.1-.57-1.09-.66-1.09-.75-1.09-.83-1.06-.91-1.05-1-1-1-1-1.11-11.7-12.36-1.44-1.55-1.49-1.45L156.15,100,154.6,98.8,153,97.69l-1.57-1-1.57-.82-1.57-.69-1.54-.55c-.1,0-6.16-2-6.06-2-15.23-1.42-14.85-1.56-14.75-1.54-.1,0-4-1.47-3.84-1.35L120,88.12l-2.1-1.94-2-2.21L114,81.53l-3.15-5.34L109.11,72l-1.17-4.44L107.78,66c0-.1,0-1.57,0-1.47,0-.1.19-1.44.18-1.34l.35-1.22c.05-.1.88-1.61.82-1.51l.73-.78.86-.58.77-.29.85-.1.91.06,1,.25,1,.42,1,.58,1,.74.95.87.28.3.25.33.23.35.21.38c0,.1.22.48.17.38,0,.1.18.49.14.39,0,.1.13.49.11.38,0,.1.08.48.06.38,0,.1,0,.46,0,.36,0,.1,0,.44,0,.34,0,.1-.07.41,0,.31,0,.1-.13.38-.09.28-.06.1-.19.34-.13.24l-.36.34"/></svg>