<svg xmlns="http://www.w3.org/2000/svg" viewBox="0 0 240 240"><polygon fill="#dda637" points="121.37 155.54 167.75 120.09 163.63 113.81 117.69 148.25 121.37 155.54"/><path fill="#363636" d="M26.83,68.91a19.09,19.09,0,0,0-11.41,3.43c-5,3.61-7.92,10-7.92,18.78,0,29.71,32.32,66.33,57.65,66.33A19.05,19.05,0,0,0,76.56,154c5-3.61,7.92-10,7.92-18.78C84.48,105.53,52.16,68.91,26.83,68.91ZM25.18,81.45A15.55,15.55,0,0,1,30.4,81c18.25,1.48,41.53,28.88,42.5,50.44.21,4.5-.62,8.16-2.26,10.9a14.82,14.82,0,0,1-3.73.48c-18.76,0-44-29.15-44-51.82A18.54,18.54,0,0,1,25.18,81.45Z"/><path d="M25.18,81.45A18.54,18.54,0,0,0,22.91,91c0,22.67,25.24,51.82,44,51.82a14.82,14.82,0,0,0,3.73-.48c-2.23,3.71-6,5.72-10.72,5.72-18.76,0-44-29.15-44-51.82,0-8.26,3.6-13.32,9.26-14.82"/><path d="M35.67,63a19.07,19.07,0,0,0-11.41,3.43l-8.84,6a19.09,19.09,0,0,1,11.41-3.43c25.33,0,57.65,36.62,57.65,66.33,0,8.78-3,15.17-7.92,18.78l8.84-6c5-3.61,7.92-10,7.92-18.78C93.32,99.58,61,63,35.67,63Z"/><path fill="#363636" d="M166.63,148.25a19,19,0,0,0-11.44,3.31c-5,3.56-8,9.93-8.11,18.7-.29,29.71,31.67,66.64,57,66.89a19,19,0,0,0,11.44-3.31c5-3.57,8-9.93,8.11-18.7C223.92,185.43,192,148.5,166.63,148.25Zm-1.77,12.52a15.32,15.32,0,0,1,5.22-.38c18.23,1.67,41.24,29.29,42,50.86.16,4.5-.71,8.16-2.37,10.88a15,15,0,0,1-3.74.44c-18.76-.19-43.71-29.58-43.49-52.25A18.45,18.45,0,0,1,164.86,160.77Z"/><path d="M164.57,161a18.54,18.54,0,0,0-2.27,9.58c0,22.67,25.24,51.82,44,51.82a14.37,14.37,0,0,0,3.73-.48c-2.22,3.72-6,5.72-10.72,5.72-18.76,0-44-29.15-44-51.82,0-8.26,3.6-13.32,9.26-14.82"/><path d="M175.53,142.38a19.11,19.11,0,0,0-11.45,3.31l-8.89,5.87a19,19,0,0,1,11.44-3.31c25.33.25,57.29,37.18,57,66.89-.09,8.77-3.1,15.13-8.11,18.7l8.9-5.86c5-3.57,8-9.93,8.11-18.71C232.82,179.56,200.85,142.63,175.53,142.38Z"/><polyline fill="#dda637" points="88.44 29.43 85.42 29.62 83.12 29.09 82.2 28.92 87 47.37 92.17 44.02 88.36 29.41"/><polyline fill="#dda637" points="92.17 44.02 157.85 81.95 158.61 88.71 87 47.37 92.17 44.02" data-name="LWPOLYLINE"/><polygon fill="#dda637" points="94.39 56.41 88.47 52.99 111.81 142.65 113.24 143.26 115.39 144.83 116.54 146.04 118.95 144.23 95.89 57.28 94.39 56.41" data-name="LWPOLYLINE"/><polyline fill="#dda637" points="85.94 57.63 58.2 110.32 67 108.86 88.47 67.02 85.94 57.63" data-name="LWPOLYLINE"/><polygon fill="#dda637" points="67 108.86 107.93 131.38 110.68 140.39 109.92 139.93 58.2 110.32 67 108.86" data-name="LWPOLYLINE"/><polyline fill="#dda637" points="178.71 77.81 185.49 73.9 156.79 57.2 150.01 61.11 178.71 77.81" data-name="LWPOLYLINE"/><path fill="#f7e146" d="M189.8,194.19,158.11,72.45l14.68,8.48,5.92-3.24L149.84,61,156,87.19,87,47.37,82.2,28.92H73.34l5.78,22.82-31.2,59.81L108.19,146l1.23-3.87,1.66.17.74.31L89.8,58.1,157,97.49,160.54,113l-44,33,.86.91,1.73,2.53.67,1.4,42.37-31.79L180.89,189l4.51,2.63v0Zm-87.91-58.83-43.68-25L83.06,63.1Z"/><polygon fill="#dda637" points="164.03 75.87 158.11 72.45 189.8 194.19 194.18 191.66 164.03 75.87"/><path fill="#634532" d="M130.35,144.54c-4.34-8.4-11.94-13.11-17-10.5l-.23.12-1.49.86-3.47,2a7.89,7.89,0,0,1,1.68-.48c-3.07,3.72-1.42,10.32,2.25,17.42,3.81,7.38,9.31,12.37,14.21,11.6a8,8,0,0,1-.81.95s2.66-1.42,4-2.28a5.87,5.87,0,0,0,.65-.46l.24-.19a0,0,0,0,1,0,0h0C134.19,160.14,134.28,152.13,130.35,144.54Z"/><path fill="#a8754f" d="M125.79,147.2c4.34,8.4,3.78,17.32-1.26,19.93s-12.64-2.1-17-10.5-3.77-17.32,1.26-19.93S121.45,138.8,125.79,147.2Z"/><polygon fill="#9b9b9b" points="151.25 89.32 151.85 88.77 152.63 88.53 153.53 88.62 154.5 89.04 155.47 89.74 156.37 90.69 157.14 91.83 157.73 93.06 158.11 94.32 158.24 95.51 158.11 96.56 157.73 97.38 157.14 97.93 156.37 98.17 155.47 98.08 154.5 97.67 153.53 96.96 152.63 96.01 151.85 94.88 151.25 93.64 150.89 92.39 150.76 91.19 150.89 90.15 151.25 89.32" data-name="LWPOLYLINE"/><polygon fill="#3a3a3a" points="211.57 66.57 212.17 66.03 212.54 65.2 212.66 64.16 212.54 62.97 212.17 61.71 211.57 60.47 210.8 59.34 209.89 58.38 208.93 57.68 207.96 57.27 207.06 57.18 206.28 57.42 151.85 88.77 152.63 88.53 153.53 88.62 154.5 89.04 155.47 89.74 156.37 90.69 157.14 91.83 157.73 93.06 158.11 94.32 158.24 95.51 158.11 96.56 157.73 97.38 157.14 97.93 211.57 66.57" data-name="LWPOLYLINE"/><path fill="#b27c54" d="M78.24,8.44l-.68.26L76.91,9l-.62.31-.57.34-.54.35-.5.37-.45.39-.41.4-.36.43-.32.43-.41.57-.48.55-.55.53-.61.51-.67.48-.73.45-.78.42-.83.39-.88.35-.92.32-1,.27-1,.24-.75.18-.73.21-.7.24-.68.26-.64.29-.62.31-.57.33-.54.36-.49.37-.45.39-.4.41-.36.42-.31.44-.26.44-.21.46-.15.46-.11.47,0,.47v.47l.06.47.11.46.16.46.21.46.27.44.32.43.36.43.41.4.46.39.5.37.54.35.58.33.62.31.64.29.68.26,3.17-.16,3.17,0,3.17.09,3.16.21,3.12.33,3.08.45,3,.57,2.94.68,2.87.79,2.76.9,2.66,1,.28.16.29.14.32.14.33.12.34.11.36.09.36.08.38.07.38.06.38,0,.39,0H100l.39,0,.39,0,.38,0,.38-.07.36-.08.36-.09.35-.11.33-.12.32-.13.3-.14.29-.15.27-.17.24-.17.23-.19.21-.19.18-.2.16-.21.14-.21.11-.21.09-.23.06-.22,0-.22v-.46l0-.22-.06-.22-.09-.22-.12-.22-.14-.21-.17-.2-.19-.2-.21-.19-.23-.18-.25-.18-.28-.16L102,28.38l-1.56-1.6-1.38-1.65-1.18-1.7-1-1.74-.78-1.78a7.57,7.57,0,0,1-.22-3.66l.13-.67a6.16,6.16,0,0,0-1.92-5.7l-.23-.21-.57-.33L92.7,9l-.64-.29-.68-.27-.7-.24L90,8l-.75-.19-.77-.15-.79-.13-.79-.09L86,7.41l-.82,0h-.81l-.81,0-.81.06-.8.09-.79.12-.77.15L79.67,8l-.73.2Z" data-name="LWPOLYLINE"/><polygon fill="#634532" points="105.54 41.4 105.53 41.62 105.5 41.85 105.44 42.07 105.35 42.29 105.24 42.51 105.1 42.72 104.94 42.92 104.76 43.13 104.55 43.32 104.32 43.5 104.08 43.68 103.81 43.84 103.52 43.99 103.22 44.14 102.9 44.27 102.57 44.39 102.22 44.49 101.86 44.59 101.5 44.67 101.12 44.73 100.74 44.78 100.35 44.82 99.96 44.84 99.57 44.84 99.18 44.83 98.79 44.81 98.41 44.77 98.03 44.72 97.65 44.65 97.29 44.57 96.93 44.47 96.59 44.36 96.26 44.24 95.94 44.11 95.64 43.96 95.36 43.8 92.71 42.8 89.95 41.9 87.08 41.1 84.14 40.42 81.12 39.85 78.04 39.4 74.92 39.07 71.77 38.86 68.59 38.77 65.42 38.81 62.26 38.96 61.57 38.7 60.93 38.42 60.31 38.11 59.73 37.78 59.19 37.43 58.69 37.06 58.23 36.67 57.82 36.26 57.46 35.84 57.14 35.41 56.87 34.96 56.66 34.51 56.49 34.05 56.39 33.58 56.33 33.11 56.32 32.64 56.32 23.59 56.33 24.06 56.39 24.53 56.49 24.99 56.66 25.45 56.87 25.91 57.14 26.35 57.46 26.78 57.82 27.21 58.23 27.61 58.69 28 59.19 28.37 59.73 28.73 60.31 29.05 60.93 29.36 61.57 29.65 62.26 29.91 65.42 29.75 68.59 29.72 71.77 29.81 74.92 30.02 78.04 30.35 81.12 30.8 84.14 31.37 87.08 32.05 89.95 32.84 92.71 33.74 95.36 34.75 95.64 34.91 95.94 35.05 96.26 35.19 96.59 35.31 96.93 35.42 97.29 35.51 97.65 35.59 98.03 35.66 98.41 35.72 98.79 35.76 99.18 35.78 99.57 35.79 99.96 35.78 100.35 35.76 100.74 35.73 101.12 35.68 101.5 35.61 101.86 35.53 102.22 35.44 102.57 35.33 102.9 35.22 103.22 35.08 103.52 34.94 103.81 34.78 104.08 34.62 104.32 34.45 104.55 34.26 104.76 34.07 104.94 33.87 105.1 33.66 105.24 33.45 105.35 33.23 105.44 33.02 105.5 32.79 105.53 32.57 105.54 32.34 105.54 41.4" data-name="LWPOLYLINE"/></svg>