<?xml version="1.0" encoding="UTF-8"?><svg xmlns="http://www.w3.org/2000/svg" xmlns:xlink="http://www.w3.org/1999/xlink" version="1.1" id="Layer_1" x="0px" y="0px" viewBox="0 0 40 40" xml:space="preserve"><path fill="#A3B7CC" d="M7 9h26v1H7z"/><path fill="#66798F" d="M33 5h-1v20h1V5z"/><path fill="#66798F" d="M8 5H7v20h1V5z"/><path d="M19.955 6.315V4.909S20.059 1.5 13.819 1.5c-4.18 0-11.549.825-11.549 8.864 0 10.098 3.915 13.565 3.915 13.565" fill="none" stroke="#36404D"/><path fill="#8BB7F0" d="M3.5 35.5v-2.425L7.369 20.5h25.262L36.5 33.075V35.5z"/><path d="M32.261 21L36 33.15V35H4v-1.85L7.739 21h24.522M33 20H7L3 33v3h34v-3l-4-13z" fill="#4E7AB5"/><path fill="#B0C1D4" d="M3.5 33.5h33v5h-33z"/><path d="M36 34v4H4v-4h32m1-1H3v6h34v-6z" fill="#66798F"/><path fill="#E1EBF2" d="M32 31H8l3.091-11H29z"/><circle cx="20" cy="36" r="1" fill="#36404D"/><path fill="#36404D" d="M20 15h1v3h-1z"/><path d="M19 15.5a.5.5 0 0 1-.5-.5V6a.5.5 0 0 1 .5-.5h3a.5.5 0 0 1 .5.5v9a.5.5 0 0 1-.5.5h-3z" fill="#8BB7F0"/><path d="M22 6v9h-3V6h3m0-1h-3a1 1 0 0 0-1 1v9a1 1 0 0 0 1 1h3a1 1 0 0 0 1-1V6a1 1 0 0 0-1-1z" fill="#4E7AB5"/><path fill="#A3B7CC" d="M16.234 20l-1.241 11H16l1.241-11z"/><path fill="#A3B7CC" d="M23.766 20l1.241 11H24l-1.241-11z"/><path fill="#788B9C" d="M29.273 21L29 20H11.091l-.281 1z"/><metadata><rdf:RDF xmlns:rdf="http://www.w3.org/1999/02/22-rdf-syntax-ns#" xmlns:rdfs="http://www.w3.org/2000/01/rdf-schema#" xmlns:dc="http://purl.org/dc/elements/1.1/"><rdf:Description about="https://iconscout.com/legal#licenses" dc:title="cnc,machine" dc:description="cnc,machine" dc:publisher="Iconscout" dc:date="2018-01-06" dc:format="image/svg+xml" dc:language="en"><dc:creator><rdf:Bag><rdf:li>Icons8</rdf:li></rdf:Bag></dc:creator></rdf:Description></rdf:RDF></metadata></svg>