<svg xmlns="http://www.w3.org/2000/svg" width="512" height="512" enable-background="new 0 0 512 512" viewBox="0 0 512 512"><circle cx="256" cy="256" r="200" fill="#FFF"/><circle cx="256" cy="266" r="190" fill="#DEF4FC"/><path fill="#C8DFF5" d="M256,436c-103.262,0-187.283-82.376-189.934-185c-0.043,1.662-0.066,3.328-0.066,5
		c0,104.936,85.066,190,190,190c104.936,0,190-85.064,190-190c0-1.672-0.022-3.338-0.065-5C443.283,353.624,359.264,436,256,436z"/><g><circle cx="256" cy="256" r="200" fill="none" stroke="#00476B" stroke-miterlimit="10" stroke-width="20"/><path fill="none" stroke="#00476B" stroke-miterlimit="10" stroke-width="15" d="M56.199,251H106c8.284,0,15,6.716,15,15v25
		c0,8.284,6.716,15,15,15s15-6.716,15-15V181c0-8.284,6.716-15,15-15s15,6.716,15,15v145c0,8.284,6.716,15,15,15s15-6.716,15-15V131
		c0-8.284,6.716-15,15-15s15,6.716,15,15v250c0,8.284,6.716,15,15,15s15-6.716,15-15V141c0-8.284,6.716-15,15-15s15,6.716,15,15v175
		c0,8.284,6.716,15,15,15s15-6.716,15-15V181c0-8.284,6.716-15,15-15s15,6.716,15,15v110c0,8.284,6.716,15,15,15s15-6.716,15-15v-25
		c0-8.284,6.716-15,15-15h50"/></g></svg>