<?xml version="1.0" encoding="UTF-8"?><!DOCTYPE svg PUBLIC "-//W3C//DTD SVG 1.1//EN" "http://www.w3.org/Graphics/SVG/1.1/DTD/svg11.dtd"><svg xmlns="http://www.w3.org/2000/svg" xmlns:xlink="http://www.w3.org/1999/xlink" version="1.1" id="Layer_1" x="0px" y="0px" width="130px" height="130px" viewBox="0 0 130 130" xml:space="preserve"><path fill="#3D494C" d="M64.912 104.657V129L1.898 92.512V68.223l63.014 36.434"/><path fill="#242A2D" d="M64.994 104.657V129l63.014-36.488V68.223z"/><path fill="#8C9DA5" d="M64.912 102.56v24.343L1.898 90.415V66.126l63.014 36.434"/><path fill="#80929B" d="M64.912 126.903V102.56L1.898 66.126"/><path fill="#8C9DA5" d="M1.898 66.126l63.014 36.434"/><path fill="#8C9DA5" d="M64.912 102.56v24.343"/><path fill="#647A82" d="M64.994 102.56v24.343l63.014-36.488V66.126z"/><path fill="#566C72" d="M128.008 66.126L64.994 102.56v24.343"/><path fill="#576F75" d="M128.008 66.126L64.994 102.56"/><path fill="#576F75" d="M64.994 102.56v24.343"/><path fill="#AAB8BC" d="M1.898 66.126l63.014 36.434 63.19-36.434-63.096-36.434z"/><path fill="#9DACB2" d="M1.898 66.126l63.014 36.434 63.19-36.434"/><g><path fill="#647A82" d="M46.93 107.744c-2.043-1.19-3.721-4.104-3.73-6.474-.012-2.371 1.658-3.339 3.711-2.153 2.055 1.184 5.115 1.938 5.115 4.315-.001 2.378-3.055 5.503-5.096 4.312z"/><path fill="#242A2D" d="M52.334 102.684c0-2.374-1.676-5.289-3.73-6.473-1.045-.604-1.988-.643-2.664-.227l-2.74 1.584v5.521l2.803 1.664v-2.698c.627 1.084 1.475 2.026 2.4 2.632v2.05l2.756-1.589v-.014c.718-.37 1.175-1.213 1.175-2.45z"/><path fill="#3D494C" d="M45.85 106.424c-2.041-1.19-3.721-4.104-3.73-6.474-.012-2.372 1.658-3.339 3.711-2.153 2.055 1.183 3.732 4.096 3.732 6.474-.001 2.376-1.672 3.343-3.713 2.153z"/><path fill="#2F373A" d="M45.83 97.797c2.055 1.183 3.732 4.096 3.732 6.474 0 2.377-1.672 3.344-3.713 2.153"/><path fill="#242A2D" d="M46.969 105.618c-.393 0-.811-.128-1.242-.379-1.449-.846-2.639-2.906-2.646-4.593-.004-.687.189-1.242.551-1.606.545-.547 1.426-.575 2.316-.057 1.463.839 2.652 2.9 2.652 4.592 0 1.24-.639 2.043-1.631 2.043zm-2.262-6.543c-.299 0-.549.1-.744.296-.273.274-.414.714-.412 1.274.004 1.511 1.111 3.43 2.414 4.189.354.204.699.312 1.004.312.715 0 1.16-.602 1.16-1.572 0-1.543-1.082-3.42-2.414-4.188-.354-.201-.701-.311-1.008-.311z"/></g><g><path fill="#647A82" d="M57.377 113.893c-2.043-1.19-3.721-4.104-3.73-6.474-.012-2.371 1.66-3.339 3.711-2.153 2.055 1.184 5.115 1.938 5.115 4.315 0 2.377-3.055 5.502-5.096 4.312z"/><path fill="#242A2D" d="M62.781 108.831c0-2.373-1.676-5.288-3.73-6.472-1.045-.604-1.988-.644-2.664-.227l-2.74 1.583v5.521l2.805 1.664v-2.699c.625 1.084 1.473 2.026 2.398 2.633v2.049l2.756-1.588v-.014c.718-.369 1.175-1.213 1.175-2.45z"/><path fill="#3D494C" d="M56.297 112.572c-2.041-1.19-3.721-4.104-3.73-6.474-.012-2.372 1.658-3.339 3.711-2.153 2.055 1.183 3.732 4.096 3.732 6.474 0 2.377-1.672 3.344-3.713 2.153z"/><path fill="#2F373A" d="M56.277 103.945c2.055 1.183 3.732 4.096 3.732 6.474 0 2.377-1.672 3.344-3.713 2.153"/><path fill="#242A2D" d="M57.416 111.766c-.393 0-.811-.127-1.242-.378-1.449-.847-2.639-2.906-2.646-4.593-.004-.688.189-1.242.551-1.607.547-.546 1.426-.575 2.318-.057 1.461.84 2.65 2.901 2.65 4.593 0 1.24-.639 2.042-1.631 2.042zm-2.26-6.543c-.301 0-.551.101-.744.297-.273.274-.416.714-.414 1.274.006 1.511 1.111 3.43 2.414 4.189.354.204.699.312 1.004.312.717 0 1.162-.603 1.162-1.572 0-1.543-1.084-3.42-2.416-4.188-.353-.203-.701-.312-1.006-.312z"/></g><g fill="#8C9DA5"><path d="M124.941 82.296v1.203l-3.629 2.097V84.39z"/><path d="M124.941 84.804v1.205l-3.629 2.097v-1.207z"/><path d="M124.941 87.312v1.205l-3.629 2.097v-1.207z"/></g><g><path fill="#647A82" d="M45.791 110.646l-1.293-.747c-.355-.204-.646-.037-.646.374v1.493c0 .41.291.915.646 1.12l1.293.745c.355.206.646.038.646-.373v-1.492c.001-.411-.291-.913-.646-1.12z"/><path fill="#0E9FAA" d="M45.791 109.312l-1.293-.747c-.154-.091-.297-.104-.41-.062l-.002-.004-.021.013a.36.36 0 0 0-.039.022l-.633.357.461.79v.749c0 .41.289.915.645 1.12l.664.383.447.769.639-.36c.115-.068.189-.212.189-.419v-1.492c0-.41-.292-.914-.647-1.119z"/><path fill="#13BCAC" d="M45.137 109.685l-1.291-.747c-.357-.204-.646-.037-.646.374v1.492c0 .411.289.916.646 1.121l1.291.745c.357.206.648.038.648-.373v-1.493c0-.41-.291-.914-.648-1.119z"/></g><g><path fill="#647A82" d="M49.57 112.972l-1.291-.747c-.357-.204-.646-.036-.646.374v1.493c0 .41.289.915.646 1.12l1.291.745c.357.206.648.038.648-.372v-1.493c.001-.411-.29-.914-.648-1.12z"/><path fill="#0E9FAA" d="M49.572 111.636l-1.293-.746c-.156-.09-.297-.104-.41-.062l-.002-.004-.023.014a.36.36 0 0 0-.037.022l-.633.356.461.791v.749c0 .41.289.915.645 1.12l.664.383.447.769.637-.36c.117-.068.191-.212.191-.418v-1.493c0-.411-.291-.915-.647-1.121z"/><path fill="#13BCAC" d="M48.918 112.01l-1.293-.747c-.355-.204-.646-.037-.646.373v1.494c0 .41.291.914.646 1.119l1.293.746c.357.206.646.037.646-.373v-1.492c0-.411-.289-.914-.646-1.12z"/></g><g><path fill="#647A82" d="M53.352 115.297l-1.293-.747c-.355-.204-.646-.037-.646.374v1.493c0 .41.291.915.646 1.12l1.293.745c.357.206.646.038.646-.373v-1.492c0-.411-.289-.914-.646-1.12z"/><path fill="#0E9FAA" d="M53.354 113.962l-1.293-.747c-.156-.091-.299-.104-.41-.062l-.002-.004-.023.013-.039.022-.631.357.461.79v.749c0 .41.289.916.645 1.12l.662.383.449.769.637-.36c.117-.068.189-.212.189-.419v-1.492c-.001-.41-.29-.914-.645-1.119z"/><path fill="#13BCAC" d="M52.699 114.335l-1.293-.747c-.355-.204-.646-.037-.646.374v1.493c0 .41.291.915.646 1.12l1.293.745c.357.206.646.038.646-.373v-1.492c.001-.411-.288-.915-.646-1.12z"/></g><g><path fill="#647A82" d="M57.133 117.622l-1.293-.747c-.355-.204-.646-.036-.646.374v1.493c0 .41.291.915.646 1.12l1.293.745c.357.206.646.038.646-.372v-1.493c0-.411-.289-.914-.646-1.12z"/><path fill="#0E9FAA" d="M57.133 116.287l-1.291-.747c-.156-.09-.299-.104-.412-.062l-.002-.003-.021.013a.246.246 0 0 0-.039.022l-.633.357.461.79v.749c0 .41.289.915.646 1.12l.662.383.447.769.639-.36c.117-.068.189-.212.189-.418v-1.493c0-.411-.289-.915-.646-1.12z"/><path fill="#13BCAC" d="M56.479 116.66l-1.291-.747c-.357-.204-.646-.037-.646.374v1.493c0 .41.289.914.646 1.12l1.291.745c.357.206.648.037.648-.373v-1.492c0-.411-.291-.914-.648-1.12z"/></g><g><path fill="#647A82" d="M60.912 119.947l-1.291-.747c-.357-.204-.646-.036-.646.374v1.493c0 .41.289.915.646 1.12l1.291.745c.357.207.648.038.648-.373v-1.492c.001-.411-.29-.914-.648-1.12z"/><path fill="#0E9FAA" d="M60.914 118.612l-1.293-.746c-.154-.091-.297-.105-.41-.062l-.002-.004-.021.013a.36.36 0 0 0-.039.022l-.633.357.461.79v.749c0 .41.289.916.645 1.12l.664.383.447.769.639-.36c.115-.067.189-.212.189-.418v-1.493c0-.411-.291-.915-.647-1.12z"/><path fill="#13BCAC" d="M60.26 118.985l-1.293-.747c-.355-.204-.645-.036-.645.374v1.493c0 .41.289.915.645 1.12l1.293.745c.357.206.648.038.648-.373v-1.492c0-.411-.291-.915-.648-1.12z"/></g><g><path fill="#566C72" d="M5.371 70.079l1.191.688V91.52l-1.191-.687z"/><path fill="#334347" d="M5.684 90.646l.878.506V70.767l-.878-.508z"/><g><path opacity="0.7" fill="#647A82" d="M6.656 74.312l-1.293-.747c-.355-.204-.646-.037-.646.373v1.493c0 .411.291.915.646 1.121l1.293.744c.355.207.646.038.646-.372v-1.493c.001-.41-.29-.914-.646-1.119z"/><path fill="#C65C0E" d="M6.656 72.976l-1.293-.746c-.154-.091-.297-.105-.41-.062l-.002-.004-.021.013c-.014.006-.027.014-.039.021l-.633.357.461.791v.748c0 .411.289.916.645 1.121l.664.382.447.769.639-.36c.115-.067.189-.212.189-.418v-1.493c0-.41-.291-.914-.647-1.119z"/><path fill="#FF8B00" d="M6.002 73.349l-1.293-.746c-.355-.205-.645-.037-.645.373v1.493c0 .411.289.915.645 1.12l1.293.745c.357.206.648.038.648-.372v-1.493c0-.411-.291-.914-.648-1.12z"/><path fill="#F77206" d="M6.002 76.334c.357.206.648.038.648-.372v-1.493c0-.411-.291-.914-.648-1.12l-1.293-.746c-.355-.205-.645-.037-.645.373"/></g></g><g><path fill="#566C72" d="M10.711 73.148l1.189.687v20.754l-1.189-.687z"/><path fill="#334347" d="M11.021 93.714l.879.508V73.835l-.879-.507z"/><g><path opacity="0.7" fill="#647A82" d="M11.994 82.62l-1.293-.746c-.355-.205-.646-.037-.646.373v1.493c0 .411.291.915.646 1.12l1.293.745c.357.207.648.038.648-.372V83.74c.001-.411-.29-.914-.648-1.12z"/><path fill="#C65C0E" d="M11.996 81.285l-1.293-.746c-.156-.091-.299-.105-.41-.062l-.002-.004-.023.014a.256.256 0 0 0-.039.022l-.631.356.461.79v.749c0 .411.289.916.645 1.12l.662.383.449.769.637-.36c.117-.067.191-.212.191-.418v-1.493c0-.411-.291-.915-.647-1.12z"/><path fill="#FF8B00" d="M11.342 81.658l-1.293-.747c-.355-.204-.646-.036-.646.374v1.493c0 .41.291.915.646 1.12l1.293.745c.357.207.646.038.646-.373v-1.492c0-.411-.289-.914-.646-1.12z"/><path fill="#F77206" d="M11.342 84.644c.357.207.646.038.646-.373v-1.492c0-.411-.289-.914-.646-1.12l-1.293-.747c-.355-.204-.646-.036-.646.374"/></g></g><g><path fill="#566C72" d="M16.049 76.218l1.191.687v20.754l-1.191-.687z"/><path fill="#334347" d="M16.361 96.784l.879.507V76.905l-.879-.508z"/><g><path opacity="0.7" fill="#647A82" d="M17.334 89.007l-1.293-.747c-.355-.204-.646-.036-.646.374v1.493c0 .41.291.915.646 1.12l1.293.745c.355.206.646.038.646-.373v-1.492c0-.411-.291-.915-.646-1.12z"/><path fill="#C65C0E" d="M17.334 87.671l-1.293-.746c-.154-.09-.297-.105-.41-.062l-.002-.004-.021.014a.246.246 0 0 0-.039.022l-.633.356.461.791v.749c0 .41.289.915.645 1.12l.664.383.447.769.639-.36c.117-.068.189-.212.189-.418v-1.493c-.001-.412-.292-.916-.647-1.121z"/><path fill="#FF8B00" d="M16.68 88.044l-1.291-.746c-.357-.204-.646-.037-.646.373v1.494c0 .41.289.914.646 1.119l1.291.746c.357.206.648.037.648-.373v-1.492c0-.411-.291-.915-.648-1.121z"/><path fill="#F77206" d="M16.68 91.03c.357.206.648.037.648-.373v-1.492c0-.411-.291-.915-.648-1.121l-1.291-.746c-.357-.204-.646-.037-.646.373"/></g></g><g><path fill="#566C72" d="M21.389 79.287l1.189.688v20.753l-1.189-.687z"/><path fill="#334347" d="M21.699 99.854l.879.506V79.975l-.879-.508z"/><g><path opacity="0.7" fill="#647A82" d="M22.672 85.938l-1.293-.747c-.355-.204-.645-.037-.645.374v1.493c0 .41.289.914.645 1.12l1.293.745c.357.206.648.037.648-.373v-1.492c0-.412-.291-.914-.648-1.12z"/><path fill="#C65C0E" d="M22.674 84.603l-1.293-.747c-.156-.091-.299-.104-.41-.062l-.002-.004-.023.013-.039.022-.631.357.461.79v.749c0 .41.289.915.645 1.12l.662.382.449.77.637-.361c.117-.067.191-.211.191-.418v-1.492c-.001-.41-.292-.914-.647-1.119z"/><path fill="#FF8B00" d="M22.02 84.976l-1.293-.747c-.355-.204-.646-.037-.646.374v1.492c0 .411.291.915.646 1.121l1.293.744c.357.207.646.038.646-.372v-1.493c0-.41-.289-.914-.646-1.119z"/><path fill="#F77206" d="M22.02 87.96c.357.207.646.038.646-.372v-1.493c0-.41-.289-.914-.646-1.119l-1.293-.747c-.355-.204-.646-.037-.646.374"/></g></g><g><path fill="#566C72" d="M26.729 82.356l1.189.688v20.754l-1.189-.688z"/><path fill="#334347" d="M27.039 102.923l.879.507V83.044l-.879-.508z"/><g><path opacity="0.7" fill="#647A82" d="M28.012 86.589l-1.293-.747c-.355-.204-.646-.037-.646.374v1.493c0 .41.291.915.646 1.12l1.293.745c.357.206.646.038.646-.373v-1.492c0-.411-.289-.915-.646-1.12z"/><path fill="#C65C0E" d="M28.012 85.253l-1.291-.746c-.156-.091-.299-.104-.412-.062l-.002-.004-.021.014a.246.246 0 0 0-.039.022l-.631.356.459.791v.749c0 .41.289.915.646 1.12l.662.383.449.768.637-.359c.117-.068.189-.213.189-.419v-1.492c0-.412-.289-.916-.646-1.121z"/><path fill="#FF8B00" d="M27.359 85.626l-1.293-.746c-.355-.205-.646-.037-.646.373v1.494c0 .41.291.914.646 1.119l1.293.746c.355.206.646.037.646-.373v-1.492c.001-.412-.29-.915-.646-1.121z"/><path fill="#F77206" d="M27.359 88.612c.355.206.646.037.646-.373v-1.492c0-.412-.291-.915-.646-1.121l-1.293-.746c-.355-.205-.646-.037-.646.373"/></g></g><g><path fill="#647A82" d="M33.676 105.439c-2.867-1.67-5.223-5.759-5.238-9.085-.014-3.329 2.33-4.688 5.209-3.023 2.885 1.662 7.182 2.72 7.182 6.058-.001 3.337-4.29 7.722-7.153 6.05z"/><path fill="#242A2D" d="M41.262 98.337c0-3.332-2.354-7.424-5.238-9.084-1.467-.849-2.787-.903-3.738-.318l-3.848 2.223v7.75l3.938 2.335v-3.789c.879 1.522 2.068 2.845 3.367 3.695v2.877l3.867-2.23v-.019c1.009-.52 1.652-1.704 1.652-3.44z"/><path fill="#3D494C" d="M32.158 103.587c-2.865-1.67-5.221-5.761-5.234-9.086-.016-3.331 2.328-4.687 5.207-3.022 2.885 1.659 5.24 5.749 5.24 9.086s-2.348 4.692-5.213 3.022z"/><path fill="#2F373A" d="M32.131 91.479c2.885 1.659 5.24 5.749 5.24 9.086s-2.348 4.692-5.213 3.022"/><path fill="#242A2D" d="M33.73 102.455c-.549 0-1.137-.179-1.744-.531-2.033-1.188-3.703-4.079-3.713-6.446-.006-.964.264-1.743.773-2.256.764-.767 1.998-.807 3.252-.078 2.051 1.178 3.721 4.07 3.721 6.445.001 1.741-.896 2.866-2.289 2.866zm-3.173-9.183c-.42 0-.771.14-1.043.415-.385.385-.584 1.003-.582 1.789.008 2.12 1.562 4.813 3.391 5.88.494.287.979.438 1.408.438 1.004 0 1.629-.845 1.629-2.206 0-2.166-1.518-4.801-3.389-5.877-.498-.286-.985-.439-1.414-.439z"/></g><g><path fill="#3D494C" d="M64.912 75.964v24.344L1.898 63.82V39.53l63.014 36.434"/><path fill="#242A2D" d="M64.994 75.964v24.344l63.014-36.488V39.53z"/><path fill="#8C9DA5" d="M64.912 73.868v24.343L1.898 61.723V37.434l63.014 36.434"/><path fill="#80929B" d="M64.912 98.211V73.868L1.898 37.434"/><path fill="#8C9DA5" d="M1.898 37.434l63.014 36.434"/><path fill="#8C9DA5" d="M64.912 73.868v24.343"/><path fill="#647A82" d="M64.994 73.868v24.343l63.014-36.488V37.434z"/><path fill="#566C72" d="M128.008 37.434L64.994 73.868v24.343"/><path fill="#576F75" d="M128.008 37.434L64.994 73.868"/><path fill="#576F75" d="M64.994 73.868v24.343"/><path fill="#AAB8BC" d="M1.898 37.434l63.014 36.434 63.19-36.434L65.006 1z"/><path fill="#9DACB2" d="M1.898 37.434l63.014 36.434 63.19-36.434"/><path fill="#647A82" d="M7.369 63.564l-.363-.624V48.302l1.088-.628 32.988 19.042.359.627v14.648l-1.084.626z"/><path fill="#1ED19D" d="M6.629 60.293l-.361-.624V45.031l1.086-.628 32.988 19.042.361.626V78.72l-1.086.626z"/><path fill="#242A2D" d="M6.99 45.031l32.99 19.04V78.72L6.99 59.669V45.031m.725-1.254l-2.17 1.254v14.638l.723 1.251 32.986 19.051 2.17-1.251V64.071l-.721-1.251L7.715 43.777z"/><path fill="#13BCAC" d="M39.98 78.72V64.071L6.99 45.031"/><g fill="#21F4B3"><path d="M8.914 59.025l-.021-.034v-.794l.06-.034 1.789 1.032.02.035v.794l-.059.035z"/><path d="M8.914 57.358l-.021-.033v-.795l.06-.033 1.789 1.032.02.034v.795l-.059.035z"/><path d="M8.914 55.692l-.021-.034v-.794l.06-.034 1.789 1.033.02.034v.795l-.059.035z"/><path d="M8.914 54.026l-.021-.034v-.794l.06-.034 1.789 1.033.02.034v.795l-.059.034z"/><path d="M8.914 52.36l-.021-.034v-.794l.06-.034 1.789 1.033.02.034v.795l-.059.034z"/><path d="M8.914 50.693l-.021-.033v-.795l.06-.033 1.789 1.032.02.035v.794l-.059.035z"/><path d="M8.914 49.027l-.021-.033v-.795l.06-.033 1.789 1.032.02.034v.795l-.059.035z"/></g><g><path fill="#21F4B3" d="M12.279 60.95l-.019-.034v-.794l.058-.034 1.791 1.033.018.034v.795l-.059.034z"/><path fill="#21F4B3" d="M12.279 59.284l-.019-.034v-.794l.058-.034 1.791 1.033.018.034v.795l-.059.034z"/><path fill="#21F4B3" d="M12.279 57.618l-.019-.034v-.794l.058-.034 1.791 1.033.018.034v.795l-.059.033z"/><path fill="#21F4B3" d="M12.279 55.951l-.019-.034v-.794l.058-.033 1.791 1.032.018.035v.794l-.059.034z"/><path fill="#21F4B3" d="M12.279 54.285l-.019-.034v-.794l.058-.034 1.791 1.033.018.034v.795l-.059.034z"/><path fill="#0FB2B2" d="M12.279 52.619l-.019-.034v-.794l.058-.034 1.791 1.033.018.034v.795l-.059.034z"/><path fill="#0FB2B2" d="M12.279 50.953l-.019-.034v-.794l.058-.034 1.791 1.033.018.034v.795l-.059.034z"/></g><g><path fill="#21F4B3" d="M15.645 62.875l-.02-.033v-.795l.059-.033 1.791 1.032.019.035v.794l-.06.034z"/><path fill="#21F4B3" d="M15.645 61.209l-.02-.034v-.794l.059-.033 1.791 1.032.019.035v.794l-.06.034z"/><path fill="#21F4B3" d="M15.645 59.543l-.02-.034v-.794l.059-.034 1.791 1.033.019.034v.795l-.06.034z"/><path fill="#0FB2B2" d="M15.645 57.877l-.02-.034v-.794l.059-.034 1.791 1.033.019.034v.795l-.06.034z"/><path fill="#0FB2B2" d="M15.645 56.211l-.02-.034v-.794l.059-.034 1.791 1.032.019.035v.795l-.06.034z"/><path fill="#0FB2B2" d="M15.645 54.544l-.02-.033v-.795l.059-.033 1.791 1.032.019.035v.794l-.06.034z"/><path fill="#0FB2B2" d="M15.645 52.878l-.02-.034v-.794l.059-.034 1.791 1.033.019.034v.795l-.06.034z"/></g><g><path fill="#21F4B3" d="M19.01 64.801l-.02-.034v-.794l.059-.034 1.791 1.033.019.034v.795l-.058.034z"/><path fill="#21F4B3" d="M19.01 63.135l-.02-.034v-.794l.059-.035 1.791 1.034.019.034v.795l-.058.034z"/><path fill="#21F4B3" d="M19.01 61.469l-.02-.034v-.794l.059-.035 1.791 1.033.019.035v.795l-.058.033z"/><path fill="#21F4B3" d="M19.01 59.802l-.02-.033v-.795l.059-.034 1.791 1.033.019.035v.794l-.058.034z"/><path fill="#0FB2B2" d="M19.01 58.136l-.02-.034v-.794l.059-.034 1.791 1.033.019.034v.795l-.058.034z"/><path fill="#0FB2B2" d="M19.01 56.47l-.02-.034v-.794l.059-.034 1.791 1.033.019.034v.795l-.058.034z"/><path fill="#0FB2B2" d="M19.01 54.804l-.02-.034v-.794l.059-.035 1.791 1.034.019.034v.795l-.058.033z"/></g><g><path fill="#21F4B3" d="M22.377 66.727l-.022-.035v-.794l.061-.034 1.791 1.033.018.035v.795l-.059.034z"/><path fill="#21F4B3" d="M22.377 65.06l-.022-.034v-.794l.061-.034 1.791 1.032.018.036v.794l-.059.034z"/><path fill="#21F4B3" d="M22.377 63.394l-.022-.034v-.795l.061-.033 1.791 1.032.018.035v.795l-.059.034z"/><path fill="#21F4B3" d="M22.377 61.728l-.022-.034v-.795l.061-.033 1.791 1.032.018.035v.795l-.059.034z"/><path fill="#21F4B3" d="M22.377 60.062l-.022-.035v-.794l.061-.034 1.791 1.033.018.035v.795l-.059.033z"/><path fill="#21F4B3" d="M22.377 58.396l-.022-.035v-.794l.061-.034 1.791 1.033.018.035v.795l-.059.033z"/><path fill="#0FB2B2" d="M22.377 56.729l-.022-.034v-.794l.061-.034 1.791 1.032.018.036v.794l-.059.034z"/></g><g><path fill="#647A82" d="M46.93 79.052c-2.043-1.189-3.721-4.104-3.73-6.473-.012-2.372 1.658-3.34 3.711-2.154 2.055 1.184 5.115 1.938 5.115 4.316-.001 2.377-3.055 5.502-5.096 4.311z"/><path fill="#242A2D" d="M52.334 73.991c0-2.373-1.676-5.289-3.73-6.473-1.045-.604-1.988-.643-2.664-.227l-2.74 1.584v5.521l2.803 1.664v-2.699c.627 1.084 1.475 2.025 2.4 2.632v2.05l2.756-1.589v-.014c.718-.369 1.175-1.212 1.175-2.449z"/><path fill="#3D494C" d="M45.85 77.731c-2.041-1.189-3.721-4.104-3.73-6.473-.012-2.373 1.658-3.34 3.711-2.154 2.055 1.183 3.732 4.096 3.732 6.475-.001 2.377-1.672 3.343-3.713 2.152z"/><path fill="#2F373A" d="M45.83 69.104c2.055 1.183 3.732 4.096 3.732 6.475 0 2.377-1.672 3.343-3.713 2.152"/><path fill="#242A2D" d="M46.969 76.926c-.393 0-.811-.128-1.242-.378-1.449-.847-2.639-2.907-2.646-4.594-.004-.687.189-1.242.551-1.606.545-.547 1.426-.575 2.316-.057 1.463.839 2.652 2.9 2.652 4.593 0 1.24-.639 2.042-1.631 2.042zm-2.262-6.544c-.299 0-.549.102-.744.297-.273.274-.414.714-.412 1.275.004 1.51 1.111 3.429 2.414 4.188.354.204.699.312 1.004.312.715 0 1.16-.602 1.16-1.571 0-1.543-1.082-3.421-2.414-4.188-.354-.203-.701-.313-1.008-.313z"/></g><g><path fill="#647A82" d="M57.377 85.2c-2.043-1.189-3.721-4.104-3.73-6.474-.012-2.371 1.66-3.339 3.711-2.153 2.055 1.184 5.115 1.938 5.115 4.316s-3.055 5.503-5.096 4.311z"/><path fill="#242A2D" d="M62.781 80.14c0-2.374-1.676-5.289-3.73-6.473-1.045-.604-1.988-.643-2.664-.227l-2.74 1.584v5.521l2.805 1.664V79.51c.625 1.084 1.473 2.025 2.398 2.632v2.05l2.756-1.589v-.013c.718-.37 1.175-1.214 1.175-2.45z"/><path fill="#3D494C" d="M56.297 83.88c-2.041-1.189-3.721-4.104-3.73-6.474-.012-2.372 1.658-3.339 3.711-2.153 2.055 1.183 3.732 4.096 3.732 6.474 0 2.377-1.672 3.343-3.713 2.153z"/><path fill="#2F373A" d="M56.277 75.253c2.055 1.183 3.732 4.096 3.732 6.474 0 2.377-1.672 3.344-3.713 2.153"/><path fill="#242A2D" d="M57.416 83.073c-.393 0-.811-.127-1.242-.378-1.449-.847-2.639-2.906-2.646-4.593-.004-.688.189-1.242.551-1.607.547-.546 1.426-.574 2.318-.057 1.461.84 2.65 2.901 2.65 4.593 0 1.24-.639 2.042-1.631 2.042zm-2.26-6.543c-.301 0-.551.102-.744.297-.273.274-.416.714-.414 1.274.006 1.511 1.111 3.43 2.414 4.188.354.205.699.313 1.004.313.717 0 1.162-.603 1.162-1.572 0-1.542-1.084-3.42-2.416-4.187-.353-.203-.701-.313-1.006-.313z"/></g><g fill="#8C9DA5"><path d="M124.941 53.604v1.203l-3.629 2.096v-1.206z"/><path d="M124.941 56.111v1.205l-3.629 2.098v-1.207z"/><path d="M124.941 58.62v1.204l-3.629 2.098v-1.206z"/></g><g><path fill="#647A82" d="M45.791 81.954l-1.293-.747c-.355-.204-.646-.036-.646.374v1.493c0 .41.291.915.646 1.12l1.293.745c.355.206.646.038.646-.372v-1.493c.001-.411-.291-.914-.646-1.12z"/><path fill="#0E9FAA" d="M45.791 80.619l-1.293-.747c-.154-.09-.297-.104-.41-.062l-.002-.004-.021.013a.246.246 0 0 0-.039.022l-.633.357.461.79v.749c0 .411.289.915.645 1.12l.664.383.447.769.639-.36c.115-.068.189-.212.189-.418v-1.493c0-.41-.292-.914-.647-1.119z"/><path fill="#13BCAC" d="M45.137 80.992l-1.291-.747c-.357-.204-.646-.037-.646.374v1.493c0 .41.289.915.646 1.12l1.291.745c.357.206.648.037.648-.373v-1.492c0-.411-.291-.914-.648-1.12z"/></g><g><path fill="#647A82" d="M49.57 84.279l-1.291-.747c-.357-.204-.646-.036-.646.374v1.493c0 .41.289.915.646 1.12l1.291.745c.357.207.648.038.648-.373v-1.492c.001-.411-.29-.914-.648-1.12z"/><path fill="#0E9FAA" d="M49.572 82.944l-1.293-.746c-.156-.091-.297-.105-.41-.062l-.002-.004-.023.014a.347.347 0 0 0-.037.021l-.633.357.461.79v.749c0 .41.289.916.645 1.12l.664.383.447.769.637-.36c.117-.067.191-.212.191-.418v-1.493c0-.411-.291-.915-.647-1.12z"/><path fill="#13BCAC" d="M48.918 83.317l-1.293-.747c-.355-.204-.646-.036-.646.374v1.493c0 .41.291.915.646 1.12l1.293.745c.357.206.646.038.646-.372v-1.493c0-.411-.289-.915-.646-1.12z"/></g><g><path fill="#647A82" d="M53.352 86.604l-1.293-.747c-.355-.204-.646-.036-.646.374v1.493c0 .411.291.915.646 1.12l1.293.745c.357.206.646.038.646-.372v-1.493c0-.411-.289-.913-.646-1.12z"/><path fill="#0E9FAA" d="M53.354 85.27l-1.293-.747c-.156-.09-.299-.104-.41-.062l-.002-.004-.023.013-.039.022-.631.357.461.79v.749c0 .411.289.915.645 1.12l.662.383.449.769.637-.36c.117-.068.189-.212.189-.418v-1.493c-.001-.41-.29-.914-.645-1.119z"/><path fill="#13BCAC" d="M52.699 85.643l-1.293-.747c-.355-.204-.646-.037-.646.374v1.493c0 .41.291.915.646 1.12l1.293.745c.357.206.646.038.646-.373v-1.492c.001-.411-.288-.914-.646-1.12z"/></g><g><path fill="#647A82" d="M57.133 88.93l-1.293-.747c-.355-.203-.646-.036-.646.374v1.493c0 .41.291.915.646 1.12l1.293.745c.357.207.646.038.646-.372V90.05c0-.411-.289-.914-.646-1.12z"/><path fill="#0E9FAA" d="M57.133 87.595l-1.291-.746c-.156-.091-.299-.105-.412-.062l-.002-.004-.021.014a.242.242 0 0 0-.039.021l-.633.357.461.79v.749c0 .41.289.916.646 1.12l.662.383.447.769.639-.36c.117-.067.189-.212.189-.418v-1.493c0-.411-.289-.915-.646-1.12z"/><path fill="#13BCAC" d="M56.479 87.968l-1.291-.747c-.357-.204-.646-.036-.646.374v1.493c0 .41.289.915.646 1.12l1.291.745c.357.206.648.038.648-.372v-1.493c0-.411-.291-.914-.648-1.12z"/></g><g><path fill="#647A82" d="M60.912 91.255l-1.291-.746c-.357-.205-.646-.037-.646.373v1.493c0 .411.289.915.646 1.12l1.291.745c.357.206.648.038.648-.372v-1.493c.001-.411-.29-.914-.648-1.12z"/><path fill="#0E9FAA" d="M60.914 89.92l-1.293-.746c-.154-.091-.297-.105-.41-.062l-.002-.004-.021.013a.36.36 0 0 0-.039.022l-.633.357.461.79v.749c0 .411.289.916.645 1.12l.664.383.447.769.639-.36c.115-.067.189-.212.189-.418V91.04c0-.411-.291-.915-.647-1.12z"/><path fill="#13BCAC" d="M60.26 90.293l-1.293-.747c-.355-.204-.645-.036-.645.374v1.493c0 .41.289.915.645 1.12l1.293.745c.357.207.648.038.648-.373v-1.492c0-.411-.291-.914-.648-1.12z"/></g><g fill="#21F4B3"><path d="M28.652 60.7v8.757l1.916 1.105v-8.767z"/><path d="M32.484 62.893v8.756l1.916 1.105v-8.767z"/><path d="M36.244 65.084v8.755l1.914 1.105v-8.765z"/><path d="M32.484 69.478v2.169l5.674 3.297v-2.19z"/><path d="M32.484 62.896v2.17l5.674 3.298v-2.191z"/></g></g><metadata><rdf:RDF xmlns:rdf="http://www.w3.org/1999/02/22-rdf-syntax-ns#" xmlns:rdfs="http://www.w3.org/2000/01/rdf-schema#" xmlns:dc="http://purl.org/dc/elements/1.1/"><rdf:Description about="https://iconscout.com/legal#licenses" dc:title="radio" dc:description="radio" dc:publisher="Iconscout" dc:date="2018-03-20" dc:format="image/svg+xml" dc:language="en"><dc:creator><rdf:Bag><rdf:li>Roundicons.com</rdf:li></rdf:Bag></dc:creator></rdf:Description></rdf:RDF></metadata></svg>