<?xml version="1.0" encoding="UTF-8"?><svg xmlns="http://www.w3.org/2000/svg" xmlns:xlink="http://www.w3.org/1999/xlink" version="1.1" id="Layer_1" x="0px" y="0px" viewBox="0 0 129 129" xml:space="preserve"><style type="text/css">.st0{fill:#6D9583;} .st1{fill:#55816C;} .st2{fill:#F15F5E;} .st3{fill:#545E70;} .st4{fill:#626C77;} .st5{fill:#FFFFFF;} .st6{fill:#FFCD0A;} .st7{fill:#F6AF1A;} .st8{fill:#1F68B0;} .st9{fill:#2A519C;} .st10{fill:#D9B9A9;} .st11{fill:#D6AB9A;} .st12{fill:#454E5C;} .st13{fill:#E6E8EB;} .st14{fill:#C6DFDC;} .st15{fill:#95CECD;} .st16{fill:#87BDBA;} .st17{fill:#F04D45;} .st18{fill:#8663A7;} .st19{fill:#6D558C;} .st20{fill:#CFD5DF;} .st21{fill:#49C7EF;} .st22{fill:#A34A9B;} .st23{fill:#893886;} .st24{fill:#17B6EA;} .st25{fill:#ACB2B9;} .st26{fill:#3D9C46;} .st27{fill:#1C8141;} .st28{fill:#CD2F30;} .st29{fill:none;stroke:#FFFFFF;stroke-linecap:round;stroke-miterlimit:10;} .st30{fill:#6EA4BB;} .st31{fill:#4B93AC;} .st32{fill:#05B0A6;} .st33{fill:#BED530;} .st34{fill:#ACC437;} .st35{fill:#42A3DB;} .st36{fill:#347CBE;} .st37{fill:#EE3E88;} .st38{fill:#9AC23E;} .st39{fill:#6FA3BA;} .st40{fill:#D28F29;} .st41{fill:#6B5969;} .st42{fill:#5B4B57;} .st43{fill:#545B86;} .st44{fill:#4D4D79;} .st45{fill:#029A9C;} .st46{fill:#FCD65E;} .st47{fill:#F06197;} .st48{fill:none;stroke:#FFFFFF;stroke-width:4.5;stroke-linecap:round;stroke-linejoin:round;stroke-miterlimit:10;} .st49{fill:#7D6C7C;} .st50{fill:#F49C20;} .st51{fill:#EC7B24;} .st52{fill:#EA403F;} .st53{fill:#2873AA;} .st54{fill:#D7E14A;} .st55{fill:#EEB496;} .st56{fill:#DEA075;} .st57{fill:none;} .st58{fill:#E6EEF4;} .st59{fill:#30BCAD;} .st60{fill:#EDF3F9;}</style><path class="st32" d="M128.5 64.5c0 35.3-28.7 64-64 64s-64-28.7-64-64 28.6-64 64-64 64 28.7 64 64z" fill="#05B0A6"/><path class="st45" d="M65.1 128.5c34.9-.3 63.1-28.5 63.4-63.4L93.6 30.2c-.4.1-.8.3-1.3.6l-5.1-5.1c-.6.2-1.3.8-2.1 1.7l-5-5-2.6 2.9-4.9-4.9-2.9 4.2-4.9-4.9-1.8 6.6-6-6-3 6.6-4.8-4.8C49 25 48.5 28 47.7 31l-5.6-5.6-.6 6.2 4.6 4.6-1.2 3-9.3-9.3-.8 2.9 8.9 8.9c-.8 1.6-1.6 3.3-2.5 5l-11-11.3.6 2.8 9.9 9.9c-3.5 6.5-7.9 13.1-12.6 19.7v-.3l-6.3.3 3.7 3.7c-.9 1.2-1.7 2.4-2.6 3.6l4.1 4.1-1.9 2.8 4 4-1.5 2.1 4.3 4.3c-.6.4-1.3.8-2 .8l5.6 5.6 29.6 29.7z" fill="#029A9C"/><path class="st5" d="M108.8 72.5c-.6-3.5-3-5.5-4.2-6.2 1.7-3.4 4.9-1.6 4.9-1.6-1.2-3.4-3.9-4.8-5.2-5.4 1.1-3.7 4.5-2.4 4.5-2.4-1.8-3.1-4.7-4.1-6-4.4.5-3.8 4-3.2 4-3.2-2.3-2.7-5.4-3.2-6.7-3.3-.2-3.8 3.4-3.8 3.4-3.8-2.7-2.3-5.8-2.2-7.2-2.1-.9-3.7 2.7-4.4 2.7-4.4-3.1-1.8-6.1-1.2-7.4-.8-1.5-3.5 1.9-4.8 1.9-4.8-3.3-1.2-6.2-.1-7.4.5-2.1-3.2 1-5 1-5-3.5-.6-6.2 1-7.2 1.8-2.6-2.8.2-5.1.2-5.1-3.6 0-5.9 2-6.8 3-3.1-2.3-.7-5.1-.7-5.1-3.5.6-5.5 3-6.2 4.2-3.4-1.7-1.6-4.9-1.6-4.9-3.4 1.2-4.9 3.9-5.4 5.2-3.7-1.1-2.4-4.5-2.4-4.5-3.1 1.8-4.1 4.7-4.4 6-3.8-.5-3.2-4-3.2-4-2.7 2.3-3.2 5.4-3.3 6.7-3.8.2-3.8-3.4-3.8-3.4-2.3 2.7-2.2 5.8-2.1 7.2-3.7.9-4.4-2.7-4.4-2.7-1.8 3.1-1.2 6.1-.8 7.4-3.5 1.5-4.8-1.9-4.8-1.9-1.2 3.3-.1 6.2.5 7.4-3.2 2.1-5-1-5-1-.6 3.5 1 6.2 1.8 7.2-2.8 2.6-5.1-.2-5.1-.2 0 3.6 2 5.9 3 6.8-2.3 3.1-5.1.7-5.1.7.6 3.5 3 5.5 4.2 6.2-1.7 3.4-4.9 1.6-4.9 1.6 1.2 3.4 3.9 4.8 5.2 5.4-1.1 3.7-4.5 2.4-4.5 2.4 1.8 3.1 4.7 4.1 6 4.4-.5 3.8-4 3.2-4 3.2 2.3 2.7 5.4 3.2 6.7 3.3.2 3.8-3.4 3.8-3.4 3.8 2.7 2.3 5.8 2.2 7.2 2.1.9 3.7-2.7 4.4-2.7 4.4 3.1 1.8 6.1 1.2 7.4.8 1.5 3.5-1.9 4.8-1.9 4.8 3.3 1.2 6.2.1 7.4-.5 2.1 3.2-1 5-1 5 3.5.6 6.2-1 7.2-1.8 2.6 2.8-.2 5.1-.2 5.1 3.6 0 5.9-2 6.8-3 3.1 2.3.7 5.1.7 5.1 3.5-.6 5.5-3 6.2-4.2 3.4 1.7 1.6 4.9 1.6 4.9 3.4-1.2 4.8-3.9 5.4-5.2 3.7 1.1 2.4 4.5 2.4 4.5 3.1-1.8 4.1-4.7 4.4-6 3.8.5 3.2 4 3.2 4 2.7-2.3 3.2-5.4 3.3-6.7 3.8-.2 3.8 3.4 3.8 3.4 2.3-2.7 2.2-5.8 2.1-7.2 3.7-.9 4.4 2.7 4.4 2.7 1.8-3.1 1.2-6.1.8-7.4 3.5-1.5 4.8 1.9 4.8 1.9 1.2-3.3.1-6.2-.5-7.4 3.2-2.1 5 1 5 1 .6-3.5-1-6.2-1.8-7.2 2.8-2.6 5.1.2 5.1.2 0-3.6-2-5.9-3-6.8 2.3-3 5.1-.7 5.1-.7zm-44.3 1.6c-5.3 0-9.6-4.3-9.6-9.6s4.3-9.6 9.6-9.6 9.6 4.3 9.6 9.6-4.3 9.6-9.6 9.6z" fill="#FFF"/><path class="st13" d="M64.5 30.2c-18.9 0-34.3 15.4-34.3 34.3s15.4 34.3 34.3 34.3 34.3-15.4 34.3-34.3-15.4-34.3-34.3-34.3zm0 43.9c-5.3 0-9.6-4.3-9.6-9.6s4.3-9.6 9.6-9.6 9.6 4.3 9.6 9.6-4.3 9.6-9.6 9.6z" fill="#E6E8EB"/><path class="st20" d="M82.4 35.2c-.6-.4-1.2-.7-1.9-1.1L34.2 80.5c.3.6.7 1.3 1.1 1.9l19.9-19.9c.8-3.7 3.7-6.6 7.4-7.4l19.8-19.9z" fill="#CFD5DF"/><path class="st20" d="M59.1 72.4c-1.8-1.2-3.1-3-3.7-5.1l-18.1 18c1.3 1.7 2.7 3.2 4.2 4.6l17.6-17.5z" fill="#CFD5DF"/><path class="st20" d="M89.9 41.5c-1.4-1.5-2.9-3-4.6-4.2l-18 18c2.1.6 3.9 2 5.1 3.7l17.5-17.5z" fill="#CFD5DF"/><g><path class="st5" d="M64.5 48.2c-9 0-16.3 7.3-16.3 16.3s7.3 16.3 16.3 16.3 16.3-7.3 16.3-16.3-7.3-16.3-16.3-16.3zm0 24.7c-4.6 0-8.4-3.8-8.4-8.4s3.8-8.4 8.4-8.4 8.4 3.8 8.4 8.4c0 4.6-3.8 8.4-8.4 8.4z" fill="#FFF"/></g><metadata><rdf:RDF xmlns:rdf="http://www.w3.org/1999/02/22-rdf-syntax-ns#" xmlns:rdfs="http://www.w3.org/2000/01/rdf-schema#" xmlns:dc="http://purl.org/dc/elements/1.1/"><rdf:Description about="https://iconscout.com/legal#licenses" dc:publisher="Iconscout" dc:date="2018-03-16" dc:format="image/svg+xml" dc:language="en"><dc:creator><rdf:Bag><rdf:li>Creative Stall</rdf:li></rdf:Bag></dc:creator></rdf:Description></rdf:RDF></metadata></svg>