<svg xmlns="http://www.w3.org/2000/svg" enable-background="new 0 0 100 100" viewBox="0 0 100 100"><g enable-background="new"><path fill="#0082c9" d="M29.338,55.235c-2.349,1.365-4.699,2.731-7.048,4.096c-0.034-0.05-0.067-0.101-0.098-0.153
					l7.048-4.096C29.271,55.134,29.303,55.185,29.338,55.235z"/><polygon fill="#0082c9" points="22.96 59.985 30.008 55.889 30.001 58.376 22.953 62.472"/><path fill="#0082c9" d="M29.338 55.235c.191.277.429.515.67.654l-7.048 4.096c-.241-.139-.479-.377-.67-.654C24.639 57.965 26.989 56.6 29.338 55.235zM21.878 58.111l7.048-4.096c-.001.323.119.719.313 1.067l-7.048 4.096C21.998 58.83 21.877 58.434 21.878 58.111zM21.112 56.792l7.048-4.096c.197-.114.469-.099.77.075l-7.048 4.096C21.581 56.694 21.309 56.678 21.112 56.792z"/><polygon fill="#0082c9" points="21.882 56.867 28.93 52.771 28.926 54.015 21.878 58.111"/><polygon fill="#0082c9" points="24.066 52.305 31.114 48.209 31.097 54.023 24.049 58.119"/><path fill="#0082c9" d="M22.213,50.356l7.048-4.096c0.198-0.115,0.472-0.097,0.774,0.077
					c0.594,0.343,1.081,1.175,1.079,1.872l-7.048,4.096c0.002-0.697-0.485-1.529-1.079-1.872
					C22.685,50.259,22.411,50.241,22.213,50.356z"/><path fill="#cdcdcd" d="M30.767,44.559c-2.349,1.365-4.699,2.73-7.048,4.096c-0.085-0.098-0.164-0.206-0.236-0.321
					l7.048-4.096C30.603,44.353,30.682,44.461,30.767,44.559z"/><path fill="#cdcdcd" d="M31.461,45.065c-2.349,1.365-4.699,2.731-7.048,4.096c-0.072-0.024-0.145-0.058-0.22-0.101
					c-0.166-0.096-0.328-0.236-0.474-0.406c2.349-1.365,4.699-2.731,7.048-4.096c0.146,0.169,0.308,0.309,0.474,0.405
					C31.316,45.008,31.389,45.041,31.461,45.065z"/><path fill="#cdcdcd" d="M31.461,45.065c0.168,0.057,0.324,0.061,0.454,0.013l-7.048,4.096
					c-0.13,0.049-0.287,0.044-0.455-0.013C26.763,47.796,29.112,46.431,31.461,45.065z"/><path fill="#cdcdcd" d="M31.916,45.078c0.035-0.012,0.068-0.027,0.098-0.045l-7.048,4.096
					c-0.031,0.018-0.063,0.033-0.098,0.045C26.982,47.945,29.69,46.091,31.916,45.078z"/><path fill="#0082c9" d="M23.441,46.49l7.048-4.096c0.025-0.015,0.051-0.027,0.079-0.037
					c0.192-0.069,0.432-0.017,0.67,0.121c0.325,0.188,0.65,0.534,0.855,0.947c0.038,0.076,0.072,0.152,0.101,0.228
					c0.237,0.616,0.167,1.18-0.172,1.377l-7.048,4.096c0.339-0.197,0.409-0.762,0.172-1.377c-0.029-0.075-0.062-0.152-0.101-0.228
					c-0.205-0.413-0.53-0.759-0.855-0.947c-0.239-0.138-0.478-0.19-0.67-0.121C23.492,46.463,23.465,46.475,23.441,46.49z"/><path fill="#0082c9" d="M23.483,48.334c-0.044-0.07-0.085-0.142-0.122-0.217c-0.378-0.755-0.3-1.492,0.158-1.665
					c0.192-0.069,0.431-0.017,0.67,0.121c0.325,0.188,0.65,0.534,0.855,0.947c0.038,0.076,0.072,0.152,0.101,0.228
					c0.258,0.67,0.152,1.28-0.268,1.421l-0.01,0.005c-0.186,0.069-0.425,0.03-0.674-0.114C23.93,48.909,23.678,48.645,23.483,48.334
					z"/><path fill="#cdcdcd" d="M32.194,43.652c0.345,0.056,0.716,0.192,1.103,0.416l-7.048,4.096
					c-0.387-0.223-0.758-0.36-1.103-0.416C27.26,46.519,29.789,44.097,32.194,43.652z"/><polygon fill="#cdcdcd" points="26.249 48.164 33.297 44.068 34.337 44.669 27.289 48.765"/><path fill="#cdcdcd" d="M35.416,46.541c-0.867,0.504-1.735,1.008-2.602,1.512c-0.917,0.533-1.833,1.066-2.75,1.598
					c-0.262,0.152-0.611,0.355-0.873,0.507c-0.126,0.073-0.293,0.17-0.419,0.243c-0.121,0.07-0.283,0.165-0.404,0.235
					c-0.597-0.345-1.081-1.186-1.079-1.872l7.048-4.096C34.335,45.355,34.819,46.196,35.416,46.541z"/><path fill="#0082c9" d="M27.605,48.071l7.048-4.096c0.197-0.114,0.469-0.098,0.77,0.075l-7.048,4.096
					C28.075,47.972,27.802,47.957,27.605,48.071z"/><path fill="#4d2102" d="M37.326,42.284l-7.048,4.096c0.195-0.113,0.316-0.353,0.317-0.693l7.048-4.096
					C37.642,41.931,37.521,42.171,37.326,42.284z"/><polygon fill="#0082c9" points="24.127 30.728 31.175 26.632 31.171 27.876 24.123 31.972"/><polygon fill="#4d2102" points="30.609 40.706 37.657 36.61 37.643 41.591 30.595 45.687"/><path fill="#4d2102" d="M30.609,40.706l-0.014,4.981c-0.002,0.682-0.489,0.963-1.086,0.619
					c-0.597-0.345-1.081-1.186-1.079-1.868l0.014-4.981L30.609,40.706z"/><polygon fill="#4d2102" points="28.444 39.456 35.492 35.36 37.657 36.61 30.609 40.706"/><polygon fill="#0082c9" points="26.291 33.223 33.339 29.127 33.332 31.618 26.284 35.714"/><path fill="#0082c9" d="M24.442,30.034l7.048-4.096c-0.194,0.113-0.314,0.352-0.315,0.695l-7.048,4.096
					C24.128,30.386,24.248,30.146,24.442,30.034z"/><polygon fill="#0082c9" points="24.976 29.973 32.024 25.877 32.261 26.014 25.213 30.109"/><polygon fill="#0082c9" points="24.141 25.6 31.189 21.504 32.024 25.877 24.976 29.973"/><path fill="#0082c9" d="M24.442,30.034l7.048-4.096c0.197-0.114,0.47-0.098,0.771,0.076l-7.048,4.096
					C24.912,29.936,24.639,29.919,24.442,30.034z"/><polygon fill="#0082c9" points="26.284 35.714 33.332 31.618 39.831 35.371 32.784 39.466"/><path fill="#0082c9" d="M41.68,38.563l-7.048,4.096c0.194-0.113,0.315-0.353,0.316-0.694l7.048-4.096
					C41.994,38.21,41.874,38.45,41.68,38.563z"/><polygon fill="#5eb7c9" points="32.791 36.976 39.839 32.88 39.831 35.371 32.784 39.466"/><polygon fill="#5eb7c9" points="26.291 33.223 33.339 29.127 39.839 32.88 32.791 36.976"/><path fill="#0082c9" d="M33.883,35.115c0.597,0.345,1.081,1.179,1.079,1.868l-0.004,1.243l-0.01,3.738
					c-0.002,0.686-0.489,0.963-1.086,0.619l-3.253-1.878l-2.164-1.25l-3.253-1.878c-0.597-0.345-1.081-1.182-1.079-1.868
					l0.011-3.738l0.003-1.243c0.002-0.69,0.489-0.963,1.086-0.619L33.883,35.115z M32.784,39.466l0.007-2.491l-6.5-3.753
					l-0.007,2.491L32.784,39.466L32.784,39.466z"/><polygon fill="#5eb7c9" points="32.791 36.976 32.784 39.466 26.284 35.714 26.291 33.223"/><polygon fill="#0082c9" points="34.958 38.227 42.006 34.131 41.995 37.869 34.948 41.965"/><polygon fill="#0082c9" points="34.962 36.984 42.01 32.888 42.006 34.131 34.958 38.227"/><polygon fill="#cdcdcd" points="35.009 31.723 42.056 27.628 41.167 31.156 34.119 35.252"/><polygon fill="#0082c9" points="33.883 35.115 40.931 31.019 41.167 31.156 34.119 35.252"/><path fill="#0082c9" d="M33.883 35.115l7.048-4.096c.597.345 1.081 1.179 1.079 1.868l-7.048 4.096C34.964 36.294 34.48 35.46 33.883 35.115zM42.777 34.209l-7.048 4.096c.134-.078.234-.219.282-.417l7.048-4.096C43.011 33.99 42.911 34.131 42.777 34.209zM59.298 60.329c-.867.504-1.735 1.008-2.602 1.512-.917.533-1.833 1.066-2.75 1.598-.262.152-.611.355-.873.507-.247.143-.576.335-.823.478-.6-.346-1.084-1.184-1.082-1.874.001-.34.121-.58.316-.693l7.048-4.096c-.194.113-.315.353-.316.693C58.214 59.145 58.698 59.982 59.298 60.329z"/><polygon fill="#cdcdcd" points="28.368 50.637 35.416 46.541 59.298 60.329 52.25 64.425"/><polygon fill="#0082c9" points="28.375 48.146 35.423 44.05 58.219 57.212 51.171 61.307"/><polygon fill="#0082c9" points="52.257 61.934 59.305 57.838 60.387 58.463 53.339 62.559"/><polygon fill="#0082c9" points="53.396 42.637 60.444 38.541 60.387 58.463 53.339 62.559"/><path fill="#0082c9" d="M51.484,61.858l7.048-4.096c0.197-0.115,0.471-0.098,0.773,0.076l-7.048,4.096
					C51.954,61.759,51.681,61.743,51.484,61.858z"/><polygon fill="#0082c9" points="36.9 34.363 43.948 30.267 43.059 33.791 36.011 37.887"/><path fill="#cdcdcd" d="M35.291,31.306l7.048-4.096c-0.134,0.078-0.234,0.219-0.282,0.417l-7.048,4.096
					C35.057,31.525,35.156,31.384,35.291,31.306z"/><polygon fill="#0082c9" points="22.953 62.472 30.001 58.376 74.422 84.023 67.374 88.118"/><polygon fill="#5eb7c9" points="22.96 59.985 30.008 55.889 74.429 81.535 67.381 85.631"/><polygon fill="#0082c9" points="24.049 58.119 31.097 54.023 73.354 78.42 66.306 82.516"/><polygon fill="#cdcdcd" points="66.334 72.557 73.382 68.461 73.354 78.42 66.306 82.516"/><polygon fill="#cdcdcd" points="52.25 64.425 59.298 60.329 73.382 68.461 66.334 72.557"/><polygon fill="#5eb7c9" points="67.381 85.631 67.374 88.118 22.953 62.472 22.96 59.985"/><polygon fill="#0082c9" points="66.334 72.557 73.382 68.461 74.465 69.086 67.416 73.181"/><polygon fill="#5eb7c9" points="67.381 85.631 74.429 81.535 74.422 84.023 67.374 88.118"/><path fill="#0082c9" d="M74.429 81.535c.294.17.565.201.77.081-2.349 1.365-4.699 2.73-7.048 4.096-.205.12-.477.089-.77-.081C69.496 84.403 72.315 82.764 74.429 81.535zM75.2 81.617c-2.349 1.365-4.699 2.73-7.048 4.096 0 0 0 0 0 0L75.2 81.617C75.2 81.617 75.2 81.617 75.2 81.617z"/><path fill="#0082c9" d="M75.209,81.611l-7.048,4.096c0.202-0.117,0.308-0.364,0.309-0.696l7.048-4.096
					C75.517,81.247,75.411,81.494,75.209,81.611z"/><path fill="#0082c9" d="M75.2,81.617c0.003-0.002,0.006-0.004,0.01-0.006l-7.048,4.096
					c-0.003,0.002-0.007,0.004-0.01,0.006C70.266,84.484,73.085,82.845,75.2,81.617z"/><polygon fill="#0082c9" points="68.474 83.767 75.522 79.672 75.518 80.915 68.47 85.011"/><path fill="#0082c9" d="M68.474,83.767c0.597,0.345,1.081,1.182,1.079,1.868l-0.014,4.982
					c-0.002,0.686-0.489,0.963-1.086,0.619l-46.592-26.9c-0.597-0.345-1.081-1.182-1.079-1.868l0.014-4.981
					c0.002-0.686,0.489-0.963,1.086-0.619l-0.003,1.243c-0.001,0.323,0.12,0.719,0.314,1.066c0.204,0.342,0.484,0.643,0.768,0.807
					l-0.007,2.487l44.421,25.647l0.007-2.487c0.294,0.17,0.565,0.202,0.77,0.081c0.208-0.115,0.318-0.364,0.319-0.702L68.474,83.767
					z"/><polygon fill="#0082c9" points="53.339 62.559 60.387 58.463 73.389 65.97 66.341 70.066"/><polygon fill="#cdcdcd" points="66.426 40.185 73.474 36.089 73.389 65.97 66.341 70.066"/><polygon fill="#0082c9" points="24.166 17.031 31.214 12.935 31.189 21.504 24.141 25.6"/><path fill="#0082c9" d="M24.798 15.646l7.048-4.096c-.389.226-.631.705-.633 1.385l-7.048 4.096C24.168 16.352 24.409 15.873 24.798 15.646zM35.291 31.306l7.048-4.096c.199-.115.474-.094.771.077l-7.048 4.096C35.764 31.212 35.489 31.191 35.291 31.306z"/><polygon fill="#0082c9" points="36.062 31.383 43.11 27.288 59.365 36.673 52.317 40.768"/><path fill="#0082c9" d="M52.317,40.768l7.048-4.096c0.281,0.162,0.562,0.46,0.768,0.804l-7.048,4.096
					C52.878,41.229,52.598,40.931,52.317,40.768z"/><path fill="#0082c9" d="M53.085,41.572l7.048-4.096c0.194,0.351,0.311,0.742,0.31,1.065l-7.048,4.096
					C53.396,42.314,53.279,41.923,53.085,41.572z"/><path fill="#cdcdcd" d="M33.388,11.7c-0.566,0.328-1.131,0.657-1.696,0.986c-0.272,0.158-0.634,0.369-0.906,0.526
					c-0.277,0.161-0.646,0.375-0.922,0.536c-1.174,0.683-2.349,1.365-3.523,2.048c-0.601-0.347-1.148-0.378-1.542-0.149l7.048-4.096
					C32.241,11.321,32.787,11.352,33.388,11.7z"/><path fill="#0082c9" d="M67.424,70.691l7.048-4.096c0.6,0.346,1.084,1.184,1.082,1.87l-7.048,4.096
					C68.507,71.875,68.024,71.037,67.424,70.691z"/><polygon fill="#0082c9" points="68.562 52.642 75.61 48.547 75.592 54.771 68.544 58.867"/><polygon fill="#0082c9" points="68.569 50.152 75.617 46.056 75.61 48.547 68.562 52.642"/><polygon fill="#cb807e" points="68.562 52.642 75.61 48.547 77.774 49.796 70.726 53.892"/><polygon fill="#cdcdcd" points="26.34 15.795 33.388 11.7 72.392 34.218 65.344 38.314"/><path fill="#cdcdcd" d="M73.474,36.089c-0.247,0.144-0.576,0.335-0.823,0.478c-0.129,0.075-0.302,0.175-0.431,0.251
					c-0.267,0.155-0.624,0.363-0.891,0.518c-1.634,0.95-3.268,1.899-4.902,2.849c0.002-0.686-0.485-1.526-1.082-1.87l7.048-4.096
					C72.989,34.563,73.476,35.403,73.474,36.089z"/><path fill="#0082c9" d="M65.351,35.824c1.788,1.032,3.248,3.558,3.242,5.612l-0.025,8.716l-0.007,2.491l-0.018,6.225
					l-0.007,2.491l-0.032,11.203c0.002-0.686-0.482-1.524-1.082-1.87l-1.082-0.625l0.085-29.881c0.002-0.686-0.485-1.526-1.082-1.87
					L26.34,15.795c-1.194-0.689-2.171-0.133-2.175,1.236L24.141,25.6l0.835,4.373l0.236,0.136c-0.597-0.345-1.084-0.071-1.086,0.619
					l-0.003,1.243c-0.498-0.288-0.931-0.923-1.048-1.553l-1.102-5.909l0.025-8.73c0.008-2.736,1.955-3.857,4.349-2.475
					L65.351,35.824z"/><path fill="#cdcdcd" d="M65.344,38.314c0.597,0.345,1.084,1.184,1.082,1.87l-0.085,29.881l-13.002-7.507l0.056-19.922
					c0.001-0.323-0.116-0.714-0.31-1.065c-0.207-0.344-0.487-0.642-0.768-0.804l-16.255-9.385c-0.498-0.288-0.933-0.153-1.053,0.34
					l-0.889,3.528l-0.236-0.136l-8.67-5.006l-0.236-0.136L24.141,25.6l0.024-8.569c0.004-1.368,0.981-1.925,2.175-1.236
					L65.344,38.314z"/><path fill="#0082c9" d="M68.512,70.058l5.959-3.463l-1.082-0.625l-4.873,2.832L68.512,70.058z"/><path fill="#0082c9" d="M68.537,61.358l-0.025,8.7l5.959-3.463c0.6,0.346,1.084,1.184,1.082,1.87l-7.048,4.096v0
					l7.048-4.096l0.032-11.203L68.537,61.358z"/><path fill="#0082c9" d="M74.476,69.091l-5.97,3.469v0c0-0.004,0-0.008-0.001-0.012c-0.377,0.219-0.743,0.432-1.088,0.632
					c0.302,0.174,0.575,0.191,0.773,0.076l7.048-4.096C75.042,69.275,74.773,69.26,74.476,69.091z"/><path fill="#0082c9" d="M67.424,70.691c0.6,0.347,1.084,1.184,1.082,1.87c-0.002,0.69-0.489,0.967-1.089,0.621
					l-1.082-0.625L52.25,64.425c-0.6-0.346-1.084-1.184-1.082-1.874c0.002-0.686,0.489-0.963,1.089-0.617l1.082,0.625l13.002,7.507
					L67.424,70.691z"/><path fill="#0082c9" d="M53.339,62.559L53.339,62.559l0.056-19.922c0.001-0.323-0.116-0.714-0.31-1.065
					c-0.207-0.344-0.487-0.642-0.768-0.804l-16.255-9.385c-0.498-0.288-0.933-0.153-1.053,0.34l-0.889,3.528l-0.236-0.136
					c0.597,0.345,1.081,1.179,1.079,1.868l-0.004,1.244c0.498,0.288,0.933,0.153,1.053-0.34l0.889-3.525l14.324,8.27l-0.053,18.675
					L28.375,48.146c-0.597-0.345-1.084-0.067-1.086,0.619c-0.002,0.686,0.482,1.527,1.079,1.872L52.25,64.425
					c-0.6-0.346-1.084-1.184-1.082-1.874c0.002-0.686,0.489-0.963,1.089-0.617L53.339,62.559L53.339,62.559L53.339,62.559z"/><path fill="#0082c9" d="M25.213 30.109l8.67 5.006L25.213 30.109zM35.033 31.642c.003-.008.006-.016.009-.023C35.038 31.627 35.035 31.634 35.033 31.642zM35.063 31.568c.004-.008.008-.017.012-.025C35.07 31.551 35.066 31.56 35.063 31.568zM35.099 31.499c.004-.007.008-.014.013-.02C35.108 31.485 35.104 31.492 35.099 31.499zM35.149 31.428c.002-.002.004-.005.005-.007C35.152 31.423 35.151 31.426 35.149 31.428zM35.217 31.359c-.005.004-.01.008-.015.013C35.207 31.368 35.212 31.364 35.217 31.359zM35.255 31.33c.006-.004.013-.008.019-.013C35.268 31.321 35.261 31.325 35.255 31.33zM76.27 87.215l-7.048 4.096c.194-.113.315-.353.316-.694l7.048-4.096C76.585 86.862 76.465 87.102 76.27 87.215zM23.264 13.005l7.048-4.096c.788-.458 1.879-.396 3.083.299l-7.048 4.096C25.143 12.609 24.052 12.547 23.264 13.005z"/><polygon fill="#0082c9" points="69.552 85.636 76.6 81.54 76.586 86.521 69.538 90.617"/><path fill="#0082c9" d="M68.474,83.767l7.048-4.096c0.597,0.345,1.081,1.182,1.079,1.868l-7.048,4.096
					C69.554,84.95,69.071,84.112,68.474,83.767z"/><polygon fill="#0082c9" points="68.506 72.561 75.553 68.465 75.522 79.672 68.474 83.767"/><path fill="#0082c9" d="M75.237,69.162l-7.048,4.096c0.195-0.113,0.315-0.354,0.316-0.697l7.048-4.096
					C75.552,68.808,75.432,69.049,75.237,69.162z"/><path fill="#0082c9" d="M67.416,73.181c0.6,0.347,1.087,0.069,1.089-0.62l-0.032,11.206l-0.004,1.244
					c-0.001,0.337-0.11,0.586-0.319,0.701c-0.205,0.12-0.477,0.089-0.77-0.081L22.96,59.985c-0.284-0.164-0.565-0.466-0.768-0.807
					c-0.194-0.347-0.315-0.744-0.314-1.066l0.004-1.243l0.016-5.814c0.002-0.697,0.492-0.965,1.089-0.62
					c0.594,0.343,1.081,1.175,1.079,1.872l-0.017,5.814l42.257,24.397l0.028-9.959L67.416,73.181z"/><path fill="#cdcdcd" d="M28.368,50.637L52.25,64.425l14.084,8.132l-0.028,9.959L24.049,58.119l0.017-5.814
					c0.002-0.697-0.485-1.529-1.079-1.872l0.001-0.411c0.002-0.723,0.183-1.295,0.495-1.688c0.194,0.311,0.447,0.575,0.71,0.727
					c0.249,0.144,0.489,0.183,0.674,0.114c0.43-0.146,0.536-0.756,0.278-1.426c0.345,0.056,0.716,0.192,1.103,0.416l1.041,0.601
					C27.287,49.451,27.771,50.292,28.368,50.637z"/><polygon fill="#0082c9" points="68.544 58.867 75.592 54.771 75.585 57.262 68.537 61.358"/><polygon fill="#cb0c2d" points="68.544 58.867 75.592 54.771 77.76 56.023 70.712 60.119"/><path fill="#cb0c2d" d="M79.291,58.662l-7.048,4.096c0.389-0.226,0.631-0.707,0.633-1.389l7.048-4.096
					C79.922,57.955,79.681,58.436,79.291,58.662z"/><polygon fill="#cb807e" points="70.726 53.892 77.774 49.796 77.76 56.023 70.712 60.119"/><polygon fill="#cb807e" points="70.726 53.892 70.712 60.119 68.544 58.867 68.562 52.642"/><polygon fill="#cb0c2d" points="72.894 55.143 79.942 51.048 79.924 57.273 72.876 61.368"/><polygon fill="#0082c9" points="68.594 41.436 75.642 37.34 75.617 46.056 68.569 50.152"/><polygon fill="#cb0c2d" points="68.569 50.152 75.617 46.056 77.781 47.305 70.733 51.401"/><path fill="#cb0c2d" d="M70.733,51.401c1.197,0.691,2.164,2.367,2.16,3.742l-0.018,6.225
					c-0.004,1.372-0.978,1.93-2.175,1.239l-2.164-1.25l0.007-2.491l2.168,1.252l0.014-6.227l-2.164-1.25l0.007-2.491L70.733,51.401z
					"/><path fill="#cb0c2d" d="M70.733,51.401l7.048-4.096c1.197,0.691,2.164,2.367,2.161,3.742l-7.048,4.096
					C72.898,53.768,71.93,52.092,70.733,51.401z"/><polygon fill="#0082c9" points="26.347 13.305 33.395 9.209 72.399 31.728 65.351 35.824"/><path fill="#0082c9" d="M65.351,35.824l7.048-4.096c1.788,1.032,3.248,3.558,3.242,5.612l-7.048,4.096
					C68.6,39.382,67.139,36.856,65.351,35.824z"/></g><g enable-background="new"><path fill="#0082c9" d="M20.375,32.099l7.048-4.096c0.197-0.114,0.469-0.099,0.769,0.074l-7.048,4.096
					C20.844,32,20.572,31.984,20.375,32.099z"/><polygon fill="#0082c9" points="21.144 32.173 28.192 28.077 36.859 33.081 29.811 37.177"/><path fill="#0082c9" d="M37.623,35.646l-7.048,4.096c0.195-0.113,0.316-0.354,0.318-0.695
					c0.002-0.682-0.485-1.526-1.082-1.87l7.048-4.096c0.597,0.345,1.084,1.188,1.082,1.87C37.94,35.292,37.819,35.532,37.623,35.646
					z"/><path fill="#0082c9" d="M29.811,37.177c0.597,0.345,1.084,1.188,1.082,1.87c-0.002,0.686-0.492,0.965-1.089,0.621
					l-8.667-5.004c-0.597-0.345-1.081-1.186-1.079-1.872c0.002-0.682,0.489-0.963,1.086-0.619L29.811,37.177z"/></g><g enable-background="new"><path fill="#4d2102" d="M72.996,32.861l-7.048,4.096c0.195-0.113,0.317-0.354,0.317-0.695l7.048-4.096
					C73.313,32.508,73.192,32.748,72.996,32.861z"/><polygon fill="#4d2102" points="66.273 33.772 73.321 29.676 73.314 32.167 66.266 36.263"/><path fill="#4d2102" d="M64.423,31.829l7.048-4.096c0.197-0.115,0.47-0.1,0.769,0.073l-7.048,4.096
					C64.892,31.729,64.62,31.714,64.423,31.829z"/><path fill="#4d2102" d="M65.191,31.902l7.048-4.096c0.597,0.345,1.084,1.188,1.082,1.87l-7.048,4.096
					C66.275,33.09,65.788,32.246,65.191,31.902z"/><path fill="#4d2102" d="M65.191,31.902c0.597,0.345,1.084,1.188,1.082,1.87l-0.007,2.491
					c-0.002,0.686-0.492,0.965-1.089,0.621c-0.594-0.343-1.081-1.186-1.079-1.872l0.007-2.491
					C64.107,31.838,64.598,31.559,65.191,31.902z"/></g><g enable-background="new"><path fill="#0082c9" d="M63.653,37.862l7.048-4.096c-0.389,0.226-0.631,0.707-0.633,1.391
					c-0.004,1.372,0.963,3.047,2.157,3.737l-7.048,4.096c-1.194-0.689-2.161-2.365-2.157-3.737
					C63.022,38.57,63.263,38.089,63.653,37.862z"/><path fill="#0082c9" d="M73.768,39.045l-7.048,4.096c-0.394,0.229-0.94,0.197-1.543-0.151l7.048-4.096
					C72.828,39.242,73.374,39.274,73.768,39.045z"/><path fill="#5eb7c9" d="M70.7 33.767c.394-.229.938-.197 1.539.15-2.075 1.206-4.15 2.411-6.225 3.618l-.823.478c-.6-.347-1.145-.379-1.539-.15C65.767 36.634 68.586 34.995 70.7 33.767zM74.4 37.659c-.002.681-.243 1.161-.631 1.387l-7.048 4.096c.389-.226.63-.706.632-1.387.004-1.376-.964-3.051-2.161-3.742l7.048-4.096C73.436 34.608 74.404 36.283 74.4 37.659z"/><path fill="#5eb7c9" d="M65.191,38.012c1.197,0.691,2.164,2.367,2.161,3.742c-0.004,1.372-0.978,1.927-2.175,1.236
					c-1.194-0.689-2.161-2.365-2.157-3.737C63.024,37.878,63.997,37.323,65.191,38.012z"/><path fill="#0082c9" d="M62.118,35.223l7.048-4.096c0.788-0.458,1.879-0.395,3.08,0.299l-7.048,4.096
					C63.997,34.828,62.907,34.765,62.118,35.223z"/><path fill="#0082c9" d="M75.302,41.685l-7.048,4.096c0.778-0.452,1.261-1.412,1.265-2.775
					c0.008-2.748-1.93-6.104-4.321-7.485l7.048-4.096c2.391,1.38,4.329,4.737,4.321,7.484C76.563,40.273,76.08,41.233,75.302,41.685
					z"/><path fill="#0082c9" d="M65.198,35.521c2.391,1.381,4.329,4.737,4.321,7.485c-0.008,2.744-1.958,3.855-4.349,2.475
					c-2.388-1.379-4.326-4.735-4.318-7.479C60.86,35.255,62.81,34.143,65.198,35.521z M65.177,42.99
					c1.197,0.691,2.171,0.136,2.175-1.236c0.004-1.376-0.964-3.051-2.161-3.742c-1.194-0.689-2.167-0.134-2.171,1.241
					C63.016,40.625,63.983,42.301,65.177,42.99L65.177,42.99z"/></g><g enable-background="new"><path fill="#cb0c2d" d="M60.726,53.204l7.048-4.096c0.197-0.114,0.469-0.099,0.768,0.074l-7.048,4.096
					C61.194,53.105,60.923,53.09,60.726,53.204z"/><path fill="#cb0c2d" d="M69.307,51.747l-7.048,4.096c0.195-0.113,0.316-0.352,0.317-0.691
					c0.002-0.686-0.485-1.529-1.082-1.874l7.048-4.096c0.597,0.345,1.084,1.188,1.082,1.874
					C69.623,51.395,69.502,51.634,69.307,51.747z"/><path fill="#cb0c2d" d="M61.494,53.278c0.597,0.345,1.084,1.188,1.082,1.874c-0.002,0.682-0.492,0.962-1.089,0.617
					c-0.597-0.345-1.081-1.186-1.079-1.868C60.41,53.215,60.897,52.934,61.494,53.278z"/></g><g enable-background="new"><path fill="#cb0c2d" d="M65.058,55.707l7.048-4.096c0.198-0.115,0.471-0.099,0.771,0.074l-7.048,4.096
					C65.529,55.608,65.255,55.592,65.058,55.707z"/><path fill="#cb0c2d" d="M73.639,54.249l-7.048,4.096c0.195-0.113,0.316-0.353,0.317-0.692
					c0.002-0.686-0.485-1.529-1.079-1.872l7.048-4.096c0.594,0.343,1.081,1.186,1.079,1.872
					C73.955,53.896,73.833,54.136,73.639,54.249z"/><path fill="#cb0c2d" d="M65.829,55.781c0.594,0.343,1.081,1.186,1.079,1.872c-0.002,0.682-0.492,0.962-1.086,0.619
					c-0.597-0.345-1.084-1.188-1.082-1.87C64.742,55.716,65.232,55.437,65.829,55.781z"/></g><polygon fill="#90e9fb" points="67.404 85.583 67.397 88.071 22.976 62.424 22.983 59.937"/><path fill="#fff" d="M28.391,50.589l23.882,13.788l14.085,8.132l-0.028,9.959L24.072,58.071l0.016-5.814
				c0.002-0.697-0.485-1.529-1.079-1.872l0.001-0.411c0.002-0.724,0.183-1.296,0.495-1.688c0.196,0.313,0.447,0.575,0.713,0.729
				c0.249,0.144,0.486,0.181,0.671,0.112c0.43-0.146,0.536-0.756,0.278-1.426c0.345,0.056,0.716,0.192,1.103,0.416l1.041,0.601
				C27.31,49.403,27.797,50.246,28.391,50.589z"/><polygon fill="#90e9fb" points="32.817 36.93 32.81 39.42 26.307 35.666 26.314 33.175"/><g enable-background="new"><path fill="#0bb4fb" d="M23.507,48.285c-0.044-0.07-0.085-0.142-0.122-0.216c-0.378-0.755-0.299-1.492,0.158-1.665
					c0.192-0.069,0.431-0.017,0.67,0.121c0.325,0.188,0.65,0.534,0.855,0.947c0.038,0.076,0.072,0.152,0.101,0.228
					c0.258,0.67,0.152,1.28-0.268,1.421l-0.01,0.006c-0.186,0.069-0.422,0.032-0.671-0.112
					C23.953,48.861,23.702,48.598,23.507,48.285z"/><path fill="#7f5334" d="M30.635,40.66l-0.014,4.981c-0.002,0.682-0.492,0.962-1.089,0.617
					c-0.594-0.343-1.081-1.186-1.079-1.868l0.014-4.981L30.635,40.66z"/><path fill="#0bb4fb" d="M33.906 35.067c.597.345 1.081 1.179 1.079 1.868l-.004 1.243-.011 3.738c-.002.686-.489.963-1.086.619l-3.25-1.876-2.167-1.251-3.25-1.876c-.6-.347-1.084-1.184-1.082-1.87l.011-3.738.003-1.243c.002-.69.489-.963 1.089-.617L33.906 35.067zM32.81 39.42l.007-2.491-6.503-3.754-.007 2.491L32.81 39.42 32.81 39.42zM68.497 83.719c.597.345 1.081 1.182 1.079 1.868l-.014 4.981c-.002.686-.489.963-1.086.619l-46.592-26.9c-.597-.345-1.081-1.182-1.079-1.868l.014-4.981c.002-.686.489-.963 1.086-.619l-.003 1.244c-.001.323.119.719.313 1.067.204.342.487.645.768.807l-.007 2.487 44.421 25.647.007-2.487c.294.17.565.201.77.081.208-.115.318-.364.319-.702L68.497 83.719z"/><path fill="#0bb4fb" d="M67.439,73.133c0.6,0.346,1.087,0.069,1.089-0.62l-0.032,11.206l-0.003,1.243
					c-0.001,0.338-0.11,0.587-0.319,0.702c-0.205,0.12-0.477,0.089-0.77-0.081L22.983,59.937c-0.281-0.162-0.565-0.466-0.768-0.807
					c-0.194-0.347-0.314-0.744-0.314-1.067l0.004-1.244l0.016-5.814c0.002-0.697,0.492-0.965,1.089-0.621
					c0.594,0.343,1.081,1.175,1.079,1.872l-0.016,5.814l42.257,24.397l0.028-9.959L67.439,73.133z"/><path fill="#fff" d="M65.37,38.268c0.594,0.343,1.081,1.182,1.079,1.868l-0.085,29.881l-13.002-7.507l0.056-19.922
					c0.001-0.323-0.116-0.714-0.31-1.065c-0.207-0.344-0.487-0.641-0.768-0.804l-16.252-9.383c-0.498-0.287-0.933-0.153-1.056,0.338
					l-0.889,3.528l-0.236-0.136l-8.667-5.004l-0.239-0.138l-0.835-4.373l0.024-8.569c0.004-1.368,0.984-1.923,2.175-1.236
					L65.37,38.268z"/><path fill="#0bb4fb" d="M65.377,35.778c1.788,1.032,3.245,3.556,3.239,5.611l-0.025,8.716l-0.007,2.491l-0.018,6.225
					L68.56,61.31l-0.032,11.203c0.002-0.686-0.482-1.524-1.082-1.87l-1.082-0.625l0.085-29.881c0.002-0.686-0.485-1.526-1.079-1.868
					L26.363,15.747c-1.191-0.687-2.171-0.133-2.175,1.236l-0.024,8.569l0.835,4.373l0.239,0.138c-0.6-0.346-1.087-0.073-1.089,0.617
					l-0.003,1.243c-0.498-0.288-0.931-0.923-1.048-1.553l-1.102-5.909l0.025-8.73c0.008-2.737,1.955-3.857,4.349-2.475
					L65.377,35.778z"/><path fill="#0bb4fb" d="M67.447,70.643c0.6,0.346,1.084,1.184,1.082,1.87c-0.002,0.69-0.489,0.967-1.089,0.62
					l-1.082-0.625l-14.085-8.132c-0.6-0.346-1.084-1.184-1.082-1.874c0.002-0.686,0.489-0.963,1.089-0.617l1.082,0.625l13.002,7.507
					L67.447,70.643z"/><path fill="#0bb4fb" d="M28.398,48.098L51.194,61.26l0.053-18.675l-14.324-8.27l-0.889,3.524
					c-0.12,0.493-0.555,0.628-1.053,0.34l0.004-1.243c0.002-0.69-0.482-1.524-1.079-1.868l0.236,0.136l0.889-3.528
					c0.123-0.491,0.558-0.626,1.056-0.338l16.252,9.383c0.281,0.162,0.561,0.46,0.768,0.804c0.194,0.351,0.311,0.742,0.31,1.065
					l-0.056,19.922l-1.082-0.625c-0.6-0.347-1.087-0.069-1.089,0.617c-0.002,0.69,0.482,1.527,1.082,1.874L28.391,50.589
					c-0.594-0.343-1.081-1.186-1.079-1.872C27.314,48.031,27.804,47.755,28.398,48.098z"/><polygon fill="#fdb2b0" points="70.753 53.846 70.735 60.071 68.567 58.819 68.585 52.594"/></g><path fill="#fd3e5f" d="M70.759,51.355c1.194,0.689,2.161,2.365,2.157,3.74l-0.018,6.225
				c-0.004,1.372-0.978,1.93-2.171,1.241L68.56,61.31l0.007-2.491l2.168,1.251l0.018-6.225l-2.168-1.252l0.007-2.491L70.759,51.355z
				"/><g><path fill="#0bb4fb" d="M29.837,37.131c0.594,0.343,1.081,1.186,1.079,1.868c-0.002,0.686-0.492,0.965-1.086,0.622
			l-8.67-5.006c-0.594-0.343-1.081-1.186-1.079-1.872c0.002-0.682,0.492-0.961,1.086-0.619L29.837,37.131z"/></g><g><path fill="#7f5334" d="M65.217,31.856c0.594,0.343,1.081,1.186,1.079,1.868l-0.007,2.491
			c-0.002,0.686-0.492,0.965-1.086,0.622c-0.597-0.345-1.084-1.188-1.082-1.874l0.007-2.491C64.13,31.79,64.62,31.511,65.217,31.856
			z"/></g><g><path fill="#90e9fb" d="M65.217,37.966c1.194,0.689,2.161,2.365,2.157,3.74c-0.004,1.372-0.978,1.927-2.171,1.237
				c-1.197-0.691-2.165-2.367-2.161-3.738C63.047,37.83,64.02,37.275,65.217,37.966z"/><path fill="#0bb4fb" d="M65.224,35.475c2.388,1.379,4.326,4.735,4.318,7.483c-0.008,2.744-1.958,3.855-4.346,2.477
				c-2.391-1.381-4.329-4.737-4.321-7.481C60.883,35.207,62.833,34.095,65.224,35.475z M65.203,42.944
				c1.194,0.689,2.167,0.134,2.171-1.237c0.004-1.376-0.963-3.051-2.157-3.74c-1.197-0.691-2.171-0.136-2.175,1.239
				C63.039,40.577,64.006,42.253,65.203,42.944L65.203,42.944z"/></g><g><path fill="#fd3e5f" d="M65.852 55.733c.597.345 1.081 1.186 1.079 1.872-.002.682-.489.963-1.086.619-.597-.345-1.081-1.186-1.079-1.868C64.768 55.67 65.255 55.389 65.852 55.733zM61.517 53.23c.597.345 1.084 1.188 1.082 1.874-.002.682-.492.962-1.089.617-.594-.343-1.081-1.186-1.079-1.868C60.433 53.167 60.923 52.888 61.517 53.23z"/></g></svg>