<svg xmlns="http://www.w3.org/2000/svg" xmlns:xlink="http://www.w3.org/1999/xlink" enable-background="new 0 0 50 50" viewBox="0 0 50 50"><path fill="#303538" d="M11.327,19.745c-0.291,0-0.526,0.236-0.526,0.526v3.777c0,0.291,0.236,0.526,0.526,0.526
		c0.291,0,0.526-0.236,0.526-0.526v-3.777C11.853,19.98,11.617,19.745,11.327,19.745z"/><g enable-background="new"><path fill="#1F95D3" d="M32.431,46.613l-0.435,1.019c0,0.15-0.108,0.248-0.133,0.376c-0.001,0.004,0.162-0.013,0.161-0.009
				c-0.026,0.126-0.013,0.231-0.061,0.333c-0.001,0.001-0.131,0.055-0.131,0.056c-0.031,0.066-0.026,0.066-0.066,0.122
				c-0.085,0.119,0.215,0.288,0.097,0.356l11.892-6.911c0.118-0.069,0.215-0.173,0.299-0.292c0.011-0.015,0.028-0.021,0.038-0.037
				c0.026-0.041,0.051-0.086,0.073-0.132c0.001-0.001,0.001-0.003,0.002-0.004c0.001-0.001,0.001-0.003,0.002-0.004
				c0.015-0.033,0.03-0.066,0.043-0.102c0.012-0.033,0.023-0.067,0.034-0.101c0.009-0.032,0.018-0.065,0.026-0.098
				c0.003-0.013,0.005-0.027,0.008-0.041c0.001-0.004,0.002-0.008,0.002-0.012c0.003-0.014,0.006-0.028,0.008-0.042
				c0.005-0.03,0.01-0.061,0.014-0.092c0.004-0.03,0.007-0.061,0.01-0.093c0.002-0.03,0.004-0.06,0.006-0.091
				c0.001-0.031,0.002-0.061,0.002-0.093c0-0.002,0-0.004,0-0.006l0.003-1.013L32.431,46.613z"/><polygon fill="#D6B961" points="5.62 31.134 17.512 24.223 44.322 39.702 32.431 46.613"/><path fill="#1EA9EE" d="M32.431,46.613l-0.003,1.013c-0.003,1.23-0.882,1.723-1.952,1.105L7.139,35.258
					c-0.842-0.486-1.526-1.664-1.523-2.631l0.004-1.493L32.431,46.613z"/></g><g enable-background="new"><polygon fill="#4E545A" points="10.107 20.985 21.999 14.074 22.732 14.498 10.841 21.408"/><polygon fill="#BCBBBB" points="5.628 28.48 17.52 21.57 32.817 30.401 20.925 37.312"/><polygon fill="#B6B6B6" points="7.441 16.772 19.333 9.862 25.77 13.578 13.878 20.488"/><g enable-background="new"><defs><path id="a" d="M22.985,9.998l-11.892,6.911c-0.155,0.09-0.369,0.077-0.604-0.059
						c-0.471-0.272-0.847-0.923-0.846-1.465l11.892-6.911C21.533,9.328,22.441,10.314,22.985,9.998z" enable-background="new"/></defs><clipPath id="b"><use overflow="visible" xlink:href="#a"/></clipPath><g clip-path="url(#b)" enable-background="new"><path fill="#A8A8AA" d="M9.644,15.386l11.892-6.911c0,0.013,0,0.026,0.001,0.039L9.644,15.425
						C9.644,15.412,9.644,15.399,9.644,15.386"/><path fill="#ADADAF" d="M9.644,15.425l11.892-6.911c0,0.014,0.001,0.028,0.002,0.042L9.646,15.467
						C9.645,15.453,9.645,15.439,9.644,15.425"/><path fill="#B2B2B3" d="M9.646,15.467l11.892-6.911c0.001,0.014,0.002,0.028,0.003,0.042L9.65,15.508
						C9.648,15.494,9.647,15.48,9.646,15.467"/><path fill="#B7B7B8" d="M9.65,15.508l11.892-6.911c0.001,0.014,0.003,0.028,0.005,0.042L9.654,15.55
						C9.653,15.536,9.651,15.522,9.65,15.508"/><path fill="#BBBBBD" d="M9.654,15.55L21.546,8.64c0.002,0.014,0.004,0.029,0.006,0.043L9.66,15.593
						C9.658,15.579,9.656,15.565,9.654,15.55"/><path fill="#C0C0C2" d="M9.66,15.593l11.892-6.911c0.002,0.014,0.005,0.029,0.007,0.043L9.668,15.637
						C9.665,15.622,9.663,15.608,9.66,15.593"/><path fill="#C5C5C6" d="M9.668,15.637L21.56,8.726c0.003,0.015,0.006,0.03,0.009,0.044L9.677,15.681
						C9.674,15.666,9.671,15.651,9.668,15.637"/><path fill="#C9C9CB" d="M9.677,15.681L21.569,8.77c0.003,0.015,0.007,0.03,0.01,0.045L9.687,15.726
						C9.684,15.711,9.68,15.696,9.677,15.681"/><path fill="#CECED0" d="M9.687,15.726l11.892-6.911c0.004,0.015,0.008,0.03,0.012,0.045L9.699,15.771
						C9.695,15.756,9.691,15.741,9.687,15.726"/><path fill="#D3D3D4" d="M9.699,15.771L21.591,8.86c0.004,0.015,0.008,0.03,0.013,0.045L9.712,15.816
						C9.708,15.801,9.703,15.786,9.699,15.771"/><path fill="#D7D7D9" d="M9.712,15.816l11.892-6.911c0.004,0.015,0.009,0.029,0.014,0.044L9.726,15.859
						C9.721,15.845,9.717,15.83,9.712,15.816"/><path fill="#DCDCDE" d="M9.726,15.859l11.892-6.911c0.005,0.014,0.01,0.029,0.015,0.043L9.741,15.902
						C9.736,15.888,9.731,15.874,9.726,15.859"/><path fill="#E1E1E3" d="M9.741,15.902l11.892-6.911c0.005,0.014,0.01,0.028,0.016,0.041L9.757,15.944
						C9.751,15.93,9.746,15.916,9.741,15.902"/><path fill="#E5E5E7" d="M9.757,15.944l11.892-6.911c0.005,0.014,0.011,0.027,0.016,0.041L9.773,15.985
						C9.768,15.971,9.762,15.957,9.757,15.944"/><path fill="#EAEAEC" d="M9.773,15.985l11.892-6.911c0.006,0.013,0.011,0.027,0.017,0.04L9.79,16.025
						C9.785,16.011,9.779,15.998,9.773,15.985"/><path fill="#EDEDEE" d="M9.79,16.025l11.892-6.911c0.006,0.014,0.012,0.027,0.019,0.041L9.809,16.065
						C9.803,16.052,9.797,16.038,9.79,16.025"/><path fill="#EEEEEF" d="M9.809,16.065l11.892-6.911c0.007,0.015,0.014,0.029,0.021,0.044L9.83,16.109
						C9.823,16.095,9.816,16.08,9.809,16.065"/><path fill="#EEEEF0" d="M9.83,16.109l11.892-6.911c0.008,0.017,0.017,0.034,0.026,0.05L9.856,16.16
						C9.847,16.143,9.839,16.126,9.83,16.109"/><path fill="#EFEFF1" d="M9.856,16.16l11.892-6.911c0.013,0.025,0.027,0.05,0.042,0.074L9.898,16.234
						C9.884,16.21,9.87,16.185,9.856,16.16"/><path fill="#F0F0F1" d="M9.898,16.234L21.79,9.323c0.02,0.034,0.041,0.067,0.062,0.099L9.96,16.333
						C9.938,16.301,9.918,16.268,9.898,16.234"/><path fill="#EFEFF1" d="M9.96,16.333l11.892-6.911c0.017,0.026,0.035,0.051,0.053,0.076l-11.892,6.911
						C9.995,16.384,9.977,16.359,9.96,16.333"/><path fill="#EEEEF0" d="M10.013,16.409l11.892-6.911c0.012,0.017,0.025,0.033,0.038,0.049l-11.892,6.911
						C10.038,16.442,10.026,16.426,10.013,16.409"/><path fill="#EEEEEF" d="M10.051,16.458l11.892-6.911c0.011,0.014,0.021,0.027,0.032,0.04l-11.892,6.911
						C10.072,16.485,10.062,16.472,10.051,16.458"/><path fill="#EDEDEE" d="M10.083,16.498l11.892-6.911c0.011,0.013,0.022,0.026,0.033,0.038l-11.892,6.911
						C10.105,16.524,10.094,16.511,10.083,16.498"/><path fill="#EAEAEC" d="M10.116,16.536l11.892-6.911c0.011,0.012,0.022,0.025,0.033,0.037l-11.892,6.911
						C10.138,16.561,10.127,16.549,10.116,16.536"/><path fill="#E5E5E7" d="M10.149,16.573l11.892-6.911c0.011,0.012,0.023,0.024,0.035,0.036l-11.892,6.911
						C10.172,16.597,10.16,16.585,10.149,16.573"/><path fill="#E1E1E3" d="M10.184,16.609l11.892-6.911c0.012,0.012,0.024,0.024,0.036,0.035l-11.892,6.911
						C10.207,16.633,10.195,16.621,10.184,16.609"/><path fill="#DCDCDE" d="M10.219,16.645l11.892-6.911c0.012,0.012,0.025,0.023,0.037,0.035L10.257,16.68
						C10.244,16.668,10.232,16.657,10.219,16.645"/><path fill="#D7D7D9" d="M10.257,16.68l11.892-6.911c0.013,0.011,0.025,0.022,0.038,0.033l-11.892,6.911
						C10.282,16.702,10.269,16.691,10.257,16.68"/><path fill="#D3D3D4" d="M10.295,16.713l11.892-6.911c0.013,0.011,0.025,0.021,0.038,0.031l-11.892,6.911
						C10.32,16.734,10.307,16.723,10.295,16.713"/><path fill="#CECED0" d="M10.333,16.744l11.892-6.911c0.012,0.01,0.025,0.019,0.038,0.029L10.37,16.772
						C10.358,16.763,10.345,16.754,10.333,16.744"/><path fill="#C9C9CB" d="M10.37,16.772l11.892-6.911c0.012,0.009,0.025,0.018,0.037,0.027l-11.892,6.911
						C10.395,16.79,10.383,16.782,10.37,16.772"/><path fill="#C5C5C6" d="M10.408,16.799L22.3,9.888c0.012,0.008,0.024,0.016,0.037,0.024l-11.892,6.911
						C10.432,16.815,10.42,16.807,10.408,16.799"/><path fill="#C0C0C2" d="M10.444,16.823l11.892-6.911c0.012,0.008,0.024,0.015,0.037,0.022l-11.892,6.911
						C10.469,16.838,10.457,16.831,10.444,16.823"/><path fill="#BBBBBD" d="M10.481,16.846l11.892-6.911c0.014,0.008,0.015,0.009,0.035,0.02l-11.892,6.911
						c-0.009-0.005-0.018-0.01-0.027-0.015C10.487,16.849,10.484,16.847,10.481,16.846"/><path fill="#B7B7B8" d="M10.516,16.865l11.892-6.911c0.012,0.006,0.023,0.012,0.034,0.018l-11.892,6.911
						C10.539,16.878,10.528,16.872,10.516,16.865"/><path fill="#B2B2B3" d="M10.551,16.883l11.892-6.911c0.011,0.006,0.023,0.011,0.034,0.016l-11.892,6.911
						C10.574,16.894,10.562,16.889,10.551,16.883"/><path fill="#ADADAF" d="M10.585,16.899l11.892-6.911c0.011,0.005,0.023,0.01,0.034,0.014l-11.892,6.911
						C10.607,16.909,10.596,16.904,10.585,16.899"/><path fill="#A8A8AA" d="M10.619,16.914l11.892-6.911c0.011,0.005,0.023,0.009,0.034,0.013l-11.892,6.911
						C10.641,16.923,10.63,16.918,10.619,16.914"/><path fill="#A4A4A5" d="M10.653,16.927l11.892-6.911c0.011,0.004,0.023,0.008,0.034,0.011l-11.892,6.911
						C10.675,16.934,10.664,16.931,10.653,16.927"/><path fill="#9F9FA0" d="M10.687,16.938l11.892-6.911c0.012,0.004,0.023,0.007,0.035,0.01l-11.892,6.911
						C10.71,16.944,10.698,16.941,10.687,16.938"/><path fill="#9A9A9C" d="M10.722,16.947l11.892-6.911c0.012,0.003,0.023,0.005,0.035,0.008l-11.892,6.911
						C10.745,16.953,10.733,16.95,10.722,16.947"/><path fill="#969697" d="M10.757,16.955l11.892-6.911c0.013,0.002,0.025,0.004,0.037,0.006l-11.892,6.911
						C10.782,16.96,10.769,16.958,10.757,16.955"/><path fill="#919192" d="M10.794,16.961l11.892-6.911c0.013,0.002,0.025,0.003,0.038,0.004l-11.892,6.911
						C10.819,16.964,10.807,16.963,10.794,16.961"/><path fill="#8C8C8E" d="M10.832,16.965l11.892-6.911c0.013,0.001,0.027,0.001,0.04,0.001l-11.892,6.911
						C10.858,16.966,10.845,16.966,10.832,16.965"/><path fill="#888889" d="M10.872,16.966l11.892-6.911c0.015,0,0.03-0.001,0.044-0.002l-11.892,6.911
						C10.901,16.966,10.887,16.966,10.872,16.966"/><path fill="#838384" d="M10.916,16.964l11.892-6.911c0.017-0.002,0.033-0.004,0.049-0.007l-11.892,6.911
						C10.949,16.96,10.932,16.963,10.916,16.964"/><path fill="#7E7E7F" d="M10.965,16.957l11.892-6.911c0.02-0.004,0.04-0.01,0.059-0.016l-11.892,6.911
						C11.005,16.948,10.985,16.953,10.965,16.957"/><path fill="#7A7A7B" d="M11.024,16.941l11.892-6.911c0.024-0.009,0.047-0.019,0.069-0.032l-11.892,6.911
						C11.071,16.922,11.048,16.932,11.024,16.941"/></g></g><polygon fill="#63A31A" points="10.277 15.798 22.168 8.887 22.559 9.112 10.667 16.023"/><g enable-background="new"><defs><path id="c" d="M22.985,9.998l-11.892,6.911c0.152-0.088,0.247-0.275,0.247-0.544
						l11.892-6.911C23.231,9.723,23.137,9.91,22.985,9.998z" enable-background="new"/></defs><clipPath id="d"><use overflow="visible" xlink:href="#c"/></clipPath><g clip-path="url(#d)" enable-background="new"><polyline fill="#538816" points="11.341 16.365 23.232 9.455 23.232 9.457 11.341 16.368 11.341 16.365"/><path fill="#518415" d="M11.341,16.368l11.892-6.911c0,0.014,0,0.028-0.001,0.041L11.34,16.409
						C11.34,16.395,11.34,16.382,11.341,16.368"/><path fill="#4E8114" d="M11.34,16.409l11.892-6.911c-0.001,0.014-0.001,0.027-0.002,0.04l-11.892,6.911
						C11.338,16.436,11.339,16.422,11.34,16.409"/><path fill="#4C7D14" d="M11.337,16.449l11.892-6.911c-0.001,0.014-0.003,0.027-0.004,0.041L11.333,16.49
						C11.335,16.476,11.336,16.463,11.337,16.449"/><path fill="#4A7913" d="M11.333,16.49l11.892-6.911c-0.002,0.014-0.004,0.027-0.006,0.04L11.327,16.53
						C11.329,16.517,11.331,16.504,11.333,16.49"/><path fill="#477513" d="M11.327,16.53l11.892-6.911c-0.002,0.014-0.005,0.028-0.008,0.041l-11.892,6.911
						C11.322,16.558,11.324,16.544,11.327,16.53"/><path fill="#457112" d="M11.318,16.572L23.21,9.661c-0.003,0.015-0.007,0.029-0.011,0.043l-11.892,6.911
						C11.311,16.601,11.315,16.586,11.318,16.572"/><path fill="#436E11" d="M11.307,16.615l11.892-6.911c-0.004,0.015-0.009,0.03-0.015,0.044l-11.892,6.911
						C11.298,16.645,11.303,16.63,11.307,16.615"/><path fill="#406A11" d="M11.292,16.659l11.892-6.911c-0.006,0.017-0.013,0.033-0.02,0.048l-11.892,6.911
						C11.28,16.692,11.286,16.676,11.292,16.659"/><path fill="#3E6610" d="M11.272,16.707l11.892-6.911c-0.01,0.02-0.02,0.04-0.032,0.058L11.24,16.765
						C11.252,16.747,11.263,16.728,11.272,16.707"/><path fill="#3C6210" d="M11.24,16.765l11.892-6.911c-0.039,0.062-0.089,0.11-0.147,0.144l-11.892,6.911
						C11.151,16.875,11.201,16.827,11.24,16.765"/></g></g><polygon fill="#B5B5B6" points="9.653 12.291 21.544 5.381 21.536 8.475 9.644 15.386"/><polygon fill="#599217" points="10.281 14.397 22.172 7.487 22.168 8.887 10.277 15.798"/><polygon fill="#63A31A" points="9.951 14.207 21.842 7.296 22.172 7.487 10.281 14.397"/><path fill="#1F95D3" d="M13.878,20.488l-0.006,2.112c0,0.077-0.014,0.143-0.038,0.195c0,0,0,0,0,0.001
				c-0.024,0.053-0.06,0.092-0.103,0.117l11.892-6.911c0.033-0.019,0.061-0.047,0.084-0.082c0.007-0.01,0.013-0.022,0.018-0.033
				c0-0.001,0.001-0.002,0.001-0.002c0-0.001,0.001-0.001,0.001-0.002c0.004-0.008,0.007-0.016,0.01-0.025
				c0.003-0.008,0.006-0.017,0.009-0.026c0.002-0.008,0.005-0.016,0.007-0.025c0.002-0.008,0.003-0.016,0.005-0.024
				c0.001-0.008,0.003-0.016,0.003-0.024c0.001-0.008,0.002-0.016,0.002-0.024c0.001-0.008,0.001-0.015,0.001-0.023
				c0-0.008,0.001-0.016,0.001-0.024V15.69l0.006-2.112L13.878,20.488z"/><path fill="#1EA9EE" d="M13.878,20.488l-0.006,2.112c-0.001,0.309-0.217,0.433-0.48,0.281l-2.552-1.473l-0.734-0.424
					l-2.188-1.263c-0.269-0.155-0.484-0.527-0.483-0.837l0.006-2.112L13.878,20.488z"/><polygon fill="#599217" points="9.952 13.588 21.844 6.677 21.842 7.296 9.951 14.207"/><polygon fill="#2E3438" points="10.671 14.623 22.563 7.712 22.559 9.112 10.667 16.023"/><polygon fill="#343A3F" points="10.281 14.397 22.172 7.487 22.563 7.712 10.671 14.623"/><polygon fill="#444A4F" points="9.952 13.588 21.844 6.677 22.174 6.868 10.282 13.778"/><polygon fill="#63A31A" points="10.671 14.623 22.563 7.712 22.893 7.903 11.001 14.813"/><polygon fill="#444A4F" points="10.282 13.778 22.174 6.868 22.565 7.093 10.673 14.004"/><polygon fill="#444A4F" points="10.673 14.004 22.565 7.093 22.895 7.284 11.003 14.194"/><polygon fill="#3D4247" points="11.003 14.194 22.895 7.284 22.893 7.903 11.001 14.813"/><polygon fill="#599217" points="10.286 12.603 22.177 5.692 22.174 6.868 10.282 13.778"/><g enable-background="new"><defs><path id="e" d="M21.791,4.835c-0.152,0.088-0.246,0.277-0.246,0.546L9.653,12.291
						c0.001-0.269,0.095-0.458,0.246-0.546C13.467,9.672,18.223,6.908,21.791,4.835z" enable-background="new"/></defs><clipPath id="f"><use overflow="visible" xlink:href="#e"/></clipPath><g clip-path="url(#f)" enable-background="new"><path fill="#7A7A7B" d="M9.899,11.745l11.892-6.911c-0.057,0.033-0.107,0.081-0.146,0.142L9.754,11.887
						C9.792,11.826,9.842,11.779,9.899,11.745"/><path fill="#7E7E7F" d="M9.754,11.887l11.892-6.911c-0.012,0.018-0.022,0.037-0.032,0.058L9.722,11.945
						C9.731,11.925,9.742,11.906,9.754,11.887"/><path fill="#838384" d="M9.722,11.945l11.892-6.911c-0.007,0.015-0.014,0.032-0.02,0.048L9.701,11.994
						C9.707,11.977,9.714,11.961,9.722,11.945"/><path fill="#888889" d="M9.701,11.994l11.892-6.911c-0.005,0.014-0.01,0.029-0.015,0.045L9.686,12.039
						C9.691,12.023,9.696,12.008,9.701,11.994"/><path fill="#8C8C8E" d="M9.686,12.039l11.892-6.911c-0.004,0.014-0.008,0.029-0.011,0.044L9.675,12.082
						C9.678,12.067,9.682,12.053,9.686,12.039"/><path fill="#919192" d="M9.675,12.082l11.892-6.911c-0.003,0.014-0.006,0.028-0.008,0.042L9.667,12.124
						C9.669,12.11,9.672,12.096,9.675,12.082"/><path fill="#969697" d="M9.667,12.124l11.892-6.911c-0.002,0.013-0.004,0.027-0.006,0.041L9.66,12.165
						C9.662,12.151,9.664,12.137,9.667,12.124"/><path fill="#9A9A9C" d="M9.66,12.165l11.892-6.911c-0.002,0.014-0.003,0.027-0.004,0.041L9.656,12.206
						C9.657,12.192,9.659,12.179,9.66,12.165"/><path fill="#9F9FA0" d="M9.656,12.206l11.892-6.911c-0.001,0.013-0.002,0.027-0.003,0.041L9.654,12.247
						C9.654,12.233,9.655,12.22,9.656,12.206"/><path fill="#A4A4A5" d="M9.654,12.247l11.892-6.911c-0.001,0.014-0.001,0.028-0.001,0.042L9.653,12.289
						C9.653,12.275,9.653,12.261,9.654,12.247"/><polyline fill="#A8A8AA" points="9.653 12.289 21.544 5.378 21.544 5.381 9.653 12.291 9.653 12.29"/></g></g><polygon fill="#343A3F" points="10.286 12.603 22.177 5.692 22.568 5.917 10.676 12.828"/><polygon fill="#2E3438" points="10.676 12.828 22.568 5.917 22.565 7.093 10.673 14.004"/><g enable-background="new"><defs><path id="g" d="M9.899,11.745c12.626-7.196,11.83-7.235,12.496-6.85l-11.892,6.911
						C10.267,11.669,10.053,11.656,9.899,11.745z" enable-background="new"/></defs><clipPath id="h"><use overflow="visible" xlink:href="#g"/></clipPath><g clip-path="url(#h)" enable-background="new"><path fill="#3C6210" d="M9.899,11.745c12.199-7.087,11.904-6.922,11.96-6.942L9.967,11.714
						C9.943,11.722,9.921,11.733,9.899,11.745"/><path fill="#3E6610" d="M9.967,11.714c4.401-2.554,11.876-6.912,11.95-6.927l-11.892,6.911
						C10.006,11.702,9.986,11.707,9.967,11.714"/><path fill="#406A11" d="M10.026,11.698l11.892-6.911c0.016-0.003,0.032-0.006,0.049-0.007l-11.892,6.911
						C10.058,11.692,10.042,11.695,10.026,11.698"/><path fill="#436E11" d="M10.074,11.691L21.966,4.78c0.014-0.001,0.029-0.002,0.044-0.002l-11.892,6.911
						C10.103,11.689,10.089,11.689,10.074,11.691"/><path fill="#457112" d="M10.118,11.689L22.01,4.778c0.013,0,0.026,0,0.04,0.001L10.158,11.69
						C10.144,11.689,10.131,11.689,10.118,11.689"/><path fill="#477513" d="M10.158,11.69L22.05,4.779c0.012,0.001,0.025,0.002,0.038,0.004l-11.892,6.911
						C10.183,11.692,10.17,11.691,10.158,11.69"/><path fill="#4A7913" d="M10.196,11.694l11.892-6.911c0.012,0.002,0.025,0.004,0.037,0.006L10.233,11.7
						C10.22,11.697,10.208,11.695,10.196,11.694"/><path fill="#4C7D14" d="M10.233,11.7l11.892-6.911c0.012,0.002,0.023,0.005,0.035,0.008l-11.892,6.911
						C10.256,11.705,10.244,11.702,10.233,11.7"/><path fill="#4E8114" d="M10.268,11.708l11.892-6.911c0.012,0.003,0.023,0.006,0.035,0.01l-11.892,6.911
						C10.291,11.714,10.279,11.711,10.268,11.708"/><path fill="#518415" d="M10.303,11.717l11.892-6.911c0.011,0.003,0.023,0.007,0.034,0.011l-11.892,6.911
						C10.326,11.725,10.314,11.721,10.303,11.717"/><path fill="#538816" d="M10.337,11.729l11.892-6.911c0.011,0.004,0.023,0.008,0.035,0.013l-11.892,6.911
						C10.36,11.737,10.349,11.733,10.337,11.729"/><path fill="#558C16" d="M10.372,11.742l11.892-6.911c0.011,0.005,0.023,0.009,0.034,0.015l-11.892,6.911
						C10.395,11.751,10.383,11.746,10.372,11.742"/><path fill="#579017" d="M10.406,11.756l11.892-6.911c0.012,0.005,0.023,0.011,0.035,0.016l-11.892,6.911
						C10.429,11.767,10.418,11.761,10.406,11.756"/><path fill="#5A9317" d="M10.441,11.773l11.892-6.911c0.012,0.006,0.023,0.012,0.035,0.018l-11.892,6.911
						C10.464,11.784,10.453,11.778,10.441,11.773"/><path fill="#5C9718" d="M10.476,11.791L22.368,4.88c0.009,0.005,0.018,0.01,0.027,0.015l-11.892,6.911
						C10.495,11.801,10.485,11.796,10.476,11.791"/></g></g><path fill="#ABDA32" stroke="#73BD1E" stroke-miterlimit="10" d="M10.481,11.806c0.465,0.268,0.847,0.923,0.846,1.465
					l-0.009,3.095c-0.002,0.542-0.387,0.753-0.851,0.485c-0.471-0.272-0.847-0.923-0.846-1.465l0.009-3.095
					C9.631,11.75,10.01,11.534,10.481,11.806z M10.978,14.813l0.002-0.619l-0.33-0.19l0.003-1.176l-0.391-0.225l-0.003,1.176
					l-0.33-0.19l-0.002,0.619l0.33,0.19l-0.004,1.4l0.391,0.225l0.004-1.4L10.978,14.813"/><path fill="#F1F1F3" d="M18.898,1.075l-0.002,0.001h0L18.898,1.075c-0.849-0.278-0.41-0.1-12.74,6.944
				c0.361-0.209,0.807-0.093,1.167,0.115l11.892-6.911C19.115,1.165,19.008,1.114,18.898,1.075z"/><polygon fill="#599217" points="11.349 13.271 23.241 6.36 23.232 9.455 11.341 16.365"/><g enable-background="new"><defs><path id="i" d="M10.504,11.806l11.892-6.911c0.465,0.268,0.847,0.923,0.846,1.465
						l-11.892,6.911C11.351,12.729,10.968,12.074,10.504,11.806z" enable-background="new"/></defs><clipPath id="j"><use overflow="visible" xlink:href="#i"/></clipPath><g clip-path="url(#j)" enable-background="new"><polyline fill="#5C9718" points="10.504 11.806 22.395 4.895 22.404 4.9 10.512 11.811 10.504 11.806"/><path fill="#5E9B19" d="M10.512,11.811L22.404,4.9c0.012,0.007,0.024,0.014,0.036,0.022l-11.892,6.911
						C10.536,11.825,10.524,11.818,10.512,11.811"/><path fill="#619F19" d="M10.548,11.833l11.892-6.911c0.012,0.008,0.024,0.016,0.036,0.024l-11.892,6.911
						C10.572,11.848,10.56,11.84,10.548,11.833"/><path fill="#63A31A" d="M10.583,11.857l11.892-6.911c0.012,0.008,0.025,0.017,0.037,0.026L10.62,11.883
						C10.608,11.874,10.596,11.865,10.583,11.857"/><path fill="#65A61A" d="M10.62,11.883l11.892-6.911C22.524,4.981,22.537,4.991,22.549,5l-11.892,6.911
						C10.645,11.901,10.633,11.892,10.62,11.883"/><path fill="#68AA1B" d="M10.657,11.911L22.549,5c0.013,0.01,0.025,0.02,0.038,0.031l-11.892,6.911
						C10.682,11.931,10.67,11.921,10.657,11.911"/><path fill="#6AAE1C" d="M10.695,11.942l11.892-6.911c0.013,0.011,0.025,0.022,0.038,0.033l-11.892,6.911
						C10.72,11.963,10.708,11.952,10.695,11.942"/><path fill="#6CB21C" d="M10.733,11.975l11.892-6.911c0.013,0.011,0.025,0.023,0.037,0.035L10.77,12.009
						C10.758,11.998,10.745,11.986,10.733,11.975"/><path fill="#6EB51D" d="M10.77,12.009l11.892-6.911c0.012,0.012,0.024,0.023,0.036,0.035l-11.892,6.911
						C10.794,12.033,10.782,12.021,10.77,12.009"/><path fill="#71B91D" d="M10.806,12.045l11.892-6.911c0.012,0.012,0.023,0.024,0.035,0.036l-11.892,6.911
						C10.829,12.069,10.818,12.057,10.806,12.045"/><path fill="#73BD1E" d="M10.841,12.081l11.892-6.911c0.011,0.012,0.022,0.024,0.033,0.037l-11.892,6.911
						C10.863,12.106,10.852,12.093,10.841,12.081"/><path fill="#84C539" d="M10.874,12.118l11.892-6.911c0.011,0.013,0.022,0.025,0.033,0.038l-11.892,6.911
						C10.896,12.143,10.885,12.131,10.874,12.118"/><path fill="#8BC844" d="M10.907,12.156l11.892-6.911c0.011,0.013,0.022,0.027,0.033,0.04l-11.892,6.911
						C10.928,12.183,10.918,12.17,10.907,12.156"/><path fill="#90CB4D" d="M10.939,12.197l11.892-6.911c0.013,0.016,0.025,0.033,0.038,0.049l-11.892,6.911
						C10.965,12.229,10.952,12.213,10.939,12.197"/><path fill="#95CD54" d="M10.977,12.246l11.892-6.911c0.018,0.025,0.036,0.05,0.053,0.076L11.03,12.322
						C11.013,12.296,10.995,12.271,10.977,12.246"/><path fill="#99CF5A" d="M11.03,12.322l11.892-6.911c0.023,0.034,0.045,0.069,0.066,0.105l-11.892,6.911
						C11.075,12.391,11.053,12.356,11.03,12.322"/><path fill="#95CD54" d="M11.096,12.427l11.892-6.911c0.014,0.024,0.027,0.048,0.04,0.072l-11.892,6.911
						C11.124,12.475,11.11,12.451,11.096,12.427"/><path fill="#90CB4D" d="M11.137,12.499l11.892-6.911c0.009,0.017,0.018,0.033,0.026,0.05L11.163,12.55
						C11.154,12.533,11.145,12.516,11.137,12.499"/><path fill="#8BC844" d="M11.163,12.55l11.892-6.911c0.007,0.015,0.015,0.03,0.022,0.045l-11.892,6.911
						C11.177,12.58,11.17,12.565,11.163,12.55"/><path fill="#84C539" d="M11.184,12.595l11.892-6.911c0.006,0.013,0.012,0.027,0.018,0.041l-11.892,6.911
						C11.197,12.622,11.191,12.608,11.184,12.595"/><path fill="#73BD1E" d="M11.203,12.635l11.892-6.911c0.006,0.013,0.012,0.027,0.017,0.04L11.22,12.676
						C11.215,12.662,11.209,12.649,11.203,12.635"/><path fill="#71B91D" d="M11.22,12.676l11.892-6.911c0.006,0.014,0.011,0.027,0.017,0.041l-11.892,6.911
						C11.231,12.703,11.226,12.689,11.22,12.676"/><path fill="#6EB51D" d="M11.237,12.717l11.892-6.911c0.005,0.014,0.011,0.028,0.016,0.041l-11.892,6.911
						C11.247,12.745,11.242,12.731,11.237,12.717"/><path fill="#6CB21C" d="M11.252,12.758l11.892-6.911c0.005,0.014,0.01,0.029,0.015,0.043l-11.892,6.911
						C11.263,12.787,11.257,12.773,11.252,12.758"/><path fill="#6AAE1C" d="M11.267,12.802l11.892-6.911c0.005,0.015,0.01,0.029,0.014,0.044l-11.892,6.911
						C11.277,12.831,11.272,12.816,11.267,12.802"/><path fill="#68AA1B" d="M11.281,12.845l11.892-6.911c0.005,0.015,0.009,0.03,0.013,0.045L11.294,12.89
						C11.29,12.875,11.286,12.86,11.281,12.845"/><path fill="#65A61A" d="M11.294,12.89l11.892-6.911c0.004,0.015,0.008,0.03,0.012,0.045l-11.892,6.911
						C11.302,12.92,11.299,12.905,11.294,12.89"/><path fill="#63A31A" d="M11.306,12.935l11.892-6.911c0.004,0.015,0.007,0.03,0.01,0.044l-11.892,6.911
						C11.313,12.964,11.31,12.95,11.306,12.935"/><path fill="#619F19" d="M11.317,12.979l11.892-6.911c0.003,0.015,0.006,0.029,0.009,0.044l-11.892,6.911
						C11.323,13.009,11.32,12.994,11.317,12.979"/><path fill="#5E9B19" d="M11.325,13.023l11.892-6.911c0.003,0.014,0.005,0.029,0.007,0.043l-11.892,6.911
						C11.331,13.052,11.328,13.038,11.325,13.023"/><path fill="#5C9718" d="M11.333,13.066l11.892-6.911c0.002,0.014,0.004,0.028,0.006,0.043l-11.892,6.911
						C11.337,13.095,11.335,13.08,11.333,13.066"/><path fill="#5A9317" d="M11.339,13.109l11.892-6.911c0.002,0.014,0.003,0.028,0.005,0.042L11.344,13.15
						C11.342,13.136,11.341,13.123,11.339,13.109"/><path fill="#579017" d="M11.344,13.15L23.235,6.24c0.001,0.014,0.002,0.028,0.003,0.041l-11.892,6.911
						C11.346,13.178,11.345,13.164,11.344,13.15"/><path fill="#558C16" d="M11.347,13.191l11.892-6.911c0.001,0.014,0.002,0.027,0.002,0.041l-11.892,6.911
						C11.348,13.219,11.348,13.205,11.347,13.191"/><path fill="#538816" d="M11.349,13.233l11.892-6.911c0,0.013,0.001,0.026,0.001,0.038l-11.892,6.911
						C11.349,13.258,11.349,13.245,11.349,13.233"/></g></g><g enable-background="new"><defs><path id="k" d="M36.753,28.235c0.311,0.585,1.584-0.385-11.662,7.313
						c-0.081-0.131-0.158-0.266-0.23-0.402C28.825,32.842,32.789,30.539,36.753,28.235z" enable-background="new"/></defs><clipPath id="l"><use overflow="visible" xlink:href="#k"/></clipPath><g clip-path="url(#l)" enable-background="new"><path fill="#EEEEF0" d="M24.779,34.985l11.892-6.911c0.03,0.059,0.06,0.118,0.091,0.176L24.87,35.162
						C24.839,35.103,24.808,35.044,24.779,34.985"/><path fill="#EFEFF1" d="M24.87,35.162l11.892-6.911c0.047,0.087,0.095,0.174,0.145,0.259l-11.892,6.911
						C24.965,35.335,24.916,35.249,24.87,35.162"/><path fill="#F0F0F1" d="M25.015,35.421l11.892-6.911c0.07,0.118,0.143,0.235,0.219,0.348l-11.892,6.911
						C25.158,35.655,25.085,35.539,25.015,35.421"/></g></g><g enable-background="new"><defs><path id="m" d="M36.751,28.231c-6.923,4.028-12.047,7-11.892,6.911
						C28.823,32.838,32.787,30.534,36.751,28.231z" enable-background="new"/></defs><clipPath id="n"><use overflow="visible" xlink:href="#m"/></clipPath><g clip-path="url(#n)" enable-background="new"><path fill="#EEEEF0" d="M24.779,34.985l11.892-6.911c0.03,0.059,0.06,0.118,0.091,0.176L24.87,35.162
						C24.839,35.103,24.808,35.044,24.779,34.985"/></g></g><polygon fill="#FD5665" points="25.167 34.995 37.058 28.085 37.3 28.495 25.408 35.406"/><g enable-background="new"><defs><path id="o" d="M37.012,28.683c0.518,0.827,1.2,1.54,1.948,1.972l-11.892,6.911
						c-0.748-0.432-1.429-1.145-1.948-1.972C29.084,33.29,33.048,30.987,37.012,28.683z" enable-background="new"/></defs><clipPath id="p"><use overflow="visible" xlink:href="#o"/></clipPath><g clip-path="url(#p)" enable-background="new"><path fill="#F0F0F1" d="M25.015,35.421l11.892-6.911c0.07,0.118,0.143,0.235,0.219,0.348l-11.892,6.911
						C25.158,35.655,25.085,35.539,25.015,35.421"/><path fill="#EFEFF1" d="M25.234,35.769l11.892-6.911c0.06,0.09,0.123,0.179,0.187,0.266L25.42,36.035
						C25.356,35.948,25.294,35.859,25.234,35.769"/><path fill="#EEEEF0" d="M25.42,36.035l11.892-6.911c0.043,0.058,0.087,0.116,0.131,0.172l-11.892,6.911
						C25.507,36.15,25.463,36.093,25.42,36.035"/><path fill="#EEEEEF" d="M25.551,36.207l11.892-6.911c0.037,0.047,0.075,0.094,0.114,0.14l-11.892,6.911
						C25.627,36.301,25.589,36.254,25.551,36.207"/><path fill="#EDEDEE" d="M25.665,36.347l11.892-6.911c0.037,0.045,0.075,0.09,0.114,0.133l-11.892,6.911
						C25.741,36.437,25.703,36.392,25.665,36.347"/><path fill="#EAEAEC" d="M25.779,36.481l11.892-6.911c0.038,0.043,0.076,0.085,0.115,0.127l-11.892,6.911
						C25.855,36.566,25.817,36.524,25.779,36.481"/><path fill="#E5E5E7" d="M25.894,36.608l11.892-6.911c0.04,0.043,0.08,0.085,0.121,0.126l-11.892,6.911
						C25.974,36.693,25.933,36.651,25.894,36.608"/><path fill="#E1E1E3" d="M26.014,36.734l11.892-6.911c0.041,0.042,0.082,0.083,0.124,0.123l-11.892,6.911
						C26.097,36.817,26.055,36.776,26.014,36.734"/><path fill="#DCDCDE" d="M26.138,36.857l11.892-6.911c0.043,0.041,0.086,0.081,0.13,0.121l-11.892,6.911
						C26.224,36.938,26.181,36.898,26.138,36.857"/><path fill="#D7D7D9" d="M26.268,36.977l11.892-6.911c0.043,0.039,0.087,0.077,0.131,0.114l-11.892,6.911
						C26.355,37.055,26.311,37.017,26.268,36.977"/><path fill="#D3D3D4" d="M26.399,37.092l11.892-6.911c0.043,0.037,0.087,0.072,0.131,0.107l-11.892,6.911
						C26.486,37.164,26.443,37.129,26.399,37.092"/><path fill="#CECED0" d="M26.531,37.199l11.892-6.911c0.043,0.034,0.086,0.067,0.13,0.099L26.66,37.298
						C26.617,37.266,26.573,37.233,26.531,37.199"/><path fill="#C9C9CB" d="M26.66,37.298l11.892-6.911c0.042,0.031,0.085,0.062,0.128,0.091l-11.892,6.911
						C26.745,37.36,26.703,37.329,26.66,37.298"/><path fill="#C5C5C6" d="M26.788,37.389l11.892-6.911c0.042,0.028,0.083,0.056,0.125,0.083l-11.892,6.911
						C26.872,37.445,26.83,37.418,26.788,37.389"/><path fill="#C0C0C2" d="M26.914,37.472l11.892-6.911c0.041,0.026,0.083,0.052,0.125,0.077l-11.892,6.911
						C26.997,37.524,26.955,37.498,26.914,37.472"/><path fill="#BBBBBD" d="M27.039,37.549l11.892-6.911c0.01,0.006,0.019,0.011,0.029,0.017l-11.892,6.911
						C27.058,37.56,27.048,37.554,27.039,37.549"/></g></g><g enable-background="new"><defs><path id="q" d="M36.02,25.563c-0.002,0.86,0.274,1.805,0.731,2.667
						c-3.964,2.304-7.928,4.607-11.892,6.911c-0.457-0.862-0.733-1.808-0.731-2.667C28.092,30.171,32.056,27.867,36.02,25.563z" enable-background="new"/></defs><clipPath id="r"><use overflow="visible" xlink:href="#q"/></clipPath><g clip-path="url(#r)" enable-background="new"><path fill="#A8A8AA" d="M24.129,32.466l11.892-6.911c0,0.056,0,0.069,0.002,0.142L24.13,32.607
						c-0.001-0.045-0.002-0.089-0.002-0.133C24.128,32.471,24.128,32.469,24.129,32.466"/><path fill="#ADADAF" d="M24.13,32.607l11.892-6.911c0.001,0.047,0.004,0.095,0.007,0.143L24.137,32.75
						C24.134,32.702,24.132,32.655,24.13,32.607"/><path fill="#B2B2B3" d="M24.137,32.75l11.892-6.911c0.003,0.048,0.007,0.096,0.011,0.144l-11.892,6.911
						C24.144,32.846,24.14,32.798,24.137,32.75"/><path fill="#B7B7B8" d="M24.148,32.894l11.892-6.911c0.005,0.048,0.01,0.096,0.016,0.145l-11.892,6.911
						C24.158,32.99,24.153,32.942,24.148,32.894"/><path fill="#BBBBBD" d="M24.164,33.038l11.892-6.911c0.006,0.049,0.013,0.099,0.021,0.148l-11.892,6.911
						C24.178,33.137,24.171,33.088,24.164,33.038"/><path fill="#C0C0C2" d="M24.186,33.187l11.892-6.911c0.008,0.05,0.016,0.099,0.026,0.149l-11.892,6.911
						C24.202,33.286,24.193,33.236,24.186,33.187"/><path fill="#C5C5C6" d="M24.211,33.336l11.892-6.911c0.01,0.051,0.02,0.103,0.031,0.154L24.243,33.49
						C24.231,33.438,24.221,33.387,24.211,33.336"/><path fill="#C9C9CB" d="M24.243,33.49l11.892-6.911c0.011,0.051,0.023,0.103,0.036,0.155l-11.892,6.911
						C24.266,33.592,24.254,33.541,24.243,33.49"/><path fill="#CECED0" d="M24.279,33.644l11.892-6.911c0.013,0.052,0.027,0.104,0.041,0.156L24.32,33.8
						C24.305,33.748,24.292,33.696,24.279,33.644"/><path fill="#D3D3D4" d="M24.32,33.8l11.892-6.911c0.014,0.052,0.03,0.104,0.045,0.156l-11.892,6.911
						C24.349,33.904,24.334,33.852,24.32,33.8"/><path fill="#D7D7D9" d="M24.365,33.956l11.892-6.911c0.016,0.051,0.032,0.102,0.049,0.152l-11.892,6.911
						C24.397,34.058,24.381,34.007,24.365,33.956"/><path fill="#DCDCDE" d="M24.414,34.109l11.892-6.911c0.017,0.05,0.034,0.1,0.052,0.15l-11.892,6.911
						C24.448,34.209,24.431,34.159,24.414,34.109"/><path fill="#E1E1E3" d="M24.466,34.259l11.892-6.911c0.017,0.048,0.036,0.096,0.054,0.144l-11.892,6.911
						C24.502,34.355,24.484,34.307,24.466,34.259"/><path fill="#E5E5E7" d="M24.521,34.403l11.892-6.911c0.019,0.048,0.038,0.096,0.058,0.143l-11.892,6.911
						C24.558,34.499,24.539,34.451,24.521,34.403"/><path fill="#EAEAEC" d="M24.578,34.546l11.892-6.911c0.02,0.047,0.04,0.094,0.06,0.141l-11.892,6.911
						C24.618,34.641,24.598,34.594,24.578,34.546"/><path fill="#EDEDEE" d="M24.639,34.688l11.892-6.911c0.021,0.048,0.043,0.095,0.065,0.143L24.704,34.83
						C24.682,34.783,24.66,34.735,24.639,34.688"/><path fill="#EEEEEF" d="M24.704,34.83l11.892-6.911c0.024,0.052,0.049,0.103,0.075,0.155l-11.892,6.911
						C24.753,34.934,24.728,34.882,24.704,34.83"/><path fill="#EEEEF0" d="M24.779,34.985l11.892-6.911c0.03,0.059,0.06,0.118,0.091,0.176L24.87,35.162
						C24.839,35.103,24.808,35.044,24.779,34.985"/></g></g><path fill="#812C33" d="M25.408,35.406c1.289-0.749-4.615,2.68,12.331-7.161C36.45,28.994,42.354,25.565,25.408,35.406z"/><path fill="#802C33" d="M37.497,27.827c-16.91,9.831-11.063,6.432-12.331,7.169C27.904,33.404,38.155,27.444,37.497,27.827z"/><polygon fill="#FDFDFD" points="25.606 34.737 37.497 27.827 37.739 28.245 25.847 35.156"/><rect width=".507" height=".48" x="25.253" y="34.834" fill="#898989" transform="rotate(-30 25.503 35.073)"/><polygon fill="#DC4B58" points="26.901 36.981 38.793 30.07 39.129 30.265 27.238 37.175"/><polygon fill="#C5434F" points="24.553 32.526 36.445 25.615 36.444 26.002 24.552 32.913"/><polygon fill="#C5434F" points="26.903 36.269 38.795 29.358 38.793 30.07 26.901 36.981"/><polygon fill="#DC4B58" points="24.552 32.913 36.444 26.002 37.063 26.359 25.172 33.27"/><polygon fill="#DCDCDC" points="26.903 36.269 38.795 29.358 39.131 29.553 27.24 36.463"/><polygon fill="#C5C5C5" points="27.24 36.463 39.131 29.553 39.129 30.265 27.238 37.175"/><polygon fill="#C5C5C5" points="25.173 32.883 37.064 25.973 37.063 26.359 25.172 33.27"/><polygon fill="#DCDCDC" points="24.553 32.526 36.445 25.615 37.064 25.973 25.173 32.883"/><polygon fill="#FFF" points="25.173 32.883 25.172 33.27 24.552 32.913 24.553 32.526"/><g enable-background="new"><defs><path id="s" d="M40.916,30.933c-3.964,2.304-7.928,4.607-11.892,6.911
						c-0.522,0.228-1.207,0.154-1.956-0.278l11.892-6.911C39.709,31.087,40.394,31.161,40.916,30.933z" enable-background="new"/></defs><clipPath id="t"><use overflow="visible" xlink:href="#s"/></clipPath><g clip-path="url(#t)" enable-background="new"><path fill="#BBBBBD" d="M27.068,37.565l11.892-6.911c0.031,0.018,0.063,0.036,0.094,0.053l-11.892,6.911
						C27.131,37.601,27.099,37.584,27.068,37.565"/><path fill="#B7B7B8" d="M27.162,37.618l11.892-6.911c0.041,0.022,0.081,0.043,0.121,0.063l-11.892,6.911
						C27.243,37.661,27.202,37.64,27.162,37.618"/><path fill="#B2B2B3" d="M27.283,37.681l11.892-6.911c0.04,0.02,0.08,0.039,0.12,0.056l-11.892,6.911
						C27.363,37.719,27.323,37.7,27.283,37.681"/><path fill="#ADADAF" d="M27.402,37.737l11.892-6.911c0.04,0.018,0.079,0.034,0.118,0.05L27.52,37.787
						C27.481,37.771,27.442,37.755,27.402,37.737"/><path fill="#A8A8AA" d="M27.52,37.787l11.892-6.911c0.04,0.016,0.08,0.031,0.119,0.045l-11.892,6.911
						C27.6,37.818,27.56,37.803,27.52,37.787"/><path fill="#A4A4A5" d="M27.639,37.832l11.892-6.911c0.04,0.014,0.079,0.027,0.118,0.039L27.758,37.87
						C27.719,37.859,27.679,37.846,27.639,37.832"/><path fill="#9F9FA0" d="M27.758,37.87l11.892-6.911c0.041,0.012,0.082,0.024,0.122,0.034L27.88,37.904
						C27.839,37.894,27.799,37.883,27.758,37.87"/><path fill="#9A9A9C" d="M27.88,37.904l11.892-6.911c0.041,0.01,0.081,0.019,0.121,0.027L28,37.931
						C27.96,37.923,27.92,37.914,27.88,37.904"/><path fill="#969697" d="M28,37.931l11.892-6.911c0.043,0.008,0.087,0.016,0.129,0.021L28.13,37.952
						C28.087,37.947,28.044,37.939,28,37.931"/><path fill="#919192" d="M28.13,37.952l11.892-6.911c0.044,0.006,0.088,0.01,0.131,0.013l-11.892,6.911
						C28.218,37.963,28.174,37.958,28.13,37.952"/><path fill="#8C8C8E" d="M28.261,37.966l11.892-6.911c0.047,0.003,0.093,0.005,0.138,0.005L28.399,37.97
						C28.354,37.97,28.308,37.969,28.261,37.966"/><path fill="#888889" d="M28.399,37.97l11.892-6.911c0.052,0,0.103-0.003,0.153-0.007l-11.892,6.911
						C28.502,37.968,28.451,37.97,28.399,37.97"/><path fill="#838384" d="M28.552,37.963l11.892-6.911c0.058-0.005,0.115-0.014,0.17-0.025l-11.892,6.911
						C28.667,37.949,28.61,37.958,28.552,37.963"/><path fill="#7E7E7F" d="M28.722,37.938l11.892-6.911c0.071-0.014,0.14-0.033,0.206-0.057l-11.892,6.911
						C28.862,37.905,28.793,37.924,28.722,37.938"/><path fill="#7A7A7B" d="M28.928,37.882c0.159-0.092,11.972-6.929,12.13-7.021l-11.892,6.911
						C29.091,37.815,29.011,37.852,28.928,37.882"/></g></g><polygon fill="#FD5665" points="28.305 36.575 40.197 29.664 40.633 30.42 28.741 37.33"/><g enable-background="new"><defs><path id="u" d="M36.766,23.745c-0.462,0.332-0.743,0.957-0.746,1.818
						c-3.964,2.304-7.928,4.607-11.892,6.911c0.002-0.861,0.284-1.486,0.746-1.818C28.838,28.353,32.802,26.049,36.766,23.745z" enable-background="new"/></defs><clipPath id="v"><use overflow="visible" xlink:href="#u"/></clipPath><g clip-path="url(#v)" enable-background="new"><path fill="#7A7A7B" d="M24.988,30.582l11.892-6.911c-0.202,0.117-0.374,0.285-0.51,0.499l-11.892,6.911
						C24.614,30.867,24.787,30.699,24.988,30.582"/><path fill="#7E7E7F" d="M24.478,31.081L36.37,24.17c-0.04,0.063-0.077,0.13-0.111,0.202l-11.892,6.911
						C24.401,31.211,24.438,31.144,24.478,31.081"/><path fill="#838384" d="M24.367,31.283l11.892-6.911c-0.025,0.054-0.049,0.11-0.071,0.168L24.296,31.45
						C24.318,31.392,24.341,31.336,24.367,31.283"/><path fill="#888889" d="M24.296,31.45l11.892-6.911c-0.019,0.05-0.036,0.102-0.052,0.155l-11.892,6.911
						C24.26,31.552,24.277,31.5,24.296,31.45"/><path fill="#8C8C8E" d="M24.244,31.606l11.892-6.911c-0.014,0.049-0.027,0.099-0.039,0.151l-11.892,6.911
						C24.217,31.705,24.23,31.654,24.244,31.606"/><path fill="#919192" d="M24.205,31.756l11.892-6.911c-0.011,0.047-0.02,0.095-0.029,0.144l-11.892,6.911
						C24.185,31.851,24.194,31.803,24.205,31.756"/><path fill="#969697" d="M24.176,31.901l11.892-6.911c-0.008,0.046-0.015,0.093-0.021,0.141l-11.892,6.911
						C24.161,31.994,24.168,31.947,24.176,31.901"/><path fill="#9A9A9C" d="M24.155,32.042l11.892-6.911c-0.006,0.046-0.011,0.094-0.015,0.142L24.14,32.184
						C24.144,32.135,24.149,32.088,24.155,32.042"/><path fill="#9F9FA0" d="M24.14,32.184l11.892-6.911c-0.004,0.046-0.007,0.092-0.009,0.139l-11.892,6.911
						C24.134,32.276,24.137,32.229,24.14,32.184"/><path fill="#A4A4A5" d="M24.132,32.323l11.892-6.911c-0.002,0.047-0.003,0.094-0.003,0.143l-11.892,6.911
						C24.129,32.417,24.13,32.37,24.132,32.323"/><path fill="#A8A8AA" d="M24.129,32.466l11.892-6.911c0,0.056,0,0.069,0.002,0.142L24.13,32.607
						c-0.001-0.045-0.002-0.089-0.002-0.133C24.128,32.471,24.128,32.469,24.129,32.466"/></g></g><g enable-background="new"><defs><path id="w" d="M36.766,23.745c-3.887,2.259-8.646,5.025-11.892,6.911l0,0
						C28.838,28.353,32.802,26.049,36.766,23.745z" enable-background="new"/></defs><clipPath id="x"><use overflow="visible" xlink:href="#w"/></clipPath><g clip-path="url(#x)" enable-background="new"><path fill="#7A7A7B" d="M24.988,30.582l11.892-6.911c-0.202,0.117-0.374,0.285-0.51,0.499l-11.892,6.911
						C24.614,30.867,24.787,30.699,24.988,30.582"/></g></g><polygon fill="#FD5665" points="25.177 31.158 37.069 24.247 37.505 25.003 25.614 31.914"/><g enable-background="new"><defs><path id="y" d="M38.964,29.038c0.429,0.248,0.817,0.27,1.097,0.108l-11.892,6.911
						c-0.28,0.163-0.667,0.14-1.097-0.108C30.64,33.875,35.397,31.111,38.964,29.038z" enable-background="new"/></defs><clipPath id="z"><use overflow="visible" xlink:href="#y"/></clipPath><g clip-path="url(#z)" enable-background="new"><path fill="#CC4652" d="M27.072,35.948l11.892-6.911c0.016,0.01,0.033,0.019,0.049,0.028l-11.892,6.911
						C27.105,35.967,27.089,35.958,27.072,35.948"/><path fill="#C74450" d="M27.122,35.976l11.892-6.911c0.021,0.011,0.042,0.022,0.063,0.033l-11.892,6.911
						C27.164,35.998,27.143,35.987,27.122,35.976"/><path fill="#C2424E" d="M27.185,36.009l11.892-6.911c0.021,0.01,0.042,0.02,0.063,0.029l-11.892,6.911
						C27.227,36.029,27.206,36.019,27.185,36.009"/><path fill="#BD404B" d="M27.248,36.038l11.892-6.911c0.021,0.009,0.041,0.018,0.062,0.026l-11.892,6.911
						C27.289,36.056,27.268,36.048,27.248,36.038"/><path fill="#B83F49" d="M27.309,36.064l11.892-6.911c0.021,0.008,0.042,0.016,0.062,0.023l-11.892,6.911
						C27.351,36.081,27.33,36.073,27.309,36.064"/><path fill="#B33D47" d="M27.372,36.088l11.892-6.911c0.021,0.007,0.041,0.014,0.062,0.02l-11.892,6.911
						C27.413,36.102,27.392,36.095,27.372,36.088"/><path fill="#AD3B45" d="M27.433,36.108l11.892-6.911c0.021,0.006,0.043,0.012,0.064,0.018l-11.892,6.911
						C27.476,36.12,27.455,36.115,27.433,36.108"/><path fill="#A83943" d="M27.497,36.126l11.892-6.911c0.021,0.005,0.042,0.01,0.063,0.014L27.56,36.14
						C27.539,36.136,27.518,36.131,27.497,36.126"/><path fill="#A33841" d="M27.56,36.14l11.892-6.911c0.023,0.004,0.045,0.008,0.067,0.011l-11.892,6.911
						C27.605,36.148,27.583,36.144,27.56,36.14"/><path fill="#9E363F" d="M27.628,36.151l11.892-6.911c0.023,0.003,0.046,0.005,0.068,0.007l-11.892,6.911
						C27.673,36.156,27.651,36.154,27.628,36.151"/><path fill="#99343D" d="M27.696,36.158l11.892-6.911c0.024,0.002,0.049,0.002,0.072,0.002L27.768,36.16
						C27.745,36.16,27.72,36.16,27.696,36.158"/><path fill="#94323B" d="M27.768,36.16l11.892-6.911c0.027,0,0.054-0.001,0.08-0.004l-11.892,6.911
						C27.822,36.159,27.795,36.16,27.768,36.16"/><path fill="#8F3139" d="M27.848,36.156l11.892-6.911c0.03-0.003,0.06-0.007,0.089-0.013l-11.892,6.911
						C27.908,36.149,27.878,36.154,27.848,36.156"/><path fill="#8A2F37" d="M27.937,36.144l11.892-6.911c0.037-0.007,0.073-0.017,0.108-0.03l-11.892,6.911
						C28.01,36.126,27.974,36.136,27.937,36.144"/><path fill="#852D35" d="M28.045,36.114l11.892-6.911c0.044-0.015,0.085-0.035,0.125-0.058l-11.892,6.911
						C28.13,36.079,28.088,36.098,28.045,36.114"/></g></g><g enable-background="new"><defs><path id="A" d="M38.964,29.038l-11.892,6.911c-0.848-0.49-1.54-1.687-1.537-2.662
						c15.854-9.214,15.855-9.214,0,0c0.001-0.487,0.173-0.828,0.449-0.989l11.892-6.911C36.87,25.972,37.654,28.281,38.964,29.038z" enable-background="new"/></defs><clipPath id="B"><use overflow="visible" xlink:href="#A"/></clipPath><g clip-path="url(#B)" enable-background="new"><path fill="#852D35" d="M25.985,32.298l11.892-6.911c-0.105,0.061-0.196,0.149-0.267,0.261l-11.892,6.911
						C25.789,32.447,25.88,32.359,25.985,32.298"/><path fill="#8A2F37" d="M25.718,32.559l11.892-6.911c-0.021,0.033-0.04,0.068-0.058,0.105L25.66,32.664
						C25.678,32.627,25.697,32.591,25.718,32.559"/><path fill="#8F3139" d="M25.66,32.664l11.892-6.911c-0.013,0.028-0.026,0.057-0.037,0.087l-11.892,6.911
						C25.634,32.721,25.647,32.692,25.66,32.664"/><path fill="#94323B" d="M25.623,32.751l11.892-6.911c-0.01,0.026-0.019,0.053-0.027,0.081l-11.892,6.911
						C25.604,32.804,25.613,32.777,25.623,32.751"/><path fill="#99343D" d="M25.596,32.832l11.892-6.911c-0.007,0.026-0.014,0.052-0.021,0.079l-11.892,6.911
						C25.582,32.884,25.589,32.858,25.596,32.832"/><path fill="#9E363F" d="M25.576,32.911L37.468,26c-0.006,0.025-0.011,0.05-0.015,0.075l-11.892,6.911
						C25.565,32.961,25.57,32.936,25.576,32.911"/><path fill="#A33841" d="M25.561,32.986l11.892-6.911c-0.004,0.024-0.008,0.049-0.011,0.074L25.55,33.06
						C25.553,33.035,25.556,33.011,25.561,32.986"/><path fill="#A83943" d="M25.55,33.06l11.892-6.911c-0.003,0.024-0.006,0.049-0.008,0.074l-11.892,6.911
						C25.544,33.109,25.547,33.084,25.55,33.06"/><path fill="#AD3B45" d="M25.542,33.135l11.892-6.911c-0.002,0.024-0.003,0.048-0.005,0.073l-11.892,6.911
						C25.538,33.183,25.54,33.158,25.542,33.135"/><path fill="#B33D47" d="M25.537,33.207l11.892-6.911c-0.001,0.025-0.002,0.049-0.002,0.075l-11.892,6.911
						C25.536,33.257,25.536,33.232,25.537,33.207"/><path fill="#B83F49" d="M25.536,33.282l11.892-6.911c0,0.029,0,0.036,0.001,0.073l-11.892,6.911
						c-0.001-0.023-0.001-0.046-0.001-0.069C25.536,33.285,25.536,33.284,25.536,33.282"/><path fill="#BD404B" d="M25.537,33.355l11.892-6.911c0.001,0.024,0.002,0.049,0.003,0.074L25.54,33.429
						C25.538,33.405,25.537,33.38,25.537,33.355"/><path fill="#C2424E" d="M25.54,33.429l11.892-6.911c0.002,0.025,0.004,0.049,0.006,0.074l-11.892,6.911
						C25.544,33.479,25.542,33.454,25.54,33.429"/><path fill="#C74450" d="M25.546,33.504l11.892-6.911c0.002,0.025,0.005,0.05,0.008,0.075l-11.892,6.911
						C25.551,33.553,25.548,33.528,25.546,33.504"/><path fill="#CC4652" d="M25.554,33.579l11.892-6.911c0.003,0.026,0.007,0.051,0.011,0.077l-11.892,6.911
						C25.561,33.63,25.558,33.604,25.554,33.579"/><path fill="#D14754" d="M25.565,33.656l11.892-6.911c0.004,0.026,0.009,0.052,0.013,0.078l-11.892,6.911
						C25.574,33.707,25.569,33.681,25.565,33.656"/><path fill="#D64956" d="M25.579,33.733l11.892-6.911c0.005,0.027,0.01,0.053,0.016,0.08l-11.892,6.911
						C25.589,33.786,25.584,33.76,25.579,33.733"/><path fill="#DB4B58" d="M25.595,33.813l11.892-6.911c0.006,0.027,0.012,0.054,0.019,0.081l-11.892,6.911
						C25.607,33.867,25.601,33.84,25.595,33.813"/><path fill="#E04D5A" d="M25.614,33.894l11.892-6.911c0.007,0.027,0.014,0.054,0.021,0.082l-11.892,6.911
						C25.628,33.948,25.62,33.921,25.614,33.894"/><path fill="#E64E5C" d="M25.635,33.976l11.892-6.911c0.008,0.027,0.015,0.054,0.024,0.082l-11.892,6.911
						C25.651,34.03,25.643,34.003,25.635,33.976"/><path fill="#EB505E" d="M25.659,34.057l11.892-6.911c0.008,0.027,0.017,0.053,0.026,0.08l-11.892,6.911
						C25.676,34.11,25.667,34.084,25.659,34.057"/><path fill="#F05260" d="M25.685,34.137l11.892-6.911c0.009,0.026,0.018,0.053,0.027,0.079l-11.892,6.911
						C25.703,34.189,25.693,34.163,25.685,34.137"/><path fill="#F55462" d="M25.712,34.216l11.892-6.911c0.009,0.025,0.019,0.051,0.028,0.076l-11.892,6.911
						C25.731,34.266,25.721,34.241,25.712,34.216"/><path fill="#FA5564" d="M25.741,34.291l11.892-6.911c0.01,0.025,0.02,0.05,0.03,0.075l-11.892,6.911
						C25.76,34.342,25.75,34.317,25.741,34.291"/><path fill="#FF5766" d="M25.771,34.367l11.892-6.911c0.01,0.025,0.021,0.049,0.032,0.074L25.802,34.44
						C25.792,34.416,25.781,34.391,25.771,34.367"/><path fill="#FF6B78" d="M25.802,34.44l11.892-6.911c0.011,0.025,0.022,0.05,0.034,0.075l-11.892,6.911
						C25.825,34.49,25.813,34.465,25.802,34.44"/><path fill="#FF7480" d="M25.836,34.515l11.892-6.911c0.013,0.028,0.026,0.055,0.04,0.082l-11.892,6.911
						C25.863,34.57,25.849,34.543,25.836,34.515"/><path fill="#FF7A86" d="M25.876,34.597l11.892-6.911c0.016,0.031,0.032,0.062,0.048,0.093L25.924,34.69
						C25.908,34.66,25.892,34.629,25.876,34.597"/><path fill="#FF7F8B" d="M25.924,34.69l11.892-6.911c0.024,0.046,0.05,0.091,0.076,0.136l-11.892,6.911
						C25.974,34.782,25.949,34.736,25.924,34.69"/><path fill="#FF848F" d="M26.001,34.826l11.892-6.911c0.037,0.063,0.075,0.124,0.116,0.184l-11.892,6.911
						C26.076,34.95,26.037,34.889,26.001,34.826"/><path fill="#FF7F8B" d="M26.116,35.011L38.008,28.1c0.032,0.047,0.064,0.094,0.098,0.14L26.214,35.15
						C26.181,35.105,26.148,35.058,26.116,35.011"/><path fill="#FF7A86" d="M26.214,35.15l11.892-6.911c0.022,0.03,0.045,0.06,0.069,0.09L26.283,35.24
						C26.26,35.211,26.237,35.181,26.214,35.15"/><path fill="#FF7480" d="M26.283,35.24l11.892-6.911c0.02,0.025,0.039,0.049,0.059,0.074l-11.892,6.911
						C26.322,35.29,26.302,35.265,26.283,35.24"/><path fill="#FF6B78" d="M26.342,35.314l11.892-6.911c0.02,0.024,0.039,0.047,0.06,0.07l-11.892,6.911
						C26.382,35.361,26.362,35.337,26.342,35.314"/><path fill="#FF5766" d="M26.402,35.384l11.892-6.911c0.02,0.023,0.04,0.045,0.06,0.067L26.462,35.45
						C26.442,35.428,26.422,35.406,26.402,35.384"/><path fill="#FA5564" d="M26.462,35.45l11.892-6.911c0.021,0.022,0.042,0.045,0.063,0.066l-11.892,6.911
						C26.504,35.495,26.483,35.473,26.462,35.45"/><path fill="#F55462" d="M26.525,35.516l11.892-6.911c0.021,0.022,0.043,0.043,0.065,0.064L26.59,35.581
						C26.568,35.56,26.547,35.538,26.525,35.516"/><path fill="#F05260" d="M26.59,35.581l11.892-6.911c0.022,0.021,0.045,0.042,0.068,0.063l-11.892,6.911
						C26.635,35.623,26.613,35.602,26.59,35.581"/><path fill="#EB505E" d="M26.658,35.644l11.892-6.911c0.023,0.02,0.045,0.04,0.068,0.06l-11.892,6.911
						C26.703,35.684,26.68,35.664,26.658,35.644"/><path fill="#E64E5C" d="M26.726,35.703l11.892-6.911c0.023,0.019,0.045,0.038,0.068,0.056l-11.892,6.911
						C26.771,35.741,26.749,35.722,26.726,35.703"/><path fill="#E04D5A" d="M26.794,35.759l11.892-6.911c0.022,0.018,0.045,0.035,0.067,0.051L26.862,35.81
						C26.839,35.793,26.817,35.776,26.794,35.759"/><path fill="#DB4B58" d="M26.862,35.81l11.892-6.911c0.022,0.016,0.044,0.032,0.067,0.047l-11.892,6.911
						C26.906,35.842,26.884,35.826,26.862,35.81"/><path fill="#D64956" d="M26.928,35.857l11.892-6.911c0.021,0.015,0.043,0.029,0.065,0.043L26.993,35.9
						C26.971,35.886,26.95,35.872,26.928,35.857"/><path fill="#D14754" d="M26.993,35.9l11.892-6.911c0.021,0.014,0.043,0.027,0.065,0.04L27.057,35.94
						C27.036,35.927,27.014,35.914,26.993,35.9"/><path fill="#CC4652" d="M27.057,35.94l11.892-6.911c0.005,0.003,0.01,0.006,0.015,0.009l-11.892,6.911
						C27.067,35.946,27.062,35.943,27.057,35.94"/></g></g><g enable-background="new"><defs><path id="C" d="M36.88,23.672c-2.007,1.166,5.499-3.188-12.006,6.985
						c0.037-0.026,0.075-0.051,0.114-0.074C28.556,28.509,33.313,25.745,36.88,23.672z" enable-background="new"/></defs><clipPath id="D"><use overflow="visible" xlink:href="#C"/></clipPath><g clip-path="url(#D)" enable-background="new"><path fill="#7A7A7B" d="M24.988,30.582l11.892-6.911c-0.202,0.117-0.374,0.285-0.51,0.499l-11.892,6.911
						C24.614,30.867,24.787,30.699,24.988,30.582"/></g></g><g enable-background="new"><defs><path id="E" d="M41.058,30.861l-11.892,6.911c-0.046,0.027-0.093,0.051-0.142,0.072
						C32.988,35.54,41.012,30.887,41.058,30.861z" enable-background="new"/></defs><clipPath id="F"><use overflow="visible" xlink:href="#E"/></clipPath><g clip-path="url(#F)" enable-background="new"><path fill="#7A7A7B" d="M28.928,37.882c0.159-0.092,11.972-6.929,12.13-7.021l-11.892,6.911
						C29.091,37.815,29.011,37.852,28.928,37.882"/></g></g><polygon fill="#812C34" points="28.741 37.33 40.633 30.42 40.876 30.289 28.984 37.199"/><polygon fill="#802C33" points="28.541 36.432 40.433 29.522 40.197 29.664 28.305 36.575"/><polygon fill="#FDFDFD" points="28.541 36.432 40.433 29.522 40.876 30.289 28.984 37.199"/><polygon fill="#FFF" points="28.541 36.432 28.984 37.199 28.741 37.33 28.305 36.575"/><polygon fill="#FFF" points="25.421 31.027 25.857 31.783 25.614 31.914 25.178 31.158"/><path fill="#812C34" d="M25.614,31.914c1.241-0.72-4.496,2.609,12.135-7.042l-11.892,6.911L25.614,31.914z"/><polygon fill="#FDFDFD" points="25.421 31.027 37.312 24.117 37.749 24.872 25.857 31.783"/><path fill="#818181" d="M25.178,31.158c1.241-0.72-4.496,2.609,12.135-7.042l-11.892,6.911L25.178,31.158z"/><g enable-background="new"><defs><path id="G" d="M25.135,30.508c-0.05,0.022-0.099,0.047-0.146,0.074
						C40.928,21.32,41.095,21.233,25.135,30.508z" enable-background="new"/></defs><clipPath id="H"><use overflow="visible" xlink:href="#G"/></clipPath><g clip-path="url(#H)" enable-background="new"><path fill="#852D35" d="M24.988,30.582c12.615-7.321,11.894-6.937,12.13-7.021l-11.892,6.911
						C25.144,30.502,25.064,30.538,24.988,30.582"/></g></g><g enable-background="new"><defs><path id="I" d="M25.985,32.298c12.387-6.952,11.81-7.484,12.989-6.803l-11.892,6.911
						C26.655,32.158,26.266,32.135,25.985,32.298z" enable-background="new"/></defs><clipPath id="J"><use overflow="visible" xlink:href="#I"/></clipPath><g clip-path="url(#J)" enable-background="new"><path fill="#2F3336" d="M25.985,32.298c12.595-7.314,11.893-6.925,12.017-6.968L26.11,32.24
						C26.066,32.256,26.025,32.275,25.985,32.298"/><path fill="#313538" d="M26.11,32.24c12.677-7.347,11.822-6.905,11.999-6.94L26.218,32.21
						C26.181,32.218,26.145,32.228,26.11,32.24"/><path fill="#32373A" d="M26.218,32.21L38.109,25.3c0.029-0.006,0.059-0.01,0.089-0.013l-11.892,6.911
						C26.276,32.2,26.247,32.205,26.218,32.21"/><path fill="#34393C" d="M26.307,32.198l11.892-6.911c0.026-0.002,0.053-0.004,0.08-0.004l-11.892,6.911
						C26.36,32.194,26.333,32.195,26.307,32.198"/><path fill="#363B3E" d="M26.387,32.194l11.892-6.911c0.024,0,0.048,0.001,0.072,0.002l-11.892,6.911
						C26.435,32.194,26.41,32.194,26.387,32.194"/><path fill="#383D40" d="M26.459,32.196l11.892-6.911c0.023,0.002,0.046,0.004,0.069,0.007l-11.892,6.911
						C26.505,32.2,26.482,32.198,26.459,32.196"/><path fill="#3A3F43" d="M26.528,32.203l11.892-6.911c0.022,0.003,0.045,0.007,0.068,0.011l-11.892,6.911
						C26.573,32.21,26.55,32.206,26.528,32.203"/><path fill="#3B4145" d="M26.595,32.214l11.892-6.911c0.021,0.004,0.042,0.009,0.063,0.014l-11.892,6.911
						C26.637,32.223,26.616,32.218,26.595,32.214"/><path fill="#3D4347" d="M26.659,32.228l11.892-6.911c0.021,0.005,0.042,0.011,0.064,0.018l-11.892,6.911
						C26.701,32.239,26.68,32.234,26.659,32.228"/><path fill="#3F4549" d="M26.722,32.246l11.892-6.911c0.02,0.006,0.041,0.013,0.062,0.02l-11.892,6.911
						C26.763,32.259,26.743,32.252,26.722,32.246"/><path fill="#41474B" d="M26.784,32.266l11.892-6.911c0.021,0.007,0.041,0.015,0.062,0.023L26.846,32.29
						C26.826,32.281,26.805,32.273,26.784,32.266"/><path fill="#43494D" d="M26.846,32.29l11.892-6.911c0.02,0.008,0.041,0.017,0.062,0.026l-11.892,6.911
						C26.887,32.306,26.867,32.298,26.846,32.29"/><path fill="#444A4F" d="M26.908,32.316L38.8,25.405c0.021,0.009,0.041,0.019,0.062,0.029L26.97,32.345
						C26.95,32.335,26.929,32.325,26.908,32.316"/><path fill="#464C51" d="M26.97,32.345l11.892-6.911c0.021,0.01,0.042,0.021,0.063,0.033l-11.892,6.911
						C27.012,32.366,26.991,32.355,26.97,32.345"/><path fill="#484E53" d="M27.034,32.378l11.892-6.911c0.016,0.009,0.033,0.018,0.049,0.027l-11.892,6.911
						C27.066,32.396,27.05,32.387,27.034,32.378"/></g></g><g enable-background="new"><defs><path id="K" d="M40.061,29.146l-11.892,6.911c0.277-0.161,0.449-0.504,0.45-0.989
						c0.003-0.983-0.682-2.168-1.537-2.662l11.892-6.911c0.855,0.494,1.54,1.679,1.537,2.662
						C40.51,28.642,40.338,28.984,40.061,29.146z" enable-background="new"/></defs><clipPath id="L"><use overflow="visible" xlink:href="#K"/></clipPath><g clip-path="url(#L)" enable-background="new"><path fill="#484E53" d="M27.082,32.405l11.892-6.911c0.005,0.003,0.01,0.006,0.015,0.009l-11.892,6.911
						C27.093,32.411,27.088,32.408,27.082,32.405"/><path fill="#4A5055" d="M27.098,32.414l11.892-6.911c0.022,0.013,0.044,0.027,0.066,0.04l-11.892,6.911
						C27.142,32.441,27.12,32.427,27.098,32.414"/><path fill="#4C5257" d="M27.164,32.455l11.892-6.911c0.022,0.014,0.044,0.029,0.066,0.044L27.23,32.498
						C27.208,32.483,27.186,32.469,27.164,32.455"/><path fill="#4D5459" d="M27.23,32.498l11.892-6.911c0.023,0.016,0.045,0.032,0.068,0.048l-11.892,6.911
						C27.275,32.53,27.253,32.514,27.23,32.498"/><path fill="#4F565C" d="M27.298,32.546l11.892-6.911c0.023,0.017,0.046,0.034,0.068,0.052l-11.892,6.911
						C27.343,32.581,27.321,32.563,27.298,32.546"/><path fill="#51585E" d="M27.366,32.598l11.892-6.911c0.023,0.018,0.046,0.037,0.069,0.056l-11.892,6.911
						C27.412,32.635,27.389,32.617,27.366,32.598"/><path fill="#535A60" d="M27.435,32.655l11.892-6.911c0.023,0.02,0.046,0.04,0.069,0.06l-11.892,6.911
						C27.481,32.694,27.458,32.674,27.435,32.655"/><path fill="#555C62" d="M27.504,32.715l11.892-6.911c0.023,0.021,0.046,0.042,0.068,0.063l-11.892,6.911
						C27.549,32.757,27.527,32.735,27.504,32.715"/><path fill="#565E64" d="M27.572,32.778l11.892-6.911c0.022,0.021,0.044,0.042,0.065,0.064l-11.892,6.911
						C27.615,32.821,27.594,32.799,27.572,32.778"/><path fill="#586066" d="M27.637,32.842l11.892-6.911c0.021,0.022,0.042,0.044,0.063,0.066L27.7,32.908
						C27.679,32.886,27.658,32.864,27.637,32.842"/><path fill="#5A6268" d="M27.7,32.908l11.892-6.911c0.02,0.022,0.04,0.044,0.06,0.066L27.76,32.975
						C27.74,32.952,27.72,32.93,27.7,32.908"/><path fill="#6E757A" d="M27.76,32.975l11.892-6.911c0.02,0.023,0.04,0.046,0.059,0.069l-11.892,6.911
						C27.8,33.021,27.78,32.998,27.76,32.975"/><path fill="#767D82" d="M27.819,33.044l11.892-6.911c0.02,0.024,0.04,0.048,0.059,0.073l-11.892,6.911
						C27.859,33.092,27.839,33.068,27.819,33.044"/><path fill="#7C8387" d="M27.878,33.117l11.892-6.911c0.023,0.029,0.046,0.059,0.068,0.089l-11.892,6.911
						C27.924,33.176,27.901,33.146,27.878,33.117"/><path fill="#82888C" d="M27.946,33.206l11.892-6.911c0.033,0.045,0.066,0.091,0.097,0.138l-11.892,6.911
						C28.012,33.297,27.979,33.251,27.946,33.206"/><path fill="#868C91" d="M28.043,33.344l11.892-6.911c0.04,0.059,0.078,0.12,0.114,0.182l-11.892,6.911
						C28.121,33.464,28.083,33.404,28.043,33.344"/><path fill="#82888C" d="M28.157,33.526l11.892-6.911c0.026,0.044,0.051,0.089,0.076,0.135l-11.892,6.911
						C28.208,33.615,28.183,33.57,28.157,33.526"/><path fill="#7C8387" d="M28.233,33.661l11.892-6.911c0.016,0.03,0.032,0.061,0.047,0.092L28.28,33.753
						C28.265,33.722,28.249,33.691,28.233,33.661"/><path fill="#767D82" d="M28.28,33.753l11.892-6.911c0.013,0.027,0.026,0.053,0.039,0.08l-11.892,6.911
						C28.306,33.806,28.293,33.779,28.28,33.753"/><path fill="#6E757A" d="M28.319,33.833l11.892-6.911c0.012,0.025,0.023,0.049,0.034,0.074l-11.892,6.911
						C28.342,33.882,28.33,33.857,28.319,33.833"/><path fill="#5A6268" d="M28.353,33.907l11.892-6.911c0.011,0.024,0.021,0.049,0.031,0.073L28.384,33.98
						C28.374,33.956,28.363,33.931,28.353,33.907"/><path fill="#586066" d="M28.384,33.98l11.892-6.911c0.01,0.025,0.02,0.05,0.03,0.075l-11.892,6.911
						C28.404,34.03,28.394,34.005,28.384,33.98"/><path fill="#565E64" d="M28.414,34.055l11.892-6.911c0.01,0.025,0.019,0.05,0.028,0.075L28.442,34.13
						C28.433,34.105,28.424,34.08,28.414,34.055"/><path fill="#555C62" d="M28.442,34.13l11.892-6.911c0.009,0.026,0.019,0.052,0.027,0.078L28.47,34.208
						C28.461,34.182,28.452,34.156,28.442,34.13"/><path fill="#535A60" d="M28.47,34.208l11.892-6.911c0.009,0.027,0.017,0.053,0.026,0.08l-11.892,6.911
						C28.487,34.261,28.478,34.235,28.47,34.208"/><path fill="#51585E" d="M28.495,34.288l11.892-6.911c0.008,0.027,0.016,0.054,0.024,0.081l-11.892,6.911
						C28.511,34.342,28.503,34.315,28.495,34.288"/><path fill="#4F565C" d="M28.519,34.369l11.892-6.911c0.008,0.027,0.015,0.055,0.022,0.082L28.54,34.451
						C28.534,34.424,28.526,34.397,28.519,34.369"/><path fill="#4D5459" d="M28.54,34.451l11.892-6.911c0.007,0.027,0.013,0.054,0.019,0.081l-11.892,6.911
						C28.553,34.505,28.547,34.478,28.54,34.451"/><path fill="#4C5257" d="M28.559,34.532l11.892-6.911c0.006,0.027,0.011,0.054,0.016,0.081l-11.892,6.911
						C28.571,34.586,28.565,34.559,28.559,34.532"/><path fill="#4A5055" d="M28.576,34.613l11.892-6.911c0.005,0.026,0.009,0.052,0.014,0.078l-11.892,6.911
						C28.585,34.665,28.581,34.639,28.576,34.613"/><path fill="#484E53" d="M28.589,34.691l11.892-6.911c0.004,0.026,0.008,0.052,0.011,0.078L28.6,34.769
						C28.597,34.743,28.593,34.717,28.589,34.691"/><path fill="#464C51" d="M28.6,34.769l11.892-6.911c0.003,0.025,0.006,0.051,0.008,0.076l-11.892,6.911
						C28.606,34.82,28.604,34.795,28.6,34.769"/><path fill="#444A4F" d="M28.609,34.845l11.892-6.911c0.002,0.025,0.004,0.051,0.006,0.076l-11.892,6.911
						C28.613,34.896,28.611,34.871,28.609,34.845"/><path fill="#43494D" d="M28.615,34.921l11.892-6.911c0.002,0.025,0.003,0.05,0.004,0.075l-11.892,6.911
						C28.618,34.972,28.616,34.946,28.615,34.921"/><path fill="#41474B" d="M28.618,34.997l11.892-6.911c0.001,0.024,0.001,0.047,0.001,0.07c0,0.001,0,0.003,0,0.004
						l-11.892,6.911c0-0.001,0-0.003,0-0.004C28.619,35.044,28.619,35.02,28.618,34.997"/><path fill="#3F4549" d="M28.619,35.071l11.892-6.911c0,0.025-0.001,0.05-0.002,0.074l-11.892,6.911
						C28.619,35.121,28.619,35.097,28.619,35.071"/><path fill="#3D4347" d="M28.618,35.146l11.892-6.911c-0.001,0.025-0.003,0.049-0.004,0.073l-11.892,6.911
						C28.615,35.195,28.616,35.17,28.618,35.146"/><path fill="#3B4145" d="M28.613,35.218l11.892-6.911c-0.002,0.025-0.005,0.05-0.008,0.074l-11.892,6.911
						C28.608,35.268,28.611,35.244,28.613,35.218"/><path fill="#3A3F43" d="M28.605,35.293l11.892-6.911c-0.003,0.025-0.007,0.05-0.011,0.074l-11.892,6.911
						C28.599,35.342,28.602,35.318,28.605,35.293"/><path fill="#383D40" d="M28.594,35.366l11.892-6.911c-0.004,0.026-0.01,0.051-0.015,0.075l-11.892,6.911
						C28.585,35.417,28.59,35.392,28.594,35.366"/><path fill="#363B3E" d="M28.579,35.442l11.892-6.911c-0.006,0.027-0.013,0.053-0.021,0.079l-11.892,6.911
						C28.566,35.495,28.573,35.469,28.579,35.442"/><path fill="#34393C" d="M28.559,35.521L40.45,28.61c-0.008,0.028-0.017,0.055-0.027,0.081l-11.892,6.911
						C28.541,35.576,28.55,35.549,28.559,35.521"/><path fill="#32373A" d="M28.532,35.602l11.892-6.911c-0.011,0.03-0.024,0.06-0.037,0.088L28.495,35.69
						C28.508,35.662,28.52,35.632,28.532,35.602"/><path fill="#313538" d="M28.495,35.69l11.892-6.911c-0.018,0.037-0.037,0.073-0.058,0.106l-11.892,6.911
						C28.457,35.762,28.477,35.727,28.495,35.69"/><path fill="#2F3336" d="M28.436,35.795l11.892-6.911c-0.071,0.112-0.162,0.2-0.267,0.261l-11.892,6.911
						C28.275,35.995,28.365,35.907,28.436,35.795"/></g></g><polygon fill="#C5434F" points="28.983 35.084 40.875 28.173 40.874 28.56 28.982 35.47"/><polygon fill="#DC4B58" points="26.915 31.89 38.807 24.979 39.144 25.174 27.252 32.085"/><polygon fill="#DC4B58" points="28.982 35.47 40.874 28.56 41.5 28.921 29.608 35.832"/><polygon fill="#C5434F" points="26.917 31.171 38.809 24.26 38.807 24.979 26.915 31.89"/><path fill="#303538" d="M27.082,32.405c0.855,0.494,1.54,1.679,1.537,2.662c-0.007,2.338-3.09,0.568-3.084-1.78
					C25.538,32.304,26.234,31.915,27.082,32.405z"/><polygon fill="#DCDCDC" points="28.983 35.084 40.875 28.173 41.501 28.534 29.61 35.445"/><polygon fill="#C5C5C5" points="29.61 35.445 41.501 28.534 41.5 28.921 29.608 35.832"/><g enable-background="new"><defs><path id="M" d="M41.176,30.784c-0.101,0.073-12.109,7.045-12.009,6.987
						c0.04-0.023,0.08-0.049,0.117-0.076C33.248,35.391,37.212,33.088,41.176,30.784z" enable-background="new"/></defs><clipPath id="N"><use overflow="visible" xlink:href="#M"/></clipPath><g clip-path="url(#N)" enable-background="new"><path fill="#852D35" d="M29.677,37.273l11.892-6.911c-0.136,0.214-0.309,0.381-0.51,0.499l-11.892,6.911
						C29.368,37.654,29.541,37.487,29.677,37.273"/></g></g><polygon fill="#FFF" points="29.61 35.445 29.608 35.832 28.982 35.47 28.983 35.084"/><polygon fill="#C5C5C5" points="27.254 31.365 39.146 24.454 39.144 25.174 27.252 32.085"/><polygon fill="#DCDCDC" points="26.917 31.171 38.809 24.26 39.146 24.454 27.254 31.365"/><g enable-background="new"><defs><path id="O" d="M38.979,23.877l-11.892,6.911c-0.748-0.432-1.431-0.506-1.952-0.28
						C38.162,22.938,37.349,22.936,38.979,23.877z" enable-background="new"/></defs><clipPath id="P"><use overflow="visible" xlink:href="#O"/></clipPath><g clip-path="url(#P)" enable-background="new"><path fill="#852D35" d="M24.988,30.582c12.615-7.321,11.894-6.937,12.13-7.021l-11.892,6.911
						C25.144,30.502,25.064,30.538,24.988,30.582"/><path fill="#8A2F37" d="M25.227,30.472c12.689-7.336,11.76-6.9,12.098-6.967l-11.892,6.911
						C25.362,30.43,25.293,30.448,25.227,30.472"/><path fill="#8F3139" d="M25.433,30.415l11.892-6.911c0.055-0.011,0.112-0.019,0.17-0.025l-11.892,6.911
						C25.545,30.396,25.488,30.404,25.433,30.415"/><path fill="#94323B" d="M25.603,30.391l11.892-6.911c0.05-0.005,0.101-0.007,0.153-0.007l-11.892,6.911
						C25.704,30.384,25.653,30.386,25.603,30.391"/><path fill="#99343D" d="M25.756,30.383l11.892-6.911c0.045,0,0.092,0.001,0.138,0.005l-11.892,6.911
						C25.847,30.385,25.801,30.383,25.756,30.383"/><path fill="#9E363F" d="M25.894,30.388l11.892-6.911c0.043,0.003,0.087,0.007,0.131,0.013l-11.892,6.911
						C25.981,30.395,25.937,30.391,25.894,30.388"/><path fill="#A33841" d="M26.025,30.401l11.892-6.911c0.043,0.006,0.086,0.013,0.129,0.021l-11.892,6.911
						C26.111,30.414,26.068,30.407,26.025,30.401"/><path fill="#A83943" d="M26.155,30.423l11.892-6.911c0.04,0.008,0.08,0.017,0.121,0.027L26.275,30.45
						C26.235,30.439,26.194,30.43,26.155,30.423"/><path fill="#AD3B45" d="M26.275,30.45l11.892-6.911c0.04,0.01,0.081,0.021,0.122,0.034l-11.892,6.911
						C26.356,30.471,26.316,30.46,26.275,30.45"/><path fill="#B33D47" d="M26.397,30.483l11.892-6.911c0.039,0.012,0.078,0.025,0.118,0.039l-11.892,6.911
						C26.476,30.508,26.436,30.495,26.397,30.483"/><path fill="#B83F49" d="M26.515,30.522l11.892-6.911c0.039,0.014,0.079,0.029,0.119,0.045l-11.892,6.911
						C26.595,30.551,26.555,30.536,26.515,30.522"/><path fill="#BD404B" d="M26.635,30.567l11.892-6.911c0.039,0.016,0.078,0.032,0.118,0.05l-11.892,6.911
						C26.713,30.599,26.674,30.582,26.635,30.567"/><path fill="#C2424E" d="M26.753,30.617l11.892-6.911c0.04,0.018,0.079,0.037,0.12,0.056l-11.892,6.911
						C26.832,30.653,26.792,30.634,26.753,30.617"/><path fill="#C74450" d="M26.872,30.673l11.892-6.911c0.04,0.02,0.08,0.041,0.121,0.063l-11.892,6.911
						C26.953,30.714,26.912,30.693,26.872,30.673"/><path fill="#CC4652" d="M26.993,30.736l11.892-6.911c0.031,0.017,0.062,0.034,0.094,0.053l-11.892,6.911
						C27.056,30.77,27.024,30.753,26.993,30.736"/></g></g><g enable-background="new"><defs><path id="Q" d="M41.918,28.969c-0.005,1.849,0.427,1.136-12.634,8.726
						c0.46-0.333,0.74-0.956,0.742-1.816c0.003-1.011-0.379-2.14-0.988-3.114c3.964-2.304,7.928-4.607,11.892-6.91
						C41.539,26.828,41.921,27.958,41.918,28.969z" enable-background="new"/></defs><clipPath id="R"><use overflow="visible" xlink:href="#Q"/></clipPath><g clip-path="url(#R)" enable-background="new"><path fill="#FF848F" d="M28.921,32.585l11.892-6.911c0.076,0.114,0.149,0.23,0.219,0.348L29.14,32.933
						C29.07,32.815,28.997,32.698,28.921,32.585"/><path fill="#FF7F8B" d="M29.14,32.933l11.892-6.911c0.05,0.085,0.099,0.172,0.145,0.259l-11.892,6.911
						C29.238,33.105,29.19,33.018,29.14,32.933"/><path fill="#FF7A86" d="M29.285,33.192l11.892-6.911c0.031,0.058,0.062,0.117,0.091,0.176l-11.892,6.911
						C29.347,33.309,29.316,33.25,29.285,33.192"/><path fill="#FF7480" d="M29.376,33.368l11.892-6.911c0.026,0.051,0.051,0.103,0.075,0.155l-11.892,6.911
						C29.427,33.471,29.402,33.42,29.376,33.368"/><path fill="#FF6B78" d="M29.451,33.523l11.892-6.911c0.022,0.047,0.044,0.095,0.065,0.143l-11.892,6.911
						C29.495,33.618,29.473,33.571,29.451,33.523"/><path fill="#FF5766" d="M29.516,33.666l11.892-6.911c0.021,0.047,0.041,0.094,0.06,0.141l-11.892,6.911
						C29.557,33.76,29.537,33.713,29.516,33.666"/><path fill="#FA5564" d="M29.577,33.807l11.892-6.911c0.02,0.048,0.039,0.095,0.058,0.143L29.634,33.95
						C29.616,33.903,29.596,33.855,29.577,33.807"/><path fill="#F55462" d="M29.634,33.95l11.892-6.911c0.019,0.048,0.037,0.096,0.054,0.144l-11.892,6.911
						C29.671,34.047,29.653,33.999,29.634,33.95"/><path fill="#F05260" d="M29.689,34.095l11.892-6.911c0.018,0.05,0.036,0.1,0.052,0.15l-11.892,6.911
						C29.724,34.195,29.707,34.145,29.689,34.095"/><path fill="#EB505E" d="M29.741,34.245l11.892-6.911c0.017,0.051,0.033,0.102,0.049,0.152L29.79,34.397
						C29.774,34.347,29.758,34.296,29.741,34.245"/><path fill="#E64E5C" d="M29.79,34.397l11.892-6.911c0.016,0.052,0.031,0.104,0.045,0.156l-11.892,6.911
						C29.821,34.501,29.806,34.449,29.79,34.397"/><path fill="#E04D5A" d="M29.835,34.553l11.892-6.911c0.014,0.052,0.028,0.104,0.041,0.156L29.876,34.71
						C29.863,34.657,29.85,34.605,29.835,34.553"/><path fill="#DB4B58" d="M29.876,34.71l11.892-6.911c0.013,0.052,0.025,0.103,0.036,0.155l-11.892,6.911
						C29.901,34.813,29.889,34.761,29.876,34.71"/><path fill="#D64956" d="M29.912,34.864l11.892-6.911c0.011,0.051,0.022,0.103,0.031,0.154l-11.892,6.911
						C29.934,34.967,29.924,34.915,29.912,34.864"/><path fill="#D14754" d="M29.944,35.018l11.892-6.911c0.009,0.05,0.018,0.1,0.026,0.149l-11.892,6.911
						C29.962,35.118,29.953,35.068,29.944,35.018"/><path fill="#CC4652" d="M29.969,35.167l11.892-6.911c0.008,0.05,0.015,0.099,0.021,0.148L29.99,35.315
						C29.984,35.266,29.977,35.217,29.969,35.167"/><path fill="#C74450" d="M29.99,35.315l11.892-6.911c0.006,0.048,0.011,0.097,0.016,0.145L30.007,35.46
						C30.002,35.412,29.997,35.364,29.99,35.315"/><path fill="#C2424E" d="M30.007,35.46l11.892-6.911c0.005,0.048,0.008,0.096,0.011,0.144l-11.892,6.911
						C30.015,35.556,30.011,35.508,30.007,35.46"/><path fill="#BD404B" d="M30.018,35.603l11.892-6.911c0.003,0.048,0.005,0.095,0.007,0.143l-11.892,6.911
						C30.023,35.699,30.021,35.651,30.018,35.603"/><path fill="#B83F49" d="M30.025,35.746l11.892-6.911c0.001,0.045,0.002,0.089,0.002,0.133c0,0.003,0,0.006,0,0.008
						l-11.892,6.911c0-0.003,0-0.006,0-0.008C30.027,35.835,30.026,35.791,30.025,35.746"/><path fill="#B33D47" d="M30.026,35.888l11.892-6.911c0,0.048-0.001,0.096-0.003,0.143l-11.892,6.911
						C30.025,35.984,30.026,35.936,30.026,35.888"/><path fill="#AD3B45" d="M30.023,36.031l11.892-6.911c-0.002,0.047-0.005,0.094-0.009,0.139L30.014,36.17
						C30.018,36.124,30.021,36.078,30.023,36.031"/><path fill="#A83943" d="M30.014,36.17l11.892-6.911c-0.004,0.048-0.009,0.096-0.015,0.142L30,36.312
						C30.006,36.266,30.011,36.218,30.014,36.17"/><path fill="#A33841" d="M30,36.312l11.892-6.911c-0.006,0.048-0.013,0.095-0.021,0.141l-11.892,6.911
						C29.987,36.407,29.994,36.36,30,36.312"/><path fill="#9E363F" d="M29.979,36.453l11.892-6.911c-0.009,0.049-0.018,0.097-0.029,0.144L29.95,36.597
						C29.96,36.55,29.97,36.502,29.979,36.453"/><path fill="#99343D" d="M29.95,36.597l11.892-6.911c-0.012,0.052-0.025,0.102-0.039,0.151L29.91,36.748
						C29.925,36.699,29.938,36.649,29.95,36.597"/><path fill="#94323B" d="M29.91,36.748l11.892-6.911c-0.016,0.053-0.033,0.105-0.052,0.155l-11.892,6.911
						C29.878,36.853,29.895,36.801,29.91,36.748"/><path fill="#8F3139" d="M29.859,36.903l11.892-6.911c-0.022,0.058-0.045,0.114-0.071,0.168l-11.892,6.911
						C29.814,37.017,29.837,36.962,29.859,36.903"/><path fill="#8A2F37" d="M29.788,37.071L41.68,30.16c-0.034,0.071-0.071,0.138-0.111,0.202l-11.892,6.911
						C29.717,37.21,29.754,37.142,29.788,37.071"/><path fill="#852D35" d="M29.677,37.273l11.892-6.911c-0.136,0.214-0.309,0.381-0.51,0.499l-11.892,6.911
						C29.368,37.654,29.541,37.487,29.677,37.273"/></g></g><polygon fill="#818181" points="28.314 33.202 40.206 26.291 40.645 26.041 28.753 32.951"/><polygon fill="#FFF" points="28.753 32.951 28.995 33.362 28.549 33.608 28.314 33.202"/><g enable-background="new"><defs><path id="S" d="M38.979,23.877c0.75,0.433,1.433,1.149,1.951,1.978
						c-3.964,2.303-7.928,4.607-11.892,6.911c-0.519-0.829-1.202-1.545-1.951-1.978C30.655,28.715,35.411,25.951,38.979,23.877z" enable-background="new"/></defs><clipPath id="T"><use overflow="visible" xlink:href="#S"/></clipPath><g clip-path="url(#T)" enable-background="new"><path fill="#CC4652" d="M27.087,30.788l11.892-6.911c0.01,0.006,0.019,0.011,0.029,0.017l-11.892,6.911
						C27.106,30.799,27.097,30.794,27.087,30.788"/><path fill="#D14754" d="M27.116,30.805l11.892-6.911c0.042,0.025,0.084,0.05,0.125,0.077l-11.892,6.911
						C27.2,30.855,27.158,30.83,27.116,30.805"/><path fill="#D64956" d="M27.241,30.882l11.892-6.911c0.042,0.027,0.084,0.054,0.125,0.083l-11.892,6.911
						C27.325,30.936,27.283,30.908,27.241,30.882"/><path fill="#DB4B58" d="M27.366,30.965l11.892-6.911c0.043,0.03,0.086,0.06,0.128,0.091l-11.892,6.911
						C27.452,31.024,27.409,30.994,27.366,30.965"/><path fill="#E04D5A" d="M27.495,31.056l11.892-6.911c0.043,0.032,0.087,0.065,0.13,0.099l-11.892,6.911
						C27.581,31.121,27.538,31.088,27.495,31.056"/><path fill="#E64E5C" d="M27.624,31.155l11.892-6.911c0.044,0.035,0.088,0.071,0.131,0.107l-11.892,6.911
						C27.712,31.225,27.668,31.189,27.624,31.155"/><path fill="#EB505E" d="M27.756,31.262l11.892-6.911c0.044,0.037,0.088,0.075,0.131,0.114l-11.892,6.911
						C27.843,31.337,27.8,31.299,27.756,31.262"/><path fill="#F05260" d="M27.887,31.376l11.892-6.911c0.044,0.039,0.087,0.08,0.13,0.121l-11.892,6.911
						C27.974,31.456,27.93,31.416,27.887,31.376"/><path fill="#F55462" d="M28.016,31.497l11.892-6.911c0.042,0.04,0.083,0.081,0.124,0.123L28.141,31.62
						C28.1,31.578,28.058,31.537,28.016,31.497"/><path fill="#FA5564" d="M28.141,31.62l11.892-6.911c0.041,0.041,0.081,0.083,0.121,0.126l-11.892,6.911
						C28.221,31.703,28.181,31.661,28.141,31.62"/><path fill="#FF5766" d="M28.261,31.746l11.892-6.911c0.039,0.042,0.077,0.084,0.115,0.127l-11.892,6.911
						C28.338,31.83,28.3,31.788,28.261,31.746"/><path fill="#FF6B78" d="M28.376,31.873l11.892-6.911c0.038,0.044,0.076,0.088,0.114,0.133L28.49,32.006
						C28.452,31.961,28.414,31.917,28.376,31.873"/><path fill="#FF7480" d="M28.49,32.006l11.892-6.911c0.038,0.046,0.076,0.093,0.114,0.14l-11.892,6.911
						C28.566,32.099,28.528,32.052,28.49,32.006"/><path fill="#FF7A86" d="M28.603,32.147l11.892-6.911c0.044,0.056,0.088,0.114,0.131,0.172l-11.892,6.911
						C28.692,32.261,28.648,32.203,28.603,32.147"/><path fill="#FF7F8B" d="M28.734,32.319l11.892-6.911c0.064,0.087,0.126,0.176,0.187,0.266l-11.892,6.911
						C28.861,32.494,28.799,32.406,28.734,32.319"/><path fill="#FF848F" d="M28.921,32.585l11.892-6.911c0.076,0.114,0.149,0.23,0.219,0.348L29.14,32.933
						C29.07,32.815,28.997,32.698,28.921,32.585"/></g></g><polygon fill="#FFF" points="27.24 36.463 27.238 37.175 26.901 36.981 26.903 36.269"/><path fill="#FF5766" d="M27.087,30.788c1.629,0.941,2.945,3.219,2.939,5.091c-0.005,1.872-1.329,2.627-2.959,1.686
				c-1.629-0.941-2.945-3.219-2.939-5.091C24.134,30.602,25.458,29.848,27.087,30.788z M27.072,35.948
				c0.855,0.494,1.544,0.093,1.547-0.882c0.003-0.983-0.682-2.168-1.537-2.662c-0.848-0.49-1.544-0.101-1.547,0.882
				C25.533,34.261,26.224,35.459,27.072,35.948 M25.408,35.406l0.439-0.25l-0.242-0.418l-0.439,0.258L25.408,35.406 M28.741,37.33
				l0.243-0.131l-0.443-0.767l-0.236,0.142L28.741,37.33 M25.421,31.027l-0.243,0.131l0.436,0.756l0.243-0.131L25.421,31.027
				 M28.753,32.951l-0.439,0.25l0.235,0.407l0.446-0.246L28.753,32.951 M26.917,31.171l-0.002,0.719l0.337,0.194l0.002-0.719
				L26.917,31.171 M28.982,35.47l0.626,0.362l0.001-0.387l-0.626-0.362L28.982,35.47 M27.238,37.175l0.002-0.712l-0.337-0.194
				l-0.002,0.712L27.238,37.175 M24.552,32.913l0.619,0.358l0.001-0.387l-0.619-0.358L24.552,32.913"/><path fill="#D3D3D3" d="M30.553,21.545L7.324,8.134C6.422,7.613,5.686,8.025,5.683,9.062l-0.017,5.864
					c-0.001,0.449,0.321,1.007,0.718,1.236l1.057,0.61l6.437,3.716l8.995,5.193l-1.948,11.63L5.628,28.48L5.62,31.134l26.81,15.479
					c0.016-5.747,0.027-9.599,0.044-15.388l0.009-3.311C32.321,26.827,33.293,23.127,30.553,21.545z M11.34,16.365
					c-0.002,0.542-0.386,0.753-0.851,0.485c-0.471-0.272-0.847-0.923-0.846-1.465l0.009-3.095c0.002-0.542,0.38-0.757,0.851-0.485
					c0.465,0.268,0.847,0.923,0.846,1.465L11.34,16.365 M27.068,37.565c-1.629-0.941-2.945-3.219-2.939-5.091
					c0.005-1.872,1.329-2.627,2.959-1.686c1.629,0.941,2.945,3.219,2.939,5.091C30.021,37.752,28.697,38.506,27.068,37.565"/><polygon fill="#202427" points="10.277 15.798 10.281 14.397 10.671 14.623 10.667 16.023"/><polygon fill="#FFF" points="27.254 31.365 27.252 32.085 26.915 31.89 26.917 31.171"/><path fill="#EAEAEC" d="M32.492,24.896l-0.009,3.017l-0.009,3.311c-0.016,5.771-0.027,9.623-0.044,15.388l11.892-6.911
				c0-0.161,0.008-2.819,0.008-2.654c0.008-2.876,0.041-14.32,0.054-19.063L32.492,24.896z"/><polygon fill="#EAEAEC" points="7.324 8.134 19.216 1.223 42.444 14.634 30.553 21.545"/><g enable-background="new"><path fill="#BBBBBD" d="M30.553,21.545l11.892-6.911c0.006,0.004,0.013,0.007,0.019,0.011l-11.892,6.911
					C30.565,21.552,30.559,21.549,30.553,21.545"/><path fill="#F1F1F3" d="M42.463,14.645l-0.002,0.001c-0.006-0.003-0.011-0.009-0.017-0.012l-11.892,6.911
					c1.071,0.618,1.943,2.124,1.939,3.352l11.892-6.911C44.387,16.748,43.511,15.261,42.463,14.645z"/></g><polygon fill="#3C4349" points="10.673 14.004 10.673 14.004 10.676 12.828 10.286 12.603 10.282 13.778 10.53 13.921 10.282 13.778 9.952 13.588 9.951 14.207 10.281 14.397 10.671 14.623 11.001 14.813 11.003 14.194"/></g><g enable-background="new"><g enable-background="new"><path fill="#2F3336" d="M25.242,32.748l0.743-0.432c0.04-0.023,0.081-0.042,0.125-0.058l-0.743,0.432
					C25.323,32.706,25.281,32.725,25.242,32.748"/><path fill="#313538" d="M25.367,32.69l0.743-0.432c0.035-0.012,0.071-0.022,0.108-0.03l-0.743,0.432
					C25.437,32.668,25.401,32.678,25.367,32.69"/></g><path fill="#4F565C" d="M28.618,35.015c-0.001-0.025-0.002-0.05-0.004-0.075c-0.002-0.025-0.004-0.05-0.006-0.076
				c-0.002-0.025-0.005-0.051-0.008-0.076c-0.003-0.026-0.007-0.052-0.011-0.078c-0.004-0.026-0.009-0.052-0.014-0.078
				c-0.005-0.027-0.01-0.054-0.016-0.081c-0.006-0.027-0.012-0.054-0.019-0.081c-0.007-0.027-0.014-0.055-0.021-0.082
				c-0.008-0.027-0.015-0.054-0.024-0.081c-0.008-0.027-0.017-0.053-0.026-0.08c-0.009-0.026-0.018-0.052-0.027-0.078
				c-0.009-0.025-0.019-0.05-0.028-0.075c-0.01-0.025-0.02-0.05-0.03-0.075c-0.01-0.025-0.021-0.049-0.031-0.073l-0.001,0l0,0
				l0.001,0c-0.011-0.025-0.022-0.05-0.034-0.074c-0.013-0.027-0.026-0.054-0.039-0.08c-0.015-0.031-0.031-0.061-0.047-0.092
				c-0.017-0.033-0.036-0.065-0.054-0.097c-0.004-0.006-0.007-0.012-0.01-0.018c-0.004-0.007-0.007-0.013-0.011-0.02
				c-0.036-0.062-0.074-0.122-0.114-0.182c-0.031-0.047-0.064-0.093-0.097-0.138c0,0,0,0-0.001-0.001c0,0,0,0,0,0
				c-0.022-0.03-0.044-0.059-0.067-0.088c-0.019-0.025-0.039-0.049-0.059-0.073c-0.02-0.023-0.039-0.047-0.059-0.069
				c-0.02-0.022-0.04-0.045-0.06-0.066c-0.021-0.022-0.042-0.044-0.063-0.066c-0.021-0.022-0.043-0.043-0.065-0.064
				c-0.022-0.021-0.045-0.043-0.068-0.063c-0.023-0.02-0.046-0.041-0.069-0.06c-0.023-0.019-0.046-0.038-0.069-0.056
				c-0.023-0.018-0.045-0.035-0.068-0.052c-0.022-0.016-0.045-0.033-0.068-0.048c-0.022-0.015-0.044-0.03-0.066-0.044
				c-0.022-0.014-0.044-0.027-0.066-0.04c-0.005-0.003-0.01-0.006-0.015-0.009c-0.016-0.009-0.033-0.019-0.049-0.027
				c-0.021-0.011-0.042-0.022-0.063-0.033c-0.021-0.01-0.042-0.02-0.062-0.029c-0.021-0.009-0.041-0.018-0.062-0.026
				c-0.021-0.008-0.042-0.016-0.062-0.023c-0.004-0.001-0.008-0.003-0.012-0.004c-0.002-0.001-0.003-0.001-0.005-0.002
				c-0.015-0.005-0.03-0.01-0.045-0.015c-0.021-0.007-0.043-0.012-0.064-0.018c-0.021-0.005-0.042-0.01-0.063-0.014
				c-0.023-0.004-0.045-0.008-0.068-0.011c-0.015-0.002-0.03-0.003-0.045-0.005c-0.002,0-0.005-0.001-0.007-0.001
				c-0.005,0-0.011-0.001-0.017-0.002c-0.024-0.002-0.049-0.003-0.072-0.002c-0.027,0-0.054,0.001-0.08,0.004
				c-0.03,0.003-0.06,0.007-0.089,0.013l-0.001,0c-0.083,0.017-0.161,0.046-0.232,0.087l-0.743,0.432
				c0.14-0.081,0.306-0.116,0.491-0.1c0.002,0,0.005,0.001,0.007,0.001c0.091,0.008,0.186,0.029,0.285,0.062
				c0.001,0,0.003,0.001,0.004,0.001c0.1,0.034,0.204,0.082,0.311,0.143c0.159,0.092,0.312,0.208,0.456,0.342
				c0.002,0.002,0.004,0.004,0.006,0.005c0.144,0.135,0.278,0.287,0.4,0.452l0.001,0.001c0.08,0.109,0.155,0.223,0.223,0.341
				c0.003,0.005,0.006,0.011,0.009,0.016c0.274,0.478,0.443,1.016,0.442,1.504c0,0.119-0.011,0.229-0.031,0.331
				c-0.001,0.003-0.001,0.006-0.002,0.009c-0.02,0.099-0.049,0.19-0.087,0.27c-0.001,0.002-0.001,0.003-0.002,0.005
				c-0.025,0.053-0.058,0.095-0.09,0.139c-0.067,0.094-0.142,0.176-0.235,0.23h0l0,0l0.743-0.432
				c0.093-0.054,0.169-0.136,0.235-0.23c0.008-0.012,0.022-0.017,0.03-0.029c0.021-0.033,0.04-0.068,0.058-0.105
				c0.001-0.002,0.001-0.004,0.002-0.005c0.001-0.001,0.001-0.003,0.002-0.004c0.011-0.025,0.023-0.051,0.033-0.077
				c0.01-0.026,0.019-0.053,0.027-0.081c0.007-0.025,0.014-0.051,0.02-0.078c0.003-0.011,0.004-0.023,0.007-0.034
				c0.001-0.003,0.001-0.007,0.002-0.01c0.002-0.01,0.004-0.021,0.006-0.031c0.004-0.024,0.008-0.048,0.011-0.073
				c0.003-0.024,0.006-0.049,0.008-0.074c0.002-0.024,0.003-0.048,0.004-0.073c0.001-0.024,0.002-0.049,0.002-0.074
				c0-0.001,0-0.003,0-0.004C28.619,35.062,28.619,35.038,28.618,35.015z"/><path fill="#303538" d="M26.339,32.855c0.855,0.494,1.54,1.679,1.537,2.662c-0.007,2.326-3.09,0.565-3.084-1.78
					C24.795,32.754,25.491,32.366,26.339,32.855z"/></g><g enable-background="new"><polygon fill="#3D4247" points="10.265 14.62 11.008 14.188 11.006 14.807 10.263 15.239"/><polygon fill="#5A6268" points="9.208 14.01 9.951 13.578 11.008 14.188 10.265 14.62"/><polygon fill="#2A2E31" points="10.265 14.62 10.263 15.239 9.206 14.629 9.208 14.01"/></g><path fill="#F74457" d="M21.69,3.995l-0.002,2.79c-0.001,0.141-0.01,2.131-0.01,2.008c-0.01,0.58,0.016,0.659-0.049,0.833
			c0,0.005-0.002,0.01-0.002,0.015c-0.268,0.804-2.259,1.425-3.689,0.623c-0.432-0.249-0.647-0.577-0.647-0.904l0.002-0.645
			l0.012-1.946l0.002-2.78c0,0.325,0.217,0.652,0.647,0.899C19.165,5.607,21.69,5.195,21.69,3.995z"/><path fill="#FF5766" d="M21.044,3.092c2.05,1.184-1.025,2.988-3.09,1.796C15.907,3.706,18.973,1.896,21.044,3.092z"/><g enable-background="new"><g enable-background="new"><path fill="#1F95D3" d="M20.599,3.621C20.595,3.753,20.582,4.283,20.599,3.621"/><path fill="#D3D3D3" d="M20.599,3.621c-0.003,0.786-2.195,0.848-2.193-0.006c0.023,0.147-0.182,0.839,0.937,0.932
						c0.383,0.032,0.914-0.064,1.15-0.363c0.022-0.028,0.055-0.08,0.073-0.128c0-0.001,0.005-0.018,0.006-0.022
						C20.606,3.926,20.58,4.064,20.599,3.621z"/></g><path fill="#EAEAEC" d="M20.275,3.169c1.025,0.592-0.513,1.494-1.545,0.898C17.706,3.476,19.239,2.571,20.275,3.169z"/></g><path fill="#F74457" d="M21.69,3.995l-0.002,2.79c-0.085,0.232-0.286,0.452-0.596,0.633c-0.875,0.508-2.296,0.508-3.173,0
			c-0.222-0.127-0.388-0.274-0.498-0.432c-0.051-0.071-0.09-0.144-0.115-0.217l0.002-2.78c0,0.325,0.217,0.652,0.647,0.899
			C19.165,5.607,21.69,5.195,21.69,3.995z"/><g enable-background="new"><g enable-background="new"><path fill="#1F95D3" d="M19.986,3.404C19.984,3.534,19.978,4.065,19.986,3.404"/><path fill="#4F565C" d="M19.986,3.404c-0.001,0.233-0.434,0.312-0.663,0.26c-0.002-0.001-0.004-0.001-0.007-0.002
						c-0.14-0.033-0.301-0.121-0.301-0.261c0.04,0.409-0.048,0.693,0.678,0.563c0.049-0.012,0.085-0.02,0.149-0.057
						c0.034-0.024,0.03-0.021,0.03-0.021c0.012-0.008,0.024-0.016,0.034-0.025c0.001-0.001,0.002-0.002,0.003-0.002
						c0.011-0.01,0.021-0.021,0.03-0.032c0.002-0.003,0.003-0.005,0.005-0.008c0.005-0.006,0.007-0.012,0.014-0.021
						c0.005-0.009,0.009-0.018,0.013-0.028c0.001-0.001,0.001-0.003,0.001-0.004c0.005-0.015,0.005-0.018,0.007-0.023
						c0.002-0.009,0.003-0.019,0.003-0.028l0-0.004l0,0L19.986,3.404z"/></g><path fill="#7E858B" d="M19.842,3.203c0.454,0.262-0.227,0.662-0.684,0.398C18.705,3.339,19.384,2.938,19.842,3.203z"/></g><path fill="#73BD1E" d="M29.808,8.165c0,0.103-0.013,4.9-0.012,4.798c-0.017,0.411,0.032,0.619-0.049,0.833
			c0,0.005-0.002,0.01-0.002,0.015c-0.482,1.443-4.336,1.209-4.336-0.281c0.001-0.103,0.016-2.757,0.015-2.591l0.002-2.78
			C25.425,9.798,29.808,9.819,29.808,8.165z"/><path fill="#ABDA32" d="M29.162,7.261c2.05,1.184-1.025,2.988-3.09,1.796c-0.859-0.496-0.864-1.299-0.01-1.796
				C26.916,6.765,28.302,6.765,29.162,7.261z"/><g enable-background="new"><g enable-background="new"><path fill="#1F95D3" d="M28.717,7.79C28.713,7.922,28.7,8.452,28.717,7.79"/><path fill="#D3D3D3" d="M28.717,7.79c-0.003,0.825-2.195,0.822-2.193-0.006c0.03,0.189-0.198,1.076,1.279,0.929
						c0.349-0.035,0.701-0.223,0.601-0.185c0.1-0.078,0.215-0.132,0.28-0.304c0-0.001,0.005-0.018,0.006-0.022
						c0.011-0.034,0.017-0.055,0.019-0.103l0-0.01l0,0L28.717,7.79z"/></g><path fill="#EAEAEC" d="M28.393,7.338c0.429,0.248,0.432,0.65,0.005,0.898c-1.029,0.598-2.572-0.307-1.555-0.898
						C27.27,7.09,27.963,7.09,28.393,7.338z"/></g><path fill="#73BD1E" d="M29.808,8.165l-0.002,2.79c-0.511,1.387-3.941,1.308-4.382-0.017l0.002-2.78
			C25.425,9.798,29.808,9.819,29.808,8.165z"/><g enable-background="new"><g enable-background="new"><path fill="#1F95D3" d="M28.104,7.573C28.102,7.703,28.096,8.235,28.104,7.573"/><path fill="#4F565C" d="M28.104,7.573c-0.001,0.358-0.972,0.374-0.971-0.003c0.069,0.1-0.229,0.729,0.628,0.575
						c0.009-0.002,0.017-0.005,0.026-0.007c0.1-0.032,0.072-0.005,0.172-0.063C28.206,7.9,28.04,7.849,28.104,7.573z"/></g><path fill="#7E858B" d="M27.96,7.373c0.454,0.262-0.227,0.662-0.684,0.398c-0.19-0.11-0.191-0.288-0.002-0.398
						C27.463,7.263,27.77,7.263,27.96,7.373z"/></g><g><g enable-background="new"><g enable-background="new"><path fill="#313539" d="M38.091,34.424l-1.281-0.745c0.005,0.003,0.01,0.006,0.016,0.009l1.281,0.745
					C38.102,34.43,38.096,34.427,38.091,34.424"/><path fill="#33373B" d="M38.107,34.433l-1.281-0.745c0.046,0.026,0.094,0.049,0.143,0.07l1.281,0.745
					C38.201,34.482,38.153,34.459,38.107,34.433"/><path fill="#34393D" d="M38.25,34.502l-1.281-0.745c0.049,0.02,0.099,0.038,0.15,0.053l1.281,0.745
					C38.349,34.541,38.298,34.523,38.25,34.502"/><path fill="#363A3F" d="M38.4,34.555l-1.281-0.745c0.052,0.015,0.105,0.027,0.16,0.037l1.281,0.745
					C38.506,34.583,38.452,34.571,38.4,34.555"/><path fill="#373C40" d="M38.56,34.592l-1.281-0.745c0.056,0.01,0.114,0.016,0.172,0.02l1.281,0.745
					C38.674,34.609,38.616,34.602,38.56,34.592"/><path fill="#393E42" d="M38.732,34.613l-1.281-0.745c0.062,0.004,0.125,0.004,0.189,0.002l1.281,0.745
					C38.857,34.617,38.794,34.616,38.732,34.613"/><path fill="#3C4349" d="M42.125,27.483l-1.281-0.745c0.512,0.298,0.829,0.931,0.832,1.831c0.001,0.213-0.019,0.431-0.053,0.652
					c-0.005,0.034-0.012,0.068-0.018,0.103c-0.035,0.206-0.082,0.413-0.143,0.621c-0.006,0.019-0.012,0.038-0.017,0.057
					c-0.511,1.668-2.065,3.694-3.699,3.857c-0.014,0.001-0.028,0.003-0.042,0.004c-0.336,0.026-0.64-0.036-0.894-0.184l1.281,0.745
					c0.69,0.401,0.73,0.27,0.83,0.297c0.021-0.001,0.036,0.002,0.057,0c0.014-0.001,0.044-0.041,0.058-0.043
					c1.352-0.135,1.753-0.762,2.14-1.143l-0.021-0.038l0.021,0.038l0.144-0.004c0.107-0.105,0.24-0.199,0.34-0.314
					c0.079-0.091-0.01-0.221,0.064-0.318c0.046-0.059,0.655-0.959,0.658-0.964l0,0l0,0l-0.033-0.011
					c0.042-0.08,0.145-0.12,0.184-0.201c0.036-0.074-0.004-0.227,0.061-0.178c0.073,0.056,0.142-0.054,0.143-0.058
					c0.002-0.004-0.077-0.056-0.075-0.06c0.037-0.085,0.223-0.126,0.256-0.211c0.034-0.089,0.181-0.114,0.211-0.203
					c0.015-0.046-0.233-0.196-0.219-0.241c0.005-0.018,0.104-0.02,0.128-0.106c0.028-0.1-0.057-0.487-0.045-0.556
					c0.006-0.035,0.465-0.09,0.47-0.125c0.005-0.031-0.357-0.16-0.353-0.191C43.22,28.965,42.904,27.936,42.125,27.483z"/></g><g enable-background="new"><path fill="#33373B" d="M42.768,25.885l-1.281-0.745c0.07,0.029,0.138,0.063,0.204,0.1l1.281,0.745
					C42.906,25.948,42.838,25.915,42.768,25.885"/><path fill="#313539" d="M42.972,25.985l-1.281-0.745c0.007,0.004,0.015,0.008,0.022,0.013l1.281,0.745
					C42.987,25.994,42.98,25.989,42.972,25.985"/></g><path fill="#3F454A" d="M41.713,25.253c-0.057-0.033-0.119-0.058-0.18-0.086l-0.047-0.027c-0.013-0.005-0.027-0.009-0.04-0.014
				c-0.023-0.009-0.046-0.016-0.069-0.024c-0.035-0.012-0.07-0.027-0.106-0.037c-0.038-0.011-0.078-0.018-0.118-0.027
				c-0.024-0.006-0.048-0.012-0.072-0.017c-0.013-0.003-0.025-0.007-0.039-0.009c-0.08-0.014-0.162-0.024-0.246-0.029
				c-0.005,0-0.011,0-0.016,0c-0.019-0.001-0.04,0-0.059,0c-0.064-0.002-0.128-0.004-0.194-0.002
				c-0.022,0.001-0.045,0.005-0.067,0.007c-0.041,0.003-0.082,0.008-0.123,0.012c-0.038,0.004-0.075,0.005-0.114,0.011
				c-0.033,0.005-0.068,0.015-0.102,0.022c-0.055,0.01-0.11,0.022-0.166,0.036c-0.03,0.007-0.06,0.011-0.09,0.019
				c-0.03,0.008-0.061,0.022-0.091,0.031c-0.094,0.028-0.189,0.061-0.286,0.099c-0.034,0.013-0.067,0.021-0.102,0.035
				c-0.186,0.077-0.376,0.172-0.569,0.283c-1.279,0.739-2.347,2.023-3.043,3.332c-0.061,0.114-0.119,0.229-0.175,0.345
				c-0.056,0.117-0.11,0.234-0.161,0.352c-0.052,0.121-0.102,0.242-0.149,0.364c-0.667,1.734-0.946,4.307,0.656,5.238l1.281,0.745
				c-0.729-0.424-1.18-1.325-1.184-2.606c-0.006-2.2,1.313-4.772,3.052-6.285c0.079-0.069,0.156-0.143,0.237-0.208
				c0.249-0.198,0.504-0.38,0.767-0.531c0.229-0.132,0.452-0.233,0.67-0.318c0.097-0.037,0.192-0.07,0.286-0.099
				c0.061-0.018,0.121-0.036,0.18-0.05c0.056-0.014,0.112-0.025,0.168-0.036c0.072-0.014,0.144-0.025,0.214-0.033
				c0.041-0.005,0.083-0.01,0.124-0.012c0.089-0.006,0.176-0.008,0.261-0.005c0.02,0.001,0.04-0.001,0.059,0
				c0.103,0.006,0.203,0.019,0.301,0.038c0.024,0.005,0.048,0.011,0.072,0.017c0.077,0.017,0.151,0.039,0.224,0.065
				c0.023,0.008,0.046,0.015,0.069,0.024c0.092,0.036,0.182,0.077,0.267,0.127L41.713,25.253z"/><path fill="#4F565C" d="M40.099,26.28c2.241-1.294,4.075-0.262,4.082,2.326c0.007,2.581-1.815,5.724-4.056,7.018
					c-2.252,1.3-4.075,0.262-4.082-2.32C36.036,30.717,37.847,27.581,40.099,26.28z M40.122,34.224
					c1.573-0.908,2.84-3.103,2.835-4.91c-0.005-1.807-1.28-2.541-2.853-1.633c-1.573,0.908-2.846,3.113-2.841,4.92
					C37.268,34.409,38.549,35.132,40.122,34.224"/></g></g></svg>