<svg xmlns="http://www.w3.org/2000/svg" enable-background="new 0 0 100 100" viewBox="0 0 100 100"><g enable-background="new"><polygon fill="#0083cb" points="24.744 61.863 31.792 57.768 31.785 60.255 24.737 64.351"/><polygon fill="#0083cb" points="22.576 60.612 29.624 56.516 31.792 57.768 24.744 61.863"/><polygon fill="#0083cb" points="22.604 50.645 29.652 46.55 29.631 54.025 22.583 58.121"/><path fill="#0083cb" d="M23.239,49.258l7.048-4.096c-0.39,0.227-0.632,0.707-0.634,1.387l-7.048,4.096
					C22.606,49.965,22.849,49.485,23.239,49.258z"/><path fill="#cdcdcd" d="M23.239,49.258l7.048-4.096c0.395-0.229,0.94-0.199,1.541,0.148l-7.048,4.096
					C24.178,49.059,23.633,49.029,23.239,49.258z"/><polygon fill="#cdcdcd" points="24.779 49.406 31.827 45.31 33.682 46.381 26.634 50.477"/><path fill="#0083cb" d="M21.701,46.613l7.048-4.096c0.788-0.458,1.88-0.394,3.085,0.302l-7.048,4.096
					C23.581,46.22,22.49,46.155,21.701,46.613z"/><path fill="#cdcdcd" d="M33.682,46.381c0.299,0.173,0.572,0.188,0.769,0.074l-7.048,4.096
					c-0.197,0.115-0.47,0.099-0.769-0.074C28.748,49.248,31.567,47.61,33.682,46.381z"/><polygon fill="#0083cb" points="24.786 46.915 31.834 42.819 33.689 43.89 26.641 47.986"/><polygon fill="#cdcdcd" points="27.719 49.858 34.767 45.762 36.948 47.021 29.9 51.117"/><path fill="#0083cb" d="M34.451,46.455l-7.048,4.096c0.194-0.113,0.315-0.352,0.316-0.692
					c0.002-0.686-0.472-1.507-1.079-1.872l7.048-4.096c0.606,0.365,1.081,1.186,1.079,1.872
					C34.766,46.103,34.645,46.342,34.451,46.455z"/><path fill="#cdcdcd" d="M38.017,48.884c0.304,0.176,0.576,0.192,0.771,0.078l-7.048,4.096
					c-0.195,0.113-0.467,0.097-0.771-0.078C33.318,51.615,35.667,50.249,38.017,48.884c-2.349,1.365-4.699,2.731-7.048,4.096
					c-0.597-0.345-1.071-1.177-1.069-1.863c2.075-1.206,4.15-2.412,6.225-3.618l0.823-0.478
					C36.946,47.707,37.42,48.539,38.017,48.884z"/><polygon fill="#cdcdcd" points="32.055 52.361 39.103 48.265 41.27 49.517 34.222 53.613"/><path fill="#0083cb" d="M38.788,48.962l-7.048,4.096c0.195-0.113,0.314-0.355,0.315-0.697l7.048-4.096
					C39.102,48.607,38.982,48.849,38.788,48.962z"/><path fill="#0083cb" d="M30.217,50.415l7.048-4.096c0.194-0.113,0.461-0.098,0.759,0.074
					c0.607,0.35,1.081,1.186,1.079,1.872l-7.048,4.096c0.002-0.686-0.472-1.522-1.079-1.872
					C30.679,50.318,30.411,50.302,30.217,50.415z"/><path fill="#0083cb" d="M32.055,52.361c-0.002,0.686-0.479,0.969-1.086,0.619c-0.597-0.345-1.071-1.177-1.069-1.863
					c0.002-0.686,0.479-0.973,1.076-0.628C31.582,50.839,32.056,51.675,32.055,52.361z"/><path fill="#4d2102" d="M28.046,46.303c-0.597-0.345-1.084-1.184-1.082-1.87l2.168,1.252
					C29.13,46.37,28.64,46.646,28.046,46.303z"/><path fill="#4d2102" d="M35.863,42.281l-7.048,4.096c0.194-0.113,0.315-0.352,0.316-0.692l7.048-4.096
					C36.179,41.929,36.058,42.168,35.863,42.281z"/><polygon fill="#4d2102" points="26.964 44.433 34.012 40.337 36.18 41.588 29.132 45.684"/><path fill="#4d2102" d="M26.203,41.869l7.048-4.096c0.197-0.115,0.47-0.1,0.769,0.073l-7.048,4.096
					C26.672,41.769,26.4,41.754,26.203,41.869z"/><path fill="#cdcdcd" d="M41.27,49.517c-0.002,0.686,0.485,1.526,1.082,1.87c-2.075,1.206-4.15,2.412-6.225,3.617
					l-0.823,0.478c-0.597-0.345-1.084-1.184-1.082-1.87C36.336,52.384,39.156,50.745,41.27,49.517z"/><polygon fill="#4d2102" points="26.971 41.942 34.019 37.846 36.187 39.097 29.139 43.193"/><path fill="#4d2102" d="M36.951,41.662l-7.048,4.096c0.195-0.113,0.316-0.354,0.317-0.695
					c0.002-0.682-0.485-1.526-1.082-1.87l7.048-4.096c0.597,0.345,1.084,1.188,1.082,1.87
					C37.268,41.308,37.146,41.549,36.951,41.662z"/><path fill="#4d2102" d="M29.139,43.193c0.597,0.345,1.084,1.188,1.082,1.87c-0.002,0.686-0.492,0.965-1.089,0.62
					l-2.168-1.251c-0.594-0.343-1.081-1.186-1.079-1.872c0.002-0.682,0.492-0.962,1.086-0.619L29.139,43.193z"/><path fill="#0083cb" d="M34.54,52.918l7.048-4.096c0.198-0.115,0.471-0.099,0.771,0.074l-7.048,4.096
					C35.011,52.819,34.737,52.803,34.54,52.918z"/><polygon fill="#0083cb" points="22.692 31.042 29.74 26.947 29.942 28.008 22.895 32.104"/><path fill="#0083cb" d="M29.941,25.993c-0.205,0.183-0.28,0.533-0.201,0.953l-7.048,4.096
					c-0.079-0.42-0.004-0.77,0.201-0.953l0,0C25.242,28.724,27.591,27.359,29.941,25.993L29.941,25.993z"/><polygon fill="#4d2102" points="26.978 39.451 34.026 35.355 36.194 36.607 29.146 40.703"/><polygon fill="#4d2102" points="26.978 39.451 29.146 40.703 29.139 43.193 26.971 41.942"/><polygon fill="#4d2102" points="29.146 40.703 36.194 36.607 36.187 39.097 29.139 43.193"/><path fill="#0083cb" d="M30.028,25.929c-0.031,0.018-0.06,0.039-0.087,0.064c-2.349,1.365-4.699,2.731-7.048,4.096
					c0.027-0.025,0.056-0.046,0.087-0.064C25.094,28.796,27.914,27.158,30.028,25.929z"/><polygon fill="#0083cb" points="25.131 33.395 32.179 29.299 32.712 32.102 25.664 36.197"/><polygon fill="#0083cb" points="22.664 29.476 29.712 25.38 30.798 26.007 23.75 30.103"/><path fill="#0083cb" d="M22.98,30.025l7.048-4.096c0.202-0.118,0.479-0.09,0.77,0.078l-7.048,4.096
					C23.459,29.935,23.182,29.908,22.98,30.025z"/><polygon fill="#0083cb" points="25.664 36.197 32.712 32.102 37.522 34.879 30.475 38.975"/><path fill="#0083cb" d="M39.133,37.934l-7.048,4.096c0.134-0.078,0.233-0.217,0.281-0.412l7.048-4.096
					C39.366,37.717,39.267,37.856,39.133,37.934z"/><polygon fill="#60b9cb" points="31.024 36.798 30.475 38.975 25.664 36.197 25.131 33.395"/><polygon fill="#60b9cb" points="31.024 36.798 38.072 32.702 37.522 34.879 30.475 38.975"/><polygon fill="#60b9cb" points="25.131 33.395 32.179 29.299 38.072 32.702 31.024 36.798"/><polygon fill="#0083cb" points="33.258 38.087 40.306 33.991 39.414 37.522 32.366 41.618"/><polygon fill="#0083cb" points="33.466 37.263 40.514 33.167 40.306 33.991 33.258 38.087"/><polygon fill="#0083cb" points="23.75 30.103 30.798 26.007 39.468 31.013 32.42 35.109"/><path fill="#cdcdcd" d="M29.178,29.492C29.178,29.492,29.178,29.492,29.178,29.492c2.074-1.206,4.149-2.412,6.224-3.617
					C33.328,27.081,31.253,28.286,29.178,29.492z"/><path fill="#cdcdcd" d="M36.226,25.397c-0.002,0.69,0.482,1.527,1.082,1.874c-2.075,1.206-4.15,2.412-6.225,3.617
					l-0.823,0.478c-0.6-0.347-1.084-1.184-1.082-1.874v0c0,0,0,0,0.001,0C31.527,28.127,33.876,26.762,36.226,25.397
					C36.226,25.397,36.226,25.397,36.226,25.397z"/><path fill="#0083cb" d="M33.271,36.081l7.048-4.096c0.207,0.421,0.276,0.854,0.195,1.182l-7.048,4.096
					C33.547,36.935,33.478,36.502,33.271,36.081z"/><path fill="#0083cb" d="M33.271,36.081c0.207,0.421,0.276,0.854,0.195,1.182l-0.208,0.824l-0.891,3.531
					c-0.12,0.486-0.555,0.624-1.053,0.336l-2.168-1.251l-2.168-1.251L24.811,38.2c-0.498-0.287-0.928-0.925-1.048-1.549
					l-0.868-4.547l-0.203-1.061c-0.079-0.42-0.004-0.77,0.201-0.953c0.205-0.187,0.522-0.18,0.857,0.013l8.67,5.006
					C32.752,35.3,33.068,35.659,33.271,36.081z M30.475,38.975l0.55-2.177l-5.893-3.402l0.532,2.802L30.475,38.975L30.475,38.975z"/><polygon fill="#0083cb" points="32.42 35.109 39.468 31.013 40.55 31.638 33.502 35.733"/><polygon fill="#cdcdcd" points="33.509 33.243 40.557 29.147 40.55 31.638 33.502 35.733"/><path fill="#0083cb" d="M32.42,35.109l7.048-4.096c0.332,0.192,0.648,0.55,0.851,0.973l-7.048,4.096
					C33.068,35.659,32.752,35.3,32.42,35.109z"/><path fill="#cdcdcd" d="M36.226,25.397c-2.349,1.365-4.699,2.73-7.048,4.096c0.001-0.34,0.121-0.58,0.316-0.693
					l7.048-4.096C36.347,24.817,36.227,25.056,36.226,25.397z"/><polygon fill="#0083cb" points="22.7 17.022 29.747 12.927 29.712 25.38 22.664 29.476"/><path fill="#cdcdcd" d="M24.86,20.764L24.86,20.764C24.86,20.764,24.86,20.764,24.86,20.764
					c2.075-1.206,4.149-2.412,6.224-3.617C29.01,18.353,26.935,19.559,24.86,20.764z"/><path fill="#0083cb" d="M35.666 38.228l7.048-4.096c-.001.338-.11.587-.315.703l-7.048 4.096C35.556 38.815 35.665 38.566 35.666 38.228zM29.493 28.799l7.048-4.096c.197-.115.471-.098.773.076l-7.048 4.096C29.964 28.701 29.691 28.685 29.493 28.799z"/><path fill="#cdcdcd" d="M32.99,18.539c-2.349,1.365-4.699,2.73-7.048,4.096c-0.597-0.345-1.084-1.188-1.082-1.87v0
					c0,0,0,0,0,0l0,0c2.349-1.365,4.698-2.73,7.047-4.096c-2.349,1.365-4.698,2.73-7.048,4.096c0.001-0.341,0.122-0.581,0.318-0.694
					l7.048-4.096c-0.195,0.113-0.317,0.354-0.318,0.694C31.906,17.351,32.393,18.194,32.99,18.539z"/><polygon fill="#cdcdcd" points="30.26 31.366 37.307 27.271 40.557 29.147 33.509 33.243"/><path fill="#4d2102" d="M25.178,20.07l7.048-4.096c0.198-0.115,0.471-0.099,0.771,0.074l-7.048,4.096
					C25.649,19.971,25.375,19.955,25.178,20.07z"/><path fill="#0083cb" d="M23.333,15.634l7.048-4.096c-0.389,0.226-0.632,0.707-0.634,1.388L22.7,17.022
					C22.701,16.341,22.944,15.861,23.333,15.634z"/><polygon fill="#0083cb" points="24.737 64.351 31.785 60.255 72.969 84.032 65.921 88.128"/><polygon fill="#0083cb" points="33.509 33.243 40.557 29.147 41.643 29.773 34.595 33.869"/><path fill="#0083cb" d="M74.816 87.229l-7.048 4.096c.195-.113.315-.355.316-.698l7.048-4.096C75.132 86.875 75.011 87.116 74.816 87.229zM52.962 64.431L52.962 64.431C52.961 64.431 52.961 64.431 52.962 64.431c2.074-1.206 4.149-2.411 6.224-3.617C57.111 62.02 55.036 63.226 52.962 64.431z"/><path fill="#0083cb" d="M61.091,62.206c-0.867,0.504-1.735,1.008-2.602,1.512c-1.482,0.861-2.964,1.722-4.446,2.584
					c-0.6-0.346-1.084-1.18-1.082-1.87c0,0,0,0,0,0c0,0,0,0,0,0v0c2.349-1.365,4.698-2.73,7.047-4.096
					c-2.349,1.365-4.699,2.73-7.048,4.096c0.001-0.343,0.122-0.583,0.316-0.697l7.048-4.096c-0.195,0.113-0.315,0.354-0.316,0.697
					C60.007,61.025,60.491,61.859,61.091,62.206z"/><polygon fill="#cdcdcd" points="35.304 55.483 42.352 51.387 61.091 62.206 54.043 66.302"/><polygon fill="#0083cb" points="35.677 34.494 42.725 30.398 42.714 34.132 35.666 38.228"/><path fill="#0083cb" d="M42.412,29.848l-7.048,4.096c-0.197,0.114-0.469,0.098-0.769-0.075l7.048-4.096
					C41.943,29.947,42.215,29.963,42.412,29.848z"/><path fill="#cdcdcd" d="M23.333,15.634l7.048-4.096c0.394-0.229,0.94-0.198,1.541,0.149l-7.048,4.096
					C24.273,15.436,23.728,15.405,23.333,15.634z"/><polygon fill="#60b9cb" points="65.928 85.641 72.976 81.545 72.969 84.032 65.921 88.128"/><polygon fill="#60b9cb" points="24.744 61.863 31.792 57.768 72.976 81.545 65.928 85.641"/><polygon fill="#60b9cb" points="65.928 85.641 65.921 88.128 24.737 64.351 24.744 61.863"/><polygon fill="#0083cb" points="35.311 52.992 42.359 48.896 60.013 59.089 52.965 63.184"/><polygon fill="#0083cb" points="30.267 28.876 37.314 24.78 41.65 27.283 34.602 31.378"/><path fill="#0083cb" d="M42.412,29.848l-7.048,4.096c0.195-0.113,0.316-0.354,0.317-0.697
					c0.002-0.686-0.482-1.524-1.079-1.868l7.048-4.096c0.597,0.345,1.081,1.182,1.079,1.868
					C42.727,29.494,42.606,29.735,42.412,29.848z"/><polygon fill="#0083cb" points="34.602 31.378 41.65 27.283 61.158 38.546 54.11 42.642"/><polygon fill="#0083cb" points="54.05 63.811 61.098 59.715 62.18 60.34 55.132 64.436"/><polygon fill="#0083cb" points="55.189 44.51 62.237 40.414 62.18 60.34 55.132 64.436"/><path fill="#0083cb" d="M53.278,63.735l7.048-4.096c0.197-0.115,0.471-0.098,0.772,0.076l-7.048,4.096
					C53.748,63.637,53.475,63.62,53.278,63.735z"/><path fill="#cdcdcd" d="M69.761,67.212c0.302,0.174,0.575,0.191,0.771,0.077l-7.048,4.096
					c-0.196,0.114-0.469,0.097-0.771-0.077C64.828,70.079,67.647,68.44,69.761,67.212z"/><polygon fill="#cdcdcd" points="54.043 66.302 61.091 62.206 69.761 67.212 62.713 71.308"/><path fill="#0083cb" d="M70.532,67.289l-7.048,4.096c0.194-0.113,0.314-0.353,0.315-0.696
					c0.002-0.69-0.479-1.526-1.079-1.872l7.048-4.096c0.6,0.346,1.081,1.182,1.079,1.872C70.846,66.936,70.726,67.176,70.532,67.289
					z"/><path fill="#0083cb" d="M62.713,71.308L62.713,71.308c0.6,0.346,1.084,0.071,1.086-0.619c0-0.004,0-0.008,0-0.012
					L62.713,71.308z M55.132,64.436l-1.082-0.625c-0.6-0.347-1.087-0.069-1.089,0.621c-0.002,0.69,0.482,1.524,1.082,1.87
					l2.153-1.251L55.132,64.436z"/><path fill="#0083cb" d="M34.595,33.869c0.597,0.345,1.084,0.067,1.086-0.622c0.002-0.686-0.482-1.524-1.079-1.868
					L54.11,42.642c0.291,0.168,0.562,0.449,0.768,0.804c0.204,0.356,0.311,0.731,0.31,1.065l-0.056,19.926l-1.082-0.625
					c-0.6-0.347-1.087-0.069-1.089,0.621c-0.002,0.69,0.482,1.524,1.082,1.87L35.304,55.483c-0.597-0.345-1.084-1.184-1.082-1.87
					c0.002-0.686,0.492-0.965,1.089-0.62l17.654,10.192l0.053-18.679L35.677,34.494l-0.011,3.734
					c-0.001,0.338-0.11,0.587-0.315,0.704c-0.208,0.119-0.48,0.087-0.77-0.081l-1.323-0.764l0.208-0.824
					c0.081-0.328,0.012-0.761-0.195-1.182c-0.203-0.423-0.519-0.781-0.851-0.973l1.082,0.625l0.007-2.491L34.595,33.869z"/><polygon fill="#0083cb" points="55.132 64.436 62.18 60.34 69.768 64.721 62.72 68.817"/><polygon fill="#0083cb" points="65.928 85.641 72.976 81.545 74.061 82.172 67.013 86.268"/><polygon fill="#0083cb" points="68.166 61.982 75.214 57.886 75.147 81.55 68.099 85.645"/><path fill="#0083cb" d="M74.186,82.236c-2.349,1.365-4.699,2.73-7.048,4.096c-0.041-0.018-0.083-0.04-0.125-0.064
					l7.048-4.096C74.103,82.196,74.145,82.218,74.186,82.236z"/><path fill="#0083cb" d="M74.186,82.236c0.243,0.109,0.468,0.115,0.646,0.017l-7.048,4.096
					c-0.178,0.098-0.403,0.092-0.646-0.017C69.487,84.966,71.837,83.601,74.186,82.236z"/><polygon fill="#0083cb" points="68.099 85.645 75.147 81.55 75.133 86.531 68.085 90.627"/><path fill="#0083cb" d="M68.099 85.645l7.048-4.096c-.001.338-.11.583-.315.703l-7.048 4.096C67.989 86.228 68.098 85.983 68.099 85.645zM21.797 12.99l7.048-4.096c.788-.458 1.88-.393 3.085.302l-7.048 4.096C23.677 12.597 22.585 12.532 21.797 12.99z"/><path fill="#cdcdcd" d="M44.91,25.421c0.301,0.174,0.574,0.189,0.772,0.074l-7.048,4.096
					c-0.198,0.115-0.471,0.1-0.772-0.074C39.977,28.288,42.796,26.65,44.91,25.421z"/><path fill="#4d2102" d="M45.682,25.495l-7.048,4.096c0.195-0.113,0.316-0.352,0.317-0.691
					c0.002-0.686-0.485-1.529-1.082-1.874l7.048-4.096c0.597,0.345,1.084,1.188,1.082,1.874
					C45.998,25.143,45.877,25.382,45.682,25.495z"/><path fill="#4d2102" d="M37.869,27.026c0.597,0.345,1.084,1.188,1.082,1.874c-0.002,0.682-0.492,0.962-1.089,0.617
					l-11.92-6.882c-0.597-0.345-1.084-1.188-1.082-1.87c0.002-0.686,0.492-0.965,1.089-0.621L37.869,27.026z"/><path fill="#cdcdcd" d="M37.869,27.026l4.894-2.844l-9.774-5.643l-7.048,4.096l11.92,6.882l1.089-0.633
					C38.945,28.201,38.462,27.368,37.869,27.026z"/><polygon fill="#4d2102" points="25.949 20.144 32.997 16.048 44.917 22.93 37.869 27.026"/><path fill="#cdcdcd" d="M57.321,58.215l7.048-4.096c-0.002,0.69,0.482,1.527,1.082,1.874l-7.048,4.096
					C57.803,59.743,57.319,58.905,57.321,58.215z"/><polygon fill="#cb0c2d" points="59.492 58.223 66.54 54.127 68.708 55.379 61.66 59.474"/><polygon fill="#cdcdcd" points="57.356 45.762 64.404 41.666 64.369 54.119 57.321 58.215"/><polygon fill="#cb0c2d" points="59.52 48.26 66.568 44.164 66.54 54.127 59.492 58.223"/><polygon fill="#cb807e" points="61.688 49.512 68.736 45.416 68.708 55.379 61.66 59.474"/><polygon fill="#cb0c2d" points="63.859 49.516 70.907 45.42 70.872 57.874 63.824 61.97"/><path fill="#cdcdcd" d="M70.555,58.572l-7.048,4.096c-0.196,0.114-0.468,0.098-0.769-0.076l7.048-4.096
					C70.087,58.67,70.359,58.686,70.555,58.572z"/><path fill="#cb0c2d" d="M70.555,58.572l-7.048,4.096c0.195-0.113,0.315-0.355,0.316-0.698l7.048-4.096
					C70.871,58.217,70.75,58.459,70.555,58.572z"/><path fill="#cdcdcd" d="M56.833,32.305c-0.715,0.416-1.431,0.831-2.146,1.247c-1.634,0.95-3.268,1.899-4.902,2.849
					c-0.597-0.345-1.084-1.188-1.082-1.87c2.349-1.365,4.698-2.731,7.048-4.096c-2.349,1.365-4.699,2.73-7.048,4.096
					c0.001-0.341,0.122-0.581,0.317-0.694l7.048-4.096c-0.195,0.113-0.317,0.354-0.318,0.694
					C55.75,31.117,56.236,31.96,56.833,32.305z"/><path fill="#cdcdcd" d="M56.833,32.305c0.299,0.173,0.571,0.188,0.769,0.073l-7.048,4.096
					c-0.197,0.115-0.47,0.1-0.769-0.073C51.9,35.172,54.719,33.534,56.833,32.305z"/><path fill="#0083cb" d="M49.021 33.836l7.048-4.096c.198-.115.471-.099.771.074l-7.048 4.096C49.492 33.737 49.219 33.721 49.021 33.836zM57.602 32.378l-7.048 4.096c.195-.113.316-.353.317-.692.002-.686-.485-1.529-1.079-1.872l7.048-4.096c.594.343 1.081 1.186 1.079 1.872C57.918 32.025 57.797 32.265 57.602 32.378z"/><path fill="#cdcdcd" d="M61.169,34.808c-0.121,0.07-0.283,0.165-0.404,0.235c-2.214,1.287-4.429,2.574-6.643,3.861
					c-0.597-0.345-1.084-1.188-1.082-1.87l0,0c0,0,0,0,0,0c2.349-1.365,4.698-2.73,7.047-4.096c-2.349,1.365-4.698,2.73-7.048,4.096
					c0.001-0.341,0.122-0.581,0.318-0.694l7.048-4.096c-0.195,0.113-0.317,0.354-0.318,0.694
					C60.085,33.62,60.572,34.463,61.169,34.808z"/><path fill="#cdcdcd" d="M61.169,34.808c0.299,0.173,0.571,0.188,0.769,0.073l-7.048,4.096
					c-0.197,0.115-0.47,0.1-0.769-0.073C56.235,37.675,59.054,36.037,61.169,34.808z"/><polygon fill="#cb807e" points="59.52 48.26 66.568 44.164 68.736 45.416 61.688 49.512"/><path fill="#0083cb" d="M53.356 36.339l7.048-4.096c.198-.115.471-.099.771.074l-7.048 4.096C53.827 36.24 53.554 36.224 53.356 36.339zM61.937 34.881l-7.048 4.096c.195-.113.316-.353.317-.692.002-.686-.485-1.529-1.079-1.872l7.048-4.096c.594.343 1.081 1.186 1.079 1.872C62.253 34.528 62.132 34.768 61.937 34.881zM54.11 42.642l7.048-4.096c.291.168.562.449.768.804.204.356.311.731.31 1.065l-7.048 4.096c.001-.334-.107-.708-.31-1.065C54.672 43.091 54.401 42.809 54.11 42.642z"/><path fill="#cdcdcd" d="M57.374,39.536c2.075-1.206,4.15-2.411,6.224-3.617C61.524,37.125,59.449,38.331,57.374,39.536
					C57.374,39.536,57.374,39.536,57.374,39.536C57.374,39.536,57.374,39.536,57.374,39.536L57.374,39.536
					C57.374,39.536,57.374,39.536,57.374,39.536z"/><polygon fill="#cb0c2d" points="58.445 45.145 65.493 41.049 69.828 43.552 62.78 47.647"/><path fill="#cdcdcd" d="M65.504,37.311c0.3,0.173,0.572,0.188,0.769,0.074l-7.048,4.096
					c-0.197,0.114-0.469,0.099-0.769-0.074C60.805,40.042,63.154,38.676,65.504,37.311c-2.35,1.365-4.699,2.731-7.048,4.096
					c-0.597-0.345-1.084-1.188-1.082-1.87c0.001-0.341,0.122-0.581,0.318-0.694l7.048-4.096c-0.195,0.113-0.317,0.354-0.318,0.694
					C64.42,36.123,64.907,36.966,65.504,37.311z M57.374,39.536L57.374,39.536l0.353-0.205l0.364-0.212l0.374-0.217l0.383-0.222
					l0.39-0.226l0.396-0.23l0.4-0.232l0.403-0.234l0.404-0.235l0.404-0.235l0.403-0.234l0.401-0.233l0.397-0.231l0.391-0.228
					l0.385-0.224l0.377-0.219l0.053-0.031l0.053-0.031l0.053-0.031l0.052-0.03l0.052-0.03l0.052-0.03l0.052-0.03l0.052-0.03
					l0.051-0.03l0.051-0.03l0.051-0.03l0.051-0.029l0.05-0.029l0.05-0.029l0.05-0.029l0.05-0.029l-0.05,0.029l-0.05,0.029
					l-0.05,0.029l-0.05,0.029l-0.051,0.029l-0.051,0.03l-0.051,0.03l-0.051,0.03l-0.052,0.03l-0.052,0.03l-0.052,0.03l-0.052,0.03
					l-0.052,0.03l-0.053,0.031l-0.053,0.031l-0.053,0.031l-0.377,0.219l-0.385,0.224l-0.391,0.228l-0.397,0.231l-0.401,0.233
					l-0.403,0.234l-0.404,0.235l-0.404,0.235l-0.403,0.234l-0.4,0.232l-0.395,0.23l-0.39,0.226l-0.383,0.222l-0.374,0.217
					l-0.364,0.212L57.374,39.536L57.374,39.536L57.374,39.536L57.374,39.536L57.374,39.536L57.374,39.536L57.374,39.536
					L57.374,39.536L57.374,39.536L57.374,39.536L57.374,39.536L57.374,39.536L57.374,39.536L57.374,39.536L57.374,39.536
					L57.374,39.536L57.374,39.536L57.374,39.536z"/><path fill="#cb0c2d" d="M62.78,47.647l7.048-4.096c0.6,0.347,1.081,1.182,1.079,1.868l-7.048,4.096
					C63.861,48.83,63.381,47.994,62.78,47.647z"/><path fill="#0083cb" d="M57.692,38.842l7.048-4.096c0.198-0.115,0.471-0.099,0.771,0.074l-7.048,4.096
					C58.162,38.743,57.889,38.727,57.692,38.842z"/><path fill="#0083cb" d="M66.273,37.385l-7.048,4.096c0.195-0.113,0.316-0.353,0.317-0.693
					c0.002-0.686-0.482-1.527-1.079-1.872l7.048-4.096c0.597,0.345,1.081,1.186,1.079,1.872
					C66.589,37.032,66.468,37.272,66.273,37.385z"/><path fill="#cdcdcd" d="M64.72,40.973c-0.194,0.113-0.315,0.353-0.316,0.693l-7.048,4.096
					c0.001-0.34,0.121-0.58,0.316-0.693C59.786,43.84,62.605,42.201,64.72,40.973z"/><path fill="#cb0c2d" d="M57.672,45.069l7.048-4.096c0.197-0.115,0.471-0.098,0.773,0.076l-7.048,4.096
					C58.143,44.97,57.869,44.954,57.672,45.069z"/><path fill="#cdcdcd" d="M69.839,39.814c-0.121,0.071-0.283,0.165-0.404,0.235c-0.581,0.337-1.161,0.675-1.742,1.012
					c-1.634,0.95-3.268,1.899-4.902,2.849c-0.597-0.345-1.084-1.188-1.082-1.87c2.349-1.365,4.699-2.731,7.048-4.096l0,0
					C68.755,38.626,69.242,39.469,69.839,39.814z"/><path fill="#cdcdcd" d="M69.839 39.814c.3.173.572.188.769.074l-7.048 4.096c-.197.114-.469.099-.769-.074C64.905 42.681 67.725 41.042 69.839 39.814zM68.757 37.944c-2.349 1.365-4.699 2.73-7.048 4.096.001-.341.122-.581.317-.694l7.048-4.096C68.88 37.362 68.758 37.603 68.757 37.944z"/><path fill="#0083cb" d="M62.027,41.345l7.048-4.096c0.198-0.115,0.471-0.099,0.771,0.074l-7.048,4.096
					C62.498,41.245,62.224,41.23,62.027,41.345z"/><path fill="#0083cb" d="M70.608,39.888l-7.048,4.096c0.195-0.113,0.316-0.353,0.317-0.693
					c0.002-0.686-0.482-1.527-1.079-1.872l7.048-4.096c0.597,0.345,1.081,1.186,1.079,1.872
					C70.924,39.534,70.803,39.775,70.608,39.888z"/><polygon fill="#cdcdcd" points="24.874 15.783 31.922 11.687 70.939 34.214 63.891 38.309"/><path fill="#0083cb" d="M63.898,35.819c2.385,1.377,4.329,4.733,4.321,7.484l-0.011,3.734l-0.007,2.491l-0.028,9.963
					l-0.007,2.491l-0.067,23.664c-0.001,0.338-0.11,0.583-0.315,0.703c-0.208,0.115-0.48,0.087-0.77-0.081L22.576,60.612
					l-1.082-0.625c-0.294-0.17-0.565-0.455-0.768-0.807c-0.207-0.358-0.315-0.729-0.313-1.066l0.025-8.719
					c0.008-2.751,1.955-3.861,4.349-2.479l1.855,1.071c0.607,0.365,1.081,1.186,1.079,1.872c-0.002,0.686-0.492,0.961-1.086,0.619
					l-1.855-1.071c-1.194-0.689-2.171-0.129-2.175,1.239l-0.021,7.476L65.935,83.15l0.117-41.099
					c0.004-1.372-0.967-3.053-2.16-3.742L24.874,15.783c-1.194-0.689-2.171-0.133-2.175,1.239l-0.035,12.454l1.085,0.627
					c-0.335-0.193-0.652-0.2-0.857-0.013c-0.205,0.183-0.28,0.533-0.201,0.953l0.203,1.061l-1.32-0.762
					c-0.294-0.17-0.565-0.451-0.768-0.807c-0.207-0.355-0.314-0.729-0.313-1.066l0.039-13.697c0.008-2.751,1.955-3.861,4.349-2.478
					L63.898,35.819z"/><path fill="#0083cb" d="M67.784,86.349c-0.208,0.115-0.48,0.087-0.77-0.081l-1.085-0.627l-0.007,2.487L24.737,64.351
					l0.007-2.487l-2.168-1.251l-0.011,3.734c-0.002,0.69,0.482,1.527,1.082,1.874l43.352,25.029c0.6,0.347,1.084,0.067,1.086-0.622
					l0.014-4.981C68.098,85.983,67.989,86.228,67.784,86.349z"/><polygon fill="#cdcdcd" points="61.66 59.474 61.66 59.474 61.66 59.474 60.556 58.838 58.403 60.089 62.738 62.592 63.824 61.961 63.834 58.211"/><path fill="#cdcdcd" d="M68.219,43.303l-0.011,3.734l-0.007,2.491l-0.028,9.963l-0.007,2.491l4.873-2.832l0.06-21.194
					l-5.265,3.06C68.082,41.788,68.221,42.567,68.219,43.303z"/><polygon fill="#0083cb" points="29.631 54.025 22.583 58.121 65.935 83.15 65.958 74.999"/><path fill="#0083cb" d="M49.793,33.91c0.594,0.343,1.081,1.186,1.079,1.872c-0.002,0.682-0.492,0.961-1.086,0.619
					c-0.597-0.345-1.084-1.188-1.082-1.87C48.706,33.845,49.196,33.565,49.793,33.91z"/><polygon fill="#cb807e" points="61.688 49.512 61.66 59.474 59.492 58.223 59.52 48.26"/><path fill="#0083cb" d="M54.128,36.413c0.594,0.343,1.081,1.186,1.079,1.872c-0.002,0.682-0.492,0.961-1.086,0.619
					c-0.597-0.345-1.084-1.188-1.082-1.87C53.041,36.348,53.531,36.068,54.128,36.413z"/><path fill="#cb0c2d" d="M62.78,47.647c0.6,0.347,1.081,1.182,1.079,1.868L63.824,61.97
					c-0.002,0.69-0.486,0.969-1.086,0.622l-4.335-2.503c-0.6-0.347-1.084-1.184-1.082-1.874l0.035-12.454
					c0.002-0.686,0.489-0.963,1.089-0.617L62.78,47.647z M61.66,59.474l0.028-9.963L59.52,48.26l-0.028,9.963L61.66,59.474
					L61.66,59.474z"/><path fill="#0083cb" d="M58.463 38.916c.597.345 1.081 1.186 1.079 1.872-.002.682-.489.963-1.086.619-.597-.345-1.084-1.188-1.082-1.87C57.376 38.85 57.866 38.571 58.463 38.916zM62.798 41.419c.597.345 1.081 1.186 1.079 1.872-.002.682-.489.963-1.086.619-.597-.345-1.084-1.188-1.082-1.87C61.711 41.353 62.201 41.074 62.798 41.419z"/><path fill="#cdcdcd" d="M63.891,38.309c1.194,0.689,2.164,2.37,2.16,3.742L65.935,83.15L22.583,58.121l0.021-7.476
					c0.004-1.368,0.981-1.929,2.175-1.239l1.855,1.071c0.594,0.343,1.084,0.067,1.086-0.619l2.18,1.259
					c-0.002,0.686,0.472,1.518,1.069,1.863c0.607,0.35,1.084,0.067,1.086-0.619l2.168,1.251c-0.002,0.686,0.485,1.526,1.082,1.87
					l18.739,10.819l8.67,5.006c0.6,0.346,1.084,0.071,1.086-0.619c0.002-0.69-0.479-1.526-1.079-1.872l-7.588-4.381l0.056-19.926
					c0.001-0.334-0.107-0.708-0.31-1.065c-0.207-0.354-0.478-0.636-0.768-0.804L34.602,31.378l-4.335-2.503
					c-0.6-0.347-1.087-0.069-1.089,0.617c-0.002,0.69,0.482,1.527,1.082,1.874l3.25,1.876l-0.007,2.491l-1.082-0.625l-8.67-5.006
					l-1.085-0.627L22.7,17.022c0.004-1.372,0.981-1.929,2.175-1.239L63.891,38.309z M63.824,61.97l0.035-12.454
					c0.002-0.686-0.479-1.522-1.079-1.868l-4.335-2.503c-0.6-0.347-1.087-0.069-1.089,0.617l-0.035,12.454
					c-0.002,0.69,0.482,1.527,1.082,1.874l4.335,2.503C63.338,62.938,63.822,62.659,63.824,61.97L63.824,61.97z M37.862,29.517
					c0.597,0.345,1.087,0.065,1.089-0.617c0.002-0.686-0.485-1.529-1.082-1.874l-11.92-6.882c-0.597-0.345-1.087-0.066-1.089,0.621
					c-0.002,0.682,0.485,1.525,1.082,1.87L37.862,29.517L37.862,29.517z M54.121,38.904c0.594,0.343,1.084,0.064,1.086-0.619
					c0.002-0.686-0.485-1.529-1.079-1.872c-0.597-0.345-1.087-0.065-1.089,0.621C53.037,37.716,53.524,38.559,54.121,38.904
					L54.121,38.904z M49.785,36.401c0.594,0.343,1.084,0.064,1.086-0.619c0.002-0.686-0.485-1.529-1.079-1.872
					c-0.597-0.345-1.087-0.065-1.089,0.621C48.702,35.213,49.188,36.056,49.785,36.401L49.785,36.401z M62.791,43.91
					c0.597,0.345,1.084,0.064,1.086-0.619c0.002-0.686-0.482-1.527-1.079-1.872c-0.597-0.345-1.087-0.065-1.089,0.62
					C61.707,42.722,62.194,43.565,62.791,43.91L62.791,43.91z M58.463,38.916c-0.597-0.345-1.087-0.066-1.089,0.62
					c-0.002,0.682,0.485,1.526,1.082,1.87c0.597,0.345,1.084,0.063,1.086-0.619C59.543,40.102,59.06,39.261,58.463,38.916
					L58.463,38.916z"/><path fill="#0083cb" d="M34.602,31.378c0.597,0.345,1.081,1.182,1.079,1.868c-0.002,0.69-0.489,0.967-1.086,0.622
					l-1.085-0.627l-3.25-1.876c-0.6-0.347-1.084-1.184-1.082-1.874c0.002-0.686,0.489-0.963,1.089-0.617L34.602,31.378z"/><polygon fill="#0083cb" points="68.173 59.491 75.221 55.395 75.214 57.886 68.166 61.982"/><polygon fill="#0083cb" points="68.201 49.528 75.249 45.432 75.221 55.395 68.173 59.491"/><polygon fill="#0083cb" points="68.208 47.037 75.256 42.942 75.249 45.432 68.201 49.528"/><path fill="#cdcdcd" d="M63.891,38.309l7.048-4.096c1.194,0.689,2.164,2.37,2.16,3.742l-7.048,4.096
					C66.055,40.68,65.085,38.999,63.891,38.309z"/><polygon fill="#0083cb" points="68.219 43.303 75.267 39.207 75.256 42.942 68.208 47.037"/><polygon fill="#0083cb" points="24.881 13.292 31.929 9.196 70.946 31.723 63.898 35.819"/><path fill="#0083cb" d="M63.898,35.819l7.048-4.096c2.385,1.377,4.329,4.733,4.321,7.484l-7.048,4.096
					C68.227,40.552,66.283,37.195,63.898,35.819z"/></g><g enable-background="new"><polygon fill="#cb7e00" points="68.173 59.491 75.221 55.395 77.389 56.647 70.341 60.742"/><path fill="#cb7e00" d="M79.238,59.841l-7.048,4.096c0.194-0.113,0.314-0.353,0.315-0.696l7.048-4.096
					C79.552,59.488,79.432,59.728,79.238,59.841z"/><polygon fill="#cba46e" points="68.201 49.528 75.249 45.432 77.417 46.684 70.369 50.779"/><polygon fill="#cba46e" points="70.369 50.779 77.417 46.684 77.389 56.647 70.341 60.742"/><polygon fill="#cba46e" points="70.369 50.779 70.341 60.742 68.173 59.491 68.201 49.528"/><polygon fill="#cb7e00" points="72.54 50.787 79.588 46.692 79.553 59.145 72.505 63.241"/><polygon fill="#cb7e00" points="68.208 47.037 75.256 42.942 78.509 44.82 71.461 48.915"/><path fill="#cb7e00" d="M71.461,48.915l7.048-4.096c0.6,0.347,1.081,1.182,1.079,1.872l-7.048,4.096
					C72.542,50.098,72.062,49.262,71.461,48.915z"/><path fill="#cb7e00" d="M71.461,48.915c0.6,0.347,1.081,1.182,1.079,1.872l-0.035,12.454
					c-0.002,0.69-0.486,0.965-1.086,0.619l-3.253-1.878l0.007-2.491l2.168,1.251l0.028-9.963l-2.168-1.251l0.007-2.491
					L71.461,48.915z"/></g><g><path fill="#0ab5fd" d="M67.807,86.3c0.205-0.121,0.318-0.364,0.319-0.702l-0.014,4.982
				c-0.002,0.69-0.489,0.967-1.089,0.62L23.671,66.171c-0.6-0.347-1.084-1.184-1.082-1.874l0.011-3.734l2.168,1.251l-0.007,2.487
				l41.187,23.78l0.007-2.487l1.082,0.625C67.33,86.389,67.602,86.417,67.807,86.3z"/><g enable-background="new"><path fill="#7f5334" d="M28.07,46.254c-0.597-0.345-1.084-1.184-1.082-1.87l2.167,1.251
					C29.153,46.321,28.667,46.599,28.07,46.254z"/><path fill="#7f5334" d="M29.162,43.145c0.597,0.345,1.084,1.188,1.082,1.87c-0.002,0.686-0.492,0.965-1.089,0.62
					l-2.168-1.251c-0.594-0.343-1.081-1.186-1.079-1.872c0.002-0.682,0.492-0.962,1.086-0.619L29.162,43.145z"/><polygon fill="#92ebfd" points="31.048 36.749 30.498 38.926 25.691 36.15 25.155 33.346"/><path fill="#0ab5fd" d="M34.625,31.33c0.6,0.347,1.081,1.182,1.079,1.868c-0.002,0.69-0.486,0.969-1.086,0.622
					l-1.085-0.627l-3.25-1.876c-0.6-0.346-1.084-1.184-1.082-1.874c0.002-0.686,0.489-0.963,1.089-0.617L34.625,31.33z"/><path fill="#0ab5fd" d="M34.618,33.82c0.6,0.347,1.084,0.067,1.086-0.622c0.002-0.686-0.479-1.522-1.079-1.868
					l19.508,11.263c0.294,0.17,0.561,0.449,0.768,0.804c0.204,0.356,0.314,0.733,0.314,1.067l-0.056,19.926l-1.085-0.627
					c-0.6-0.347-1.084-0.067-1.086,0.622c-0.002,0.69,0.479,1.522,1.079,1.868L35.328,55.434c-0.597-0.345-1.084-1.184-1.082-1.87
					c0.002-0.686,0.492-0.965,1.089-0.621l17.657,10.194l0.053-18.679L35.701,34.445L35.69,38.18
					c-0.001,0.337-0.11,0.587-0.315,0.703c-0.208,0.118-0.48,0.087-0.77-0.081l-1.322-0.763l0.208-0.825
					c0.084-0.326,0.012-0.761-0.195-1.182c-0.203-0.422-0.519-0.781-0.851-0.973l1.082,0.625l0.007-2.491L34.618,33.82z"/><path fill="#0ab5fd" d="M63.925,35.772c2.385,1.377,4.329,4.733,4.321,7.484l-0.011,3.734l-0.007,2.491L68.2,59.444
					l-0.007,2.491l-0.067,23.664c-0.001,0.338-0.114,0.581-0.319,0.702c-0.205,0.117-0.477,0.089-0.77-0.081L22.6,60.563
					l-1.082-0.625c-0.294-0.17-0.565-0.455-0.768-0.807c-0.207-0.358-0.314-0.729-0.314-1.067l0.025-8.719
					c0.008-2.751,1.955-3.861,4.349-2.479l1.855,1.071c0.606,0.365,1.081,1.186,1.079,1.872c-0.002,0.686-0.489,0.963-1.086,0.619
					l-1.855-1.071c-1.191-0.688-2.171-0.129-2.175,1.239l-0.021,7.476l43.355,25.031l0.117-41.099
					c0.004-1.372-0.97-3.055-2.16-3.742l-39.02-22.528c-1.191-0.688-2.171-0.133-2.175,1.239l-0.035,12.454l1.085,0.627
					c-0.335-0.194-0.649-0.198-0.857-0.013c-0.205,0.183-0.28,0.533-0.198,0.955l0.202,1.061l-1.322-0.763
					c-0.294-0.17-0.565-0.451-0.768-0.807c-0.207-0.355-0.314-0.729-0.313-1.067l0.039-13.697c0.008-2.751,1.955-3.861,4.349-2.479
					L63.925,35.772z"/><path fill="#0ab5fd" d="M33.295,36.032c0.207,0.421,0.279,0.855,0.195,1.182l-0.208,0.825l-0.889,3.532
					c-0.123,0.484-0.558,0.622-1.056,0.334l-2.168-1.251l-2.168-1.251l-2.168-1.252c-0.495-0.286-0.928-0.925-1.048-1.549
					l-0.866-4.545l-0.202-1.061c-0.082-0.422-0.007-0.772,0.198-0.955c0.208-0.185,0.522-0.18,0.857,0.013l8.67,5.006
					C32.776,35.251,33.091,35.61,33.295,36.032z M30.498,38.926l0.55-2.177l-5.893-3.402l0.536,2.804L30.498,38.926L30.498,38.926z"/><path fill="#fff" d="M63.918,38.262c1.191,0.688,2.164,2.37,2.16,3.742l-0.117,41.099L22.607,58.072l0.021-7.476
					c0.004-1.368,0.984-1.927,2.175-1.239l1.855,1.071c0.597,0.345,1.084,0.067,1.086-0.619l2.18,1.259
					c-0.002,0.686,0.472,1.518,1.069,1.863c0.607,0.35,1.084,0.067,1.086-0.619l2.167,1.251c-0.002,0.686,0.485,1.525,1.082,1.87
					l18.739,10.819l8.67,5.006c0.6,0.347,1.087,0.073,1.089-0.617c0.002-0.69-0.482-1.527-1.082-1.874l-7.585-4.379l0.056-19.926
					c0.001-0.334-0.11-0.71-0.314-1.067c-0.207-0.354-0.475-0.634-0.768-0.804L34.625,31.33l-4.335-2.503
					c-0.6-0.346-1.087-0.069-1.089,0.617c-0.002,0.69,0.482,1.527,1.082,1.874l3.25,1.876l-0.007,2.491l-1.082-0.625l-8.67-5.006
					l-1.085-0.627l0.035-12.454c0.004-1.372,0.984-1.927,2.175-1.239L63.918,38.262z M63.851,61.923l0.035-12.454
					c0.002-0.686-0.482-1.524-1.082-1.87l-4.335-2.503c-0.6-0.347-1.084-0.067-1.086,0.619l-0.035,12.454
					c-0.002,0.69,0.479,1.526,1.079,1.872l4.335,2.503C63.362,62.89,63.849,62.612,63.851,61.923L63.851,61.923z M37.886,29.468
					c0.597,0.345,1.087,0.065,1.089-0.617c0.002-0.686-0.485-1.529-1.082-1.874l-11.92-6.882c-0.597-0.345-1.087-0.065-1.089,0.621
					c-0.002,0.682,0.485,1.526,1.082,1.87L37.886,29.468L37.886,29.468z M54.144,38.855c0.597,0.345,1.087,0.065,1.089-0.617
					c0.002-0.686-0.485-1.529-1.082-1.874c-0.597-0.345-1.084-0.064-1.086,0.622C53.064,37.669,53.547,38.51,54.144,38.855
					L54.144,38.855z M49.809,36.352c0.597,0.345,1.087,0.065,1.089-0.617c0.002-0.686-0.485-1.529-1.082-1.874
					c-0.597-0.345-1.084-0.064-1.086,0.622C48.729,35.166,49.212,36.007,49.809,36.352L49.809,36.352z M62.815,43.861
					c0.597,0.345,1.087,0.066,1.089-0.617c0.002-0.686-0.485-1.529-1.082-1.874c-0.597-0.345-1.084-0.063-1.086,0.622
					C61.734,42.675,62.218,43.516,62.815,43.861L62.815,43.861z M58.486,38.867c-0.597-0.345-1.084-0.064-1.086,0.622
					c-0.002,0.682,0.482,1.524,1.079,1.868c0.597,0.345,1.087,0.066,1.089-0.617C59.57,40.055,59.083,39.212,58.486,38.867
					L58.486,38.867z"/><path fill="#7f5334" d="M37.893,26.977c0.597,0.345,1.084,1.188,1.082,1.874c-0.002,0.682-0.492,0.962-1.089,0.617
					l-11.92-6.882c-0.597-0.345-1.084-1.188-1.082-1.87c0.002-0.686,0.492-0.965,1.089-0.621L37.893,26.977z"/><path fill="#0ab5fd" d="M62.744 68.768c.6.347 1.084 1.184 1.082 1.874-.002.69-.489.963-1.089.617l-8.67-5.006c-.6-.346-1.081-1.179-1.079-1.868.002-.69.486-.969 1.086-.622l1.085.627L62.744 68.768zM49.816 33.861c.597.345 1.084 1.188 1.082 1.874-.002.682-.492.962-1.089.617-.597-.345-1.081-1.186-1.079-1.868C48.732 33.798 49.219 33.517 49.816 33.861zM58.486 38.867c.597.345 1.084 1.188 1.082 1.874-.002.682-.492.962-1.089.617-.597-.345-1.081-1.186-1.079-1.868C57.403 38.804 57.89 38.522 58.486 38.867z"/></g><polygon fill="#92ebfd" points="65.955 85.594 65.948 88.081 24.76 64.302 24.767 61.815"/><polygon fill="#fdd6a0" points="70.396 50.732 70.368 60.695 68.2 59.444 68.228 49.481"/><path fill="#fdb021" d="M71.485,48.867c0.6,0.347,1.084,1.184,1.082,1.874l-0.035,12.454
				c-0.002,0.69-0.489,0.963-1.089,0.617l-3.25-1.876l0.007-2.491l2.168,1.251l0.028-9.963l-2.168-1.251l0.007-2.491L71.485,48.867z
				"/><path fill="#0ab5fd" d="M32.078,52.312c-0.002,0.686-0.479,0.969-1.086,0.619c-0.597-0.345-1.071-1.177-1.069-1.863
				c0.002-0.686,0.479-0.973,1.076-0.628C31.606,50.791,32.08,51.626,32.078,52.312z"/><polygon fill="#7f5334" points="27.002 39.402 29.17 40.654 29.162 43.145 26.995 41.893"/><polygon fill="#fdb2b0" points="61.715 49.465 61.687 59.428 59.519 58.176 59.547 48.213"/><path fill="#fd3e5f" d="M62.804,47.599c0.6,0.347,1.084,1.184,1.082,1.87l-0.035,12.454
				c-0.002,0.69-0.489,0.967-1.089,0.621l-4.335-2.503c-0.6-0.347-1.081-1.182-1.079-1.872l0.035-12.454
				c0.002-0.686,0.486-0.965,1.086-0.619L62.804,47.599z M61.687,59.428l0.028-9.963l-2.168-1.251l-0.028,9.963L61.687,59.428
				L61.687,59.428z"/><path fill="#0ab5fd" d="M62.822 41.37c.597.345 1.084 1.188 1.082 1.874-.002.682-.492.961-1.089.617-.597-.345-1.081-1.186-1.079-1.868C61.738 41.306 62.225 41.025 62.822 41.37zM54.151 36.364c.597.345 1.084 1.188 1.082 1.874-.002.682-.492.962-1.089.617-.597-.345-1.081-1.186-1.079-1.868C53.068 36.301 53.554 36.02 54.151 36.364z"/></g></svg>