<svg xmlns="http://www.w3.org/2000/svg" enable-background="new 0 0 52 52" viewBox="0 0 52 52"><path fill="#424e9b" d="M49.55185,49.54885c-0.60153,0.60153-1.5988,0.60153-2.20033,0l-7.30532-7.30532
		c-0.60153-0.60153-0.60153-1.5988,0-2.20033c0.60153-0.60153,1.5988-0.60153,2.20033,0l7.30532,7.30532
		C50.15337,47.95005,50.15337,48.94732,49.55185,49.54885z"/><polygon fill="#b9d4e7" points="7.126 4.786 17.617 15.277 15.28 17.614 4.789 7.123 1.997 2"/><polygon fill="#d7ecf9" points="2.319 2.59 4.789 7.123 15.28 17.614 16.311 16.583"/><path fill="#77c0ed" d="M29.40082,23.46967l15.98785,15.98785c1.63836,1.63836,1.63044,4.28979-0.00792,5.92816
		s-4.28187,1.63836-5.92023,0L23.47266,29.39783L29.40082,23.46967z"/><path fill="#9df" d="M46.35424,43.85808c-0.19782,0.56197-0.52235,1.07645-0.9735,1.5276
		c-1.63836,1.63836-4.28187,1.63836-5.92023,0L23.47266,29.39783l2.50109-2.50109l15.98785,15.98785
		C43.15674,44.07972,44.87418,44.40425,46.35424,43.85808z"/><path fill="#424e9b" d="M30.08751,20.58264c0.60153,0.60153,0.60153,1.5988,0,2.20033l-7.30532,7.30532
		c-0.60153,0.60153-1.5988,0.60153-2.20033,0s-0.60153-1.5988,0-2.20033l7.30532-7.30532
		C28.48872,19.98111,29.48598,19.98111,30.08751,20.58264z"/><path fill="#515fa5" d="M25.83125,24.83891c0.60153,0.60153,0.60153,1.5988,0,2.20033l-3.04717,3.04717
		c-0.60153,0.60153-1.5988,0.60153-2.20033,0s-0.60153-1.5988,0-2.20033l3.04717-3.04717
		C24.23245,24.23738,25.22972,24.23738,25.83125,24.83891z"/><path fill="#d7ecf9" d="M18.52403,12.96217l8.49181,8.49181l-5.55886,5.55886l-8.49181-8.49181
		c-0.50456-0.50456-0.50456-1.32261,0-1.82717l3.73169-3.73169C17.20142,12.45762,18.01947,12.45762,18.52403,12.96217z"/><path fill="#b9d4e7" d="M18.52593,12.95883l8.49253,8.49253l-0.44323,0.44323l-8.49253-8.49253
		c-0.50656-0.50656-1.31388-0.50656-1.82043,0l0.4353-0.4353C17.20413,12.46019,18.01937,12.45227,18.52593,12.95883z"/><path fill="#e6f5fc" d="M16.23855,15.24621l8.49253,8.49253l-3.27673,3.27673l-8.49253-8.49253
		c-0.50656-0.50656-0.49863-1.3218,0.00792-1.82836l1.44842-1.44842C14.91675,14.74758,15.73199,14.73965,16.23855,15.24621z"/></svg>