<svg xmlns="http://www.w3.org/2000/svg" id="Layer_1" enable-background="new 0 0 64 64" viewBox="0 0 64 64"><path fill="#ff5252" d="M55.234,47.747L44.627,37.14l-9.899,9.899v4.243l8.485,8.485c0.976,0.976,2.559,0.976,3.536,0l8.485-8.485
				C56.21,50.306,56.21,48.723,55.234,47.747z M44.273,56.586l-4.596-4.596l7.778-7.778l4.596,4.596L44.273,56.586z"/><path fill="#263238" d="M44.98 61c-.801 0-1.555-.312-2.121-.879l-8.485-8.485c-.094-.094-.146-.221-.146-.354V47.04c0-.133.053-.26.146-.354l9.899-9.9c.188-.188.52-.188.707 0l10.606 10.607c.567.566.879 1.32.879 2.121s-.312 1.555-.879 2.122l-8.485 8.485C46.535 60.688 45.782 61 44.98 61zM35.228 51.076l8.339 8.338c.756.756 2.073.756 2.829 0l8.485-8.485c.378-.378.586-.88.586-1.415s-.208-1.036-.586-1.414l0 0L44.627 37.847l-9.399 9.4V51.076zM44.273 57.086c-.128 0-.256-.049-.354-.146l-4.596-4.596c-.195-.195-.195-.512 0-.707l7.778-7.778c.195-.195.512-.195.707 0l4.596 4.596c.195.195.195.512 0 .707l-7.778 7.778C44.529 57.037 44.401 57.086 44.273 57.086zM40.384 51.99l3.889 3.889 7.071-7.071-3.889-3.889L40.384 51.99zM34.905 44.888c-.011 0-.021 0-.032-.001l-4.529-.287c-.275-.018-.485-.255-.467-.531l.388-6.144-5.434-.26c-.134-.006-.259-.066-.349-.166-.089-.1-.135-.232-.126-.365l.393-6.139-5.431-.257c-.134-.006-.26-.066-.349-.166-.089-.1-.135-.231-.126-.365l.393-6.14-5.432-.258c-.134-.006-.259-.066-.349-.166-.089-.1-.135-.231-.126-.365l.393-6.139-5.43-.257c-.25-.012-.452-.206-.475-.455L7.536 13.32c-.013-.148.04-.293.145-.398l6.364-6.364c.195-.195.512-.195.707 0l28.991 28.991c.195.195.195.512 0 .707s-.512.195-.707 0L14.398 7.619l-5.845 5.845.219 2.441 5.502.26c.134.006.26.066.349.166.089.1.135.231.126.365l-.393 6.14 5.432.258c.134.006.259.066.349.166.089.1.135.231.126.365l-.393 6.139 5.431.257c.134.006.26.066.349.166.089.1.135.231.126.365l-.393 6.139 5.434.26c.134.006.259.066.349.166.089.1.135.231.126.365l-.389 6.152 4.03.255c.275.018.485.255.467.531C35.387 44.685 35.167 44.888 34.905 44.888z"/><path fill="#263238" d="M16.444 60.662c-.401 0-.778-.156-1.061-.439l-9.899-9.899c-.584-.585-.584-1.536 0-2.121L21.67 32.015c.195-.195.512-.195.707 0s.195.512 0 .707L6.19 48.909c-.194.195-.194.512 0 .707l9.899 9.899c.188.189.518.189.707 0l13.731-13.731c.195-.195.512-.195.707 0s.195.512 0 .707L17.504 60.222C17.221 60.505 16.844 60.662 16.444 60.662zM43.667 33.853c-.128 0-.256-.049-.354-.146-.195-.195-.195-.512 0-.707L57.81 18.503c.094-.095.146-.22.146-.354s-.052-.259-.146-.354L47.91 7.896c-.194-.195-.511-.195-.708 0L32.707 22.392c-.195.195-.512.195-.707 0s-.195-.512 0-.707L46.496 7.189c.567-.567 1.556-.566 2.122 0l9.899 9.899c.283.283.439.66.439 1.061s-.156.777-.439 1.061L44.021 33.706C43.923 33.804 43.795 33.853 43.667 33.853z"/><path fill="#263238" d="M39.071 24.306c-.128 0-.256-.049-.354-.146-.195-.195-.195-.512 0-.707l1.339-1.339c1.511-1.511 3.52-2.343 5.657-2.343h.858c1.869 0 3.627-.728 4.95-2.05l3.46-3.46c.195-.195.512-.195.707 0s.195.512 0 .707l-3.46 3.46c-1.512 1.511-3.521 2.343-5.657 2.343h-.858c-1.87 0-3.628.728-4.95 2.05l-1.339 1.339C39.327 24.257 39.199 24.306 39.071 24.306zM40.485 29.963c-.128 0-.256-.049-.354-.146-.195-.195-.195-.512 0-.707l3.536-3.536c.195-.195.512-.195.707 0s.195.512 0 .707l-3.536 3.536C40.741 29.915 40.613 29.963 40.485 29.963zM7.958 52.591c-.128 0-.256-.049-.354-.146-.195-.195-.195-.512 0-.707l7.964-7.965c.195-.195.512-.195.707 0s.195.512 0 .707l-7.964 7.965C8.214 52.542 8.086 52.591 7.958 52.591zM18.211 53.651c-.128 0-.256-.049-.354-.146-.195-.195-.195-.512 0-.707l4.243-4.243c.39-.39.39-1.024 0-1.415-.378-.377-.586-.879-.586-1.414 0-.534.208-1.036.586-1.414l4.076-4.076c.195-.195.512-.195.707 0s.195.512 0 .707l-4.076 4.076c-.189.189-.293.44-.293.707s.104.518.293.707c.78.78.78 2.049 0 2.829l-4.243 4.243C18.467 53.603 18.339 53.651 18.211 53.651zM13.262 54.358c-.128 0-.256-.049-.354-.146-.195-.195-.195-.512 0-.707l3.182-3.182c.195-.195.512-.195.707 0s.195.512 0 .707l-3.182 3.182C13.518 54.31 13.39 54.358 13.262 54.358zM47.557 14.407c-.128 0-.256-.049-.354-.146-.195-.195-.195-.512 0-.707l3.535-3.536c.195-.195.512-.195.707 0s.195.512 0 .707L47.91 14.26C47.812 14.358 47.685 14.407 47.557 14.407zM44.021 17.942c-.128 0-.256-.049-.354-.146-.195-.195-.195-.512 0-.707l1.414-1.414c.195-.195.512-.195.707 0s.195.512 0 .707l-1.414 1.414C44.277 17.894 44.149 17.942 44.021 17.942zM59 34.206h-9c-.276 0-.5-.224-.5-.5s.224-.5.5-.5h9c.276 0 .5.224.5.5S59.276 34.206 59 34.206zM63 34.206h-2c-.276 0-.5-.224-.5-.5s.224-.5.5-.5h2c.276 0 .5.224.5.5S63.276 34.206 63 34.206zM3 34.206H1c-.276 0-.5-.224-.5-.5s.224-.5.5-.5h2c.276 0 .5.224.5.5S3.276 34.206 3 34.206zM14 34.206H5c-.276 0-.5-.224-.5-.5s.224-.5.5-.5h9c.276 0 .5.224.5.5S14.276 34.206 14 34.206zM36.5 6h-4C32.224 6 32 5.776 32 5.5S32.224 5 32.5 5h4C36.776 5 37 5.224 37 5.5S36.776 6 36.5 6z"/><path fill="#263238" d="M34.5 8C34.224 8 34 7.776 34 7.5v-4C34 3.224 34.224 3 34.5 3S35 3.224 35 3.5v4C35 7.776 34.776 8 34.5 8zM31.5 11.5h-4c-.276 0-.5-.224-.5-.5s.224-.5.5-.5h4c.276 0 .5.224.5.5S31.776 11.5 31.5 11.5z"/><g><path fill="#263238" d="M29.5,13.5c-0.276,0-0.5-0.224-0.5-0.5V9c0-0.276,0.224-0.5,0.5-0.5S30,8.724,30,9v4
				C30,13.276,29.776,13.5,29.5,13.5z"/></g></svg>