<?xml version="1.0" encoding="UTF-8" standalone="no"?>
<!-- Created with Inkscape (http://www.inkscape.org/) -->

<svg
   width="1080"
   height="1080"
   viewBox="0 0 285.75 285.75001"
   version="1.1"
   id="svg8"
   inkscape:export-filename="/home/velle/a/osaawebsite/assets/images/favicon4.png"
   inkscape:export-xdpi="2.8444445"
   inkscape:export-ydpi="2.8444445"
   inkscape:version="1.1.2 (0a00cf5339, 2022-02-04)"
   sodipodi:docname="icon.svg"
   xmlns:inkscape="http://www.inkscape.org/namespaces/inkscape"
   xmlns:sodipodi="http://sodipodi.sourceforge.net/DTD/sodipodi-0.dtd"
   xmlns="http://www.w3.org/2000/svg"
   xmlns:svg="http://www.w3.org/2000/svg"
   xmlns:rdf="http://www.w3.org/1999/02/22-rdf-syntax-ns#"
   xmlns:cc="http://creativecommons.org/ns#"
   xmlns:dc="http://purl.org/dc/elements/1.1/">
  <defs
     id="defs2">
    <pattern
       id="pattern7335"
       patternTransform="matrix(0.26458333,0,0,0.26458333,26.785751,-0.03942005)"
       height="351.51342"
       width="404.95182"
       patternUnits="userSpaceOnUse">
      <rect
         style="display:inline;fill:#ffffff;fill-opacity:1;stroke:none;stroke-width:0.37795275;stroke-linejoin:round;stroke-miterlimit:4;stroke-dasharray:none;stroke-opacity:1"
         id="rect7317"
         width="404.95181"
         height="351.21542"
         x="0"
         y="0.14896527" />
      <g
         inkscape:tile-y0="-27.877182"
         inkscape:tile-x0="-24.999996"
         inkscape:label="Layer 1"
         id="use7179"
         transform="matrix(3.7795276,0,0,3.7795276,-9.7693657,-87.624199)"
         style="display:inline;fill:#f2f2f2;stroke:none">
        <g
           style="fill:#f2f2f2;stroke:none"
           id="g7245"
           transform="matrix(0.25880155,0.05500997,-0.05500997,0.25880155,93.158208,73.999722)"
           inkscape:transform-center-x="14.068322"
           inkscape:transform-center-y="0.032743566" />
        <g
           style="fill:#f2f2f2;stroke:none"
           inkscape:transform-center-y="14.157977"
           inkscape:transform-center-x="10.357629"
           transform="matrix(0.17704081,-0.19662373,0.19662373,0.17704081,72.13672,131.31739)"
           id="g7247" />
        <g
           style="fill:#f2f2f2;stroke:none"
           id="g7249"
           transform="matrix(-0.08176074,-0.2516337,0.2516337,-0.08176074,111.26453,178.18137)"
           inkscape:transform-center-x="-10.414336"
           inkscape:transform-center-y="14.125234" />
        <g
           style="fill:#f2f2f2;stroke:none"
           inkscape:transform-center-y="-0.032743373"
           inkscape:transform-center-x="-14.068321"
           transform="matrix(-0.25880155,-0.05500997,0.05500997,-0.25880155,171.41384,167.72768)"
           id="g7251" />
        <g
           style="fill:#f2f2f2;stroke:none"
           id="g7253"
           transform="matrix(-0.17704081,0.19662373,-0.19662373,-0.17704081,192.43533,110.41001)"
           inkscape:transform-center-x="-10.35763"
           inkscape:transform-center-y="-14.157979" />
        <g
           style="fill:#f2f2f2;stroke:none"
           inkscape:transform-center-y="-14.125238"
           inkscape:transform-center-x="10.414335"
           transform="matrix(0.08176074,0.2516337,-0.2516337,0.08176074,153.30752,63.546028)"
           id="g7257">
          <path
             inkscape:connector-curvature="0"
             id="path7255"
             style="fill:#f2f2f2;stroke:none;stroke-width:1.20354486"
             d="m -61.571082,170.93189 2.35375,11.04175 -14.73732,13.4016 -11.8489,-3.84491 -14.825278,13.32122 2.638588,12.39955 -13.474428,12.25198 -9.73951,-45.89578 z m 0,-2e-5 -2.34083,-11.04449 -18.91414,-6.24877 -9.26064,8.33188 -18.961788,-6.13955 -2.63289,-12.40078 -17.29283,-5.71219 9.76999,45.88933 z m 55.2754696,17.68886 8.38557,-7.55928 18.9748004,6.0621 2.59465,12.1839 18.94915,6.17846 9.41904,-8.48487 17.34774,5.54322 -34.87716,31.38255 z m 0,2e-5 -8.3943996,7.54946 4.04548,19.50452 11.8459496,3.854 4.16388,19.49117 -9.42295,8.48054 3.69952005,17.83211 34.85633035,-31.40572 z m -32.7440496,7.11224 10.73932,3.48248 4.23746,19.46369 -9.25423,8.33899 4.12387,19.49968 12.05763,3.91469 3.87331,17.79519 -44.61667,-14.51324 z m -1e-5,0 -10.73523,-3.49503 -14.86866,13.25574 2.5853,12.18589 -14.79791,13.35162 -12.05582,-3.92024 -13.593318,12.11993 44.626308,14.48361 z m -177.871978,-21.80898 18.83933,-57.98149 z m 1e-5,0 10.73524,3.49503 14.86866,-13.25575 -2.58531,-12.18589 14.79791,-13.35161 12.05583,3.92024 13.59333,-12.11994 -44.62633,-14.4836 z m 22.5314,24.80108 -2.35375,-11.04175 14.73732,-13.4016 11.8489,3.84491 14.82528,-13.32122 -2.63859,-12.39956 13.47443,-12.25197 9.73951,45.89578 z m 0,1e-5 2.34083,11.0445 18.91414,6.24877 9.26064,-8.33189 18.96179,6.13956 2.63289,12.40077 17.29284,5.7122 -9.77,-45.88933 z m -10.21265,31.91328 8.38557,-7.55928 18.9748,6.0621 2.59465,12.1839 18.94915,6.17846 9.41904,-8.48487 17.34774,5.54322 -34.87716,31.38255 z m 0,2e-5 -8.3944,7.54946 4.04548,19.50452 11.84595,3.854 4.16388,19.49117 -9.42295,8.48054 3.69952,17.83211 34.85633,-31.40572 z m -32.74405,7.11224 10.73932,3.48248 4.23746,19.46369 -9.25423,8.33899 4.12387,19.49968 12.05763,3.91469 3.87331,17.79519 -44.61667,-14.51324 z m -1e-5,0 -18.83933,57.98152 z m 311.49497,83.72866 2.35375,11.04175 -14.73732,13.4016 -11.8489,-3.84491 -14.825278,13.32122 2.638588,12.39955 -13.474428,12.25198 -9.739506,-45.89578 z m 0,-2e-5 -2.34083,-11.04449 -18.91414,-6.24877 -9.26064,8.33188 -18.961792,-6.13955 -2.632887,-12.40078 -17.2928286,-5.71219 9.7699876,45.88933 z m 10.21266,-31.91328 -8.38557,7.55929 -18.9748,-6.0621 -2.59465,-12.18391 -18.949149,-6.17846 -9.419039,8.48487 L 8.6997334,275.64248 43.5769,244.25993 Z m 0,0 8.3944,-7.54947 -4.04547,-19.50452 -11.84596,-3.854 -4.16388,-19.49117 9.42295,-8.48054 -3.69951,-17.83212 -34.85634,31.40572 z m 32.74405,-7.11224 -10.7393,-3.48247 -4.23748,-19.4637 9.25425,-8.33899 -4.12387,-19.49968 -12.05763,-3.91469 -3.87331,-17.79519 44.61667,14.51323 z m 1e-5,0 18.83933,-57.98152 z m -20.4253,63.82664 -18.83931,57.98148 z m -1e-5,0 -10.73523,-3.49503 -14.86866,13.25574 2.5853,12.18589 -14.79791,13.35162 -12.05582,-3.92024 -13.593321,12.11993 44.626311,14.48361 z m -220.82871,17.2166 2.35375,11.04175 -14.73732,13.4016 -11.8489,-3.84491 -14.82527,13.32122 2.63858,12.39955 -13.47442,12.25198 -9.73951,-45.89578 z m 0,-2e-5 -2.34083,-11.04449 -18.91414,-6.24877 -9.26064,8.33188 -18.96179,-6.13955 -2.63288,-12.40078 -17.29283,-5.71219 9.76998,45.88933 z m 10.21266,-31.91328 -8.38557,7.55929 -18.9748,-6.0621 -2.59465,-12.18391 -18.94914,-6.17846 -9.41904,8.48487 -17.34774,-5.54321 34.87716,-31.38255 z m 0,0 8.3944,-7.54947 -4.04547,-19.50452 -11.84596,-3.854 -4.16388,-19.49117 9.42295,-8.48054 -3.69951,-17.83212 -34.85634,31.40572 z m 32.744055,-7.11224 -10.7393,-3.48247 -4.23748,-19.4637 9.25425,-8.33899 -4.12387,-19.49968 -12.057635,-3.91469 -3.87331,-17.79519 44.616675,14.51323 z m 1e-5,0 10.73524,3.49504 14.86866,-13.25575 -2.58531,-12.1859 14.79791,-13.35161 12.05583,3.92024 13.59333,-12.11993 -44.62633,-14.48361 z m 22.5314,24.80109 -2.35375,-11.04175 14.73732,-13.40161 11.8489,3.84492 14.82528,-13.32122 -2.63859,-12.39956 13.4744296,-12.25198 9.73950996,45.89579 z m 0,10e-6 2.34083,11.0445 18.91414,6.24877 9.26064,-8.33189 18.9617896,6.13956 2.63289,12.40077 17.2928404,5.7122 -9.77000044,-45.88933 z m -10.21265,31.91328 8.38557,-7.55928 18.9748,6.0621 2.59465,12.1839 18.94915,6.17846 9.41904,-8.48487 17.3477396,5.54322 -34.8771596,31.38255 z m 0,2e-5 -8.3944,7.54946 4.04548,19.50452 11.84595,3.854 4.16388,19.49117 -9.42295,8.48054 3.69952,17.83211 34.85633,-31.40572 z m -32.744055,7.11224 10.739325,3.48248 4.23746,19.46369 -9.25423,8.33899 4.12387,19.49968 12.05763,3.91469 3.87331,17.79519 -44.616675,-14.51324 z m -1e-5,0 -10.73523,-3.49503 -14.86866,13.25574 2.5853,12.18589 -14.79791,13.35162 -12.05582,-3.92024 -13.59332,12.11993 44.62631,14.48361 z m -177.87198,-21.80895 18.83933,-57.98149 z m 10e-6,0 10.73524,3.49503 14.86866,-13.25574 -2.58531,-12.1859 14.79791,-13.35161 12.05583,3.92024 13.59333,-12.11993 -44.62633,-14.48361 z m 22.5314,24.80109 -2.35375,-11.04175 14.73732,-13.40161 11.8489,3.84492 14.82528,-13.32122 -2.63859,-12.39956 13.47443,-12.25198 9.73951,45.89579 z m 0,1e-5 2.34083,11.0445 18.91414,6.24877 9.26064,-8.33189 18.96179,6.13956 2.63289,12.40077 17.29284,5.7122 -9.77,-45.88933 z m -10.21265,31.91328 8.38557,-7.55928 18.9748,6.0621 2.59465,12.1839 18.94915,6.17846 9.41904,-8.48487 17.34774,5.54322 -34.87716,31.38255 z m 0,2e-5 -8.3944,7.54946 4.04548,19.50452 11.84595,3.854 4.16388,19.49117 -9.42295,8.48054 3.69952,17.83211 34.85633,-31.40572 z m -32.74405,7.11224 10.73932,3.48248 4.23746,19.46369 -9.25423,8.33899 4.12387,19.49968 12.05763,3.91469 3.87331,17.79519 -44.61667,-14.51324 z m -10e-6,0 -18.83933,57.98152 z m 311.494967,83.72865 2.35375,11.04175 -14.73732018,13.4016 -11.84889982,-3.84491 -14.825278,13.32122 2.638588,12.39955 -13.474428,12.25198 -9.739506,-45.89578 z m 0,-2e-5 -2.3408302,-11.04449 -18.91414,-6.24877 -9.2606398,8.33188 -18.961792,-6.13955 -2.632887,-12.40078 -17.292829,-5.71219 9.769988,45.88933 z m 10.21266,-31.91327 -8.38557,7.55928 -18.9748002,-6.0621 -2.59465,-12.18391 -18.9491488,-6.17845 -9.419039,8.48487 -17.347739,-5.54322 34.877167,-31.38255 z m 0,0 8.3944,-7.54948 -4.04547,-19.50451 -11.84596,-3.85401 -4.16388,-19.49117 9.42295,-8.48053 -3.69951,-17.83213 -34.85634,31.40572 z m 32.74405,-7.11225 -10.7393,-3.48246 -4.23748,-19.46371 9.25425,-8.33899 -4.12387,-19.49968 -12.05763,-3.91469 -3.87331,-17.79519 44.61667,14.51324 z m 1e-5,0 18.83933,-57.98151 z m -20.4253,63.82664 -18.83931,57.98148 z m -1e-5,0 -10.73523,-3.49503 -14.8686602,13.25574 2.5853002,12.18589 -14.7979102,13.35162 -12.0558198,-3.92024 -13.593321,12.11993 44.626311,14.48361 z m -210.616037,-14.69671 -8.38557,7.55928 -18.9748,-6.0621 -2.59465,-12.1839 -18.94915,-6.17846 -9.41904,8.48487 -17.34774,-5.54321 34.87717,-31.38255 z m 0,0 8.3944,-7.54948 -4.04547,-19.50451 -11.84596,-3.85401 -4.16388,-19.49117 9.42295,-8.48053 -3.69951,-17.83213 -34.85634,31.40572 z m 32.74405,-7.11224 -10.7393,-3.48247 -4.23748,-19.46371 9.25425,-8.33899 -4.12387,-19.49967 -12.05763,-3.91469 -3.87331,-17.79519 44.61667,14.51323 z m 1e-5,0 10.73524,3.49503 14.86866,-13.25575 -2.58531,-12.18589 14.79791,-13.35161 12.055827,3.92024 13.59333,-12.11994 -44.626327,-14.4836 z m 22.5314,24.80108 -2.35375,-11.04175 14.73732,-13.4016 11.848897,3.84491 14.82528,-13.32122 -2.63859,-12.39956 13.47443,-12.25197 9.73951,45.89578 z m 0,10e-6 2.34083,11.0445 18.914137,6.24877 9.26064,-8.33189 18.96179,6.13956 2.63289,12.40077 17.29284,5.7122 -9.77,-45.88933 z" />
        </g>
      </g>
    </pattern>
  </defs>
  <sodipodi:namedview
     id="base"
     pagecolor="#ffffff"
     bordercolor="#666666"
     borderopacity="1.0"
     inkscape:pageopacity="0.0"
     inkscape:pageshadow="2"
     inkscape:zoom="0.35"
     inkscape:cx="681.42857"
     inkscape:cy="598.57143"
     inkscape:document-units="mm"
     inkscape:current-layer="layer2"
     showgrid="false"
     units="px"
     borderlayer="true"
     inkscape:showpageshadow="false"
     inkscape:window-width="1530"
     inkscape:window-height="836"
     inkscape:window-x="70"
     inkscape:window-y="27"
     inkscape:window-maximized="1"
     showguides="true"
     inkscape:guide-bbox="true"
     inkscape:snap-bbox="true"
     inkscape:snap-bbox-midpoints="true"
     inkscape:snap-object-midpoints="true"
     inkscape:pagecheckerboard="0">
    <sodipodi:guide
       position="139.09524,138.33929"
       orientation="-0.70710678,0.70710678"
       id="guide4604"
       inkscape:locked="false" />
    <sodipodi:guide
       position="285.75,-1.5119048"
       orientation="0.70710678,0.70710678"
       id="guide4606"
       inkscape:locked="false" />
  </sodipodi:namedview>
  <metadata
     id="metadata5">
    <rdf:RDF>
      <cc:Work
         rdf:about="">
        <dc:format>image/svg+xml</dc:format>
        <dc:type
           rdf:resource="http://purl.org/dc/dcmitype/StillImage" />
      </cc:Work>
    </rdf:RDF>
  </metadata>
  <g
     inkscape:groupmode="layer"
     id="layer1"
     inkscape:label="bg"
     sodipodi:insensitive="true">
    <rect
       style="fill:#4d4d4d;stroke-width:0.499999;stop-color:#000000"
       id="rect878"
       width="285.81308"
       height="285.81308"
       x="-0.063086972"
       y="1.4488229" />
  </g>
  <g
     inkscape:groupmode="layer"
     id="layer2"
     inkscape:label="logo"
     transform="translate(0,-285.75)"
     style="display:inline">
    <g
       id="g5379"
       transform="matrix(0.41010416,0,0,0.41010416,-1356.9997,-412.49576)" />
    <g
       id="layer6"
       inkscape:label="Text"
       style="display:inline"
       transform="matrix(0.41010416,0,0,0.41010416,-1356.9997,-412.49576)" />
    <g
       style="fill:#33ff00;fill-opacity:1;stroke:#000000;stroke-width:3.46181;stroke-miterlimit:4;stroke-dasharray:none;stroke-opacity:1"
       inkscape:transform-center-y="0.032743566"
       inkscape:transform-center-x="14.068322"
       transform="matrix(1.3073782,0,0,1.3073782,-101.66231,278.82104)"
       id="g4551-2-5" />
    <g
       style="fill:#33ff00;fill-opacity:1;stroke:#000000;stroke-width:3.46181;stroke-miterlimit:4;stroke-dasharray:none;stroke-opacity:1"
       id="g4590-0-3"
       transform="matrix(0.65368911,-1.1322227,1.1322227,0.65368911,-144.38012,577.45052)"
       inkscape:transform-center-x="10.357629"
       inkscape:transform-center-y="14.157977" />
    <g
       style="fill:#33ff00;fill-opacity:1;stroke:#000000;stroke-width:3.46181;stroke-miterlimit:4;stroke-dasharray:none;stroke-opacity:1"
       inkscape:transform-center-y="14.125234"
       inkscape:transform-center-x="-10.414336"
       transform="matrix(-0.65368906,-1.1322227,1.1322227,-0.65368906,92.881686,763.75999)"
       id="g4594-8-5" />
    <g
       style="fill:#33ff00;fill-opacity:1;stroke:#000000;stroke-width:3.46181;stroke-miterlimit:4;stroke-dasharray:none;stroke-opacity:1"
       id="g4598-8-6"
       transform="matrix(-1.3073782,0,0,-1.3073782,372.86136,651.43996)"
       inkscape:transform-center-x="-14.068321"
       inkscape:transform-center-y="-0.032743373" />
    <g
       style="fill:#33ff00;fill-opacity:1;stroke:#000000;stroke-width:3.46181;stroke-miterlimit:4;stroke-dasharray:none;stroke-opacity:1"
       inkscape:transform-center-y="-14.157979"
       inkscape:transform-center-x="-10.35763"
       transform="matrix(-0.65368911,1.1322227,-1.1322227,-0.65368911,415.57918,352.81046)"
       id="g4602-9-2" />
    <path
       sodipodi:nodetypes="ccccccccccccc"
       inkscape:connector-curvature="0"
       id="path1510"
       d="m 124.01463,385.87701 -5.28897,-25.49978 -15.48712,-5.03865 -5.443779,-25.48232 12.319359,-11.08727 -4.83666,-23.31334 -91.168025,82.08806 22.680056,7.24707 12.314236,-11.09292 24.773712,8.07758 3.392202,15.92897 24.807219,7.92545 z"
       style="fill:#33ff00;fill-opacity:1;stroke:#4d4d4d;stroke-width:4.5259;stroke-miterlimit:4;stroke-dasharray:none;stroke-opacity:1" />
    <path
       sodipodi:nodetypes="ccccccccccccc"
       inkscape:connector-curvature="0"
       id="path1506"
       d="m 238.82244,329.58043 -17.77161,15.84534 -15.76153,-5.12525 -19.34647,17.45561 3.37999,15.93158 -19.43898,17.33026 -28.07537,-9.12222 -5.53996,-25.44644 12.0988,-10.9022 -5.39147,-25.49345 -15.76388,-5.11799 -5.06388,-23.26504 z"
       style="fill:#33ff00;fill-opacity:1;stroke:#4d4d4d;stroke-width:4.5259;stroke-miterlimit:4;stroke-dasharray:none;stroke-opacity:1" />
    <path
       sodipodi:nodetypes="ccccccccccccc"
       inkscape:connector-curvature="0"
       id="path1502"
       d="m 276.04203,462.29617 -22.60828,-7.46801 -3.44218,-16.21251 -24.79023,-8.02672 -12.10715,10.89293 -24.72794,-8.1695 -6.13759,-28.87508 19.26726,-17.52098 15.49099,5.02677 19.38225,-17.41587 -3.44964,-16.21091 17.61618,-16.01797 z"
       style="fill:#33ff00;fill-opacity:1;stroke:#4d4d4d;stroke-width:4.5259;stroke-miterlimit:4;stroke-dasharray:none;stroke-opacity:1" />
    <path
       sodipodi:nodetypes="ccccccccccccc"
       inkscape:connector-curvature="0"
       id="path1500"
       d="m 270.88461,478.79909 -22.68005,-7.24707 -12.31425,11.09293 -24.77371,-8.07758 -3.39219,-15.92898 -24.80724,-7.92544 -21.93777,19.75286 5.28897,25.49977 15.48713,5.03864 5.44377,25.48233 -12.31934,11.08727 4.83666,23.31335 z"
       style="fill:#33ff00;fill-opacity:1;stroke:#4d4d4d;stroke-width:4.5259;stroke-miterlimit:4;stroke-dasharray:none;stroke-opacity:1" />
    <path
       sodipodi:nodetypes="ccccccccccccc"
       inkscape:connector-curvature="0"
       id="path1496"
       d="m 162.84596,564.67219 -5.06387,-23.26505 -15.76388,-5.11798 -5.39146,-25.49345 12.09879,-10.9022 -5.53997,-25.44643 -28.07537,-9.12223 -19.43897,17.33027 3.379982,15.93157 -19.346463,17.45561 -15.761539,-5.12524 -17.771584,15.84533 z"
       style="fill:#33ff00;fill-opacity:1;stroke:#4d4d4d;stroke-width:4.5259;stroke-miterlimit:4;stroke-dasharray:none;stroke-opacity:1" />
    <path
       sodipodi:nodetypes="ccccccccccccc"
       inkscape:connector-curvature="0"
       id="path1492"
       d="m 34.458346,514.04453 17.616177,-16.01797 -3.44964,-16.21091 19.382252,-17.41587 15.490983,5.02675 19.267252,-17.52095 -6.137592,-28.87511 -24.72793,-8.1695 -12.107159,10.89292 -24.790239,-8.02673 -3.442175,-16.21249 -22.6082649,-7.468 z"
       style="fill:#33ff00;fill-opacity:1;stroke:#4d4d4d;stroke-width:4.5259;stroke-miterlimit:4;stroke-dasharray:none;stroke-opacity:1" />
  </g>
</svg>
